<svg width="842" height="508" viewBox="0 0 842 508" fill="none" xmlns="http://www.w3.org/2000/svg">
<mask id="mask0_82_833" style="mask-type:luminance" maskUnits="userSpaceOnUse" x="0" y="0" width="842" height="508">
<rect width="842" height="507.71" fill="white"/>
</mask>
<g mask="url(#mask0_82_833)">
<path d="M531.183 285.59C531.183 285.59 531.183 284.829 531.08 283.338C530.978 281.847 531.08 279.61 530.788 276.701C530.229 268.21 528.898 259.789 526.811 251.54C525.303 245.57 523.393 239.709 521.095 233.996C518.397 227.21 515.145 220.658 511.373 214.405C502.198 199.092 490.191 185.665 475.993 174.844C458.756 161.723 438.689 152.817 417.396 148.835C399.35 145.502 380.827 145.721 362.864 149.479C356.552 150.837 350.335 152.605 344.253 154.771C318.376 164.205 295.87 181.089 279.575 203.294C275.32 209.074 271.526 215.18 268.23 221.555C266.519 224.742 265.057 228.06 263.551 231.394C262.045 234.727 260.832 238.163 259.721 241.628C257.369 248.644 255.599 255.842 254.428 263.148C252.002 277.976 252.002 293.1 254.428 307.929C255.606 315.234 257.376 322.431 259.721 329.449C260.832 332.958 262.221 336.35 263.566 339.683C264.911 343.016 266.49 346.335 268.23 349.522C271.53 355.895 275.323 362.001 279.575 367.782C295.865 390.01 318.37 406.919 344.253 416.379C350.333 418.556 356.55 420.329 362.864 421.686C380.827 425.446 399.351 425.66 417.396 422.315C438.693 418.34 458.765 409.438 476.007 396.32C490.19 385.493 502.19 372.073 511.373 356.774C515.132 350.508 518.374 343.947 521.066 337.154C526.562 323.54 529.835 309.131 530.759 294.478C531.022 291.554 530.963 289.347 531.051 287.856C531.139 286.364 531.153 285.59 531.153 285.59C531.153 285.59 531.153 286.364 531.153 287.856C531.153 289.347 531.153 291.584 530.934 294.493C530.096 309.176 526.887 323.627 521.431 337.285C518.751 344.106 515.519 350.698 511.767 356.993C502.569 372.383 490.528 385.883 476.285 396.774C460.275 408.913 441.849 417.481 422.249 421.899C402.649 426.317 382.329 426.484 362.659 422.388C356.315 421.031 350.068 419.253 343.961 417.066C317.934 407.611 295.298 390.648 278.917 368.323C274.634 362.515 270.821 356.375 267.513 349.961C265.788 346.759 264.311 343.411 262.806 340.078C261.3 336.744 260.057 333.265 258.946 329.742C256.585 322.681 254.805 315.44 253.624 308.09C251.188 293.179 251.188 277.971 253.624 263.06C254.812 255.715 256.596 248.478 258.961 241.423C260.072 237.9 261.475 234.493 262.82 231.087C264.165 227.68 265.744 224.405 267.513 221.204C270.833 214.825 274.646 208.715 278.917 202.929C295.308 180.614 317.941 163.653 343.961 154.186C350.088 151.991 356.354 150.204 362.718 148.835C380.77 145.068 399.385 144.87 417.513 148.25C438.874 152.269 459.001 161.226 476.285 174.405C490.515 185.293 502.537 198.794 511.709 214.186C515.468 220.48 518.705 227.071 521.387 233.894C526.845 247.556 530.054 262.012 530.89 276.701C531.139 279.625 531.051 281.832 531.11 283.338C531.168 284.844 531.183 285.59 531.183 285.59Z" fill="#263238"/>
<path d="M210.656 448.397C210.51 448.25 226.811 431.525 247.075 411.072C267.338 390.619 283.887 374.128 284.034 374.274C284.18 374.42 267.879 391.131 247.616 411.598C227.352 432.066 210.803 448.543 210.656 448.397Z" fill="#263238"/>
<path d="M222.031 477.738C246.811 477.738 266.899 457.65 266.899 432.87C266.899 408.09 246.811 388.002 222.031 388.002C197.251 388.002 177.162 408.09 177.162 432.87C177.162 457.65 197.251 477.738 222.031 477.738Z" fill="#1856F3"/>
<path d="M266.899 432.87C266.862 432.628 266.838 432.384 266.826 432.139C266.826 431.627 266.738 430.926 266.68 430.005C266.68 429.537 266.68 429.01 266.578 428.44C266.475 427.87 266.402 427.241 266.3 426.569C266.096 425.008 265.779 423.464 265.349 421.949C264.306 417.757 262.63 413.749 260.379 410.063C257.433 405.162 253.577 400.87 249.019 397.417C243.502 393.221 237.077 390.377 230.262 389.113C228.403 388.766 226.522 388.546 224.633 388.455C223.668 388.455 222.703 388.338 221.709 388.353L218.785 388.499C218.303 388.499 217.806 388.499 217.323 388.601L215.861 388.835C214.867 388.996 213.858 389.113 212.937 389.317C210.923 389.767 208.94 390.348 207.002 391.057C204.995 391.774 203.041 392.629 201.154 393.616C200.218 394.127 199.326 394.712 198.39 395.268C197.449 395.819 196.55 396.44 195.7 397.124C193.929 398.443 192.244 399.873 190.657 401.408C189.078 403.026 187.613 404.751 186.271 406.569C183.508 410.285 181.36 414.422 179.911 418.82C176.851 427.927 176.851 437.784 179.911 446.89C181.354 451.296 183.502 455.438 186.271 459.157C188.86 462.803 192.037 465.995 195.671 468.601C196.521 469.286 197.42 469.906 198.361 470.458C199.282 471.013 200.189 471.598 201.124 472.11C203.012 473.097 204.966 473.952 206.972 474.668C208.911 475.377 210.893 475.959 212.908 476.408C213.917 476.613 214.926 476.73 215.832 476.905L217.294 477.124C217.791 477.197 218.288 477.197 218.756 477.227L221.68 477.373C222.659 477.373 223.624 477.3 224.604 477.271C226.493 477.179 228.373 476.959 230.233 476.613C236.447 475.446 242.345 472.975 247.536 469.364C252.727 465.753 257.094 461.083 260.349 455.662C262.601 451.976 264.277 447.968 265.32 443.776C265.75 442.262 266.067 440.718 266.271 439.157C266.373 438.484 266.49 437.855 266.548 437.285C266.607 436.715 266.621 436.189 266.651 435.721C266.651 434.814 266.753 434.098 266.797 433.586C266.808 433.346 266.832 433.107 266.87 432.87C266.87 432.87 266.87 433.104 266.87 433.586L266.797 435.721C266.797 436.203 266.797 436.73 266.797 437.3C266.797 437.87 266.636 438.513 266.548 439.186C266.372 440.76 266.079 442.319 265.671 443.85C264.66 448.086 263.008 452.143 260.773 455.882C257.512 461.389 253.119 466.14 247.885 469.823C242.65 473.505 236.693 476.033 230.408 477.241C228.52 477.593 226.61 477.818 224.692 477.914C223.727 477.914 222.747 478.045 221.768 478.045L218.844 477.899C218.347 477.899 217.835 477.899 217.382 477.797L215.92 477.578C214.911 477.402 213.887 477.285 212.879 477.08C210.83 476.628 208.813 476.042 206.841 475.326C204.833 474.602 202.879 473.737 200.993 472.738C200.042 472.227 199.121 471.627 198.171 471.072C197.223 470.505 196.315 469.875 195.452 469.186C193.645 467.834 191.926 466.369 190.306 464.8C188.728 463.15 187.263 461.397 185.92 459.551C182.988 455.796 180.696 451.582 179.136 447.081C176.017 437.818 176.017 427.79 179.136 418.528C180.601 414.05 182.788 409.843 185.613 406.072C186.956 404.226 188.421 402.473 189.999 400.823C191.619 399.254 193.338 397.789 195.145 396.437C196.01 395.744 196.924 395.114 197.879 394.551C198.814 393.996 199.735 393.396 200.686 392.885C202.572 391.886 204.526 391.021 206.534 390.297C208.506 389.581 210.523 388.995 212.572 388.543C213.58 388.338 214.604 388.221 215.613 388.06L217.075 387.826C217.572 387.826 218.083 387.826 218.537 387.738L221.461 387.592C222.44 387.592 223.434 387.665 224.385 387.709C226.303 387.806 228.213 388.03 230.101 388.382C236.386 389.59 242.343 392.118 247.578 395.8C252.812 399.483 257.205 404.234 260.466 409.741C262.701 413.48 264.352 417.537 265.364 421.774C265.772 423.304 266.065 424.863 266.241 426.437C266.329 427.124 266.446 427.738 266.49 428.323C266.534 428.908 266.49 429.42 266.49 429.902C266.49 430.809 266.49 431.525 266.563 432.037C266.636 432.548 266.899 432.87 266.899 432.87Z" fill="#263238"/>
<path d="M517.835 226.013C517.732 225.838 530.993 217.856 547.425 208.192C563.858 198.528 577.294 190.853 577.396 191.028C577.498 191.204 564.238 199.186 547.805 208.85C531.373 218.513 517.952 226.189 517.835 226.013Z" fill="#263238"/>
<path d="M586.343 227.885C611.123 227.885 631.212 207.797 631.212 183.017C631.212 158.236 611.123 138.148 586.343 138.148C561.563 138.148 541.475 158.236 541.475 183.017C541.475 207.797 561.563 227.885 586.343 227.885Z" fill="#1856F3"/>
<path d="M541.475 183.016C541.475 183.016 541.475 182.768 541.475 182.285C541.475 181.803 541.475 181.072 541.548 180.151C541.548 179.683 541.548 179.157 541.548 178.572C541.548 177.987 541.709 177.373 541.797 176.686C541.973 175.112 542.266 173.553 542.674 172.022C543.683 167.79 545.335 163.737 547.571 160.005C550.828 154.477 555.226 149.709 560.472 146.018C565.719 142.327 571.693 139.798 577.995 138.601C579.882 138.237 581.793 138.008 583.712 137.914C584.677 137.914 585.671 137.782 586.636 137.797L589.633 137.943C590.13 137.943 590.642 137.943 591.095 138.031L592.557 138.265C593.566 138.426 594.589 138.543 595.598 138.747C597.645 139.206 599.661 139.792 601.636 140.502C603.638 141.238 605.592 142.103 607.484 143.089C608.434 143.601 609.355 144.201 610.291 144.771C611.249 145.323 612.163 145.949 613.025 146.642C616.726 149.286 619.962 152.527 622.601 156.233C625.419 160.007 627.606 164.214 629.077 168.689C632.196 177.951 632.196 187.979 629.077 197.241C627.61 201.722 625.422 205.934 622.601 209.712C621.253 211.55 619.788 213.298 618.215 214.946C616.601 216.523 614.881 217.988 613.068 219.332C612.209 220.022 611.3 220.647 610.349 221.203C609.399 221.759 608.478 222.373 607.528 222.885C605.636 223.871 603.682 224.736 601.68 225.472C599.705 226.182 597.689 226.768 595.642 227.227C594.633 227.431 593.609 227.548 592.601 227.709L591.139 227.943C590.642 227.943 590.13 227.943 589.677 228.031L586.68 228.177C585.685 228.177 584.706 228.089 583.756 228.06C581.836 227.966 579.926 227.737 578.039 227.373C571.751 226.173 565.791 223.648 560.555 219.965C555.319 216.282 550.928 211.526 547.674 206.013C545.437 202.281 543.786 198.228 542.776 193.996C542.369 192.465 542.075 190.906 541.899 189.332C541.811 188.645 541.694 188.016 541.65 187.446C541.607 186.876 541.65 186.335 541.65 185.867L541.577 183.733C541.577 183.25 541.577 183.002 541.577 183.002C541.614 183.244 541.638 183.488 541.65 183.733C541.65 184.244 541.738 184.946 541.797 185.853C541.797 186.32 541.797 186.847 541.899 187.417C542.001 187.987 542.074 188.616 542.177 189.288C542.38 190.854 542.697 192.403 543.127 193.923C544.174 198.109 545.85 202.111 548.098 205.794C551.355 211.215 555.723 215.885 560.913 219.498C566.104 223.112 572 225.586 578.215 226.759C580.073 227.108 581.954 227.323 583.843 227.402C584.808 227.402 585.773 227.534 586.767 227.519L589.691 227.358C590.188 227.358 590.685 227.358 591.153 227.271L592.615 227.037C593.609 226.876 594.604 226.759 595.539 226.554C597.554 226.1 599.537 225.514 601.475 224.8C603.481 224.088 605.435 223.238 607.323 222.256C608.259 221.744 609.165 221.145 610.086 220.589C611.024 220.038 611.923 219.422 612.776 218.747C614.554 217.432 616.239 215.996 617.82 214.449C619.398 212.831 620.863 211.107 622.206 209.288C624.974 205.575 627.122 201.438 628.566 197.037C631.625 187.93 631.625 178.073 628.566 168.967C627.116 164.564 624.969 160.422 622.206 156.701C620.86 154.89 619.394 153.171 617.82 151.554C616.236 150.011 614.551 148.575 612.776 147.256C611.919 146.581 611.021 145.961 610.086 145.399C609.15 144.858 608.259 144.259 607.323 143.747C605.435 142.765 603.481 141.915 601.475 141.203C599.537 140.49 597.554 139.904 595.539 139.449C594.545 139.244 593.536 139.127 592.615 138.967L591.153 138.733C590.656 138.733 590.159 138.733 589.691 138.645L586.767 138.484C585.788 138.484 584.823 138.484 583.843 138.601C581.954 138.68 580.073 138.895 578.215 139.244C572.003 140.419 566.109 142.893 560.919 146.503C555.729 150.113 551.36 154.779 548.098 160.195C545.849 163.882 544.173 167.89 543.127 172.081C542.697 173.6 542.38 175.149 542.177 176.715C542.089 177.388 541.957 178.002 541.899 178.586L541.797 180.151C541.797 181.057 541.694 181.759 541.65 182.271C541.605 182.522 541.547 182.771 541.475 183.016Z" fill="#263238"/>
<path d="M572.674 452.373C572.513 452.519 555.612 435.677 534.896 414.756C514.18 393.835 497.513 376.745 497.659 376.598C497.805 376.452 514.721 393.294 535.437 414.215C556.153 435.136 572.776 452.227 572.674 452.373Z" fill="#263238"/>
<path d="M578.273 169.932C579.446 169.219 580.71 168.669 582.03 168.294L582.805 164.566L589.107 164.464L590.013 168.148C591.342 168.471 592.624 168.962 593.829 169.61L597.016 167.534L601.548 171.92L599.574 175.151C600.281 176.332 600.831 177.6 601.212 178.923L604.94 179.698L605.042 185.984L601.343 186.891C601.03 188.227 600.538 189.516 599.881 190.721L601.957 193.894L597.571 198.426L594.326 196.452C593.151 197.171 591.881 197.722 590.554 198.09L589.779 201.818L583.478 201.935L582.571 198.236C581.241 197.919 579.957 197.428 578.756 196.774L575.583 198.864L571.051 194.478L573.025 191.218C572.307 190.048 571.755 188.784 571.387 187.461L567.659 186.671L567.542 180.385L571.241 179.478C571.558 178.148 572.049 176.864 572.703 175.663L570.612 172.476L574.998 167.943L578.259 169.917L578.273 169.932ZM581.621 178.324C580.696 179.286 580.076 180.501 579.841 181.815C579.605 183.13 579.765 184.484 580.299 185.708C580.833 186.932 581.718 187.97 582.842 188.691C583.966 189.412 585.278 189.783 586.613 189.759C587.948 189.734 589.246 189.315 590.343 188.553C591.439 187.791 592.286 186.722 592.775 185.479C593.264 184.237 593.373 182.877 593.09 181.572C592.807 180.267 592.143 179.076 591.183 178.148C590.544 177.531 589.789 177.046 588.963 176.72C588.136 176.395 587.254 176.236 586.365 176.252C585.477 176.269 584.601 176.46 583.787 176.815C582.973 177.171 582.237 177.683 581.621 178.324Z" fill="white"/>
<path d="M581.621 178.323C581.985 177.889 582.414 177.515 582.893 177.212C583.995 176.5 585.28 176.121 586.592 176.121C587.904 176.121 589.189 176.5 590.291 177.212C591.325 177.884 592.159 178.824 592.703 179.931C593.01 180.528 593.222 181.17 593.332 181.832C593.442 182.52 593.442 183.22 593.332 183.908C593.134 185.365 592.473 186.721 591.447 187.774C590.42 188.827 589.082 189.522 587.63 189.756C586.942 189.865 586.242 189.865 585.554 189.756C584.891 189.671 584.244 189.484 583.639 189.2C582.581 188.73 581.661 187.999 580.963 187.076C580.265 186.153 579.812 185.068 579.648 183.923C579.438 182.402 579.752 180.855 580.539 179.537C580.816 179.052 581.172 178.617 581.592 178.25C581.592 178.25 581.197 178.689 580.671 179.61C579.931 180.944 579.668 182.492 579.925 183.996C580.084 185.009 580.48 185.971 581.08 186.803C581.77 187.762 582.704 188.52 583.785 188.996C584.359 189.258 584.971 189.431 585.598 189.507C586.252 189.609 586.918 189.609 587.571 189.507C588.946 189.271 590.209 188.601 591.177 187.597C592.145 186.592 592.766 185.305 592.952 183.923C593.054 183.269 593.054 182.603 592.952 181.949C592.853 181.324 592.661 180.718 592.381 180.151C591.865 179.093 591.078 178.19 590.101 177.534C589.241 176.971 588.268 176.606 587.25 176.466C585.756 176.28 584.243 176.599 582.952 177.373C582.06 177.899 581.665 178.352 581.621 178.323Z" fill="white"/>
<path d="M578.273 169.932L578.068 169.815L577.44 169.464L574.984 168.002H575.057L570.671 172.563V172.432L572.761 175.604C572.103 176.799 571.611 178.078 571.299 179.406H571.314L567.615 180.327L567.732 180.195C567.732 182.169 567.805 184.274 567.849 186.482L567.732 186.335L571.46 187.11H571.548V187.213C571.927 188.515 572.472 189.763 573.171 190.926V191.014V191.102L571.212 194.362V194.142L575.744 198.528H575.525L578.697 196.452L578.799 196.379H578.887C580.077 197.036 581.351 197.528 582.674 197.841H582.776V197.958C583.054 199.113 583.375 200.371 583.682 201.657L583.492 201.511L589.794 201.394L589.604 201.54C589.852 200.371 590.115 199.099 590.378 197.827V197.71H590.495C591.798 197.33 593.046 196.785 594.209 196.087H594.311H594.413L597.659 198.061H597.425L601.811 193.528V193.777L599.735 190.59L599.662 190.487V190.385C600.316 189.199 600.808 187.93 601.124 186.613V186.511H601.226L604.925 185.604L604.794 185.794C604.794 183.645 604.72 181.54 604.691 179.493L604.823 179.669L601.095 178.879H600.992V178.777C600.629 177.467 600.088 176.212 599.384 175.049V174.961V174.873C600.067 173.762 600.724 172.68 601.358 171.628V171.833L596.84 167.447H597.03L593.843 169.523H593.77C592.58 168.866 591.306 168.374 589.984 168.061C589.647 166.716 589.355 165.502 589.092 164.347L589.194 164.435L582.908 164.523H582.981C582.659 165.985 582.411 167.227 582.191 168.251C581.181 168.521 580.202 168.893 579.267 169.362L578.58 169.713L578.361 169.83L578.566 169.683L579.238 169.303C580.169 168.811 581.149 168.419 582.162 168.134L582.922 164.406V164.333L589.223 164.201H589.311V164.289C589.589 165.429 589.896 166.642 590.232 167.973L590.13 167.885C591.476 168.198 592.774 168.69 593.99 169.347H593.843L597.016 167.256H597.118L597.206 167.33L601.753 171.716L601.84 171.803L601.767 171.906C601.139 172.973 600.481 174.055 599.808 175.166V175.151C600.529 176.343 601.085 177.626 601.46 178.967L601.329 178.835L604.94 179.537H605.086V179.683C605.086 181.73 605.159 183.821 605.203 185.97V186.116H605.057L601.373 187.023L601.504 186.891C601.194 188.238 600.702 189.536 600.042 190.751V190.561L602.118 193.733L602.206 193.865L602.016 194.157C600.554 195.619 599.092 197.154 597.63 198.675L597.513 198.792L597.381 198.718L594.136 196.745H594.326C593.135 197.457 591.858 198.012 590.525 198.397L590.656 198.251L589.881 201.979V202.125H589.72L583.434 202.242H583.273V202.096C582.951 200.824 582.644 199.552 582.367 198.397L582.498 198.528C581.152 198.218 579.853 197.726 578.639 197.066H578.829L575.7 199.011L575.583 199.084L575.481 198.996L570.949 194.61L570.861 194.508V194.391L572.835 191.145V191.321C572.114 190.129 571.558 188.846 571.183 187.505L571.299 187.622L567.586 186.847H567.454V186.73C567.454 184.523 567.454 182.344 567.367 180.429V180.312H567.469L571.168 179.406L571.08 179.508C571.396 178.167 571.888 176.875 572.542 175.663V175.78L570.481 172.593V172.52L574.867 168.017L577.25 169.479L577.878 169.873L578.273 169.932Z" fill="white"/>
<path d="M560.612 482.753C585.393 482.753 605.481 462.665 605.481 437.885C605.481 413.105 585.393 393.016 560.612 393.016C535.832 393.016 515.744 413.105 515.744 437.885C515.744 462.665 535.832 482.753 560.612 482.753Z" fill="#1856F3"/>
<path d="M515.759 437.885C515.759 437.885 515.759 437.636 515.759 437.154C515.759 436.671 515.759 435.926 515.832 435.019C515.832 434.551 515.832 434.025 515.832 433.44C515.832 432.856 515.992 432.242 516.08 431.554C516.264 429.981 516.557 428.423 516.957 426.891C517.968 422.652 519.625 418.594 521.87 414.858C525.133 409.339 529.536 404.579 534.785 400.896C540.034 397.213 546.008 394.691 552.308 393.499C554.191 393.146 556.096 392.922 558.01 392.826C558.99 392.826 559.969 392.695 560.934 392.709L563.858 392.856C564.355 392.856 564.867 392.856 565.32 392.943L566.782 393.177C567.776 393.338 568.799 393.455 569.823 393.66C571.867 394.112 573.879 394.698 575.846 395.414C577.852 396.142 579.806 397.007 581.694 398.002C582.644 398.513 583.566 399.113 584.516 399.683C585.472 400.239 586.385 400.865 587.25 401.554C589.055 402.902 590.769 404.367 592.381 405.94C593.963 407.581 595.428 409.33 596.767 411.174C599.589 414.947 601.776 419.154 603.244 423.63C606.353 432.894 606.353 442.919 603.244 452.183C601.852 456.633 599.76 460.833 597.045 464.625C594.402 468.33 591.166 471.575 587.469 474.23C586.601 474.915 585.688 475.54 584.735 476.101C583.785 476.657 582.864 477.256 581.913 477.782C580.025 478.773 578.071 479.633 576.066 480.356C574.101 481.078 572.088 481.664 570.042 482.11C569.019 482.329 567.995 482.446 566.987 482.607L565.525 482.826C565.028 482.899 564.516 482.899 564.063 482.929L561.066 483.075C560.086 483.075 559.106 482.987 558.142 482.958C556.223 482.857 554.313 482.627 552.425 482.271C546.14 481.063 540.183 478.534 534.949 474.852C529.714 471.17 525.321 466.418 522.06 460.911C519.825 457.173 518.174 453.115 517.162 448.879C516.759 447.347 516.466 445.789 516.285 444.215C516.197 443.543 516.095 442.914 516.036 442.329C515.978 441.744 516.036 441.233 516.036 440.765L515.963 438.63C515.963 438.148 515.963 437.899 515.963 437.899C516 438.137 516.024 438.376 516.036 438.616C516.036 439.127 516.124 439.844 516.183 440.75L516.285 442.315C516.285 442.885 516.475 443.513 516.577 444.186C516.781 445.746 517.093 447.29 517.513 448.806C518.563 452.995 520.239 457.002 522.484 460.692C525.741 466.113 530.109 470.783 535.299 474.396C540.49 478.009 546.386 480.484 552.601 481.657C554.465 481.998 556.35 482.213 558.244 482.3C559.194 482.3 560.159 482.432 561.168 482.417L564.092 482.256C564.589 482.256 565.086 482.256 565.554 482.168L567.016 481.934C568.01 481.774 569.019 481.657 570.013 481.452C572.028 481 574.011 480.413 575.949 479.698C577.954 478.986 579.908 478.136 581.797 477.154C582.732 476.642 583.639 476.043 584.56 475.487C585.5 474.939 586.399 474.323 587.25 473.645C590.88 471.023 594.06 467.829 596.665 464.186C599.428 460.47 601.575 456.333 603.025 451.934C606.075 442.821 606.075 432.963 603.025 423.85C601.578 419.45 599.431 415.313 596.665 411.598C595.319 409.782 593.854 408.058 592.279 406.437C590.695 404.899 589.01 403.468 587.235 402.154C586.388 401.466 585.489 400.845 584.545 400.297C583.624 399.742 582.718 399.157 581.782 398.645C579.891 397.664 577.938 396.81 575.934 396.087C573.994 395.382 572.012 394.801 569.998 394.347C569.004 394.142 567.995 394.025 567.001 393.864L565.539 393.63C565.042 393.63 564.545 393.63 564.077 393.528L561.153 393.382C560.188 393.382 559.209 393.455 558.229 393.499C556.335 393.578 554.449 393.793 552.586 394.142C546.372 395.307 540.476 397.776 535.287 401.387C530.098 404.999 525.734 409.67 522.484 415.092C520.231 418.78 518.55 422.787 517.498 426.978C517.081 428.495 516.769 430.039 516.563 431.598C516.46 432.285 516.329 432.899 516.27 433.47C516.212 434.04 516.27 434.566 516.168 435.049C516.168 435.955 516.066 436.657 516.022 437.168C515.947 437.412 515.859 437.651 515.759 437.885Z" fill="#263238"/>
<path d="M563.726 439.844C565.216 439.185 566.48 438.105 567.361 436.735C568.242 435.365 568.701 433.767 568.683 432.139C568.748 431.074 568.594 430.006 568.231 429.002C567.869 427.998 567.304 427.079 566.573 426.302C565.841 425.524 564.959 424.905 563.979 424.481C562.999 424.058 561.943 423.839 560.876 423.839C559.808 423.839 558.752 424.058 557.772 424.481C556.792 424.905 555.91 425.524 555.178 426.302C554.447 427.079 553.883 427.998 553.52 429.002C553.157 430.006 553.003 431.074 553.069 432.139C553.036 433.783 553.492 435.4 554.38 436.785C555.267 438.17 556.546 439.26 558.054 439.917C546.036 441.73 546.577 454.785 546.577 454.785L574.984 454.917C574.984 454.917 575.7 441.642 563.726 439.844Z" fill="white"/>
<path d="M581.343 430.999C582.278 430.59 583.071 429.913 583.622 429.055C584.174 428.197 584.459 427.194 584.443 426.174C584.479 425.509 584.38 424.844 584.15 424.219C583.921 423.594 583.567 423.023 583.109 422.539C582.651 422.056 582.1 421.671 581.488 421.408C580.877 421.145 580.218 421.009 579.552 421.009C578.887 421.009 578.228 421.145 577.616 421.408C577.005 421.671 576.454 422.056 575.996 422.539C575.538 423.023 575.184 423.594 574.955 424.219C574.725 424.844 574.626 425.509 574.662 426.174C574.643 427.204 574.93 428.217 575.487 429.083C576.044 429.95 576.846 430.632 577.791 431.043C570.261 432.183 570.598 440.355 570.598 440.355L588.39 440.429C588.39 440.429 588.858 432.11 581.343 430.999Z" fill="white"/>
<path d="M543.536 430.999C544.471 430.59 545.264 429.913 545.815 429.055C546.367 428.197 546.652 427.194 546.636 426.174C546.688 425.501 546.6 424.825 546.379 424.187C546.157 423.55 545.806 422.965 545.347 422.469C544.889 421.974 544.333 421.579 543.714 421.308C543.096 421.038 542.428 420.898 541.753 420.898C541.078 420.898 540.41 421.038 539.791 421.308C539.173 421.579 538.617 421.974 538.158 422.469C537.7 422.965 537.349 423.55 537.127 424.187C536.905 424.825 536.818 425.501 536.87 426.174C536.848 427.203 537.132 428.215 537.686 429.082C538.241 429.949 539.041 430.631 539.984 431.043C532.455 432.183 532.791 440.356 532.791 440.356L550.583 440.429C550.583 440.429 551.022 432.11 543.536 430.999Z" fill="white"/>
<path d="M276.446 207.037C276.314 207.212 262.703 197.475 246.037 185.312C229.37 173.148 215.949 163.133 216.051 162.958C216.154 162.782 229.779 172.519 246.461 184.698C263.142 196.876 276.563 206.861 276.446 207.037Z" fill="#263238"/>
<path d="M213.493 435.37H203.142V447.241H213.493V435.37Z" fill="white"/>
<path d="M226.972 427.812H216.621V447.241H226.972V427.812Z" fill="white"/>
<path d="M240.934 418.484H230.583V447.256H240.934V418.484Z" fill="white"/>
<path d="M207.148 199.815C231.928 199.815 252.016 179.726 252.016 154.946C252.016 130.166 231.928 110.078 207.148 110.078C182.368 110.078 162.279 130.166 162.279 154.946C162.279 179.726 182.368 199.815 207.148 199.815Z" fill="#1856F3"/>
<path d="M252.002 154.946C251.965 154.704 251.94 154.46 251.928 154.215C251.928 153.704 251.841 153.002 251.782 152.095C251.782 151.628 251.782 151.101 251.68 150.531C251.578 149.961 251.504 149.332 251.402 148.66C251.199 147.094 250.881 145.545 250.452 144.025C249.403 139.836 247.727 135.828 245.481 132.139C242.219 126.724 237.85 122.058 232.66 118.448C227.47 114.837 221.576 112.364 215.364 111.189C213.506 110.84 211.625 110.625 209.735 110.546C208.771 110.546 207.806 110.414 206.812 110.429L203.888 110.59C203.39 110.59 202.893 110.59 202.426 110.677L200.964 110.911C199.969 111.072 198.975 111.189 198.04 111.394C196.025 111.848 194.042 112.434 192.104 113.148C190.098 113.86 188.144 114.71 186.256 115.692C185.32 116.204 184.428 116.803 183.493 117.344C182.558 117.906 181.659 118.526 180.803 119.201C179.028 120.52 177.343 121.956 175.759 123.499C174.185 125.115 172.719 126.835 171.373 128.645C168.61 132.367 166.463 136.508 165.013 140.911C161.953 150.018 161.953 159.875 165.013 168.981C166.457 173.382 168.604 177.52 171.373 181.233C172.715 183.051 174.181 184.776 175.759 186.394C177.339 187.941 179.025 189.377 180.803 190.692C181.659 191.367 182.558 191.987 183.493 192.549C184.428 193.09 185.32 193.689 186.256 194.201C188.144 195.183 190.098 196.033 192.104 196.745C194.042 197.458 196.025 198.045 198.04 198.499C199.048 198.704 200.057 198.821 200.964 198.981L202.426 199.215C202.923 199.215 203.42 199.215 203.888 199.303L206.812 199.464C207.791 199.464 208.756 199.464 209.735 199.347C211.625 199.268 213.506 199.053 215.364 198.704C221.579 197.531 227.475 195.056 232.665 191.443C237.856 187.83 242.223 183.16 245.481 177.739C247.729 174.056 249.405 170.053 250.452 165.867C250.881 164.348 251.199 162.799 251.402 161.233C251.504 160.56 251.621 159.946 251.68 159.362L251.782 157.797C251.782 156.891 251.885 156.189 251.928 155.677C251.94 155.433 251.965 155.189 252.002 154.946C252.002 154.946 252.002 155.195 252.002 155.677L251.928 157.812C251.928 158.28 251.928 158.806 251.928 159.391C251.928 159.976 251.768 160.59 251.68 161.277C251.503 162.851 251.21 164.41 250.803 165.94C249.793 170.173 248.142 174.226 245.905 177.958C242.651 183.47 238.259 188.226 233.024 191.909C227.788 195.592 221.828 198.118 215.54 199.318C213.653 199.681 211.742 199.911 209.823 200.005C208.858 200.005 207.879 200.136 206.899 200.122L203.975 199.976C203.478 199.976 202.966 199.976 202.513 199.888L201.051 199.654C200.043 199.493 199.019 199.376 198.01 199.171C195.963 198.712 193.947 198.127 191.972 197.417C189.97 196.68 188.016 195.816 186.124 194.829C185.174 194.318 184.253 193.718 183.303 193.148C182.25 192.591 181.243 191.95 180.291 191.233C178.481 189.885 176.762 188.42 175.145 186.847C173.571 185.199 172.106 183.451 170.759 181.613C167.937 177.835 165.75 173.623 164.282 169.142C161.164 159.88 161.164 149.852 164.282 140.59C165.751 136.142 167.928 131.961 170.73 128.207C172.077 126.369 173.542 124.621 175.116 122.973C176.733 121.399 178.452 119.934 180.262 118.587C181.124 117.894 182.038 117.268 182.996 116.715C183.931 116.145 184.852 115.546 185.803 115.034C187.695 114.047 189.648 113.183 191.651 112.446C193.625 111.737 195.642 111.151 197.689 110.692C198.697 110.487 199.721 110.37 200.73 110.21L202.192 109.976C202.689 109.976 203.2 109.976 203.654 109.888L206.578 109.742C207.557 109.742 208.551 109.829 209.502 109.859C211.421 109.953 213.331 110.182 215.218 110.546C221.506 111.746 227.466 114.271 232.702 117.954C237.938 121.637 242.329 126.393 245.583 131.905C247.82 135.638 249.472 139.691 250.481 143.923C250.889 145.454 251.182 147.013 251.358 148.587C251.446 149.274 251.563 149.902 251.607 150.473C251.651 151.043 251.607 151.584 251.607 152.052C251.607 152.973 251.607 153.674 251.68 154.186C251.753 154.698 252.002 154.946 252.002 154.946Z" fill="#263238"/>
<path d="M222.031 149.522C222.031 146.854 221.314 144.235 219.956 141.939C218.598 139.643 216.648 137.753 214.31 136.468C211.972 135.183 209.332 134.549 206.666 134.633C203.999 134.716 201.404 135.515 199.151 136.944C196.899 138.373 195.071 140.382 193.86 142.759C192.648 145.136 192.098 147.794 192.265 150.457C192.432 153.12 193.311 155.688 194.811 157.895C196.31 160.102 198.374 161.866 200.788 163.002V166.759H213.844C213.844 166.759 213.931 164.639 213.961 162.768C216.391 161.513 218.43 159.613 219.853 157.277C221.277 154.941 222.03 152.258 222.031 149.522Z" fill="white"/>
<path d="M209.121 166.686C209.128 166.628 209.128 166.569 209.121 166.51V165.97C209.121 165.502 209.253 164.8 209.385 163.908C209.516 163.016 209.692 161.92 209.984 160.677C210.298 159.253 210.748 157.863 211.329 156.525C211.676 155.747 212.087 154.999 212.557 154.288C212.818 153.906 213.17 153.595 213.581 153.382C213.806 153.263 214.057 153.201 214.312 153.201C214.566 153.201 214.817 153.263 215.043 153.382C215.262 153.516 215.428 153.723 215.51 153.967C215.598 154.217 215.598 154.491 215.51 154.742C215.259 155.199 214.848 155.548 214.355 155.721C213.335 156.063 212.222 155.989 211.256 155.516C210.755 155.262 210.311 154.91 209.949 154.481C209.587 154.051 209.316 153.553 209.151 153.016C208.961 152.466 208.93 151.873 209.063 151.306C209.134 151.002 209.308 150.732 209.557 150.543C209.805 150.353 210.111 150.256 210.423 150.268C210.583 150.287 210.735 150.346 210.868 150.437C211 150.529 211.108 150.651 211.183 150.794C211.321 151.08 211.362 151.404 211.3 151.715C211.112 152.301 210.743 152.813 210.247 153.177C209.774 153.581 209.221 153.881 208.623 154.054C208.026 154.228 207.398 154.273 206.782 154.186C206.156 154.095 205.562 153.851 205.052 153.476C204.542 153.102 204.132 152.607 203.858 152.037C203.716 151.761 203.633 151.458 203.615 151.149C203.598 150.839 203.646 150.529 203.756 150.239C203.809 150.089 203.894 149.952 204.005 149.839C204.116 149.725 204.251 149.637 204.399 149.581C204.544 149.516 204.701 149.482 204.86 149.482C205.019 149.482 205.175 149.516 205.32 149.581C205.595 149.728 205.815 149.958 205.949 150.239C206.082 150.508 206.162 150.801 206.183 151.101C206.224 151.677 206.144 152.254 205.949 152.797C205.599 153.868 204.85 154.763 203.858 155.297C202.914 155.802 201.819 155.952 200.774 155.721C200.26 155.641 199.788 155.394 199.428 155.019C199.25 154.822 199.143 154.57 199.127 154.304C199.112 154.038 199.187 153.775 199.341 153.557C199.516 153.368 199.756 153.253 200.013 153.236C200.259 153.218 200.506 153.264 200.73 153.367C201.133 153.603 201.451 153.962 201.636 154.391C202.016 155.209 202.309 155.984 202.616 156.744C203.814 159.668 204.648 162.212 205.218 163.923C205.496 164.785 205.715 165.458 205.847 165.911C205.847 166.13 205.964 166.306 206.007 166.423V166.613C206.002 166.554 206.002 166.496 206.007 166.437L205.832 165.926L205.159 163.952C204.575 162.241 203.697 159.785 202.513 156.788C202.206 156.043 201.899 155.253 201.519 154.464C201.352 154.06 201.053 153.725 200.671 153.513C200.477 153.366 200.233 153.302 199.992 153.335C199.75 153.368 199.532 153.495 199.385 153.689C199.237 153.883 199.173 154.127 199.206 154.368C199.239 154.61 199.366 154.828 199.56 154.975C199.9 155.318 200.34 155.544 200.817 155.619C201.81 155.824 202.843 155.68 203.741 155.209C204.697 154.692 205.419 153.829 205.759 152.797C205.933 152.275 206.008 151.724 205.978 151.174C205.973 150.899 205.899 150.629 205.764 150.39C205.628 150.15 205.436 149.947 205.203 149.8C205.083 149.749 204.954 149.723 204.823 149.723C204.693 149.723 204.563 149.749 204.443 149.8C204.314 149.848 204.198 149.924 204.102 150.023C204.006 150.122 203.933 150.24 203.888 150.37C203.789 150.637 203.747 150.923 203.764 151.207C203.782 151.491 203.859 151.769 203.99 152.022C204.247 152.561 204.632 153.029 205.111 153.386C205.59 153.743 206.148 153.977 206.738 154.069C207.328 154.148 207.928 154.104 208.5 153.937C209.071 153.771 209.602 153.487 210.057 153.104C210.536 152.735 210.884 152.223 211.051 151.642C211.106 151.375 211.07 151.097 210.949 150.853C210.886 150.735 210.796 150.634 210.687 150.558C210.578 150.482 210.452 150.433 210.32 150.414C210.054 150.403 209.793 150.491 209.589 150.663C209.38 150.83 209.231 151.061 209.165 151.32C209.041 151.859 209.071 152.421 209.253 152.943C209.403 153.444 209.651 153.91 209.984 154.314C210.317 154.717 210.727 155.05 211.19 155.292C211.653 155.535 212.16 155.682 212.681 155.726C213.202 155.769 213.727 155.708 214.224 155.546C214.68 155.388 215.061 155.064 215.291 154.639C215.392 154.438 215.411 154.207 215.346 153.992C215.281 153.777 215.135 153.595 214.94 153.484C214.742 153.388 214.524 153.339 214.304 153.339C214.084 153.339 213.867 153.388 213.668 153.484C213.279 153.686 212.948 153.983 212.703 154.347C212.23 155.045 211.819 155.784 211.475 156.554C210.891 157.877 210.435 159.253 210.116 160.663C209.823 161.905 209.633 163.002 209.487 163.894C209.341 164.785 209.253 165.472 209.18 165.94C209.18 166.174 209.18 166.35 209.18 166.481L209.121 166.686Z" fill="#1856F3"/>
<path d="M212.849 169.172H201.636C201.411 169.172 201.195 169.082 201.036 168.923C200.877 168.764 200.788 168.548 200.788 168.324C200.792 168.101 200.883 167.889 201.042 167.733C201.2 167.578 201.414 167.49 201.636 167.49H212.849C213.069 167.494 213.279 167.583 213.435 167.738C213.59 167.894 213.679 168.104 213.683 168.324C213.683 168.546 213.596 168.759 213.44 168.918C213.284 169.077 213.072 169.168 212.849 169.172Z" fill="white"/>
<path d="M212.849 169.902H201.636C201.525 169.902 201.414 169.924 201.312 169.967C201.209 170.01 201.115 170.072 201.036 170.151C200.958 170.23 200.895 170.323 200.853 170.426C200.81 170.529 200.788 170.639 200.788 170.75C200.788 170.861 200.81 170.971 200.853 171.073C200.896 171.175 200.958 171.267 201.037 171.345C201.116 171.422 201.21 171.484 201.313 171.525C201.415 171.566 201.525 171.586 201.636 171.584H202.893L204.531 174.698C204.622 174.871 204.759 175.015 204.926 175.116C205.094 175.216 205.286 175.269 205.481 175.268H209.487C209.686 175.269 209.881 175.214 210.052 175.111C210.222 175.008 210.36 174.86 210.452 174.683L212.031 171.584H212.879C213.1 171.584 213.312 171.496 213.468 171.34C213.624 171.183 213.712 170.971 213.712 170.75C213.712 170.638 213.69 170.526 213.646 170.423C213.603 170.319 213.539 170.225 213.459 170.146C213.378 170.067 213.283 170.005 213.178 169.963C213.074 169.921 212.962 169.901 212.849 169.902Z" fill="white"/>
<path d="M210.203 174.946C209.941 174.882 209.682 174.804 209.428 174.712C208.811 174.538 208.17 174.459 207.528 174.479C206.884 174.491 206.247 174.609 205.642 174.829C205.394 174.936 205.14 175.028 204.882 175.107C205.098 174.935 205.34 174.797 205.598 174.698C206.213 174.451 206.866 174.313 207.528 174.289C208.189 174.274 208.848 174.378 209.472 174.596C209.733 174.672 209.98 174.79 210.203 174.946Z" fill="#1856F3"/>
<path d="M212.031 171.628C212.031 171.628 209.999 171.715 207.513 171.715C205.028 171.715 202.981 171.715 202.981 171.628C202.981 171.54 204.999 171.54 207.513 171.54C210.028 171.54 212.031 171.569 212.031 171.628Z" fill="#1856F3"/>
<path d="M211.329 172.958C210.968 173.033 210.601 173.072 210.233 173.075C209.545 173.075 208.595 173.075 207.557 173.163C206.519 173.25 205.569 173.163 204.882 173.163C204.509 173.168 204.138 173.138 203.771 173.075C204.14 173.04 204.512 173.04 204.882 173.075H207.557H210.218C210.584 173.002 210.956 172.963 211.329 172.958Z" fill="#1856F3"/>
<path d="M488.127 122.417L490.145 110.911C490.145 110.911 487.615 96.2037 488.215 94.1861C488.814 92.1686 490.13 82.344 490.13 82.344L501.08 72.1101C501.784 72.1455 502.462 72.3897 503.027 72.8114C503.592 73.2332 504.019 73.8135 504.253 74.4785C504.253 74.4785 508.814 74.4785 509.545 77.6803C509.945 77.5093 510.381 77.4411 510.814 77.4819C511.246 77.5228 511.662 77.6714 512.023 77.9142C512.383 78.157 512.677 78.4862 512.878 78.8718C513.078 79.2575 513.179 79.6872 513.171 80.1218C513.284 81.0932 513.284 82.0744 513.171 83.0458C513.8 83.2505 517.469 84.5078 517.338 86.3791C516.964 89.2334 516.171 92.0168 514.984 94.6393C514.745 95.1045 514.394 95.503 513.962 95.799C513.531 96.095 513.033 96.2793 512.513 96.3352L510.934 101.321C510.934 101.321 509.18 109.581 506.943 113.309L505.32 115.487L503.858 126.774C498.303 126.877 492.838 125.363 488.127 122.417Z" fill="#BF8678"/>
<path d="M506.475 81.7008C506.198 79.001 505.377 76.3851 504.063 74.0107L500.042 76.0721C500.334 77.4087 500.735 78.7191 501.241 79.9903C501.437 80.7343 501.803 81.4226 502.311 82.001C502.818 82.5795 503.453 83.0322 504.165 83.3236C504.555 83.5083 504.999 83.5465 505.415 83.431C505.831 83.3156 506.192 83.0543 506.431 82.6949C506.519 82.3709 506.534 82.0313 506.475 81.7008Z" fill="#BF8678"/>
<path d="M500.042 76.072C500.022 76.3431 500.052 76.6156 500.13 76.8761C500.299 77.5861 500.514 78.2844 500.773 78.9667C500.919 79.4199 501.066 79.8877 501.241 80.4287C501.437 80.9851 501.719 81.5078 502.074 81.9784C502.458 82.5167 502.957 82.9615 503.536 83.2796C503.848 83.4643 504.195 83.5829 504.554 83.6282C504.914 83.6735 505.279 83.6444 505.627 83.5427C505.813 83.4825 505.986 83.3855 506.134 83.2575C506.282 83.1294 506.403 82.9728 506.49 82.7971C506.62 82.4574 506.66 82.0897 506.607 81.7299C506.566 81.0859 506.478 80.4457 506.343 79.8147C506.117 78.7542 505.794 77.7167 505.379 76.7152C505.028 75.8527 504.691 75.2532 504.457 74.7269C504.338 74.4879 504.202 74.2582 504.048 74.0398C504.114 74.2996 504.212 74.5502 504.341 74.7854C504.545 75.2532 504.852 75.9404 505.174 76.7883C505.542 77.7934 505.835 78.8245 506.051 79.8731C506.173 80.4912 506.256 81.1161 506.3 81.7445C506.343 82.0552 506.307 82.3718 506.197 82.6655C506.135 82.8047 506.042 82.9281 505.926 83.0267C505.809 83.1254 505.672 83.1968 505.525 83.2357C505.218 83.3254 504.896 83.3509 504.579 83.3107C504.262 83.2704 503.957 83.1653 503.683 83.0018C503.138 82.7072 502.665 82.2982 502.294 81.803C501.949 81.3593 501.673 80.8665 501.475 80.341C501.285 79.8439 501.139 79.3468 500.963 78.879C500.642 78.0164 500.379 77.3293 500.247 76.8322C500.115 76.3351 500.057 76.072 500.042 76.072Z" fill="#844E42"/>
<path d="M505.525 83.4114C505.513 83.484 505.513 83.558 505.525 83.6307C505.504 83.8446 505.504 84.06 505.525 84.2739C505.491 85.0788 505.63 85.8816 505.934 86.6277C506.368 87.7581 507.077 88.7628 507.996 89.5517C508.272 89.7925 508.595 89.9738 508.945 90.0845C509.294 90.1951 509.663 90.2327 510.028 90.195C510.428 90.1404 510.802 89.9614 511.095 89.6833C511.381 89.3793 511.556 88.9879 511.592 88.5722C511.617 87.8175 511.558 87.0624 511.417 86.3207C511.314 85.6043 511.197 84.8587 511.066 84.2739C510.788 82.9874 510.539 81.8324 510.335 80.8383C510.13 79.8441 509.984 79.0546 509.896 78.5137C509.863 78.2217 509.804 77.9331 509.721 77.6511C509.691 77.9428 509.691 78.2367 509.721 78.5283C509.721 79.0839 509.896 79.888 510.072 80.8821C510.247 81.8763 510.481 83.0459 510.729 84.3324C510.846 84.9757 510.963 85.6628 511.066 86.3646C511.2 87.0825 511.254 87.8131 511.227 88.5429C511.194 88.8864 511.051 89.2099 510.817 89.464C510.582 89.7014 510.272 89.8511 509.94 89.888C509.615 89.9224 509.286 89.8895 508.974 89.7914C508.662 89.6933 508.374 89.5321 508.127 89.3178C507.247 88.5759 506.552 87.64 506.095 86.5839C505.798 85.8635 505.629 85.0965 505.598 84.3178C505.591 84.0145 505.566 83.7119 505.525 83.4114Z" fill="#844E42"/>
<path d="M507.381 88.9959C507.334 89.0743 507.294 89.1576 507.264 89.2444C507.169 89.4823 507.091 89.7266 507.031 89.9754C506.79 90.8955 506.702 91.8485 506.767 92.797C506.794 94.2271 507.31 95.6047 508.229 96.7005C508.793 97.3604 509.588 97.7789 510.452 97.8701C510.691 97.8889 510.932 97.8598 511.161 97.7845C511.389 97.7092 511.6 97.5892 511.782 97.4315C512.113 97.081 512.341 96.6459 512.44 96.1742C512.696 94.4757 512.823 92.7603 512.82 91.0427C512.82 89.4783 512.82 88.1187 512.82 86.8614C512.82 85.6041 512.82 84.7123 512.922 84.0544C512.942 83.7086 512.942 83.3621 512.922 83.0164C512.922 83.0164 512.922 83.1041 512.922 83.2795C512.922 83.455 512.849 83.7035 512.82 84.0397C512.732 84.6976 512.659 85.6626 512.615 86.8614C512.571 88.0602 512.542 89.4783 512.484 91.028C512.463 92.7264 512.327 94.4215 512.074 96.1011C512.004 96.5143 511.81 96.8966 511.519 97.1976C511.37 97.3299 511.197 97.4305 511.008 97.4933C510.82 97.5562 510.62 97.5799 510.422 97.5631C509.657 97.4584 508.955 97.0791 508.449 96.4959C507.562 95.4548 507.048 94.1483 506.987 92.7824C506.909 91.5071 507.042 90.2277 507.381 88.9959Z" fill="#844E42"/>
<path d="M284.765 72.8118C284.765 72.8118 271.08 51.8469 268.683 41.3498C266.387 31.1159 263.595 13.689 263.595 13.689C263.595 13.689 260.89 13.3089 260.116 22.9434C259.341 32.5779 259.297 38.8352 259.297 38.8352L244.311 25.268C243.521 26.3227 243.094 27.6051 243.094 28.923C243.094 30.2408 243.521 31.5232 244.311 32.5779C247.016 36.8177 256.621 47.6949 256.621 47.6949L253.186 50.6919C253.186 50.6919 244.999 45.6773 243.113 49.9171C241.227 54.1569 250.423 55.765 250.423 55.765L250.803 61.9346L255.525 66.5106L258.99 67.6656C258.99 67.6656 264.121 74.4931 266.051 76.4375C267.631 78.2339 269.013 80.1944 270.174 82.2855L284.765 72.8118Z" fill="#BF8678"/>
<path d="M265.364 51.1158C263.338 51.393 261.285 51.4175 259.253 51.1889C257.201 51.2227 255.152 50.9967 253.156 50.5164C255.187 50.2386 257.244 50.2091 259.282 50.4287C261.33 50.4029 263.373 50.6338 265.364 51.1158Z" fill="#844E42"/>
<path d="M262.309 66.3206C261.899 66.4671 261.464 66.5296 261.029 66.5045C260.595 66.4794 260.17 66.3671 259.779 66.1744C258.907 65.8355 258.105 65.34 257.411 64.7124C256.595 63.9345 255.883 63.055 255.291 62.0954C254.325 60.367 253.236 58.7106 252.031 57.1393C251.066 56.0136 250.233 55.5311 250.291 55.4288C250.349 55.3264 251.285 55.6627 252.426 56.7738C253.777 58.2645 254.95 59.9083 255.92 61.6715C256.862 63.3691 258.273 64.7597 259.984 65.6773C260.737 65.9635 261.515 66.1788 262.309 66.3206Z" fill="#844E42"/>
<path d="M259.984 43.7767C259.779 43.7767 259.37 42.8264 259.048 41.5399C258.727 40.2534 258.654 39.1715 258.858 39.1276C259.063 39.0838 259.472 40.0779 259.794 41.3645C260.116 42.651 260.189 43.7329 259.984 43.7767Z" fill="#844E42"/>
<path d="M370.642 121.481C370.642 121.481 358.156 146.014 353.639 164.303L352.177 170.385C352.177 170.385 364.823 186.394 377.528 189.917L393.96 165.677L370.642 121.481Z" fill="#263238"/>
<path d="M435.437 151.935C435.203 138.616 437.206 123.616 428.42 113.104C421.899 105.297 413.332 101.686 403.303 99.9464C398.376 99.1131 392.367 100.195 387.586 101.701C381.037 103.777 377.133 109.961 372.966 115.458C364.721 126.467 361.914 143.148 364.765 148.557L410.086 186.364C421.402 183.221 428.244 182.461 432.762 169.23C434.644 163.662 435.549 157.811 435.437 151.935Z" fill="#263238"/>
<path d="M425.115 122.943L395.072 106.642C385.042 102.943 374.969 113.952 371.68 124.054C368.039 135.356 364.034 149.303 363.215 158.221C361.577 176.145 374.224 181.701 374.224 181.701C374.224 181.701 374.224 181.964 372.996 187.11L370.876 195.414C369.962 198.764 370.251 202.329 371.694 205.487C375.13 212.636 383.58 215.282 394.575 213.689C400.934 212.753 405.963 209.23 407.732 203.353L429.063 130.473C429.474 128.951 429.296 127.331 428.564 125.935C427.832 124.539 426.601 123.471 425.115 122.943Z" fill="#BF8678"/>
<path d="M374.253 141.189C374.1 141.763 374.178 142.373 374.47 142.89C374.763 143.407 375.246 143.788 375.817 143.952C376.096 144.047 376.392 144.083 376.685 144.061C376.979 144.038 377.265 143.955 377.526 143.819C377.787 143.682 378.018 143.494 378.204 143.265C378.39 143.037 378.528 142.773 378.61 142.49C378.763 141.914 378.686 141.302 378.393 140.782C378.101 140.263 377.617 139.879 377.045 139.712C376.765 139.62 376.469 139.585 376.175 139.61C375.882 139.635 375.596 139.719 375.335 139.857C375.074 139.995 374.844 140.184 374.658 140.413C374.472 140.641 374.334 140.905 374.253 141.189Z" fill="#263238"/>
<path d="M372.148 135.107C372.352 135.472 374.341 134.654 376.724 135.268C379.107 135.882 380.54 137.505 380.861 137.285C381.183 137.066 380.861 136.598 380.262 135.823C379.409 134.857 378.282 134.173 377.031 133.864C375.796 133.533 374.486 133.615 373.303 134.098C372.484 134.493 372.045 134.946 372.148 135.107Z" fill="#263238"/>
<path d="M396.651 145.721C396.497 146.295 396.575 146.906 396.868 147.422C397.16 147.939 397.644 148.32 398.215 148.484C398.494 148.579 398.789 148.616 399.083 148.593C399.377 148.57 399.663 148.488 399.924 148.351C400.185 148.214 400.416 148.026 400.602 147.798C400.788 147.569 400.926 147.305 401.007 147.022C401.157 146.447 401.078 145.836 400.786 145.317C400.494 144.799 400.013 144.415 399.443 144.244C399.163 144.152 398.867 144.118 398.573 144.143C398.279 144.167 397.993 144.251 397.733 144.389C397.472 144.527 397.242 144.716 397.056 144.945C396.87 145.174 396.732 145.438 396.651 145.721Z" fill="#263238"/>
<path d="M395.686 140.399C395.89 140.765 397.879 139.946 400.247 140.56C402.615 141.174 404.063 142.797 404.399 142.578C404.735 142.359 404.399 141.891 403.8 141.116C402.952 140.14 401.824 139.451 400.569 139.142C399.332 138.828 398.028 138.91 396.841 139.376C395.963 139.785 395.583 140.239 395.686 140.399Z" fill="#263238"/>
<path d="M383.039 153.967C381.884 153.259 380.647 152.695 379.355 152.285C378.756 152.081 378.215 151.803 378.215 151.364C378.327 150.726 378.628 150.135 379.077 149.668C380.028 148.353 381.007 146.964 382.001 145.502C386.168 139.551 389.311 134.595 389.107 134.434C388.902 134.274 385.306 138.952 381.139 144.902L378.215 149.113C377.648 149.752 377.323 150.569 377.294 151.423C377.326 151.66 377.413 151.886 377.547 152.084C377.682 152.282 377.86 152.446 378.069 152.563C378.382 152.739 378.716 152.876 379.063 152.972C380.339 153.476 381.676 153.811 383.039 153.967Z" fill="#263238"/>
<path d="M374.238 181.701C382.324 183.882 390.856 183.781 398.887 181.408C398.887 181.408 390.115 192.022 373.273 186.028L374.238 181.701Z" fill="#844E42"/>
<path d="M389.765 160.399C389.551 159.786 389.19 159.235 388.713 158.793C388.237 158.352 387.659 158.035 387.031 157.87C386.16 157.577 385.227 157.524 384.329 157.717C383.431 157.91 382.601 158.342 381.928 158.967C381.409 159.571 381.138 160.349 381.168 161.145C381.168 161.554 381.168 161.35 381.373 161.671C382.084 162.929 383.086 163.997 384.297 164.785C384.987 165.167 385.777 165.328 386.561 165.247C387.345 165.166 388.085 164.847 388.683 164.332C389.205 163.838 389.583 163.21 389.773 162.517C389.964 161.824 389.961 161.091 389.765 160.399Z" fill="#844E42"/>
<path d="M390.028 157.607C389.648 157.475 388.975 160.063 386.285 161.32C383.595 162.578 380.934 161.569 380.817 161.92C380.7 162.271 381.3 162.592 382.455 162.914C383.956 163.332 385.557 163.203 386.972 162.548C388.31 161.909 389.355 160.786 389.896 159.405C390.32 158.338 390.203 157.607 390.028 157.607Z" fill="#263238"/>
<path d="M396.636 131.437C396.636 132.139 399.107 132.578 401.738 133.777C404.37 134.975 406.373 136.423 406.914 135.97C407.162 135.75 406.914 135.034 406.27 134.127C405.32 132.985 404.113 132.083 402.747 131.496C401.395 130.884 399.917 130.603 398.434 130.677C397.338 130.765 396.636 131.101 396.636 131.437Z" fill="#263238"/>
<path d="M373.727 128.689C374.165 129.288 376.08 128.835 378.361 128.952C380.642 129.069 382.513 129.595 382.996 129.054C383.215 128.777 382.996 128.206 382.133 127.592C381.036 126.861 379.752 126.46 378.434 126.437C377.121 126.364 375.813 126.663 374.662 127.3C373.829 127.855 373.522 128.367 373.727 128.689Z" fill="#263238"/>
<path d="M395.876 104.873C395.816 104.987 395.762 105.104 395.715 105.224L395.876 104.873Z" fill="#263238"/>
<path d="M400.262 194.581C401.724 190.195 400.861 185.151 402.352 180.721C403.946 176.013 407.952 172.534 410.232 168.119C413.887 161.057 412.762 152.475 413.376 144.493C409.091 142.826 405.565 139.649 403.463 135.56C400.832 130.765 399.794 125.326 398.8 119.888C397.897 124.802 398.546 129.876 400.656 134.405C399.645 134.348 398.661 134.054 397.785 133.546C396.909 133.038 396.164 132.331 395.613 131.481C394.515 129.781 393.787 127.868 393.478 125.867C392.533 121.043 392.493 116.086 393.361 111.247C391.254 117.962 390.557 125.04 391.314 132.037C390.105 131.544 388.803 131.32 387.498 131.379C386.854 131.416 386.21 131.303 385.616 131.049C385.023 130.796 384.496 130.408 384.077 129.917C383.677 129.143 383.505 128.271 383.58 127.402C383.612 121.323 384.69 115.294 386.768 109.581C384.452 112.362 382.415 115.363 380.686 118.543C378.961 121.74 378.166 125.356 378.39 128.981C378.043 129.202 377.622 129.276 377.22 129.189C376.817 129.101 376.466 128.859 376.241 128.514C375.818 127.796 375.648 126.956 375.759 126.13C376.124 123.112 376.994 120.176 378.332 117.446C375.934 120.151 374.604 123.601 372.922 126.803C371.241 130.005 368.96 133.177 365.613 134.478C366.057 129.928 367.16 125.466 368.887 121.233C370.472 117.71 372.544 114.428 375.042 111.481C377.526 108.147 380.628 105.323 384.18 103.163C390.262 99.7708 391.987 102.154 394.896 104.625L395.247 104.859C395.247 104.859 395.247 104.712 395.32 104.625L395.627 103.967C404.597 103.863 413.429 106.176 421.197 110.663C427.62 114.874 432.504 121.056 435.115 128.28L435.218 128.645C439.706 143.265 441.27 159.537 434.633 192.49L400.262 194.581Z" fill="#263238"/>
<path d="M259.399 64.8586C259.487 64.8586 259.618 65.0341 259.618 65.3703C259.601 65.8209 259.407 66.2465 259.078 66.5545C258.768 66.8798 258.342 67.0691 257.893 67.0809C257.557 67.0809 257.367 66.9493 257.382 66.8616C257.396 66.7738 258.04 66.5545 258.551 66.0136C259.063 65.4727 259.18 64.8879 259.399 64.8586Z" fill="#844E42"/>
<path d="M438.156 31.0866L438.493 30.4434L438.844 31.072C439.133 31.566 439.553 31.9707 440.057 32.2416L440.7 32.5632L440.072 32.9287C439.571 33.2097 439.164 33.6317 438.902 34.1422L438.58 34.7708L438.215 34.1568C437.934 33.6563 437.512 33.2495 437.001 32.9872L436.373 32.651L436.987 32.3001C437.481 32.0108 437.886 31.5909 438.156 31.0866Z" fill="#E0E0E0"/>
<path d="M418.858 25.0049L419.048 24.6394L419.253 24.9903C419.421 25.2782 419.663 25.5155 419.955 25.6774L420.335 25.8675L419.969 26.0722C419.679 26.2326 419.445 26.4773 419.297 26.7739L419.092 27.154L418.887 26.7885C418.723 26.4978 418.48 26.2596 418.186 26.1014L417.82 25.9113L418.171 25.7067C418.462 25.5423 418.7 25.299 418.858 25.0049Z" fill="#E0E0E0"/>
<path d="M407.338 74.4636L407.528 74.0981L407.732 74.449C407.897 74.7397 408.14 74.9779 408.434 75.1362L408.8 75.3262L408.449 75.5309C408.157 75.7005 407.919 75.9487 407.762 76.2473L407.572 76.6128L407.367 76.2473C407.206 75.9572 406.962 75.7227 406.665 75.5748L406.285 75.3701L406.651 75.1654C406.941 75.001 407.179 74.7577 407.338 74.4636Z" fill="#E0E0E0"/>
<path d="M517.586 40.2387L517.922 39.5955L518.273 40.2241C518.564 40.722 518.99 41.1275 519.501 41.3937L520.13 41.73L519.516 42.0808C519.01 42.3595 518.598 42.7817 518.332 43.2943L518.01 43.9229L517.645 43.3089C517.364 42.8084 516.942 42.4016 516.431 42.1393L515.802 41.8031L516.417 41.4522C516.911 41.1629 517.315 40.743 517.586 40.2387Z" fill="#E0E0E0"/>
<path d="M515.115 15.9989L515.671 14.9316L516.27 15.9843C516.753 16.8184 517.463 17.4979 518.317 17.9433L519.384 18.4989L518.332 19.0983C517.495 19.5767 516.814 20.2877 516.373 21.1451L515.817 22.2123L515.218 21.1597C514.739 20.3225 514.028 19.642 513.171 19.2006L512.104 18.7182L513.156 18.1188C514.004 17.6208 514.686 16.8832 515.115 15.9989Z" fill="#E0E0E0"/>
<path d="M433.288 10.7067L433.843 9.6394L434.443 10.692C434.921 11.5293 435.632 12.2098 436.49 12.6511L437.557 13.2067L436.504 13.8061C435.667 14.2845 434.986 14.9955 434.545 15.8528L433.99 16.9201L433.39 15.8675C432.908 15.0333 432.198 14.3538 431.343 13.9084L430.276 13.3529L431.314 12.7534C432.156 12.2759 432.841 11.5651 433.288 10.7067Z" fill="#E0E0E0"/>
<path d="M452.191 110.019L451.914 108.85L453.039 109.245C453.938 109.535 454.898 109.575 455.817 109.362L456.987 109.084L456.592 110.21C456.286 111.124 456.241 112.106 456.46 113.046L456.753 114.215L455.612 113.821C454.729 113.556 453.79 113.53 452.893 113.748L451.724 114.04L452.118 112.9C452.421 111.967 452.446 110.966 452.191 110.019Z" fill="#E0E0E0"/>
<path d="M509.911 114.654C510.759 113.821 486.607 108.309 486.607 108.309L477.63 175.414L425.115 200.546L413.419 202.68L410.496 195.107L388.829 203.981L370.832 189.552L361.373 196.964L354.063 195.107C350.379 190.268 338.113 174.157 335.73 170.59C333.186 166.803 283.946 65.3265 283.551 63.3528L261.08 75.3557C261.08 75.3557 284.355 134.522 294.706 164.171C305.057 193.821 323.215 226.891 323.215 226.891C324.194 231.145 341.153 281.759 344.779 296.73C348.8 313.294 350.393 328.016 350.086 327.168L396.49 328.236L441.197 313.747C441.197 313.747 428.99 284.318 429.501 281.759C430.013 279.201 441.197 237.49 441.197 237.49C441.197 237.49 504.384 198.762 508.215 188.148C512.045 177.534 509.077 115.487 509.911 114.654Z" fill="white"/>
<path d="M509.911 114.654C509.852 114.878 509.822 115.109 509.823 115.341C509.823 115.809 509.823 116.496 509.823 117.402C509.823 119.23 509.823 121.949 509.94 125.516C510.072 132.636 510.364 143.163 510.393 156.73C510.393 163.514 510.393 171.072 509.779 179.332C509.618 181.394 509.428 183.499 509.048 185.633C508.89 186.729 508.58 187.796 508.127 188.806C507.592 189.801 506.934 190.724 506.168 191.554C502.965 194.958 499.483 198.087 495.759 200.911C488.156 206.876 479.677 212.797 470.583 218.923C461.49 225.049 451.724 231.306 441.344 237.724L441.46 237.563C438.376 249.127 435.101 261.437 431.651 274.347C431.227 275.97 430.817 277.592 430.393 279.23C430.189 280.049 429.969 280.867 429.794 281.671C429.809 282.477 429.947 283.276 430.203 284.04C431.168 287.3 432.382 290.531 433.61 293.806C436.08 300.326 438.741 306.964 441.504 313.63L441.636 313.952L441.3 314.054L396.651 328.557L350.247 327.505L350.598 327.037C350.832 327.037 349.969 326.759 350.042 327.037C350.116 327.315 349.955 327.241 349.955 327.198V326.949V326.584V325.823L349.779 324.361L349.37 321.306C349.092 319.259 348.771 317.212 348.434 315.165C347.752 311.062 346.963 306.939 346.066 302.797C344.355 294.522 341.782 286.335 339.238 277.943C336.694 269.551 333.99 261.247 331.271 252.782C328.551 244.318 325.7 235.809 323.142 227.037V227.139C317.791 217.183 312.63 206.818 307.703 196.13C302.776 185.443 298.113 174.376 294.121 162.987C288.771 147.914 283.142 133.119 277.586 118.543C272.031 103.967 266.446 89.6393 260.934 75.5603L260.803 75.2533L261.11 75.0925L283.303 63.0311L283.654 62.8411L283.844 63.2797C285.101 66.2036 286.621 69.3908 288.04 72.4025L292.352 81.4668L300.934 99.3176L317.718 133.879C323.23 145.122 328.595 156.13 333.99 166.744C334.677 168.075 335.32 169.391 336.095 170.619L338.741 174.171L343.99 181.174L354.224 194.902L354.048 194.8L361.358 196.657H361.08L370.554 189.259L370.744 189.098L370.934 189.259L388.931 203.689H388.624L410.496 194.844L410.773 194.727L410.876 195.005L413.8 202.578L413.493 202.402L425.189 200.282H425.115L477.63 175.209L477.498 175.37C481.49 145.97 484.56 123.177 486.577 108.28V108.148H486.694C494.765 110.034 500.656 111.525 504.501 112.534C508.346 113.543 510.262 114.303 509.969 114.552C510.232 114.347 508.303 113.66 504.472 112.636C500.642 111.613 494.721 110.151 486.636 108.25L486.782 108.163C484.808 123.06 481.797 145.867 477.908 175.282V175.399H477.806L425.335 200.575L413.639 202.724H413.405L413.317 202.505C412.382 200.092 411.446 197.636 410.393 194.932L410.759 195.092L389.107 203.981H388.946L388.8 203.879L370.686 189.771H371.022C367.966 192.183 364.867 194.61 361.563 197.183L361.446 197.285H361.3L353.99 195.429H353.887V195.341L343.654 181.598C341.919 179.288 340.169 176.949 338.405 174.581C337.513 173.411 336.636 172.227 335.744 171.043C334.852 169.859 334.282 168.411 333.595 167.095C328.186 156.467 322.82 145.473 317.294 134.23L300.349 99.6393L291.753 81.7884L287.367 72.7241C285.905 69.6393 284.443 66.7153 283.113 63.4259L283.654 63.6744L261.256 75.7358L261.417 75.268C266.943 89.342 272.499 103.674 278.083 118.265C283.654 132.885 289.282 147.636 294.633 162.724C298.624 174.084 303.273 185.107 308.186 195.794C313.098 206.481 318.259 216.832 323.595 226.759C326.124 235.399 329.019 243.952 331.709 252.432C334.399 260.911 337.104 269.288 339.662 277.607C342.221 285.926 344.779 294.142 346.49 302.461C347.386 306.593 348.176 310.726 348.858 314.858C349.209 316.905 349.516 318.967 349.809 321.013L350.218 324.098L350.379 325.633L350.452 326.408V326.803V327.198C350.452 327.198 350.452 327.198 350.349 327.417C350.247 327.636 349.531 327.417 349.779 327.417V327.329L349.545 326.847H350.13L396.519 327.929H396.417L441.066 313.455L440.876 313.894C438.113 307.183 435.466 300.575 432.996 294.04C431.768 290.765 430.554 287.519 429.589 284.215C429.295 283.37 429.151 282.479 429.165 281.584C429.355 280.721 429.56 279.917 429.765 279.084C430.203 277.461 430.627 275.823 431.037 274.215L440.905 237.432V237.329H440.993C451.363 230.926 461.11 224.673 470.232 218.572C479.326 212.475 487.776 206.584 495.422 200.633C499.131 197.839 502.598 194.738 505.788 191.364C506.537 190.566 507.176 189.671 507.689 188.704C508.13 187.727 508.435 186.693 508.595 185.633C508.975 183.528 509.165 181.423 509.341 179.376C509.94 171.145 509.969 163.587 510.013 156.803C510.013 143.236 509.794 132.724 509.706 125.59C509.706 122.022 509.706 119.303 509.706 117.476C509.643 116.53 509.712 115.58 509.911 114.654Z" fill="#263238"/>
<path d="M413.756 202.622C413.756 202.622 413.756 202.768 413.61 203.031C413.444 203.43 413.249 203.816 413.025 204.186C412.231 205.591 411.247 206.88 410.101 208.016C408.3 209.75 406.268 211.226 404.063 212.402C401.257 213.889 398.356 215.189 395.379 216.291L395.028 216.437L394.911 216.072C394.192 213.755 393.252 211.513 392.104 209.376C391.519 208.25 390.817 207.183 390.115 206.072L389.56 205.268C389.399 205.004 389.224 204.751 389.034 204.508C389.034 204.244 388.215 204.8 387.674 205.078C385.442 206.423 383.384 208.039 381.548 209.888C380.642 210.765 379.808 211.686 378.975 212.592C378.566 213.046 378.171 213.499 377.762 213.937L377.177 214.595L376.884 214.932L376.753 215.092C376.753 215.092 376.753 214.756 376.665 214.727L376.168 215.224C372.168 211.225 368.487 206.918 365.159 202.344C363.931 200.663 363.01 199.303 362.411 198.367C362.07 197.911 361.776 197.421 361.534 196.905C361.916 197.339 362.267 197.798 362.586 198.28C363.259 199.186 364.224 200.502 365.51 202.139C368.94 206.6 372.672 210.821 376.68 214.771L376.183 215.268C376.139 215.198 376.115 215.117 376.115 215.034C376.115 214.951 376.139 214.87 376.183 214.8L376.27 214.683L376.402 214.508L376.694 214.171L377.294 213.499L378.507 212.139C379.326 211.218 380.159 210.282 381.08 209.391C382.956 207.488 385.063 205.827 387.352 204.449L388.244 203.952C388.428 203.839 388.631 203.76 388.844 203.718C388.982 203.701 389.123 203.715 389.254 203.761C389.386 203.806 389.506 203.882 389.604 203.981C389.839 204.254 390.05 204.548 390.232 204.858L390.803 205.677C391.504 206.803 392.265 207.899 392.82 209.054C393.981 211.238 394.926 213.529 395.642 215.896L395.174 215.677C398.135 214.597 401.03 213.342 403.843 211.92C406.027 210.792 408.052 209.381 409.867 207.724C411.395 206.213 412.704 204.496 413.756 202.622Z" fill="#263238"/>
<path d="M416.183 266.583C415.595 267.121 414.964 267.61 414.297 268.045C413.069 268.923 411.227 270.092 408.902 271.452C396.725 278.53 383.271 283.135 369.311 285.005C366.636 285.355 364.472 285.56 362.966 285.619C362.189 285.695 361.405 285.695 360.627 285.619C361.388 285.452 362.16 285.34 362.937 285.282C364.399 285.122 366.592 284.844 369.238 284.434C383.061 282.28 396.398 277.713 408.639 270.94C410.993 269.639 412.864 268.543 414.136 267.753C414.783 267.305 415.468 266.914 416.183 266.583Z" fill="#263238"/>
<path d="M388.858 279.961C388.777 279.725 388.727 279.479 388.712 279.23C388.624 278.66 388.537 277.958 388.42 277.11C388.186 275.282 387.893 272.622 387.601 269.318C387.016 262.739 386.46 253.616 386.373 243.513C386.285 233.411 386.709 224.274 387.206 217.68C387.44 214.391 387.689 211.715 387.893 209.888C387.996 209.04 388.083 208.338 388.142 207.768C388.157 207.519 388.206 207.273 388.288 207.037C388.323 207.284 388.323 207.535 388.288 207.782C388.288 208.353 388.288 209.054 388.171 209.902C388.054 211.861 387.908 214.508 387.718 217.724C387.367 224.318 387.045 233.426 387.118 243.513C387.191 253.601 387.674 262.695 388.127 269.288C388.361 272.49 388.551 275.136 388.697 277.081C388.697 277.929 388.8 278.63 388.844 279.201C388.886 279.452 388.891 279.708 388.858 279.961Z" fill="#263238"/>
<path d="M397.616 331.466C397.375 330.858 397.199 330.226 397.089 329.58C396.782 328.206 396.373 326.466 395.905 324.376C394.911 319.99 393.537 313.937 391.899 307.271C390.262 300.604 388.697 294.595 387.513 290.253L386.168 285.092C385.955 284.473 385.818 283.83 385.759 283.177C386.044 283.764 386.274 284.375 386.446 285.004C386.841 286.203 387.382 287.928 388.025 290.107C389.311 294.493 390.949 300.414 392.616 307.095C394.282 313.776 395.539 319.844 396.402 324.273C396.826 326.481 397.148 328.279 397.352 329.522C397.504 330.16 397.593 330.811 397.616 331.466Z" fill="#263238"/>
<path d="M321.314 194.025C322.095 195.202 322.719 196.474 323.171 197.812C325.679 204.164 326.713 211.002 326.197 217.812C326.162 219.223 325.941 220.624 325.539 221.978C325.423 221.978 325.539 220.356 325.671 217.782C325.763 214.428 325.563 211.072 325.072 207.753C324.554 204.435 323.752 201.168 322.674 197.987C322.149 196.692 321.695 195.37 321.314 194.025Z" fill="#263238"/>
<path d="M451.987 211.554C451.302 212.754 450.545 213.911 449.721 215.019C447.876 217.782 446.234 220.674 444.808 223.674C443.39 226.675 442.197 229.779 441.241 232.958C440.909 234.301 440.499 235.624 440.013 236.92C440.066 235.525 440.302 234.144 440.715 232.812C442.373 226.284 445.277 220.138 449.267 214.712C450.043 213.554 450.956 212.493 451.987 211.554Z" fill="#263238"/>
<path d="M290.349 79.0691C289.363 79.8529 288.282 80.511 287.133 81.0282C284.448 82.4214 281.668 83.6232 278.814 84.6246C275.953 85.6445 273.021 86.4556 270.042 87.0515C268.829 87.3652 267.582 87.5369 266.329 87.5632C267.497 87.1213 268.7 86.779 269.925 86.5398C272.162 85.9551 275.218 85.0779 278.537 83.9083C281.855 82.7387 284.765 81.496 286.87 80.5457C287.991 79.9662 289.154 79.4726 290.349 79.0691Z" fill="#263238"/>
<path d="M280.232 72.6216C280.232 72.6216 280.452 72.5485 280.832 72.6216C281.357 72.8211 281.8 73.192 282.089 73.6742C282.317 74.0392 282.461 74.4499 282.511 74.877C282.562 75.304 282.518 75.737 282.382 76.145C282.154 76.6357 281.791 77.0512 281.335 77.3423C280.879 77.6334 280.349 77.7881 279.808 77.7881C279.268 77.7881 278.738 77.6334 278.282 77.3423C277.826 77.0512 277.463 76.6357 277.235 76.145C277.101 75.737 277.061 75.3037 277.119 74.878C277.178 74.4524 277.332 74.0456 277.572 73.6888C277.867 73.2068 278.322 72.8443 278.858 72.6655C279.238 72.5485 279.458 72.6655 279.458 72.6655C279.458 72.6655 278.595 72.8994 277.996 73.9959C277.837 74.2891 277.742 74.6126 277.716 74.9452C277.691 75.2777 277.737 75.6119 277.849 75.9257C278.02 76.2821 278.29 76.5811 278.628 76.7862C278.965 76.9914 279.355 77.0937 279.75 77.0807C280.146 77.1072 280.54 77.0158 280.884 76.818C281.227 76.6202 281.504 76.3249 281.68 75.9696C281.799 75.6561 281.851 75.3213 281.834 74.9865C281.816 74.6518 281.729 74.3243 281.578 74.0251C281.08 72.8848 280.189 72.8117 280.232 72.6216Z" fill="#263238"/>
<path d="M436.621 67.3878C434.37 69.6247 432.06 71.7738 429.867 74.1276C428.894 75.0946 428.146 76.2639 427.676 77.5525C427.206 78.8412 427.026 80.2175 427.148 81.5837C427.329 82.9839 427.798 84.3315 428.525 85.5417C429.252 86.7519 430.221 87.7986 431.373 88.6159C438.346 94.4638 447.06 99.5369 456.417 99.2592C462.771 98.9353 468.763 96.2009 473.171 91.613C474.998 89.8147 472.177 86.9638 470.335 88.7767C467.021 92.2815 462.602 94.5378 457.82 95.1656C453.722 95.492 449.609 94.7779 445.861 93.0896C442.267 91.5147 438.887 89.4908 435.803 87.0662C434.146 86.0343 432.726 84.6643 431.636 83.0457C431.159 82.0505 431.004 80.9313 431.192 79.8438C431.381 78.7563 431.904 77.7548 432.688 76.9785C434.881 74.6685 437.191 72.4756 439.443 70.2387C439.788 69.8585 439.974 69.3601 439.963 68.8465C439.951 68.3329 439.743 67.8434 439.38 67.4792C439.018 67.115 438.53 66.904 438.016 66.8897C437.503 66.8754 437.003 67.059 436.621 67.4025V67.3878Z" fill="#1856F3"/>
<path d="M482.133 27.1538C484.253 25.0486 486.358 22.9287 488.493 20.8234C489.058 20.1683 489.766 19.6503 490.561 19.3084C491.356 18.9665 492.218 18.8097 493.083 18.8497C495.437 19.069 496.782 20.8234 498.142 22.5193C502.995 28.5281 507.308 36.072 507.118 44.0252C506.845 49.3801 504.508 54.421 500.598 58.0895C498.8 59.9316 501.621 62.7678 503.434 61.0135C507.541 57.0641 510.198 51.8473 510.978 46.2035C511.408 41.2958 510.562 36.3602 508.522 31.8761C506.685 27.7296 504.306 23.8457 501.446 20.3264C500.038 18.169 498.038 16.4634 495.686 15.4141C494.281 14.9247 492.779 14.7822 491.308 14.9986C489.837 15.2149 488.439 15.7838 487.235 16.6568C484.406 19.0301 481.758 21.6103 479.311 24.3761C479.031 24.7641 478.899 25.2396 478.939 25.7164C478.979 26.1933 479.189 26.6401 479.53 26.9758C479.871 27.3115 480.321 27.5141 480.799 27.5467C481.276 27.5794 481.749 27.44 482.133 27.1538Z" fill="#1856F3"/>
<path d="M505.525 85.9697L501.139 88.7036L501.066 88.8206H500.949L498.142 93.3089C498.142 93.3089 504.852 101.014 507.279 108.952L514.165 102.081L514.355 101.891L521.256 95.0194C513.273 92.651 505.525 85.9697 505.525 85.9697Z" fill="#1856F3"/>
<path d="M502.764 80.3533L492.558 90.5339C491.267 91.8227 491.264 93.9147 492.553 95.2066L492.625 95.2791C493.914 96.571 496.006 96.5735 497.298 95.2848L507.503 85.1042C508.795 83.8154 508.798 81.7234 507.509 80.4315L507.437 80.359C506.148 79.0671 504.056 79.0646 502.764 80.3533Z" fill="#1856F3"/>
<path d="M475.686 15.4434L451.767 39.3176L450.495 40.5749L427.893 63.1188C428.215 63.762 472.776 113.148 498.361 86.0281C525.612 60.4579 476.285 15.7942 475.686 15.4434Z" fill="#1856F3"/>
<g opacity="0.3">
<path d="M475.686 15.4434C478.61 18.3673 481.446 20.9843 484.019 23.8059C501.46 42.8118 511.943 63.572 503.58 79.5661L496.753 86.379C496.753 86.379 505.013 67.2562 496.007 51.5837C487.001 35.9112 474.341 17.958 474.341 17.958L475.686 15.4434Z" fill="black"/>
</g>
<path d="M504.8 107.33L520.109 92.0587C522.03 90.1418 524.635 89.0668 527.349 89.0701C530.063 89.0734 532.665 90.1548 534.582 92.0764L534.695 92.1902L504.876 121.937L504.762 121.823C503.811 120.87 503.058 119.739 502.545 118.494C502.032 117.249 501.77 115.915 501.773 114.568C501.777 113.222 502.046 111.89 502.566 110.647C503.085 109.405 503.845 108.278 504.8 107.33Z" fill="#1856F3"/>
<path d="M539.114 86.6454L499.069 126.594L518.294 145.866L558.34 105.918L539.114 86.6454Z" fill="#1856F3" fill-opacity="0.7"/>
<path d="M537.8 97.0439L509.461 125.314L518.888 134.764L547.227 106.494L537.8 97.0439Z" fill="#E0E0E0"/>
<path d="M508.069 84.5078C508.069 84.5078 505.715 86.9786 502.732 89.9464C499.75 92.9142 497.323 95.3119 497.279 95.268C497.235 95.2242 499.677 92.8411 502.601 89.8733C505.525 86.9055 508.039 84.5078 508.069 84.5078Z" fill="#263238"/>
<path d="M503.58 79.5662C503.58 79.5662 501.036 82.227 497.82 85.4141C494.604 88.6012 491.972 91.2621 491.972 91.1597C491.972 91.0574 494.516 88.4989 497.732 85.3118C500.949 82.1246 503.536 79.5369 503.58 79.5662Z" fill="#263238"/>
<path d="M519.969 92.0222C519.969 92.0222 516.797 95.3116 512.82 99.3321C508.843 103.353 505.525 106.437 505.525 106.437C505.525 106.437 508.683 103.148 512.674 99.1274C516.665 95.107 519.94 91.9929 519.969 92.0222Z" fill="#263238"/>
<path d="M475.686 15.4434V15.6042L475.437 16.0574L474.472 17.7972L473.77 19.0545L472.893 20.5165C472.25 21.5691 471.563 22.7825 470.7 24.0545C470.276 24.6977 469.823 25.3703 469.37 26.0866C468.917 26.803 468.39 27.5486 467.908 28.2357L467.104 29.3615C466.972 29.5515 466.841 29.7562 466.694 29.9463L466.27 30.5164L464.458 32.8849C461.712 36.3703 458.784 39.7083 455.686 42.8849C452.561 46.0245 449.277 49.0011 445.846 51.803L443.507 53.6451L442.937 54.0837L442.367 54.5077L441.197 55.2679C440.452 55.7942 439.735 56.3351 439.063 56.7299L437.045 58.0749C435.773 58.9521 434.575 59.6539 433.537 60.3117L432.075 61.2036L430.817 61.9053L429.092 62.8702L428.639 63.1188L428.478 63.2065L428.624 63.1041L429.077 62.841L430.788 61.8468L432.031 61.1305C432.484 60.8673 432.966 60.5457 433.493 60.224C434.531 59.5661 435.73 58.8644 437.001 57.9726L439.004 56.6129C439.691 56.1451 440.466 55.6041 441.124 55.1509L442.235 54.3322L442.82 53.9229L443.376 53.4696L445.715 51.6275C449.139 48.8288 452.413 45.852 455.525 42.7094C458.618 39.5441 461.546 36.221 464.297 32.7533L466.051 30.4141L466.49 29.8439L466.899 29.2591L467.703 28.1334C468.229 27.4024 468.756 26.6714 469.165 25.9989L470.51 23.9667C471.373 22.6948 472.075 21.496 472.718 20.458C473.039 19.9317 473.346 19.4492 473.61 18.996C473.873 18.5428 474.107 18.1188 474.326 17.7533L475.32 16.0282L475.583 15.5749L475.686 15.4434Z" fill="#263238"/>
<path d="M464.048 50.8382L473.887 54.1861L482.221 47.9727L482.074 58.3674L490.554 64.3762L480.627 67.4463L477.528 77.3586L471.548 68.8645L461.153 68.996L467.382 60.6773L464.048 50.8382Z" fill="white"/>
<path d="M475.686 15.4434L475.832 15.5749L476.256 15.9551C476.621 16.2913 477.162 16.7738 477.849 17.417C479.224 18.7036 481.183 20.6042 483.493 23.0603C485.802 25.5165 488.493 28.5135 491.226 32.0369C494.225 35.8381 496.933 39.8603 499.326 44.0691C501.74 48.2724 503.659 52.7419 505.042 57.3878C505.631 59.4218 506.056 61.4995 506.314 63.6012L506.402 64.3322C506.402 64.5661 506.402 64.8147 506.402 65.0486V65.765C506.402 65.9989 506.402 66.2328 506.402 66.4521C506.402 67.3878 506.402 68.265 506.402 69.1129C506.232 71.7791 505.651 74.4029 504.677 76.8907C504.341 77.7679 504.033 78.4404 503.814 78.879L503.551 79.3907L503.463 79.5515C503.482 79.4908 503.506 79.432 503.536 79.3761C503.536 79.2591 503.668 79.0837 503.785 78.8644C503.99 78.4111 504.282 77.7533 504.618 76.8761C505.569 74.3849 506.127 71.7609 506.27 69.0983C506.315 68.2217 506.315 67.3433 506.27 66.4667V65.765V65.0632C506.27 64.8293 506.27 64.5807 506.27 64.3468L506.168 63.6158C505.898 61.5246 505.467 59.4572 504.881 57.4316C503.503 52.8003 501.589 48.3453 499.18 44.1568C496.786 39.9598 494.089 35.9433 491.11 32.1393C488.376 28.6159 485.7 25.6042 483.405 23.1334C481.11 20.6627 479.209 18.7182 477.747 17.4755C477.074 16.8176 476.534 16.3206 476.168 16.0135L475.759 15.6334L475.686 15.4434Z" fill="#263238"/>
<path d="M486.914 89.8583L486.782 89.946L486.387 90.2092C485.87 90.5182 485.327 90.7823 484.764 90.9986C483.872 91.3227 482.945 91.5387 482.001 91.6419C480.743 91.7807 479.473 91.7807 478.215 91.6419C476.697 91.4718 475.196 91.1784 473.726 90.7647L471.285 90.063L468.726 89.1712C464.975 87.7562 461.355 86.0146 457.908 83.9665C454.461 81.9199 451.137 79.6744 447.952 77.2413C445.028 75.0045 442.44 72.8554 440.305 71.0718C438.171 69.2881 436.49 67.7677 435.32 66.6858L433.975 65.487L433.639 65.1799C433.595 65.146 433.556 65.1067 433.522 65.063L433.639 65.1653L434.004 65.4577L435.364 66.6419C436.548 67.6653 438.288 69.1419 440.393 70.9402C442.498 72.7384 445.101 74.8437 448.039 77.0659C451.226 79.4923 454.551 81.7328 457.996 83.7764C461.44 85.8095 465.049 87.5505 468.785 88.9811C469.662 89.2735 470.495 89.5951 471.329 89.8729L473.77 90.5893C475.232 91.0002 476.722 91.2984 478.229 91.4811C479.478 91.6114 480.738 91.6114 481.987 91.4811C482.927 91.3776 483.854 91.1717 484.75 90.8671C485.311 90.6582 485.853 90.4039 486.373 90.1068L486.767 89.8583H486.914Z" fill="white"/>
<path d="M493.449 91.613C493.233 91.9632 493.141 92.3759 493.189 92.7845C493.237 93.1931 493.421 93.5736 493.712 93.8645C494.129 94.2812 494.627 94.6093 495.174 94.8294L495.846 95.1364C495.599 95.1123 495.357 95.0481 495.13 94.9464C494.573 94.7449 494.072 94.4142 493.668 93.9815C493.461 93.7494 493.309 93.474 493.223 93.1754C493.137 92.8768 493.119 92.5627 493.171 92.2563C493.202 92.0752 493.278 91.9045 493.39 91.7592C493.376 91.6569 493.434 91.613 493.449 91.613Z" fill="white"/>
<path d="M506.519 107.198C506.417 107.342 506.299 107.474 506.168 107.592C505.854 107.94 505.561 108.306 505.291 108.689C504.384 109.955 503.775 111.409 503.507 112.943C503.243 114.482 503.323 116.059 503.741 117.563C503.902 118.133 504.077 118.587 504.194 118.894L504.399 119.376C504.399 119.376 504.399 119.376 504.326 119.259C504.253 119.142 504.209 119.069 504.136 118.923C503.934 118.492 503.763 118.048 503.624 117.592C503.161 116.078 503.061 114.475 503.332 112.914C503.677 110.877 504.654 109 506.124 107.549C506.213 107.452 506.311 107.363 506.417 107.285L506.519 107.198Z" fill="white"/>
<path d="M490.525 94.0107L502.879 82.2271C503.698 83.2243 504.207 84.4402 504.343 85.7241C504.478 87.0079 504.233 88.3032 503.639 89.4493C502.427 91.7322 500.766 93.7463 498.756 95.3703C503.463 97.8118 506.943 105.604 502.747 111.598" fill="#BF8678"/>
<path d="M504.063 108.952C504.063 108.952 504.063 108.85 504.165 108.674C504.267 108.499 504.341 108.207 504.428 107.826C504.69 106.761 504.779 105.66 504.691 104.566C504.556 102.876 504.057 101.236 503.229 99.7562C502.207 97.8442 500.646 96.2737 498.741 95.2387V95.4872C499.772 94.5705 500.748 93.5942 501.665 92.5633C502.688 91.5021 503.502 90.2571 504.063 88.8937C504.498 87.7278 504.644 86.4734 504.487 85.2387C504.358 84.0544 503.845 82.9449 503.025 82.0808L502.922 81.9639L502.82 82.0662L494.048 90.575L491.519 93.0603L490.846 93.7182L490.627 93.9668C490.627 93.9668 490.729 93.9668 490.89 93.7621L491.592 93.1334L494.18 90.7065L503.083 82.2855H502.864C503.616 83.0925 504.097 84.1151 504.238 85.2095C504.379 86.3998 504.239 87.6065 503.829 88.7329C503.309 90.0538 502.551 91.268 501.592 92.3147C500.704 93.3439 499.757 94.3202 498.756 95.2387L498.61 95.3703L498.8 95.4726C500.652 96.4833 502.175 98.0059 503.186 99.8586C503.989 101.311 504.487 102.914 504.648 104.566C504.745 105.647 504.681 106.736 504.457 107.797C504.194 108.543 504.063 108.938 504.063 108.952Z" fill="#844E42"/>
<path d="M411.563 396.847L394.94 327.198H350.145C350.145 327.198 346.358 365.589 344.969 377.168C343.58 388.747 353.668 517.256 353.668 517.256L363.098 638.279H396.49L405.057 505.238C405.057 486.686 411.563 396.847 411.563 396.847Z" fill="#263238"/>
<path d="M474.516 397.958C471.519 344.522 441.197 313.747 441.197 313.747C439.808 313.747 394.94 327.168 394.94 327.168L411.373 402.636L412.367 420.999L423.653 629.712L460.919 630.107C460.919 630.107 462.791 595.151 468.493 524.244C472.118 479.244 476.68 436.759 474.516 397.958Z" fill="#263238"/>
<path d="M407.572 379.142C407.395 378.565 407.272 377.973 407.206 377.373C406.987 376.086 406.724 374.449 406.402 372.548C405.729 368.469 404.765 362.841 403.478 356.657C402.191 350.472 400.963 344.961 399.998 340.896L398.858 336.13C398.687 335.554 398.579 334.961 398.536 334.361C398.797 334.9 399.003 335.463 399.151 336.043C399.501 337.154 399.969 338.762 400.525 340.75C401.607 344.756 402.981 350.312 404.224 356.51C405.466 362.709 406.358 368.367 406.884 372.461C407.162 374.522 407.352 376.189 407.455 377.344C407.568 377.936 407.607 378.54 407.572 379.142Z" fill="#1856F3" fill-opacity="0.7"/>
<path d="M367.118 345.151C367.246 345.652 367.296 346.17 367.265 346.686C367.298 348.076 367.254 349.467 367.133 350.853C366.807 355.48 365.448 359.976 363.156 364.011C360.775 368.058 357.089 371.177 352.703 372.856C351.384 373.346 350 373.641 348.595 373.733C348.111 373.81 347.617 373.81 347.133 373.733C348.994 373.488 350.822 373.042 352.586 372.402C356.769 370.624 360.27 367.549 362.572 363.63C364.809 359.681 366.203 355.31 366.665 350.794C367.016 347.329 367.001 345.151 367.118 345.151Z" fill="#1856F3" fill-opacity="0.7"/>
<path d="M387.659 334.507C387.659 334.581 387.323 334.668 386.797 334.99C386.08 335.47 385.52 336.152 385.189 336.949C384.925 337.512 384.788 338.126 384.788 338.747C384.788 339.369 384.925 339.983 385.189 340.546C385.609 341.154 386.191 341.633 386.87 341.928C387.548 342.223 388.296 342.322 389.028 342.214C389.759 342.106 390.446 341.795 391.011 341.317C391.575 340.839 391.994 340.212 392.221 339.507C392.322 338.897 392.287 338.271 392.121 337.675C391.954 337.079 391.659 336.527 391.256 336.057C390.715 335.371 389.982 334.862 389.151 334.595C388.551 334.434 388.186 334.449 388.186 334.376C388.511 334.246 388.869 334.22 389.209 334.303C390.15 334.467 391.009 334.941 391.651 335.648C392.15 336.167 392.524 336.795 392.742 337.482C392.96 338.169 393.017 338.897 392.908 339.61C392.754 340.475 392.298 341.257 391.621 341.817C390.91 342.407 390.05 342.792 389.136 342.929C388.219 343.064 387.283 342.943 386.431 342.578C385.629 342.225 384.973 341.605 384.575 340.823C384.265 340.173 384.111 339.459 384.124 338.739C384.136 338.018 384.316 337.311 384.648 336.671C385.054 335.804 385.745 335.102 386.607 334.683C386.931 334.517 387.299 334.456 387.659 334.507Z" fill="#1856F3" fill-opacity="0.7"/>
<path d="M456.154 343.484C455.733 343.778 455.269 344.005 454.779 344.157C453.463 344.654 452.076 344.94 450.671 345.005C446.002 345.139 441.425 343.686 437.689 340.882C434.049 338.051 430.953 334.584 428.551 330.648C427.601 329.186 426.899 327.943 426.417 327.081C426.136 326.655 425.914 326.192 425.759 325.707C425.861 325.707 427.016 327.49 429.004 330.341C431.486 334.12 434.573 337.464 438.142 340.239C441.756 342.942 446.143 344.413 450.656 344.435C452.521 344.347 454.368 344.028 456.154 343.484Z" fill="#1856F3" fill-opacity="0.7"/>
</g>
</svg>
