<svg width="677" height="442" viewBox="0 0 677 442" fill="none" xmlns="http://www.w3.org/2000/svg">
<path d="M375.72 233.562C376.267 233.925 376.732 234.399 377.084 234.954C381.775 243.62 381.133 275.077 379.574 301.83C378.304 323.992 376.412 342.847 376.412 342.847C376.412 342.847 257.126 325.789 244.978 322.534C232.831 319.279 30.1545 289.002 30.1545 289.002L42.2319 234.632L58.2521 162.501C58.2521 162.501 63.6208 163.479 72.9936 165.216C132.728 176.177 355.057 218.418 375.72 233.562Z" fill="#1856F3"/>
<mask id="mask0_187_5784" style="mask-type:luminance" maskUnits="userSpaceOnUse" x="30" y="162" width="351" height="181">
<path d="M375.72 233.562C376.267 233.925 376.732 234.399 377.084 234.954C381.775 243.62 381.133 275.077 379.574 301.83C378.304 323.992 376.412 342.847 376.412 342.847C376.412 342.847 257.126 325.789 244.978 322.534C232.831 319.279 30.1545 289.002 30.1545 289.002L42.2319 234.632L58.2521 162.501C58.2521 162.501 63.6208 163.479 72.9936 165.216C132.728 176.177 355.057 218.418 375.72 233.562Z" fill="white"/>
</mask>
<g mask="url(#mask0_187_5784)">
<path opacity="0.2" d="M375.72 233.562L371.743 299.731L370.258 324.724C362.228 329.459 360.797 334.33 360.797 334.33L342.599 331.547L312.854 326.863L51.1435 285.667C48.6706 278.724 40.598 273.463 40.598 273.463L48.9707 236.982L63.4577 173.776L72.9054 165.234C132.728 176.177 355.057 218.418 375.72 233.562Z" fill="black" fill-opacity="0.7"/>
<path d="M375.72 233.562L371.743 299.731L370.258 324.724C362.228 329.459 360.797 334.33 360.797 334.33L342.599 331.547L312.854 326.863L51.1435 285.667C48.6706 278.724 40.598 273.463 40.598 273.463L48.9707 236.982L63.4577 173.776L72.9054 165.234C132.728 176.177 355.057 218.418 375.72 233.562Z" stroke="#263238" stroke-linecap="round" stroke-linejoin="round"/>
<path d="M275.501 307.916L281.072 286.97L287.619 288.703L288.13 295.078L286 308.888L275.501 307.916Z" fill="#1856F3" stroke="#263238" stroke-linecap="round" stroke-linejoin="round"/>
<path d="M289.322 310.238L292.918 294.707L295.85 291.265L304.489 293.789L299.869 311.809L289.322 310.238Z" fill="#1856F3" stroke="#263238" stroke-linecap="round" stroke-linejoin="round"/>
<path d="M303.867 311.498L307.308 293.581L313.837 295.54L314.568 304.841L311.653 313.689L303.867 311.498Z" fill="#1856F3" stroke="#263238" stroke-linecap="round" stroke-linejoin="round"/>
<path d="M315.243 313.416L319.77 299.411L323.748 299.095L327.197 302.238L324.615 315.153L317.838 315.681L315.243 313.416Z" fill="#1856F3" stroke="#263238" stroke-linecap="round" stroke-linejoin="round"/>
<path d="M332.342 300.456L338.549 300.026C339.236 299.876 339.95 299.893 340.629 300.075C341.309 300.257 341.935 300.599 342.455 301.073C342.773 301.547 342.964 302.095 343.009 302.664C343.054 303.234 342.953 303.805 342.714 304.324C342.324 305.391 341.665 306.366 341.313 307.444C340.292 310.708 342.195 314.463 340.702 317.537C336.846 317.865 330.832 319.686 330.412 314.927C330.372 314.058 333.757 300.333 332.342 300.456Z" fill="#1856F3" stroke="#263238" stroke-linecap="round" stroke-linejoin="round"/>
<path d="M348.322 304.801C349.756 304.853 351.186 304.998 352.601 305.236C353.527 305.271 354.428 305.544 355.218 306.026C356.009 306.509 356.662 307.187 357.116 307.994C357.35 308.95 357.349 309.948 357.111 310.903L355.102 322.463C352.927 322.057 350.779 321.516 348.67 320.844C346.309 319.5 346.398 320.026 346.007 317.347C345.406 313.104 349.209 309.225 348.322 304.801Z" fill="#1856F3" stroke="#263238" stroke-linecap="round" stroke-linejoin="round"/>
<path d="M61.048 271.826C61.048 271.826 103.339 278.594 111.535 280.581" stroke="#263238" stroke-linecap="round" stroke-linejoin="round"/>
<path d="M63.9573 262.767L87.1656 266.851" stroke="#263238" stroke-linecap="round" stroke-linejoin="round"/>
<path d="M63.908 228.655L91.1793 233.199L92.499 229.68L65.5068 223.704L63.908 228.655Z" fill="#1856F3" stroke="#263238" stroke-linecap="round" stroke-linejoin="round"/>
<path opacity="0.2" d="M375.72 233.562C376.267 233.925 376.732 234.399 377.085 234.953C381.775 243.62 381.133 275.077 379.574 301.83L361.997 297.12L342.659 331.479L339.742 336.664L312.913 326.795L210.4 289.091L49.0697 236.925L42.2112 234.71L58.2524 162.501C58.2524 162.501 63.6211 163.479 72.9939 165.216C132.728 176.177 355.057 218.417 375.72 233.562Z" fill="black" fill-opacity="0.7"/>
</g>
<path d="M375.72 233.562C376.267 233.925 376.732 234.399 377.084 234.954C381.775 243.62 381.133 275.077 379.574 301.83C378.304 323.992 376.412 342.847 376.412 342.847C376.412 342.847 257.126 325.789 244.978 322.534C232.831 319.279 30.1545 289.002 30.1545 289.002L42.2319 234.632L58.2521 162.501C58.2521 162.501 63.6208 163.479 72.9936 165.216C132.728 176.177 355.057 218.418 375.72 233.562Z" stroke="#263238" stroke-linecap="round" stroke-linejoin="round"/>
<path d="M648.088 265.997C644.088 264.443 583.232 255.087 576.776 253.482C559.115 249.085 534.715 247.885 534.715 247.885C515.08 250.076 472.675 244.512 441.436 256.027C410.196 267.542 379.305 259.244 352.249 255.301C325.193 251.359 327.663 251.204 304.592 244.185C287.256 238.936 269.543 235.023 251.609 232.48C235.728 229.878 207.695 225.674 196.261 217.649C184.826 209.624 185.121 196.725 201.369 186.866C217.617 177.006 271.114 185.543 277.54 187.264C283.965 188.986 304.042 194.366 313.022 191.79C313.022 191.79 306.623 161.921 302.913 160.927C299.202 159.933 266.202 151.928 265.48 147.59L211.343 149.641L208.783 117.557C215.207 113.368 222.207 110.138 229.563 107.97C235.683 106.066 241.98 104.786 248.358 104.151C284.462 100.575 312.654 86.8409 323.186 85.2672C333.718 83.6934 407.536 107.869 421.461 111.6C435.387 115.331 497.175 141.516 508.038 144.176C515.897 146.093 546.371 148.607 570.062 149.324C579.179 149.674 644.618 154.502 650.045 154.01L648.088 265.997Z" fill="white"/>
<path d="M649.937 154.023C630.511 155.432 518.76 146.735 507.956 144.091C497.151 141.447 435.285 115.241 421.379 111.515C407.474 107.789 333.616 83.6035 323.104 85.1825C312.591 86.7615 284.38 100.49 248.276 104.067C234.202 105.304 220.63 109.901 208.701 117.472L211.261 149.557L265.398 147.505C266.109 151.882 299.12 159.848 302.831 160.842C306.541 161.837 312.94 191.705 312.94 191.705C303.882 194.26 283.883 188.901 277.458 187.18C271.032 185.458 217.515 176.916 201.287 186.781C185.059 196.646 184.719 209.554 196.179 217.564C207.638 225.575 235.646 229.793 251.527 232.395C269.481 234.94 287.214 238.859 304.569 244.116C327.639 251.135 325.126 251.299 352.226 255.232C379.326 259.166 410.217 267.464 441.452 255.968C472.686 244.473 515.095 250.017 534.731 247.826C534.731 247.826 633.105 260.119 648.104 265.938" stroke="#263238" stroke-linecap="round" stroke-linejoin="round"/>
<path d="M312.924 191.764C312.924 191.764 335.784 192.928 349.398 185.398" stroke="#263238" stroke-linecap="round" stroke-linejoin="round"/>
<path d="M323.541 191.594C323.541 191.594 334.75 173.665 337.308 165.601" stroke="#263238" stroke-linecap="round" stroke-linejoin="round"/>
<path d="M302.815 160.901C302.815 160.901 300.116 145.274 306.364 137.424" stroke="#263238" stroke-linecap="round" stroke-linejoin="round"/>
<path d="M265.382 147.564C265.382 147.564 267.285 136.477 262.493 132.723" stroke="#263238" stroke-linecap="round" stroke-linejoin="round"/>
<path d="M447.901 253.929C447.901 253.929 479.268 240.062 494.046 237.407" stroke="#263238" stroke-linecap="round" stroke-linejoin="round"/>
<path d="M367.374 102.843C386.93 111.809 441.697 131.466 451.322 135.698" stroke="#263238" stroke-linecap="round" stroke-linejoin="round"/>
<path d="M330.523 85.8519C349.233 90.2374 357.678 97.3145 357.678 97.3145" stroke="#263238" stroke-linecap="round" stroke-linejoin="round"/>
<path d="M28.107 176.025L104.247 42.9511C104.247 42.9511 243.507 134.208 259.714 149.499L388.297 202.247C388.297 202.247 359.762 292.648 335.776 331.31C335.776 331.31 204.239 267.555 186.126 261.173C168.013 254.792 28.107 176.025 28.107 176.025Z" fill="#1856F3"/>
<mask id="mask1_187_5784" style="mask-type:luminance" maskUnits="userSpaceOnUse" x="28" y="42" width="361" height="290">
<path d="M28.107 176.025L104.247 42.9511C104.247 42.9511 243.507 134.208 259.714 149.499L388.297 202.247C388.297 202.247 359.762 292.648 335.776 331.31C335.776 331.31 204.239 267.555 186.126 261.173C168.013 254.792 28.107 176.025 28.107 176.025Z" fill="white"/>
</mask>
<g mask="url(#mask1_187_5784)">
<path opacity="0.2" d="M180.373 249.835L53.8956 182.119C53.8956 182.119 50.7947 166.74 46.0504 159.838L102.718 65.0644C102.718 65.0644 112.86 67.4469 120.88 63.2953L256.198 155.045L362.807 197.071C362.807 197.071 359.661 214.125 371.575 219.034C371.575 219.034 359.998 273.956 340.7 307.699C340.7 307.699 326.215 308.401 316.025 312.683L180.373 249.835Z" fill="black" fill-opacity="0.7"/>
<path d="M180.373 249.835L53.8956 182.119C53.8956 182.119 50.7947 166.74 46.0504 159.838L102.718 65.0644C102.718 65.0644 112.86 67.4469 120.88 63.2953L256.198 155.045L362.807 197.071C362.807 197.071 359.661 214.125 371.575 219.034C371.575 219.034 359.998 273.956 340.7 307.699C340.7 307.699 326.215 308.401 316.025 312.683L180.373 249.835Z" stroke="#263238" stroke-linecap="round" stroke-linejoin="round"/>
<path d="M194.423 225.446C194.423 225.446 161.765 206.71 176.865 175.59C191.964 144.47 230.316 174.611 230.316 174.611C230.316 174.611 265.328 183.783 253.371 209.11C243.006 231.074 227.034 239.982 194.423 225.446Z" fill="#1856F3" stroke="#263238" stroke-linecap="round" stroke-linejoin="round"/>
<path d="M70.0711 173.077C70.0711 173.077 107.586 193.763 114.635 198.394" stroke="#263238" stroke-linecap="round" stroke-linejoin="round"/>
<path d="M75.8234 165.513L96.3044 177.197" stroke="#263238" stroke-linecap="round" stroke-linejoin="round"/>
<path d="M110.682 97.2152L122.925 79.3332L128.535 83.1599L126.882 89.3315L120.274 101.648L110.682 97.2152Z" fill="#1856F3" stroke="#263238" stroke-linecap="round" stroke-linejoin="round"/>
<path d="M122.946 104.018L131.51 90.5719L135.422 88.3129L142.72 93.5757L132.362 109.032L122.946 104.018Z" fill="#1856F3" stroke="#263238" stroke-linecap="round" stroke-linejoin="round"/>
<path d="M136.229 110.068L145.474 94.3136L150.963 98.3589L148.55 107.362L142.85 114.731L136.229 110.068Z" fill="#1856F3" stroke="#263238" stroke-linecap="round" stroke-linejoin="round"/>
<path d="M146.327 115.662L155.253 103.988L159.101 105.019L161.327 109.132L154.574 120.426L147.993 118.663L146.327 115.662Z" fill="#1856F3" stroke="#263238" stroke-linecap="round" stroke-linejoin="round"/>
<path d="M166.765 109.145L172.781 110.757C173.47 110.833 174.133 111.069 174.715 111.446C175.297 111.824 175.783 112.333 176.133 112.932C176.268 113.488 176.261 114.069 176.113 114.622C175.965 115.175 175.68 115.681 175.285 116.096C174.55 116.966 173.59 117.735 172.929 118.562C170.877 121.299 171.41 125.481 168.984 127.971C165.254 126.972 158.986 126.695 160.104 122.054C160.366 121.308 168.132 109.511 166.765 109.145Z" fill="#1856F3" stroke="#263238" stroke-linecap="round" stroke-linejoin="round"/>
<path d="M180.373 118.589C181.711 119.105 183.009 119.719 184.256 120.425C185.879 121.32 187.588 122.678 187.591 124.542C187.495 125.52 187.158 126.458 186.608 127.272L180.777 137.473C178.864 136.392 177.017 135.198 175.246 133.898C173.476 131.833 173.379 132.351 173.899 129.707C174.853 125.441 179.739 123.066 180.373 118.589Z" fill="#1856F3" stroke="#263238" stroke-linecap="round" stroke-linejoin="round"/>
<path d="M87.3403 133.391L111.454 146.906L113.876 144.038L90.4945 129.275L87.3403 133.391Z" fill="#1856F3" stroke="#263238" stroke-linecap="round" stroke-linejoin="round"/>
<path d="M239.021 262.431L249.706 243.566L255.594 246.902L254.493 253.201L248.941 266.031L239.021 262.431Z" fill="#1856F3" stroke="#263238" stroke-linecap="round" stroke-linejoin="round"/>
<path d="M251.823 268.164L259.206 254.045L262.919 251.44L270.639 256.062L261.631 272.341L251.823 268.164Z" fill="#1856F3" stroke="#263238" stroke-linecap="round" stroke-linejoin="round"/>
<path d="M265.586 273.045L273.436 256.56L279.242 260.126L277.621 269.299L272.57 277.135L265.586 273.045Z" fill="#1856F3" stroke="#263238" stroke-linecap="round" stroke-linejoin="round"/>
<path d="M276.106 277.768L284.014 265.36L287.951 266.059L290.504 269.967L284.738 281.798L278.044 280.611L276.106 277.768Z" fill="#1856F3" stroke="#263238" stroke-linecap="round" stroke-linejoin="round"/>
<path d="M295.916 269.533L302.053 270.612C302.749 270.627 303.432 270.806 304.046 271.134C304.66 271.462 305.188 271.931 305.587 272.501C305.769 273.043 305.81 273.621 305.707 274.183C305.604 274.745 305.36 275.272 304.998 275.714C304.35 276.649 303.479 277.4 302.879 278.39C301.06 281.273 301.942 285.403 299.754 288.019C295.95 287.376 289.692 287.605 290.468 282.914C290.617 282.201 297.315 269.782 295.916 269.533Z" fill="#1856F3" stroke="#263238" stroke-linecap="round" stroke-linejoin="round"/>
<path d="M310.29 277.76C311.703 278.168 313.084 278.678 314.424 279.286C316.103 280.05 317.936 281.253 318.092 283.095C318.079 284.08 317.82 285.047 317.338 285.907L312.392 296.555C310.394 295.617 308.455 294.559 306.584 293.387C304.645 291.486 304.587 292.014 304.887 289.332C305.38 285.068 310.037 282.297 310.29 277.76Z" fill="#1856F3" stroke="#263238" stroke-linecap="round" stroke-linejoin="round"/>
<path d="M350.93 201.947C350.93 201.947 300.342 183.41 295.127 182.013" stroke="#263238" stroke-linecap="round" stroke-linejoin="round"/>
<path d="M346.12 210.602C346.12 210.602 319.692 201.427 315.099 199.819" stroke="#263238" stroke-linecap="round" stroke-linejoin="round"/>
<path d="M316.941 241.612L345.943 256.103L347.623 249.833L318.16 237.062L316.941 241.612Z" fill="#1856F3" stroke="#263238" stroke-linecap="round" stroke-linejoin="round"/>
<path opacity="0.2" d="M259.042 148.963C252.578 161.758 245.179 172.732 236.786 180.07C236.786 180.07 257.156 178.579 295.071 164.101L388.276 202.325C388.276 202.325 369.662 261.328 349.859 304.375C314.514 280.043 247.246 235.016 231.778 234.074C210.559 232.721 190.616 212.076 190.616 212.076C194.585 164.765 172.193 111.855 151.396 74.0887C192.511 101.495 247.46 138.596 259.042 148.963Z" fill="black" fill-opacity="0.7"/>
</g>
<path d="M28.107 176.025L104.247 42.9511C104.247 42.9511 243.507 134.208 259.714 149.499L388.297 202.247C388.297 202.247 359.762 292.648 335.776 331.31C335.776 331.31 204.239 267.555 186.126 261.173C168.013 254.792 28.107 176.025 28.107 176.025Z" stroke="#263238" stroke-linecap="round" stroke-linejoin="round"/>
<path d="M353.445 178.109L494.046 237.406C483.292 239.339 463.723 247.22 453.883 251.366C450.209 252.893 447.896 253.948 447.896 253.948L441.431 256.046C410.196 267.542 379.3 259.263 352.205 255.31C325.11 251.358 327.618 251.214 304.548 244.194C287.226 238.944 269.528 235.028 251.609 232.48C235.728 229.878 207.695 225.674 196.261 217.649C190.657 213.719 187.884 208.601 188.435 203.265C188.985 197.928 193.098 191.955 201.369 186.866C217.597 177.001 271.114 185.543 277.54 187.264C283.965 188.986 304.042 194.366 313.022 191.79C312.924 191.764 339.836 185.62 353.445 178.109Z" fill="white"/>
<path d="M353.444 178.11C339.83 185.64 312.924 191.764 312.924 191.764C303.866 194.319 283.867 188.96 277.442 187.239C271.017 185.517 217.5 176.975 201.271 186.84C185.043 196.705 184.703 209.613 196.163 217.623C207.622 225.634 235.63 229.852 251.511 232.454C269.466 234.999 287.198 238.918 304.553 244.175C327.624 251.194 325.11 251.358 352.21 255.291C379.31 259.225 410.201 267.523 441.436 256.027L447.901 253.929C447.901 253.929 479.268 240.062 494.046 237.407" stroke="#263238" stroke-linecap="round" stroke-linejoin="round"/>
<path d="M273.33 229.927C273.33 229.927 268.917 209.759 272.074 201.102" stroke="#263238" stroke-linecap="round" stroke-linejoin="round"/>
</svg>
