<svg width="24" height="24" viewBox="0 0 24 24" fill="none" xmlns="http://www.w3.org/2000/svg">
<g clip-path="url(#clip0_143_4602)">
<path d="M20 14C20.2549 14.0003 20.5 14.0979 20.6854 14.2728C20.8707 14.4478 20.9822 14.687 20.9972 14.9414C21.0121 15.1958 20.9293 15.4464 20.7657 15.6418C20.6021 15.8373 20.3701 15.9629 20.117 15.993L20 16H6.41399L8.70699 18.293C8.88634 18.473 8.99046 18.7144 8.99822 18.9684C9.00597 19.2223 8.91678 19.4697 8.74874 19.6603C8.58071 19.8508 8.34644 19.9703 8.09352 19.9944C7.84059 20.0185 7.58798 19.9454 7.38699 19.79L7.29299 19.707L3.46299 15.877C2.79799 15.213 3.22399 14.094 4.12599 14.006L4.24099 14H20ZM15.293 4.293C15.4652 4.12082 15.6943 4.01739 15.9373 4.00211C16.1803 3.98683 16.4206 4.06075 16.613 4.21L16.707 4.293L20.537 8.123C21.202 8.787 20.776 9.906 19.874 9.994L19.759 10H3.99999C3.74511 9.99972 3.49996 9.90212 3.31462 9.72715C3.12929 9.55218 3.01776 9.31305 3.00282 9.0586C2.98788 8.80416 3.07067 8.55362 3.23426 8.35817C3.39785 8.16271 3.62989 8.0371 3.88299 8.007L3.99999 8H17.586L15.293 5.707C15.1055 5.51947 15.0002 5.26516 15.0002 5C15.0002 4.73483 15.1055 4.48053 15.293 4.293Z" fill="#1856F3"/>
</g>
<defs>
<clipPath id="clip0_143_4602">
<rect width="24" height="24" fill="white"/>
</clipPath>
</defs>
</svg>
