<svg width="18" height="20" viewBox="0 0 18 20" fill="none" xmlns="http://www.w3.org/2000/svg">
<path d="M12.24 0H8.346C6.582 0 5.184 0 4.091 0.148C2.965 0.3 2.054 0.62 1.336 1.341C0.617 2.062 0.298 2.977 0.147 4.107C7.45058e-08 5.205 0 6.608 0 8.379V14.217C0 15.725 0.92 17.017 2.227 17.559C2.16 16.649 2.16 15.374 2.16 14.312V9.302C2.16 8.021 2.16 6.916 2.278 6.032C2.405 5.084 2.691 4.176 3.425 3.439C4.159 2.702 5.064 2.415 6.008 2.287C6.888 2.169 7.988 2.169 9.265 2.169H12.335C13.611 2.169 14.709 2.169 15.59 2.287C15.326 1.61337 14.8652 1.03489 14.2676 0.626957C13.6701 0.21902 12.9635 0.000542797 12.24 0Z" fill="black"/>
<path d="M3.6001 9.39701C3.6001 6.67101 3.6001 5.30801 4.4441 4.46101C5.2871 3.61401 6.6441 3.61401 9.3601 3.61401H12.2401C14.9551 3.61401 16.3131 3.61401 17.1571 4.46101C18.0001 5.30801 18.0001 6.67101 18.0001 9.39701V14.217C18.0001 16.943 18.0001 18.306 17.1571 19.153C16.3131 20 14.9551 20 12.2401 20H9.3601C6.6451 20 5.2871 20 4.4441 19.153C3.6001 18.306 3.6001 16.943 3.6001 14.217V9.39701Z" fill="black"/>
</svg>
