<svg width="22" height="22" viewBox="0 0 22 22" fill="none" xmlns="http://www.w3.org/2000/svg">
<path d="M17.9173 16.458C18.111 16.6517 18.2199 16.9145 18.2199 17.1884C18.2199 17.4624 18.111 17.7252 17.9173 17.9189C17.7236 18.1126 17.4608 18.2215 17.1868 18.2215C16.9129 18.2215 16.6501 18.1126 16.4564 17.9189L11.0002 12.461L5.54232 17.9172C5.34858 18.1109 5.08583 18.2198 4.81185 18.2198C4.53787 18.2198 4.27511 18.1109 4.08138 17.9172C3.88765 17.7235 3.77881 17.4607 3.77881 17.1867C3.77881 16.9128 3.88765 16.65 4.08138 16.4563L9.53927 11.0001L4.0831 5.5422C3.88936 5.34847 3.78053 5.08571 3.78053 4.81173C3.78053 4.53775 3.88936 4.27499 4.0831 4.08126C4.27683 3.88753 4.53959 3.77869 4.81357 3.77869C5.08754 3.77869 5.3503 3.88753 5.54404 4.08126L11.0002 9.53915L16.4581 4.0804C16.6518 3.88667 16.9146 3.77783 17.1886 3.77783C17.4625 3.77783 17.7253 3.88667 17.919 4.0804C18.1128 4.27413 18.2216 4.53689 18.2216 4.81087C18.2216 5.08485 18.1128 5.34761 17.919 5.54134L12.4611 11.0001L17.9173 16.458Z" fill="#E91E1E"/>
</svg>
