<?xml version="1.0" encoding="UTF-8"?>
<svg id="Layer_2" data-name="Layer 2" xmlns="http://www.w3.org/2000/svg" viewBox="0 0 94.13 159.42">
  <defs>
    <style>
      .cls-1 {
        fill: #1856f3;
      }
    </style>
  </defs>
  <g id="Layer_1-2" data-name="Layer 1">
    <path class="cls-1" d="M38.29,50.39h1.34c16.54,0,32.01,7.41,42.43,20.32,10.41,12.89,14.35,29.73,10.79,46.19-5.31,24.64-28.24,42.52-54.51,42.52H2.31L0,121.55H39.63c9.18,0,16.65-7.47,16.65-16.65s-7.47-16.64-16.65-16.64H.41V0H38.29V50.39Zm-24.81,24.81h26.16c16.38,0,29.71,13.33,29.71,29.7s-13.33,29.71-29.71,29.71H13.89l.72,11.74h23.74c20.16,0,37.72-13.55,41.75-32.22,2.72-12.58-.27-25.42-8.19-35.23-7.93-9.83-19.7-15.46-32.27-15.46h-14.41V13.06H13.47v62.14Z"/>
  </g>
</svg>