<svg width="96" height="96" viewBox="0 0 96 96" fill="none" xmlns="http://www.w3.org/2000/svg">
<circle cx="48" cy="48" r="48" fill="#1856F3"/>
<path d="M29.25 58.9375V66.75H37.0625L60.1042 43.7083L52.2917 35.8958L29.25 58.9375ZM66.1458 37.6667C66.339 37.4739 66.4922 37.245 66.5967 36.993C66.7013 36.7409 66.7551 36.4708 66.7551 36.1979C66.7551 35.9251 66.7013 35.6549 66.5967 35.4029C66.4922 35.1508 66.339 34.9219 66.1458 34.7292L61.2708 29.8542C61.0781 29.661 60.8492 29.5078 60.5971 29.4033C60.3451 29.2987 60.0749 29.2449 59.8021 29.2449C59.5292 29.2449 59.2591 29.2987 59.007 29.4033C58.755 29.5078 58.5261 29.661 58.3333 29.8542L54.5208 33.6667L62.3333 41.4792L66.1458 37.6667Z" fill="white"/>
</svg>
