<svg width="500" height="418" viewBox="0 0 500 418" fill="none" xmlns="http://www.w3.org/2000/svg">
<path d="M256 417.935C390.496 417.935 499.526 411.57 499.526 403.717C499.526 395.865 390.496 389.5 256 389.5C121.504 389.5 12.4741 395.865 12.4741 403.717C12.4741 411.57 121.504 417.935 256 417.935Z" fill="#F5F5F5"/>
<path d="M197.006 363.538L188.967 368.713L174.398 351.769L182.436 346.595L197.006 363.538Z" fill="#FF8B7B"/>
<path opacity="0.2" d="M182.449 346.595L174.398 351.769L181.921 360.511L189.96 355.324L182.449 346.595Z" fill="black"/>
<path d="M135.575 391.17L126.33 392.074L116.722 370.094L125.966 369.19L135.575 391.17Z" fill="#FF8B7B"/>
<path opacity="0.2" d="M116.735 370.107L121.683 381.436H131.317L125.966 369.203L116.735 370.107Z" fill="black"/>
<path d="M65.3768 94.44C60.7296 94.8545 60.604 86.9668 52.44 90.672C42.0654 95.3945 45.5697 102.717 37.4685 102.416C29.3673 102.114 23.9414 108.432 25.75 113.142C27.5586 117.852 30.3595 122.311 24.6322 124.207C18.9048 126.104 15.0112 127.774 15.8402 132.522C16.6691 137.27 20.726 139.179 13.8934 142.206C7.06071 145.233 7.75151 158.32 14.446 158.333C21.1405 158.345 14.7223 164.864 20.726 171.496C26.7297 178.127 35.8608 179.032 39.6665 175.766C43.4722 172.5 47.7174 169.8 54.8766 174.824C62.0358 179.848 74.1562 181.104 73.6036 173.141C73.0509 165.178 66.0676 159.953 72.649 155.808C79.2305 151.663 87.721 149.616 85.0583 141.553C83.3627 136.529 78.2382 132.158 82.3705 128.402C89.0901 122.298 89.1278 108.482 80.8884 104.978C76.103 102.956 80.7126 93.0584 65.3768 94.44Z" fill="#263238"/>
<path d="M56.4341 156.511C56.208 160.279 55.7307 163.633 55.1781 167.162C54.6254 170.692 53.8216 174.133 52.9047 177.587C52.0109 181.079 50.8736 184.504 49.5009 187.836C48.8227 189.519 48.044 191.19 47.215 192.86C46.8005 193.689 46.3484 194.505 45.8837 195.309C45.6701 195.724 45.4064 196.126 45.1677 196.565L44.8035 197.156C44.5562 197.549 44.2791 197.923 43.9745 198.273C43.2779 199.06 42.4215 199.69 41.4625 200.12C40.6059 200.508 39.6875 200.742 38.7496 200.811C37.3702 200.89 35.9884 200.702 34.6801 200.258C32.7318 199.588 30.8752 198.677 29.1537 197.545C26.1222 195.562 23.2536 193.34 20.5753 190.901C15.4117 186.204 10.5969 181.137 6.16895 175.741L9.73599 172.312C12.248 174.523 14.76 176.771 17.385 178.906C20.0101 181.041 22.5723 183.189 25.2476 185.186C27.7946 187.146 30.4812 188.917 33.286 190.486C34.4718 191.158 35.7378 191.677 37.054 192.031C37.3707 192.129 37.7046 192.159 38.0337 192.119H37.7825C37.6165 192.2 37.464 192.306 37.3303 192.433L37.2675 192.496L37.5438 191.981C37.7197 191.642 37.9206 191.315 38.0839 190.964C38.4356 190.269 38.7747 189.565 39.1013 188.853C39.7293 187.422 40.3573 185.965 40.8597 184.445C41.9147 181.431 42.7939 178.316 43.5726 175.151C44.3513 171.985 44.9417 168.757 45.4692 165.504C45.9967 162.251 46.3986 158.923 46.7252 155.833L56.4341 156.511Z" fill="#FF8B7B"/>
<path d="M63.7315 157.692C63.2291 160.732 60.7045 166.484 58.7075 170.755C57.2254 173.844 56.0197 176.168 56.0197 176.168L54.2613 175.389L39.7042 168.908C40.8095 161.058 42.6056 152.58 51.2594 148.724C56.6602 146.338 64.6233 152.216 63.7315 157.692Z" fill="#407BFF"/>
<path opacity="0.6" d="M63.7315 157.692C63.2291 160.732 60.7045 166.484 58.7075 170.755C57.2254 173.844 56.0197 176.168 56.0197 176.168L54.2613 175.389L39.7042 168.908C40.8095 161.058 42.6056 152.58 51.2594 148.724C56.6602 146.338 64.6233 152.216 63.7315 157.692Z" fill="black"/>
<path opacity="0.3" d="M58.6698 170.754C57.1877 173.844 55.9819 176.168 55.9819 176.168L54.2235 175.389C54.4622 172.287 55.0776 167.401 56.7355 165.203C57.7711 166.893 58.4307 168.787 58.6698 170.754Z" fill="black"/>
<path d="M10.2887 175.188L11.4442 166.735L1.96143 169.8C1.96143 169.8 3.46862 174.912 6.84726 177.009L10.2887 175.188Z" fill="#FF8B7B"/>
<path d="M7.14866 159.513L0.529541 163.143L1.96139 169.85L11.4442 166.735L7.14866 159.513Z" fill="#FF8B7B"/>
<path d="M186.003 366.176L194.732 359.896C194.882 359.786 195.066 359.735 195.251 359.751C195.436 359.767 195.609 359.85 195.737 359.983L201.678 366.176C201.822 366.336 201.931 366.525 201.997 366.731C202.063 366.937 202.085 367.154 202.062 367.368C202.038 367.583 201.969 367.79 201.86 367.977C201.75 368.163 201.603 368.324 201.427 368.449C198.35 370.584 196.754 371.451 192.911 374.201C190.55 375.897 185.576 379.992 182.31 382.328C179.045 384.664 176.571 381.574 177.713 380.306C182.863 374.628 184.232 370.76 185.049 367.57C185.196 367.009 185.533 366.516 186.003 366.176Z" fill="#263238"/>
<path d="M125.112 389.223H136.416C136.619 389.227 136.816 389.296 136.977 389.42C137.138 389.545 137.254 389.718 137.308 389.914L139.82 398.882C139.881 399.094 139.891 399.317 139.85 399.534C139.809 399.75 139.718 399.954 139.583 400.129C139.449 400.304 139.275 400.445 139.076 400.54C138.877 400.635 138.659 400.683 138.438 400.678C134.444 400.678 132.548 400.678 127.561 400.678H112.314C108.169 400.678 107.29 396.483 109.01 396.106C116.697 394.41 121.131 392.062 123.504 389.826C123.944 389.428 124.519 389.213 125.112 389.223Z" fill="#263238"/>
<path d="M107.855 191.73L70.8405 203.436C45.2181 152.718 48.8731 150.031 48.8731 150.031C48.8731 150.031 54.7888 146.652 60.9432 143.838C61.8727 143.411 62.8147 142.997 63.7441 142.582C69.2119 140.409 74.828 138.63 80.5494 137.257C81.3909 137.031 82.2324 136.83 83.0614 136.629C87.6177 135.599 92.2311 134.839 96.8774 134.356C97.43 141.377 97.9827 147.318 98.5856 152.48C99.3643 159.212 100.206 164.6 101.098 169.26C102.746 176.918 105.006 184.432 107.855 191.73Z" fill="#407BFF"/>
<path opacity="0.6" d="M107.855 191.73L70.8405 203.436C45.2181 152.718 48.8731 150.031 48.8731 150.031C48.8731 150.031 54.7888 146.652 60.9432 143.838C61.8727 143.411 62.8147 142.997 63.7441 142.582C69.2119 140.409 74.828 138.63 80.5494 137.257C81.3909 137.031 82.2324 136.83 83.0614 136.629C87.6177 135.599 92.2311 134.839 96.8774 134.356C97.43 141.377 97.9827 147.318 98.5856 152.48C99.3643 159.212 100.206 164.6 101.098 169.26C102.746 176.918 105.006 184.432 107.855 191.73Z" fill="black"/>
<path opacity="0.3" d="M101.198 169.285C97.6435 164.261 94.2398 152.568 95.119 148.184L98.6358 152.505C99.4145 159.237 100.256 164.625 101.198 169.285Z" fill="black"/>
<path d="M72.1592 159.501C72.1592 159.501 81.4913 157.479 84.4931 161.535C88.6128 157.479 87.1558 141.628 85.1713 135.976C83.5975 136.243 82.0537 136.664 80.5618 137.232L73.9678 147.431L72.1592 159.501Z" fill="white"/>
<path d="M72.1592 159.501C72.1592 159.501 65.8792 160.907 65.2135 166.045C56.4215 159.501 57.0369 149.917 59.0214 144.265C60.5279 143.536 62.1122 142.98 63.744 142.608L70.338 149.867L72.1592 159.501Z" fill="white"/>
<path d="M74.307 126.581C75.563 131.203 77.4721 135.775 80.587 137.282C80.587 137.282 83.4883 145.597 72.1843 159.501C60.3528 151.073 63.7691 142.608 63.7691 142.608C69.3458 139.254 67.7758 134.833 65.4019 130.964L68.6801 125.702C69.0067 125.195 69.4734 124.794 70.0235 124.547C70.5737 124.3 71.1837 124.218 71.7795 124.311C72.3753 124.404 72.9312 124.668 73.3799 125.071C73.8285 125.474 74.1506 125.999 74.307 126.581Z" fill="#FF8B7B"/>
<path opacity="0.2" d="M74.307 126.581C74.1568 125.989 73.8358 125.454 73.3839 125.043C72.932 124.631 72.3692 124.362 71.7654 124.269C71.1617 124.175 70.5437 124.261 69.9884 124.516C69.4331 124.77 68.9651 125.183 68.6424 125.702L67.5874 127.385C67.6753 128.503 67.7256 129.42 67.713 129.897C67.6125 133.162 72.1969 133.012 75.9272 131.442C75.2623 129.866 74.7206 128.241 74.307 126.581Z" fill="black"/>
<path d="M51.5859 113.958C54.8515 122.863 56.0322 126.707 62.0107 129.997C70.9911 134.959 81.215 129.005 80.6874 119.296C80.2102 110.567 74.9601 97.4544 65 96.4873C62.8046 96.265 60.5888 96.6074 58.5629 97.482C56.537 98.3566 54.7682 99.7344 53.4244 101.485C52.0805 103.235 51.2062 105.3 50.8845 107.483C50.5627 109.666 50.8042 111.895 51.5859 113.958Z" fill="#FF8B7B"/>
<path d="M74.6838 100.569C71.6192 97.6177 68.4038 94.1888 62.2494 94.8545C55.4419 95.5955 52.7541 99.7152 52.7541 99.7152L46.9011 112.514C46.9011 112.514 50.531 128.993 56.5221 121.306C59.9761 116.86 60.064 110.14 58.808 105.116C61.1617 104.784 63.4816 104.246 65.7411 103.508C68.5043 104.538 71.6066 104.538 73.9051 102.428C74.4075 101.963 74.7718 101.599 75.0355 101.31L75.249 101.072C75.9273 100.205 75.3621 100.293 74.6838 100.569ZM66.771 103.232C68.9166 102.538 71.0966 101.955 73.3022 101.486C72.4822 102.354 71.4372 102.976 70.284 103.284C69.1308 103.593 67.9146 103.575 66.771 103.232Z" fill="#263238"/>
<path d="M52.0382 123.014C52.9813 124.595 54.5123 125.737 56.296 126.192C58.6573 126.782 59.7751 124.659 59.0592 122.424C58.4187 120.452 56.4216 117.764 54.0352 118.141C53.5193 118.235 53.0354 118.458 52.628 118.788C52.2206 119.118 51.9029 119.546 51.704 120.031C51.5051 120.517 51.4315 121.044 51.4899 121.565C51.5483 122.087 51.7368 122.585 52.0382 123.014Z" fill="#FF8B7B"/>
<path d="M70.8404 203.448C70.8404 203.448 69.5844 279.298 79.4943 306.704C89.0399 332.979 117.513 378.145 117.513 378.145L134.017 377.731C134.017 377.731 107.792 320.52 103.509 297.912C96.3749 260.395 97.9449 194.92 97.9449 194.92L70.8404 203.448Z" fill="#407BFF"/>
<path opacity="0.3" d="M85.6613 209.992L90.0949 197.432L97.9449 194.92C97.9449 194.92 97.229 224.725 98.9497 255.635C91.8282 241.919 85.6613 216.799 85.6613 209.992Z" fill="black"/>
<path d="M115.19 378.999L135.575 378.484L134.394 372.217L112.138 373.272L115.19 378.999Z" fill="#263238"/>
<path d="M78.9039 200.999C78.9039 200.999 104.652 259.893 121.294 293.416C134.733 320.495 176.558 356.818 176.558 356.818L188.025 348.868C188.025 348.868 156.55 305.837 147.268 287.475C117.564 228.719 124.886 204.503 107.804 191.73L78.9039 200.999Z" fill="#407BFF"/>
<path d="M177.236 360.612L190.701 351.028L187.648 345.15L172.853 356.341L177.236 360.612Z" fill="#263238"/>
<path d="M107.792 189.381L110.505 192.169C110.718 192.383 110.505 192.747 110.065 192.885L71.2424 205.156C70.9158 205.269 70.5893 205.156 70.5013 204.993L69.1197 201.778C69.0193 201.564 69.2453 201.275 69.6096 201.162L107.101 189.293C107.214 189.247 107.337 189.23 107.458 189.246C107.579 189.261 107.694 189.308 107.792 189.381Z" fill="#263238"/>
<path d="M104.024 195.171L105.029 194.857C105.23 194.857 105.355 194.631 105.293 194.518L103.471 190.361C103.417 190.293 103.343 190.245 103.258 190.224C103.174 190.204 103.086 190.212 103.007 190.248L102.002 190.574C101.801 190.637 101.675 190.788 101.738 190.913L103.572 195.058C103.61 195.184 103.81 195.234 104.024 195.171Z" fill="#407BFF"/>
<path d="M74.1186 204.629L75.1234 204.315C75.3243 204.252 75.4374 204.101 75.3871 203.976L73.5534 199.818C73.5534 199.693 73.2896 199.655 73.0886 199.718L72.0838 200.032C71.8954 200.095 71.7698 200.245 71.8201 200.371L73.6538 204.528C73.7105 204.592 73.7862 204.637 73.8698 204.655C73.9533 204.673 74.0405 204.664 74.1186 204.629Z" fill="#407BFF"/>
<path d="M89.065 199.944L90.0698 199.63C90.2708 199.567 90.3964 199.416 90.3336 199.291L88.4998 195.134C88.4998 195.02 88.2486 194.97 88.0476 195.033L87.0429 195.347C86.8419 195.347 86.7163 195.561 86.7791 195.686L88.6003 199.844C88.6631 199.944 88.864 199.944 89.065 199.944Z" fill="#407BFF"/>
<path d="M67.2106 112.024C67.4367 112.765 68.0019 113.28 68.4666 113.104C68.9314 112.928 69.1574 112.237 68.9313 111.509C68.7053 110.781 68.1526 110.253 67.6753 110.429C67.1981 110.605 66.9971 111.258 67.2106 112.024Z" fill="#263238"/>
<path d="M75.563 109.512C75.7891 110.253 76.3543 110.768 76.819 110.592C77.2837 110.416 77.5098 109.738 77.2963 108.997C77.0828 108.256 76.505 107.741 76.0403 107.917C75.5756 108.093 75.3495 108.771 75.563 109.512Z" fill="#263238"/>
<path d="M75.8392 108.017L77.4595 106.975C77.4595 106.975 76.9696 108.633 75.8392 108.017Z" fill="#263238"/>
<path d="M73.478 111.434C74.6433 112.92 76.0037 114.242 77.5223 115.365C77.2193 115.743 76.8378 116.052 76.4042 116.269C75.9705 116.485 75.495 116.606 75.0103 116.621L73.478 111.434Z" fill="#FF5652"/>
<path d="M72.5235 120.69C72.5581 120.662 72.5838 120.625 72.5972 120.582C72.6106 120.54 72.6111 120.494 72.5988 120.452C72.5813 120.395 72.5433 120.347 72.4922 120.317C72.4411 120.286 72.3806 120.276 72.3225 120.288C71.4102 120.586 70.4402 120.663 69.4925 120.512C68.5447 120.362 67.6463 119.988 66.8715 119.422C66.8484 119.402 66.8216 119.387 66.7927 119.377C66.7638 119.368 66.7333 119.364 66.703 119.367C66.6726 119.369 66.6431 119.377 66.616 119.391C66.5888 119.405 66.5647 119.424 66.5449 119.447C66.5251 119.47 66.51 119.497 66.5006 119.526C66.4911 119.555 66.4875 119.585 66.4898 119.615C66.4922 119.646 66.5004 119.675 66.5142 119.702C66.528 119.73 66.5469 119.754 66.57 119.773C67.4031 120.389 68.371 120.797 69.3934 120.963C70.4158 121.129 71.4631 121.048 72.4481 120.728L72.5235 120.69Z" fill="#263238"/>
<path d="M64.0581 109.977C64.1167 109.922 64.1599 109.852 64.1837 109.776C64.3702 109.24 64.6798 108.755 65.0877 108.36C65.4956 107.965 65.9904 107.671 66.5324 107.502C66.5955 107.496 66.6566 107.476 66.7115 107.444C66.7664 107.412 66.8141 107.37 66.8514 107.318C66.8886 107.267 66.9147 107.208 66.9278 107.146C66.9409 107.084 66.9408 107.02 66.9275 106.958C66.9142 106.896 66.888 106.837 66.8506 106.786C66.8132 106.735 66.7655 106.692 66.7104 106.66C66.6554 106.629 66.5943 106.609 66.5312 106.603C66.4681 106.596 66.4043 106.603 66.344 106.623C65.6458 106.823 65.0071 107.191 64.4838 107.694C63.9606 108.198 63.5686 108.822 63.3422 109.512C63.3201 109.568 63.3093 109.628 63.3107 109.688C63.312 109.748 63.3253 109.808 63.3499 109.863C63.3745 109.918 63.4098 109.967 63.4537 110.008C63.4977 110.049 63.5495 110.081 63.606 110.102C63.6859 110.119 63.7686 110.116 63.8472 110.094C63.9258 110.072 63.9981 110.032 64.0581 109.977Z" fill="#263238"/>
<path d="M78.1127 104.777C78.1086 104.748 78.1086 104.718 78.1127 104.689C78.1283 104.571 78.0997 104.452 78.0323 104.355C77.965 104.257 77.8638 104.188 77.7485 104.161C77.0448 104.012 76.3156 104.032 75.621 104.219C74.9265 104.407 74.2867 104.758 73.7544 105.242C73.6711 105.328 73.6257 105.444 73.628 105.564C73.6304 105.685 73.6804 105.799 73.767 105.882C73.8536 105.965 73.9697 106.011 74.0898 106.009C74.21 106.006 74.3242 105.956 74.4075 105.87C74.8329 105.493 75.3416 105.222 75.8918 105.081C76.4421 104.939 77.0181 104.929 77.5726 105.053C77.6808 105.079 77.7949 105.066 77.894 105.015C77.9931 104.965 78.0707 104.88 78.1127 104.777Z" fill="#263238"/>
<path d="M102.554 143.248C104.049 144.366 105.305 145.408 106.611 146.539C107.918 147.669 109.123 148.8 110.379 149.98C112.829 152.342 115.19 154.803 117.425 157.391C119.686 159.992 121.783 162.732 123.705 165.592C124.208 166.296 124.647 167.062 125.112 167.79C125.577 168.519 126.042 169.26 126.456 170.039C126.871 170.817 127.31 171.508 127.712 172.375L128.378 173.769L128.918 175.176C130.076 178.742 130.619 182.48 130.526 186.228C130.449 189.712 130.075 193.183 129.408 196.603C128.755 199.957 127.901 203.235 126.896 206.45C125.883 209.671 124.7 212.836 123.354 215.933L118.807 214.25C119.586 211.235 120.327 208.07 120.879 204.943C121.493 201.846 121.942 198.718 122.223 195.573C122.525 192.527 122.597 189.462 122.437 186.404C122.347 184.955 122.171 183.512 121.909 182.084C121.634 180.765 121.252 179.472 120.766 178.215L120.377 177.349L119.95 176.557C119.611 175.979 119.146 175.301 118.694 174.661C118.242 174.02 117.865 173.405 117.438 172.764C117.011 172.124 116.571 171.508 116.094 170.905C114.26 168.393 112.188 166.107 110.128 163.784C108.068 161.46 105.807 159.275 103.509 157.139C102.379 156.059 101.211 155.004 100.042 153.974C98.8744 152.944 97.6184 151.915 96.5382 151.035L102.554 143.248Z" fill="#FF8B7B"/>
<path d="M120.251 211.248L113.369 216.272L122.161 220.919C122.161 220.919 124.786 216.272 123.944 212.391L120.251 211.248Z" fill="#FF8B7B"/>
<path d="M111.196 224.423L118.393 226.647L122.223 220.944L113.369 216.297L111.196 224.423Z" fill="#FF8B7B"/>
<path d="M96.9275 134.381C101.738 134.167 111.196 145.986 111.196 145.986L101.374 159.878C101.374 159.878 90.346 151.086 89.492 144.969C88.776 139.756 90.7982 134.632 96.9275 134.381Z" fill="#407BFF"/>
<path opacity="0.6" d="M96.9275 134.381C101.738 134.167 111.196 145.986 111.196 145.986L101.374 159.878C101.374 159.878 90.346 151.086 89.492 144.969C88.776 139.756 90.7982 134.632 96.9275 134.381Z" fill="black"/>
<path d="M182.7 370.107H182.549C182.329 370.079 182.12 369.994 181.943 369.859C181.767 369.725 181.629 369.546 181.544 369.341C181.478 369.222 181.444 369.088 181.444 368.951C181.444 368.815 181.478 368.681 181.544 368.562C182.16 367.507 185.614 367.306 186.003 367.306C186.047 367.305 186.09 367.317 186.127 367.339C186.165 367.361 186.196 367.393 186.217 367.432C186.241 367.469 186.255 367.513 186.255 367.557C186.255 367.602 186.241 367.646 186.217 367.683C185.375 368.612 183.88 370.107 182.7 370.107ZM185.463 367.808C184.081 367.909 182.248 368.235 181.934 368.788C181.9 368.838 181.881 368.897 181.881 368.958C181.881 369.018 181.9 369.077 181.934 369.127C181.987 369.265 182.075 369.386 182.19 369.478C182.304 369.571 182.441 369.632 182.587 369.655C183.252 369.73 184.307 369.039 185.463 367.808Z" fill="#407BFF"/>
<path d="M185.764 367.783C184.609 367.783 182.335 367.143 181.908 366.213C181.84 366.049 181.828 365.866 181.873 365.694C181.919 365.521 182.019 365.369 182.16 365.259C182.29 365.142 182.443 365.054 182.61 365C182.777 364.945 182.953 364.927 183.127 364.945C184.496 365.095 186.116 367.319 186.179 367.457C186.2 367.491 186.211 367.53 186.211 367.57C186.211 367.61 186.2 367.649 186.179 367.683C186.161 367.716 186.137 367.745 186.106 367.767C186.075 367.789 186.04 367.803 186.003 367.808L185.764 367.783ZM182.976 365.397C182.789 365.396 182.608 365.468 182.474 365.598C182.26 365.786 182.285 365.937 182.323 366.037C182.599 366.64 184.383 367.293 185.551 367.293C184.973 366.578 183.893 365.447 183.039 365.359L182.976 365.397Z" fill="#407BFF"/>
<path d="M120.076 391.095C119.302 391.15 118.53 390.966 117.865 390.567C117.693 390.44 117.551 390.276 117.451 390.087C117.351 389.898 117.295 389.688 117.287 389.474C117.277 389.355 117.298 389.236 117.349 389.128C117.4 389.02 117.478 388.927 117.576 388.859C118.606 388.168 122.462 389.914 123.228 390.278C123.271 390.297 123.306 390.329 123.329 390.37C123.352 390.411 123.36 390.458 123.354 390.504C123.35 390.552 123.33 390.597 123.299 390.633C123.267 390.67 123.225 390.695 123.178 390.705C122.16 390.939 121.12 391.069 120.076 391.095ZM118.28 389.135C118.123 389.127 117.966 389.162 117.827 389.236C117.795 389.26 117.77 389.293 117.754 389.33C117.739 389.368 117.734 389.409 117.739 389.449C117.744 389.597 117.783 389.742 117.853 389.873C117.922 390.003 118.021 390.116 118.141 390.203C118.807 390.705 120.377 390.781 122.399 390.404C121.101 389.768 119.711 389.34 118.28 389.135Z" fill="#407BFF"/>
<path d="M123.128 390.705H123.052C121.796 390.178 119.184 388.105 119.284 387.038C119.284 386.812 119.473 386.51 120.05 386.447C122.311 386.171 123.266 390.215 123.304 390.442C123.312 390.483 123.309 390.525 123.296 390.565C123.283 390.604 123.259 390.64 123.228 390.668C123.199 390.689 123.164 390.702 123.128 390.705ZM120.352 386.874H120.201C119.963 386.874 119.837 386.975 119.812 387.088C119.736 387.703 121.52 389.349 122.826 390.065C122.487 389.072 121.671 386.874 120.352 386.874Z" fill="#407BFF"/>
<path d="M67.4869 110.504L69.1072 109.462C69.1072 109.462 68.6173 111.12 67.4869 110.504Z" fill="#263238"/>
<path d="M304.519 18.6655H121.985C120.035 18.6522 118.102 19.0385 116.307 19.8006C114.512 20.5626 112.892 21.6843 111.547 23.0965C110.202 24.5086 109.16 26.1813 108.486 28.0114C107.812 29.8415 107.521 31.7903 107.629 33.7375L124.748 388.645C124.992 392.689 126.756 396.49 129.687 399.285C132.618 402.081 136.498 403.665 140.548 403.717H323.083C325.033 403.731 326.964 403.345 328.759 402.582C330.553 401.82 332.173 400.698 333.517 399.286C334.861 397.873 335.901 396.201 336.574 394.371C337.246 392.541 337.536 390.592 337.426 388.645L320.32 33.7375C320.076 29.6944 318.311 25.8933 315.38 23.0975C312.449 20.3018 308.569 18.7184 304.519 18.6655Z" fill="black"/>
<path d="M311.264 18.6655H128.679C126.73 18.6521 124.798 19.0385 123.003 19.8007C121.209 20.5629 119.589 21.6848 118.245 23.0971C116.901 24.5095 115.861 26.1823 115.188 28.0124C114.516 29.8425 114.226 31.7909 114.336 33.7375L131.442 388.645C131.686 392.689 133.451 396.49 136.382 399.285C139.313 402.081 143.193 403.665 147.243 403.717H329.777C331.727 403.731 333.659 403.345 335.453 402.582C337.248 401.82 338.867 400.698 340.211 399.286C341.555 397.874 342.596 396.201 343.268 394.371C343.941 392.541 344.231 390.592 344.121 388.645L327.014 33.7375C326.771 29.703 325.013 25.9089 322.093 23.1144C319.173 20.3199 315.305 18.731 311.264 18.6655Z" fill="#263238"/>
<path d="M146.728 393.67C145.383 393.636 144.1 393.102 143.127 392.173C142.154 391.245 141.562 389.987 141.465 388.646L124.384 33.7376C124.353 33.0898 124.454 32.4425 124.681 31.8349C124.907 31.2273 125.255 30.6719 125.702 30.2024C126.149 29.7328 126.687 29.3587 127.283 29.1029C127.879 28.847 128.521 28.7145 129.169 28.7136H311.704C313.05 28.7419 314.337 29.2733 315.311 30.2032C316.285 31.1331 316.875 32.394 316.966 33.7376L334.073 388.646C334.103 389.292 334.003 389.938 333.777 390.545C333.551 391.152 333.205 391.707 332.759 392.176C332.313 392.646 331.777 393.02 331.182 393.277C330.588 393.533 329.948 393.667 329.3 393.67H146.728Z" fill="#407BFF"/>
<path opacity="0.1" d="M146.64 391.157C145.969 391.135 145.329 390.867 144.843 390.404C144.357 389.941 144.057 389.315 144.002 388.645L126.896 33.7376C126.884 33.415 126.937 33.0934 127.051 32.7916C127.165 32.4898 127.338 32.2138 127.561 31.9798C127.783 31.7458 128.05 31.5586 128.345 31.4291C128.641 31.2995 128.959 31.2304 129.282 31.2256H311.817C312.489 31.2452 313.13 31.5126 313.617 31.9763C314.103 32.44 314.402 33.0672 314.454 33.7376L331.561 388.645C331.573 388.968 331.52 389.29 331.406 389.591C331.291 389.893 331.118 390.169 330.896 390.403C330.674 390.637 330.407 390.824 330.111 390.954C329.816 391.083 329.497 391.153 329.174 391.157H146.64Z" fill="black"/>
<g opacity="0.3">
<path d="M201.728 370.76H165.568C164.575 370.749 163.624 370.362 162.906 369.676C162.188 368.991 161.757 368.058 161.699 367.067L159.062 312.168C159.029 311.682 159.097 311.195 159.261 310.738C159.425 310.28 159.682 309.861 160.016 309.507C160.35 309.153 160.753 308.872 161.2 308.682C161.648 308.491 162.13 308.395 162.616 308.4H198.839C199.829 308.408 200.779 308.793 201.496 309.476C202.212 310.16 202.641 311.091 202.695 312.08L205.295 366.992C205.326 367.478 205.257 367.965 205.091 368.423C204.926 368.881 204.667 369.3 204.333 369.653C203.998 370.007 203.594 370.288 203.146 370.478C202.698 370.668 202.215 370.764 201.728 370.76ZM162.566 309.681C162.253 309.679 161.942 309.741 161.653 309.861C161.364 309.982 161.102 310.16 160.883 310.384C160.67 310.615 160.504 310.886 160.396 311.181C160.289 311.477 160.24 311.791 160.255 312.105L162.905 366.992C162.94 367.664 163.23 368.298 163.715 368.764C164.2 369.231 164.845 369.495 165.518 369.504H201.728C202.043 369.506 202.355 369.444 202.645 369.321C202.934 369.197 203.196 369.016 203.413 368.787C203.629 368.559 203.797 368.288 203.904 367.992C204.012 367.697 204.058 367.382 204.039 367.067L201.389 312.168C201.357 311.497 201.07 310.863 200.587 310.396C200.104 309.929 199.461 309.664 198.789 309.656L162.566 309.681Z" fill="#FAFAFA"/>
<path d="M198.312 322.429H164.312C164.145 322.429 163.986 322.363 163.868 322.245C163.75 322.127 163.684 321.968 163.684 321.801C163.684 321.635 163.75 321.475 163.868 321.357C163.986 321.239 164.145 321.173 164.312 321.173H198.349C198.516 321.173 198.676 321.239 198.793 321.357C198.911 321.475 198.977 321.635 198.977 321.801C198.977 321.968 198.911 322.127 198.793 322.245C198.676 322.363 198.516 322.429 198.349 322.429H198.312Z" fill="#FAFAFA"/>
<path d="M198.664 329.526H164.613C164.448 329.522 164.29 329.455 164.173 329.338C164.056 329.221 163.989 329.063 163.985 328.898C163.985 328.731 164.052 328.571 164.169 328.453C164.287 328.336 164.447 328.27 164.613 328.27H198.664C198.83 328.27 198.99 328.336 199.108 328.453C199.225 328.571 199.292 328.731 199.292 328.898C199.288 329.063 199.221 329.221 199.104 329.338C198.987 329.455 198.829 329.522 198.664 329.526Z" fill="#FAFAFA"/>
<path d="M199.003 336.622H164.952C164.787 336.619 164.629 336.551 164.512 336.434C164.395 336.317 164.328 336.159 164.324 335.994C164.324 335.827 164.391 335.668 164.508 335.55C164.626 335.432 164.786 335.366 164.952 335.366H199.003C199.169 335.366 199.329 335.432 199.447 335.55C199.564 335.668 199.631 335.827 199.631 335.994C199.631 336.16 199.564 336.32 199.447 336.438C199.329 336.556 199.169 336.622 199.003 336.622Z" fill="#FAFAFA"/>
<path d="M199.342 343.718H165.304C165.138 343.718 164.978 343.652 164.86 343.534C164.742 343.417 164.676 343.257 164.676 343.09C164.676 342.924 164.742 342.764 164.86 342.646C164.978 342.528 165.138 342.462 165.304 342.462H199.342C199.508 342.462 199.668 342.528 199.786 342.646C199.904 342.764 199.97 342.924 199.97 343.09C199.97 343.257 199.904 343.417 199.786 343.534C199.668 343.652 199.508 343.718 199.342 343.718Z" fill="#FAFAFA"/>
<path d="M199.681 350.815H165.643C165.477 350.815 165.317 350.749 165.199 350.631C165.081 350.513 165.015 350.353 165.015 350.187C165.015 350.02 165.081 349.86 165.199 349.743C165.317 349.625 165.477 349.559 165.643 349.559H199.681C199.847 349.559 200.007 349.625 200.125 349.743C200.243 349.86 200.309 350.02 200.309 350.187C200.309 350.353 200.243 350.513 200.125 350.631C200.007 350.749 199.847 350.815 199.681 350.815Z" fill="#FAFAFA"/>
<path d="M193.049 357.911H165.982C165.816 357.911 165.656 357.845 165.538 357.727C165.421 357.609 165.354 357.45 165.354 357.283C165.354 357.117 165.421 356.957 165.538 356.839C165.656 356.721 165.816 356.655 165.982 356.655H193.049C193.216 356.655 193.375 356.721 193.493 356.839C193.611 356.957 193.677 357.117 193.677 357.283C193.674 357.449 193.607 357.607 193.49 357.724C193.373 357.841 193.215 357.908 193.049 357.911Z" fill="#FAFAFA"/>
</g>
<g opacity="0.3">
<path d="M224.525 169.335L199.693 173.304C198.735 170.941 197.468 168.716 195.925 166.685C194.439 165.125 192.681 163.848 190.738 162.917L191.668 182.385C205.475 186.019 214.765 189.854 219.538 193.89C222.581 196.426 225.05 199.579 226.783 203.141C228.515 206.703 229.471 210.592 229.586 214.551C229.919 219.185 229.067 223.827 227.112 228.041C225.252 231.972 222.576 235.461 219.262 238.277C216.175 240.922 212.605 242.943 208.749 244.231C204.223 245.591 199.533 246.326 194.808 246.416L194.971 249.845C195.009 250.48 194.916 251.115 194.698 251.712C194.479 252.31 194.141 252.855 193.702 253.316C193.264 253.777 192.736 254.142 192.15 254.39C191.565 254.638 190.934 254.762 190.299 254.756C188.978 254.742 187.711 254.227 186.755 253.316C185.799 252.404 185.225 251.164 185.149 249.845L184.986 246.416C179.473 246.062 174.031 244.989 168.796 243.226C164.786 241.777 161.077 239.601 157.856 236.808C154.916 234.297 152.427 231.302 150.496 227.953C148.56 224.35 147.151 220.489 146.313 216.486L173.33 213.333C174.352 217.762 175.608 220.965 177.098 222.941C178.971 225.237 181.377 227.04 184.107 228.191L182.964 204.428C176.273 202.762 169.722 200.579 163.37 197.897C159.261 195.848 155.729 192.804 153.096 189.042C150.018 184.694 148.316 179.522 148.21 174.196C147.918 170.521 148.43 166.827 149.709 163.369C150.989 159.912 153.006 156.775 155.62 154.175C160.946 148.808 169.11 145.836 180.112 145.258L180.025 143.512C179.987 142.877 180.08 142.242 180.298 141.644C180.516 141.047 180.855 140.501 181.293 140.041C181.731 139.58 182.26 139.215 182.845 138.967C183.431 138.719 184.061 138.595 184.697 138.601C186.018 138.615 187.284 139.129 188.24 140.041C189.196 140.953 189.77 142.193 189.846 143.512L189.934 145.258C199.982 145.886 207.774 148.264 213.309 152.392C218.876 156.59 222.835 162.571 224.525 169.335ZM180.941 162.616C178.702 163.19 176.68 164.408 175.126 166.12C174.069 167.539 173.556 169.291 173.682 171.056C173.748 172.949 174.437 174.768 175.641 176.231C177.318 177.99 179.441 179.262 181.783 179.911L180.941 162.616ZM193.966 228.832C197.734 227.995 200.455 226.588 202.13 224.612C202.934 223.723 203.554 222.684 203.955 221.554C204.356 220.425 204.53 219.227 204.466 218.03C204.338 215.85 203.449 213.783 201.954 212.19C200.372 210.419 197.357 208.761 192.936 207.241L193.966 228.832Z" fill="#FAFAFA"/>
</g>
<path opacity="0.2" d="M290.163 64.9994H165.819L177.94 316.338C178.531 326.634 183.01 336.322 190.471 343.443C197.932 350.563 207.818 354.585 218.132 354.696H342.476L330.368 103.358C329.782 93.0568 325.303 83.3636 317.838 76.2415C310.373 69.1193 300.48 65.1006 290.163 64.9994Z" fill="black"/>
<path d="M320.621 64.9994H165.857C176.171 65.1068 186.059 69.1279 193.52 76.2491C200.982 83.3703 205.46 93.06 206.049 103.358L215.934 307.96C216.525 318.257 221.004 327.945 228.465 335.065C235.926 342.186 245.813 346.208 256.126 346.318H334.161C339.129 346.37 344.055 345.399 348.632 343.466C353.209 341.532 357.34 338.678 360.767 335.081C364.193 331.483 366.844 327.219 368.552 322.553C370.261 317.887 370.991 312.92 370.698 307.96L360.826 103.358C360.24 93.0568 355.761 83.3636 348.296 76.2415C340.831 69.1193 330.938 65.1006 320.621 64.9994Z" fill="#FAFAFA"/>
<path d="M292.65 307.96C292.945 312.917 292.217 317.882 290.511 322.546C288.806 327.21 286.159 331.473 282.736 335.071C279.313 338.668 275.186 341.523 270.612 343.458C266.039 345.393 261.116 346.367 256.151 346.318H410.902C415.869 346.367 420.792 345.393 425.366 343.458C429.94 341.523 434.067 338.669 437.492 335.071C440.916 331.474 443.564 327.211 445.271 322.547C446.978 317.883 447.707 312.918 447.414 307.96H292.65Z" fill="#E6E6E6"/>
<path d="M342.413 191.994H233.04C232.274 191.985 231.539 191.686 230.984 191.157C230.429 190.628 230.095 189.908 230.051 189.142C230.03 188.774 230.085 188.406 230.213 188.06C230.34 187.714 230.537 187.397 230.791 187.13C231.045 186.863 231.351 186.651 231.691 186.507C232.03 186.362 232.395 186.289 232.764 186.291H342.136C342.912 186.287 343.659 186.58 344.225 187.111C344.791 187.641 345.131 188.368 345.176 189.142C345.197 189.515 345.14 189.888 345.01 190.237C344.88 190.587 344.679 190.905 344.419 191.173C344.159 191.441 343.847 191.652 343.502 191.794C343.156 191.935 342.786 192.003 342.413 191.994Z" fill="#407BFF"/>
<path d="M343.267 209.791H233.894C233.128 209.783 232.393 209.484 231.838 208.955C231.283 208.425 230.949 207.705 230.905 206.94C230.884 206.572 230.939 206.203 231.067 205.857C231.194 205.511 231.391 205.195 231.645 204.928C231.899 204.661 232.205 204.448 232.545 204.304C232.884 204.16 233.249 204.086 233.618 204.089H343.003C343.767 204.1 344.499 204.401 345.052 204.929C345.604 205.458 345.935 206.177 345.98 206.94C346 207.308 345.945 207.677 345.818 208.023C345.691 208.369 345.494 208.685 345.24 208.952C344.986 209.219 344.679 209.432 344.34 209.576C344.001 209.72 343.635 209.793 343.267 209.791Z" fill="#407BFF"/>
<path d="M344.133 227.576H234.748C233.982 227.568 233.247 227.269 232.692 226.74C232.137 226.21 231.804 225.49 231.759 224.725C231.739 224.357 231.794 223.988 231.921 223.642C232.048 223.296 232.245 222.98 232.499 222.713C232.753 222.446 233.059 222.233 233.399 222.089C233.738 221.945 234.103 221.871 234.472 221.874H343.92C344.687 221.882 345.422 222.181 345.976 222.71C346.531 223.239 346.865 223.959 346.909 224.725C346.93 225.098 346.873 225.472 346.742 225.823C346.611 226.173 346.409 226.492 346.148 226.761C345.887 227.029 345.573 227.24 345.226 227.38C344.88 227.52 344.507 227.587 344.133 227.576Z" fill="#407BFF"/>
<path d="M344.988 245.399H235.615C234.849 245.387 234.116 245.088 233.562 244.559C233.007 244.03 232.673 243.312 232.626 242.548C232.605 242.179 232.66 241.811 232.787 241.465C232.915 241.119 233.112 240.802 233.366 240.535C233.62 240.268 233.926 240.056 234.265 239.912C234.605 239.767 234.97 239.694 235.339 239.696H344.711C345.478 239.705 346.213 240.004 346.768 240.533C347.323 241.062 347.656 241.782 347.701 242.548C347.721 242.916 347.666 243.284 347.539 243.63C347.412 243.976 347.215 244.293 346.961 244.56C346.706 244.827 346.4 245.039 346.061 245.183C345.722 245.328 345.356 245.401 344.988 245.399Z" fill="#407BFF"/>
<path d="M302.359 263.196H236.469C235.702 263.188 234.967 262.889 234.412 262.36C233.858 261.831 233.524 261.11 233.48 260.345C233.459 259.977 233.514 259.608 233.641 259.262C233.769 258.916 233.966 258.6 234.22 258.333C234.474 258.066 234.78 257.853 235.119 257.709C235.459 257.565 235.824 257.492 236.193 257.494H302.083C302.849 257.502 303.584 257.801 304.139 258.33C304.694 258.859 305.027 259.58 305.072 260.345C305.092 260.713 305.037 261.082 304.91 261.428C304.783 261.774 304.586 262.09 304.332 262.357C304.078 262.624 303.772 262.837 303.432 262.981C303.093 263.125 302.728 263.198 302.359 263.196Z" fill="#407BFF"/>
<path d="M309.958 155.102C322.9 141.844 322.113 120.086 308.2 106.504C294.287 92.9215 272.516 92.6588 259.573 105.917C246.631 119.175 247.418 140.933 261.331 154.515C275.244 168.097 297.015 168.36 309.958 155.102Z" fill="#407BFF"/>
<path d="M313.123 130.487C313.36 135.155 312.405 139.806 310.347 144.002C308.116 148.501 304.662 152.28 300.381 154.906C296.1 157.532 291.166 158.898 286.144 158.848C280.949 158.809 275.853 157.419 271.357 154.817C266.86 152.214 263.118 148.487 260.496 144.002C258.05 139.899 256.649 135.258 256.414 130.487C256.197 126.822 256.736 123.151 257.998 119.703C259.26 116.254 261.217 113.102 263.748 110.443C266.28 107.783 269.331 105.672 272.713 104.241C276.094 102.811 279.734 102.091 283.406 102.127C291.027 102.221 298.329 105.199 303.843 110.461C309.357 115.724 312.672 122.879 313.123 130.487Z" fill="white"/>
<path opacity="0.4" d="M310.347 144.002C308.116 148.501 304.662 152.281 300.381 154.906C296.1 157.532 291.166 158.898 286.144 158.848C280.949 158.809 275.853 157.42 271.357 154.817C266.86 152.214 263.118 148.487 260.496 144.002C267.725 139.042 276.297 136.412 285.064 136.466C294.043 136.483 302.824 139.1 310.347 144.002Z" fill="#407BFF"/>
<path opacity="0.4" d="M293.546 129.806C298.304 124.932 298.017 116.934 292.904 111.943C287.792 106.952 279.79 106.858 275.031 111.732C270.273 116.607 270.56 124.604 275.673 129.595C280.785 134.586 288.787 134.68 293.546 129.806Z" fill="#407BFF"/>
<path d="M390.09 394.297H380.871L379.942 372.92H389.174L390.09 394.297Z" fill="#B55B52"/>
<path opacity="0.2" d="M379.954 372.933L380.419 383.948H389.651L389.174 372.933H379.954Z" fill="black"/>
<path d="M468.628 369.253L459.861 372.116L448.821 353.239L457.601 350.375L468.628 369.253Z" fill="#B55B52"/>
<path opacity="0.2" d="M457.601 350.375L448.821 353.239L454.523 362.973L463.29 360.109L457.601 350.375Z" fill="black"/>
<path d="M421.289 85.5475C422.432 86.9416 423.4 88.1851 424.392 89.5541C425.384 90.9232 426.326 92.2294 427.268 93.5859C429.127 96.3114 430.91 99.0997 432.581 101.976C436.057 107.811 438.891 114.006 441.034 120.452L441.247 121.08L441.348 121.406L441.486 121.921L441.737 122.951L441.875 123.893C442.024 125.021 442.07 126.16 442.013 127.297C441.896 129.213 441.619 131.117 441.184 132.987C440.389 136.337 439.335 139.621 438.032 142.809C435.548 148.919 432.539 154.802 429.039 160.393L422.759 157.391C424.643 151.5 426.527 145.471 427.909 139.606C428.628 136.778 429.173 133.909 429.541 131.015C429.696 129.765 429.742 128.504 429.68 127.247C429.661 126.799 429.602 126.353 429.504 125.915L429.441 125.689C429.417 125.649 429.396 125.607 429.378 125.564L429.278 125.325L429.077 124.835L428.235 122.863L427.293 120.904C426.665 119.648 425.974 118.291 425.284 116.985C423.852 114.398 422.307 111.823 420.699 109.261C419.091 106.699 417.383 104.237 415.675 101.725C413.967 99.2128 412.096 96.7008 410.4 94.4274L421.289 85.5475Z" fill="#B55B52"/>
<path d="M423.337 155.833L419.732 163.809H430.044C430.044 163.809 431.689 157.755 427.946 155.306L423.337 155.833Z" fill="#B55B52"/>
<path d="M420.938 172.777L430.509 170.93L430.044 163.809H419.732L420.938 172.777Z" fill="#B55B52"/>
<path d="M375.596 45.0666C375.596 45.8202 375.207 46.4231 374.717 46.4231C374.227 46.4231 373.838 45.8202 373.838 45.0666C373.838 44.313 374.24 43.7227 374.717 43.7227C375.194 43.7227 375.596 44.3256 375.596 45.0666Z" fill="#263238"/>
<path d="M375.32 46.4231C374.435 48.6957 373.238 50.8345 371.766 52.7785C372.273 53.1425 372.854 53.3918 373.468 53.5089C374.082 53.626 374.714 53.6082 375.32 53.4567V46.4231Z" fill="#A02724"/>
<path d="M378.234 40.9469C378.142 40.9481 378.053 40.9169 377.983 40.859C377.545 40.5298 377.037 40.3073 376.498 40.2092C375.96 40.1111 375.406 40.1401 374.88 40.2938C374.775 40.3224 374.663 40.3111 374.566 40.2619C374.469 40.2126 374.394 40.1291 374.354 40.0275C374.315 39.9258 374.315 39.8133 374.355 39.7117C374.394 39.6101 374.469 39.5266 374.566 39.4774C375.228 39.2673 375.931 39.2192 376.615 39.3372C377.299 39.4553 377.945 39.7359 378.498 40.1557C378.59 40.2257 378.652 40.3287 378.671 40.4433C378.69 40.5579 378.664 40.6752 378.598 40.7711C378.555 40.826 378.499 40.8703 378.436 40.9007C378.373 40.9312 378.304 40.947 378.234 40.9469Z" fill="#263238"/>
<path d="M399.623 53.6451C398.292 60.4024 396.973 72.774 401.696 77.2705C401.696 77.2705 399.85 84.1157 387.315 84.1157C373.499 84.1157 380.721 77.2705 380.721 77.2705C388.257 75.4744 388.056 69.8977 386.737 64.6477L399.623 53.6451Z" fill="#B55B52"/>
<path d="M403.504 79.6192C404.497 77.4588 405.589 74.972 403.329 74.1933C400.817 73.3392 387.302 72.4725 382.617 74.0802C382.001 74.2509 381.425 74.5424 380.923 74.9377C380.42 75.333 380.001 75.8243 379.69 76.3829C379.379 76.9416 379.183 77.5565 379.112 78.1918C379.041 78.8272 379.097 79.4703 379.276 80.0839L403.504 79.6192Z" fill="#263238"/>
<path d="M457.965 374.314C457.286 374.968 456.52 375.495 455.943 375.407C455.76 375.37 455.594 375.278 455.465 375.144C455.337 375.009 455.254 374.838 455.227 374.654C455.188 374.511 455.182 374.361 455.208 374.216C455.234 374.071 455.292 373.933 455.377 373.812C456.131 372.644 459.145 372.142 459.309 372.129C459.349 372.123 459.39 372.128 459.427 372.144C459.465 372.159 459.498 372.184 459.522 372.217C459.546 372.252 459.559 372.294 459.559 372.336C459.559 372.379 459.546 372.42 459.522 372.456C459.069 373.128 458.547 373.751 457.965 374.314ZM455.917 373.837C455.852 373.898 455.793 373.965 455.742 374.038C455.691 374.11 455.657 374.193 455.642 374.28C455.627 374.366 455.631 374.456 455.654 374.541C455.754 374.93 455.943 374.968 456.005 374.968C456.646 375.068 458.015 373.712 458.856 372.657C457.802 372.829 456.798 373.232 455.917 373.837Z" fill="#407BFF"/>
<path d="M459.472 372.493L459.371 372.556C458.329 372.832 455.603 372.657 455.026 371.777C454.939 371.637 454.903 371.472 454.921 371.308C454.939 371.144 455.011 370.991 455.126 370.873C455.234 370.746 455.366 370.641 455.515 370.566C455.664 370.491 455.826 370.445 455.993 370.433C457.374 370.333 459.371 372.104 459.459 372.179C459.49 372.205 459.512 372.239 459.523 372.277C459.534 372.315 459.534 372.355 459.522 372.393C459.519 372.431 459.501 372.467 459.472 372.493ZM455.541 371.087L455.465 371.162C455.289 371.375 455.365 371.488 455.39 371.539C455.729 372.054 457.638 372.343 458.819 372.204C458.038 371.499 457.07 371.036 456.03 370.873C455.855 370.887 455.69 370.962 455.566 371.087H455.541Z" fill="#407BFF"/>
<path d="M377.154 394.762C375.973 394.762 374.83 394.599 374.453 394.071C374.351 393.933 374.296 393.766 374.296 393.594C374.296 393.422 374.351 393.255 374.453 393.117C374.527 392.989 374.627 392.877 374.746 392.788C374.864 392.7 375 392.636 375.144 392.602C376.676 392.187 379.904 394.021 380.042 394.109C380.082 394.13 380.113 394.164 380.132 394.205C380.15 394.246 380.154 394.292 380.143 394.335C380.136 394.377 380.117 394.417 380.088 394.448C380.059 394.48 380.021 394.501 379.98 394.511C379.046 394.674 378.101 394.758 377.154 394.762ZM375.697 392.979C375.555 392.959 375.411 392.959 375.27 392.979C375.181 392.996 375.097 393.032 375.024 393.084C374.95 393.136 374.889 393.203 374.843 393.28C374.692 393.556 374.742 393.695 374.843 393.77C375.27 394.36 377.606 394.373 379.314 394.134C378.195 393.517 376.966 393.125 375.697 392.979Z" fill="#407BFF"/>
<path d="M379.942 394.511H379.854C378.749 394.008 376.538 391.999 376.701 390.969C376.701 390.718 376.915 390.416 377.518 390.354C377.742 390.328 377.969 390.349 378.184 390.414C378.4 390.478 378.601 390.586 378.774 390.73C379.942 391.697 380.193 394.184 380.206 394.285C380.205 394.324 380.195 394.362 380.178 394.397C380.161 394.431 380.136 394.462 380.105 394.486C380.081 394.501 380.054 394.51 380.026 394.515C379.998 394.519 379.969 394.518 379.942 394.511ZM377.694 390.743H377.568C377.166 390.743 377.141 390.931 377.141 390.982C377.041 391.61 378.535 393.18 379.653 393.858C379.545 392.803 379.105 391.809 378.397 391.019C378.197 390.86 377.949 390.772 377.694 390.768V390.743Z" fill="#407BFF"/>
<path d="M459.095 371.099L466.631 363.927C466.762 363.798 466.934 363.719 467.118 363.702C467.301 363.686 467.484 363.735 467.636 363.839L474.619 368.512C474.788 368.626 474.929 368.777 475.031 368.953C475.133 369.129 475.194 369.327 475.208 369.53C475.223 369.733 475.191 369.937 475.115 370.126C475.039 370.316 474.921 370.485 474.77 370.622C472.12 373.134 470.701 374.151 467.41 377.291C465.375 379.238 459.321 385.832 456.52 388.52C453.719 391.208 450.705 388.771 451.609 387.427C455.679 381.386 458.216 375.596 458.442 372.543C458.483 372 458.714 371.488 459.095 371.099Z" fill="#263238"/>
<path d="M380.922 393.23H390.97C391.152 393.229 391.329 393.291 391.471 393.405C391.613 393.52 391.711 393.679 391.748 393.858L393.57 402.06C393.615 402.257 393.616 402.461 393.571 402.659C393.525 402.856 393.436 403.04 393.309 403.198C393.181 403.355 393.02 403.481 392.837 403.567C392.654 403.653 392.453 403.696 392.251 403.692C388.608 403.692 383.358 403.429 378.787 403.429C373.449 403.429 368.839 403.717 362.572 403.717C358.804 403.717 357.736 399.887 359.319 399.535C366.528 397.965 372.431 397.789 378.661 393.946C379.333 393.501 380.116 393.253 380.922 393.23Z" fill="#263238"/>
<path d="M367.784 98.208C364.116 103.609 360.336 108.658 356.266 113.644C352.181 118.691 347.816 123.505 343.191 128.063L341.408 129.796L340.956 130.223L340.629 130.525L340.152 130.864C339.56 131.341 338.925 131.761 338.255 132.12C336.136 133.238 333.802 133.894 331.41 134.042C327.76 134.258 324.098 133.953 320.533 133.137C314.074 131.713 307.811 129.511 301.882 126.581L304.193 120.05C310.074 121.226 316.022 122.039 322.003 122.486C324.631 122.694 327.275 122.584 329.878 122.16C330.625 122.048 331.338 121.769 331.963 121.343C332.026 121.343 331.963 121.268 331.963 121.268L332.063 121.168L332.428 120.753L333.922 119.12C337.841 114.649 341.647 109.876 345.339 105.003C349.032 100.13 352.737 95.1307 356.266 90.2575L367.784 98.208Z" fill="#B55B52"/>
<path d="M418.225 79.368C426.866 81.3525 436.789 104.928 436.789 104.928L419.418 116.834C415.103 110.635 411.278 104.109 407.976 97.3162C402.826 86.5272 409.383 77.3333 418.225 79.368Z" fill="#407BFF"/>
<path opacity="0.3" d="M412.02 94.44L420.234 116.307L419.418 116.872C419.418 116.872 415.864 111.848 412.02 105.154V94.44Z" fill="black"/>
<path d="M366.528 79.8327C366.528 79.8327 356.706 90.9232 365.988 159.589H415.336C415.675 152.053 410.915 115.051 418.225 79.3554C412.766 78.3056 407.245 77.6091 401.696 77.2705C394.71 76.8683 387.707 76.8683 380.721 77.2705C375.93 77.7531 371.185 78.6098 366.528 79.8327Z" fill="#407BFF"/>
<path opacity="0.3" d="M372.004 99.69C370.72 107.482 367.352 114.782 362.257 120.816C362.056 116.395 361.981 112.426 361.994 108.871L372.004 99.69Z" fill="black"/>
<path d="M376.262 87.3184C377.518 96.0476 360.26 118.367 360.26 118.367L342.965 106.46C342.965 106.46 347.763 94.1636 355.839 86.1001C365.071 76.856 374.943 77.8105 376.262 87.3184Z" fill="#407BFF"/>
<path d="M305.386 120.816L298.616 113.82L291.394 123.127C291.394 123.127 296.895 128.44 303.439 126.895L305.386 120.816Z" fill="#B55B52"/>
<path d="M289.322 109.926L286.219 119.698L291.394 123.089L298.616 113.782L289.322 109.926Z" fill="#B55B52"/>
<path d="M400.44 43.4966C399.875 52.6277 400.013 58.016 395.416 62.7009C388.47 69.7596 377.191 65.5771 375.018 56.4209C373.047 48.2066 374.303 34.6418 383.245 31.012C385.215 30.2026 387.359 29.9105 389.473 30.1634C391.588 30.4164 393.602 31.206 395.326 32.4572C397.049 33.7083 398.423 35.3795 399.319 37.3117C400.214 39.244 400.6 41.3731 400.44 43.4966Z" fill="#B55B52"/>
<path d="M408.39 24.418C411.204 27.0053 410.011 29.8941 408.541 30.4342C413.1 31.3762 413.766 35.006 411.367 42.6676C409.081 50.0027 403.542 59.8372 396.622 60.44C386.222 61.3444 383.182 50.5051 383.107 39.7537C377.229 40.118 379.766 34.9056 372.544 36.1113C366.264 37.1538 368.625 32.2554 363.287 30.1202C357.095 27.6082 358.339 18.1254 364.116 20.8509C364.116 20.8509 361.441 22.6093 364.556 24.2672C367.671 25.9252 367.369 22.0944 373.536 21.6296C379.703 21.1649 380.419 26.4401 387.629 23.2625C396.672 19.2684 402.613 19.08 408.39 24.418Z" fill="#263238"/>
<path d="M404.924 30.3839C405.334 29.7262 405.945 29.2183 406.667 28.9355C407.389 28.6527 408.183 28.61 408.93 28.8139C411.756 29.4168 411.983 30.6603 413.754 30.497C415.524 30.3337 414.884 32.2177 414.884 32.2177C414.884 32.2177 414.407 30.7984 412.271 31.5897C410.136 32.381 408.742 30.4467 407.825 31.3134C406.908 32.18 404.924 30.3839 404.924 30.3839Z" fill="#263238"/>
<path d="M388.031 45.9835C387.629 48.2227 386.494 50.2644 384.803 51.7862C382.567 53.7707 380.633 52.1756 380.557 49.4626C380.557 47.0134 381.6 43.0193 384.175 42.0648C386.75 41.1102 388.495 43.2705 388.031 45.9835Z" fill="#B55B52"/>
<path d="M383.484 159.589C383.484 159.589 393.959 230.088 399.711 256.464C405.991 285.352 449.763 362.219 449.763 362.219L465.84 356.994C465.84 356.994 430.986 287.738 427.394 259.089C423.487 228.003 415.336 159.538 415.336 159.538L383.484 159.589Z" fill="#263238"/>
<path d="M445.267 357.195C445.204 357.195 448.947 362.822 448.947 362.822L467.008 356.944L464.885 351.543L445.267 357.195Z" fill="#407BFF"/>
<path opacity="0.3" d="M390.103 184.709C402.211 187.083 400.93 232.236 399.473 255.459C395.981 239.043 390.869 207.455 387.377 185.035C388.222 184.619 389.184 184.504 390.103 184.709Z" fill="black"/>
<path d="M365.988 159.589C365.988 159.589 364.732 228.581 365.712 256.715C366.754 285.98 377.016 381.813 377.016 381.813H392.653C392.653 381.813 393.218 287.688 393.909 258.951C394.662 227.551 398.443 159.589 398.443 159.589H365.988Z" fill="#263238"/>
<path d="M373.976 375.583C373.901 375.583 374.855 382.076 374.855 382.076H393.871L394.386 376.286L373.976 375.583Z" fill="#407BFF"/>
</svg>
