<svg width="18" height="18" viewBox="0 0 18 18" fill="none" xmlns="http://www.w3.org/2000/svg">
<path d="M17 16V7.5C17 7.34475 16.9639 7.19164 16.8944 7.05279C16.825 6.91393 16.7242 6.79315 16.6 6.7L9.6 1.45C9.4269 1.32018 9.21637 1.25 9 1.25C8.78363 1.25 8.5731 1.32018 8.4 1.45L1.4 6.7C1.2758 6.79315 1.175 6.91393 1.10557 7.05279C1.03614 7.19164 1 7.34475 1 7.5V16C1 16.2652 1.10536 16.5196 1.29289 16.7071C1.48043 16.8946 1.73478 17 2 17H6C6.26522 17 6.51957 16.8946 6.70711 16.7071C6.89464 16.5196 7 16.2652 7 16V13C7 12.7348 7.10536 12.4804 7.29289 12.2929C7.48043 12.1054 7.73478 12 8 12H10C10.2652 12 10.5196 12.1054 10.7071 12.2929C10.8946 12.4804 11 12.7348 11 13V16C11 16.2652 11.1054 16.5196 11.2929 16.7071C11.4804 16.8946 11.7348 17 12 17H16C16.2652 17 16.5196 16.8946 16.7071 16.7071C16.8946 16.5196 17 16.2652 17 16Z" stroke="black" stroke-width="2" stroke-linecap="round" stroke-linejoin="round"/>
</svg>
