<svg width="30" height="30" viewBox="0 0 30 30" fill="none" xmlns="http://www.w3.org/2000/svg">
<path d="M26.4013 19.4449C25.3841 17.6953 24.8438 15.184 24.8438 12.1875C24.8438 9.57678 23.8067 7.07298 21.9607 5.22692C20.1146 3.38086 17.6108 2.34375 15.0001 2.34375C12.3894 2.34375 9.88557 3.38086 8.03951 5.22692C6.19345 7.07298 5.15634 9.57678 5.15634 12.1875C5.15634 15.1852 4.61845 17.6953 3.60127 19.4449C3.3937 19.8018 3.28368 20.207 3.28224 20.6198C3.2808 21.0326 3.388 21.4386 3.59306 21.7969C3.79683 22.1554 4.09259 22.453 4.44981 22.659C4.80702 22.865 5.21275 22.9719 5.62509 22.9688H9.86494C9.98122 24.2503 10.5725 25.4421 11.5227 26.31C12.4729 27.1779 13.7132 27.6591 15.0001 27.6591C16.287 27.6591 17.5273 27.1779 18.4775 26.31C19.4277 25.4421 20.019 24.2503 20.1353 22.9688H24.3751C24.7868 22.9713 25.1918 22.8641 25.5484 22.6581C25.9049 22.4521 26.2001 22.1548 26.4036 21.7969C26.6096 21.4391 26.7178 21.0334 26.7174 20.6206C26.7169 20.2078 26.6079 19.8023 26.4013 19.4449ZM15.0001 24.8438C14.4598 24.8439 13.936 24.6573 13.5175 24.3156C13.0989 23.9739 12.8113 23.4981 12.7032 22.9688H17.297C17.1889 23.4981 16.9013 23.9739 16.4827 24.3156C16.0642 24.6573 15.5404 24.8439 15.0001 24.8438ZM6.40556 20.1562C7.44267 18.0469 7.96884 15.368 7.96884 12.1875C7.96884 10.3227 8.70963 8.53427 10.0282 7.21566C11.3469 5.89704 13.1353 5.15625 15.0001 5.15625C16.8649 5.15625 18.6533 5.89704 19.9719 7.21566C21.2906 8.53427 22.0313 10.3227 22.0313 12.1875C22.0313 15.3668 22.5563 18.0469 23.5935 20.1562H6.40556Z" fill="#1856F3"/>
</svg>
