<svg width="576" height="630" viewBox="0 0 576 630" fill="none" xmlns="http://www.w3.org/2000/svg">
<path d="M30.12 14.56C31.24 12.4 32.8 10.76 34.88 9.56C36.92 8.36 39.32 7.76 42.08 7.76C45.28 7.76 47.96 8.64 50.12 10.4C52.24 12.16 53.56 14.56 54.04 17.52H49.48C49 15.76 48.12 14.36 46.8 13.32C45.48 12.32 43.88 11.8 41.96 11.8C40.2 11.8 38.64 12.24 37.32 13.12C36 14 35 15.2 34.28 16.72C33.56 18.24 33.2 20 33.2 22C33.2 24 33.52 25.8 34.24 27.32C34.96 28.84 35.96 30.04 37.28 30.92C38.6 31.8 40.16 32.2 41.92 32.2C44.16 32.2 46 31.6 47.52 30.36C49.04 29.16 49.84 27.44 49.96 25.24V24.56H42.2V20.68H54.36V36H50.88L50.4 32C49.6 33.2 48.44 34.2 46.96 35C45.48 35.84 43.72 36.24 41.72 36.24C39.12 36.24 36.84 35.68 34.84 34.48C32.84 33.28 31.28 31.6 30.16 29.44C29.04 27.28 28.48 24.8 28.48 22C28.48 19.2 29 16.72 30.12 14.56ZM59.5219 20.28C60.3619 18.68 61.5219 17.48 63.0419 16.6C64.5619 15.72 66.2819 15.28 68.2419 15.28C70.2019 15.28 71.9219 15.68 73.4419 16.48C74.9619 17.28 76.1219 18.44 77.0019 19.88C77.8819 21.36 78.3219 23.08 78.3619 25.04C78.3619 25.6 78.3219 26.12 78.2419 26.68H62.8019V26.92C62.8819 28.72 63.4419 30.12 64.4819 31.16C65.4819 32.2 66.8419 32.72 68.5219 32.72C69.8419 32.72 70.9619 32.44 71.8819 31.8C72.7619 31.16 73.3619 30.28 73.6819 29.12H78.0019C77.6019 31.2 76.6019 32.92 74.9619 34.24C73.3219 35.6 71.2819 36.24 68.8419 36.24C66.6819 36.24 64.8419 35.84 63.2419 34.96C61.6419 34.08 60.4419 32.88 59.5619 31.28C58.6819 29.72 58.2819 27.88 58.2819 25.8C58.2819 23.72 58.6819 21.88 59.5219 20.28ZM73.9619 23.52C73.7619 22.04 73.1619 20.88 72.1619 20.04C71.1619 19.2 69.9219 18.76 68.4019 18.76C66.9619 18.76 65.7619 19.2 64.7219 20.08C63.6819 20.96 63.1219 22.08 62.9619 23.52H73.9619ZM98.5744 17.52C100.094 19.04 100.894 21.44 100.894 24.72V36H96.5344V24.96C96.5344 23.04 96.0944 21.56 95.2944 20.52C94.4544 19.52 93.2544 19 91.6544 19C89.9344 19 88.5744 19.6 87.6144 20.8C86.6544 22 86.1744 23.6 86.1744 25.68V36H81.8544V15.52H85.6144L86.0944 18.2C87.6144 16.28 89.8144 15.28 92.6544 15.28C95.0544 15.28 97.0544 16.04 98.5744 17.52ZM105.303 20.28C106.143 18.68 107.303 17.48 108.823 16.6C110.343 15.72 112.063 15.28 114.023 15.28C115.983 15.28 117.703 15.68 119.223 16.48C120.743 17.28 121.903 18.44 122.783 19.88C123.663 21.36 124.103 23.08 124.143 25.04C124.143 25.6 124.103 26.12 124.023 26.68H108.583V26.92C108.663 28.72 109.223 30.12 110.263 31.16C111.263 32.2 112.623 32.72 114.303 32.72C115.623 32.72 116.743 32.44 117.663 31.8C118.543 31.16 119.143 30.28 119.463 29.12H123.783C123.383 31.2 122.383 32.92 120.743 34.24C119.103 35.6 117.063 36.24 114.623 36.24C112.463 36.24 110.623 35.84 109.023 34.96C107.423 34.08 106.223 32.88 105.343 31.28C104.463 29.72 104.063 27.88 104.063 25.8C104.063 23.72 104.463 21.88 105.303 20.28ZM119.743 23.52C119.543 22.04 118.943 20.88 117.943 20.04C116.943 19.2 115.703 18.76 114.183 18.76C112.743 18.76 111.543 19.2 110.503 20.08C109.463 20.96 108.903 22.08 108.743 23.52H119.743ZM138.956 15.52V19.56H137.036C135.236 19.56 133.956 20.16 133.156 21.32C132.356 22.48 131.956 23.96 131.956 25.72V36H127.636V15.52H131.476L131.956 18.6C132.516 17.64 133.276 16.92 134.236 16.36C135.156 15.8 136.396 15.52 137.996 15.52H138.956ZM160.517 32.24V36H158.237C156.877 36 155.917 35.72 155.357 35.16C154.757 34.6 154.477 33.8 154.477 32.72C152.917 35.08 150.677 36.24 147.717 36.24C145.397 36.24 143.557 35.72 142.197 34.64C140.797 33.6 140.117 32.12 140.117 30.24C140.117 28.16 140.837 26.52 142.357 25.4C143.837 24.28 145.997 23.68 148.877 23.68H154.037V22.44C154.037 21.32 153.637 20.4 152.837 19.76C152.037 19.12 150.917 18.76 149.517 18.76C148.237 18.76 147.197 19.04 146.397 19.6C145.597 20.16 145.117 20.88 144.957 21.76H140.717C140.917 19.72 141.837 18.12 143.437 17C145.037 15.88 147.117 15.28 149.717 15.28C152.437 15.28 154.557 15.92 156.077 17.2C157.557 18.48 158.317 20.32 158.317 22.72V30.8C158.317 31.76 158.757 32.24 159.677 32.24H160.517ZM154.037 26.88H148.677C147.317 26.88 146.317 27.16 145.597 27.68C144.877 28.2 144.517 28.96 144.517 29.96C144.517 30.84 144.837 31.56 145.517 32.08C146.197 32.64 147.117 32.88 148.317 32.88C150.077 32.88 151.477 32.4 152.477 31.44C153.477 30.48 153.997 29.2 154.037 27.6V26.88ZM164.19 19.32H160.63V15.52H164.19V9.8H168.55V15.52H173.47V19.32H168.55V30C168.55 30.8 168.71 31.4 169.03 31.72C169.35 32.04 169.87 32.2 170.67 32.2H173.95V36H169.79C167.83 36 166.39 35.56 165.51 34.64C164.63 33.76 164.19 32.36 164.19 30.44V19.32ZM176.319 20.28C177.159 18.68 178.319 17.48 179.839 16.6C181.359 15.72 183.079 15.28 185.039 15.28C186.999 15.28 188.719 15.68 190.239 16.48C191.759 17.28 192.919 18.44 193.799 19.88C194.679 21.36 195.119 23.08 195.159 25.04C195.159 25.6 195.119 26.12 195.039 26.68H179.599V26.92C179.679 28.72 180.239 30.12 181.279 31.16C182.279 32.2 183.639 32.72 185.319 32.72C186.639 32.72 187.759 32.44 188.679 31.8C189.559 31.16 190.159 30.28 190.479 29.12H194.799C194.399 31.2 193.399 32.92 191.759 34.24C190.119 35.6 188.079 36.24 185.639 36.24C183.479 36.24 181.639 35.84 180.039 34.96C178.439 34.08 177.239 32.88 176.359 31.28C175.479 29.72 175.079 27.88 175.079 25.8C175.079 23.72 175.479 21.88 176.319 20.28ZM190.759 23.52C190.559 22.04 189.959 20.88 188.959 20.04C187.959 19.2 186.719 18.76 185.199 18.76C183.759 18.76 182.559 19.2 181.519 20.08C180.479 20.96 179.919 22.08 179.759 23.52H190.759ZM220.366 8C222.286 8 223.966 8.4 225.446 9.12C226.886 9.84 228.046 10.88 228.846 12.24C229.646 13.6 230.046 15.16 230.046 16.92C230.046 18.72 229.646 20.28 228.846 21.64C228.046 23 226.886 24.04 225.446 24.76C223.966 25.48 222.286 25.84 220.366 25.84H213.926V36H209.326V8H220.366ZM213.926 21.84H219.966C221.606 21.84 222.926 21.4 223.886 20.52C224.846 19.64 225.366 18.44 225.366 16.92C225.366 15.4 224.886 14.2 223.926 13.32C222.966 12.44 221.646 12 220.006 12H213.926V21.84ZM251.533 32.24V36H249.253C247.893 36 246.933 35.72 246.373 35.16C245.773 34.6 245.493 33.8 245.493 32.72C243.933 35.08 241.693 36.24 238.733 36.24C236.413 36.24 234.573 35.72 233.213 34.64C231.813 33.6 231.132 32.12 231.132 30.24C231.132 28.16 231.853 26.52 233.373 25.4C234.853 24.28 237.013 23.68 239.893 23.68H245.053V22.44C245.053 21.32 244.653 20.4 243.853 19.76C243.053 19.12 241.933 18.76 240.533 18.76C239.253 18.76 238.213 19.04 237.413 19.6C236.613 20.16 236.133 20.88 235.973 21.76H231.733C231.933 19.72 232.853 18.12 234.453 17C236.053 15.88 238.133 15.28 240.733 15.28C243.453 15.28 245.573 15.92 247.093 17.2C248.573 18.48 249.333 20.32 249.333 22.72V30.8C249.333 31.76 249.773 32.24 250.693 32.24H251.533ZM245.053 26.88H239.693C238.333 26.88 237.333 27.16 236.613 27.68C235.893 28.2 235.533 28.96 235.533 29.96C235.533 30.84 235.853 31.56 236.533 32.08C237.213 32.64 238.133 32.88 239.333 32.88C241.093 32.88 242.493 32.4 243.493 31.44C244.493 30.48 245.013 29.2 245.053 27.6V26.88ZM255.821 15.52L261.541 31.32L267.101 15.52H271.701L262.421 39.2C261.941 40.44 261.501 41.4 261.101 42.04C260.701 42.68 260.181 43.2 259.621 43.52C259.021 43.84 258.221 44 257.261 44H252.621V40.2H255.661C256.461 40.2 257.061 40.08 257.381 39.84C257.701 39.6 258.021 39 258.381 38.12L259.221 36.16L251.221 15.52H255.821ZM303.006 17.48C304.406 18.92 305.126 21.24 305.126 24.44V36H300.806V24.48C300.806 22.72 300.446 21.36 299.726 20.4C299.006 19.48 297.926 19 296.526 19C295.006 19 293.846 19.56 292.966 20.6C292.086 21.64 291.686 23.08 291.686 24.92V36H287.326V24.48C287.326 22.68 286.926 21.32 286.206 20.4C285.486 19.48 284.406 19 283.006 19C281.526 19 280.366 19.56 279.486 20.64C278.606 21.76 278.206 23.2 278.206 25.04V36H273.886V15.52H277.646L278.126 18.2C279.566 16.28 281.566 15.32 284.126 15.28C285.566 15.28 286.806 15.6 287.926 16.2C289.006 16.84 289.846 17.76 290.446 19C291.166 17.84 292.086 16.92 293.286 16.28C294.446 15.64 295.846 15.28 297.526 15.28C299.766 15.28 301.566 16.04 303.006 17.48ZM309.522 20.28C310.362 18.68 311.522 17.48 313.042 16.6C314.562 15.72 316.282 15.28 318.242 15.28C320.202 15.28 321.922 15.68 323.442 16.48C324.962 17.28 326.122 18.44 327.002 19.88C327.882 21.36 328.322 23.08 328.362 25.04C328.362 25.6 328.322 26.12 328.242 26.68H312.802V26.92C312.882 28.72 313.442 30.12 314.482 31.16C315.482 32.2 316.842 32.72 318.522 32.72C319.842 32.72 320.962 32.44 321.882 31.8C322.762 31.16 323.362 30.28 323.682 29.12H328.002C327.602 31.2 326.602 32.92 324.962 34.24C323.322 35.6 321.282 36.24 318.842 36.24C316.682 36.24 314.842 35.84 313.242 34.96C311.642 34.08 310.442 32.88 309.562 31.28C308.682 29.72 308.282 27.88 308.282 25.8C308.282 23.72 308.682 21.88 309.522 20.28ZM323.962 23.52C323.762 22.04 323.162 20.88 322.162 20.04C321.162 19.2 319.922 18.76 318.402 18.76C316.962 18.76 315.762 19.2 314.722 20.08C313.682 20.96 313.122 22.08 312.962 23.52H323.962ZM348.574 17.52C350.094 19.04 350.894 21.44 350.894 24.72V36H346.534V24.96C346.534 23.04 346.094 21.56 345.294 20.52C344.454 19.52 343.254 19 341.654 19C339.934 19 338.574 19.6 337.614 20.8C336.654 22 336.174 23.6 336.174 25.68V36H331.854V15.52H335.614L336.094 18.2C337.614 16.28 339.814 15.28 342.654 15.28C345.054 15.28 347.054 16.04 348.574 17.52ZM356.143 19.32H352.583V15.52H356.143V9.8H360.503V15.52H365.423V19.32H360.503V30C360.503 30.8 360.663 31.4 360.983 31.72C361.303 32.04 361.823 32.2 362.623 32.2H365.903V36H361.743C359.783 36 358.343 35.56 357.463 34.64C356.583 33.76 356.143 32.36 356.143 30.44V19.32ZM29.56 76V48H34.16V71.92H46.2V76H29.56ZM53.3163 48.08C53.7963 48.56 54.0763 49.2 54.0763 49.92C54.0763 50.68 53.7963 51.32 53.3163 51.8C52.7963 52.28 52.1562 52.52 51.4363 52.52C50.6763 52.52 50.0363 52.28 49.5563 51.8C49.0363 51.32 48.7963 50.68 48.7963 49.92C48.7963 49.2 49.0363 48.56 49.5563 48.08C50.0363 47.6 50.6763 47.32 51.4363 47.32C52.1562 47.32 52.7963 47.6 53.3163 48.08ZM49.2763 55.52H53.5963V76H49.2763V55.52ZM74.5509 57.52C76.0709 59.04 76.8709 61.44 76.8709 64.72V76H72.5109V64.96C72.5109 63.04 72.0709 61.56 71.2709 60.52C70.4309 59.52 69.2309 59 67.6309 59C65.9109 59 64.5509 59.6 63.5909 60.8C62.6309 62 62.1509 63.6 62.1509 65.68V76H57.8309V55.52H61.5909L62.0709 58.2C63.5909 56.28 65.7909 55.28 68.6309 55.28C71.0309 55.28 73.0309 56.04 74.5509 57.52ZM80.7997 48H85.1197V65.52L94.4797 55.52H99.4797L91.8397 63.76L99.9597 76H94.8397L88.7597 66.92L85.1197 70.76V76H80.7997V48Z" fill="#1856F3"/>
<g filter="url(#filter0_d_197_5899)">
<rect x="14" y="94" width="548" height="522" rx="19" stroke="#BEBEBE" stroke-width="2" shape-rendering="crispEdges"/>
</g>
<path d="M98.78 175.25V174.23H103.775V175.25H98.78ZM109.603 168.5C110.293 168.5 110.893 168.635 111.433 168.905C111.958 169.175 112.363 169.55 112.648 170.03C112.933 170.51 113.083 171.08 113.083 171.725C113.083 172.385 112.933 172.955 112.648 173.435C112.348 173.93 111.943 174.305 111.418 174.575C110.893 174.845 110.293 174.965 109.603 174.965H106.873V179H105.568V168.5H109.603ZM106.873 173.765H109.483C110.173 173.765 110.713 173.585 111.133 173.21C111.538 172.85 111.748 172.355 111.748 171.725C111.748 171.11 111.538 170.615 111.133 170.255C110.728 169.895 110.188 169.7 109.498 169.7H106.873V173.765ZM120.995 177.875V179H120.32C119.825 179 119.48 178.91 119.27 178.7C119.06 178.505 118.94 178.205 118.94 177.815C118.34 178.67 117.485 179.09 116.375 179.09C115.52 179.09 114.83 178.895 114.32 178.49C113.81 178.1 113.555 177.545 113.555 176.855C113.555 176.09 113.81 175.505 114.335 175.085C114.86 174.68 115.625 174.47 116.63 174.47H118.88V173.945C118.88 173.45 118.7 173.06 118.37 172.775C118.04 172.505 117.575 172.355 116.975 172.355C116.435 172.355 116 172.475 115.655 172.715C115.31 172.955 115.1 173.255 115.025 173.645H113.795C113.885 172.895 114.215 172.31 114.785 171.89C115.355 171.47 116.105 171.26 117.035 171.26C118.01 171.26 118.76 171.5 119.3 171.98C119.84 172.46 120.11 173.135 120.11 174.02V177.32C120.11 177.695 120.275 177.875 120.62 177.875H120.995ZM118.88 175.505H116.51C115.37 175.505 114.8 175.94 114.8 176.78C114.8 177.17 114.95 177.47 115.25 177.695C115.55 177.935 115.955 178.04 116.465 178.04C117.215 178.04 117.8 177.845 118.235 177.455C118.655 177.065 118.88 176.54 118.88 175.88V175.505ZM122.261 171.35L124.616 177.59L126.896 171.35H128.201L124.676 180.29C124.496 180.755 124.331 181.1 124.196 181.325C124.046 181.565 123.881 181.73 123.671 181.835C123.461 181.955 123.176 182 122.831 182H121.361V180.875H122.456C122.696 180.875 122.876 180.86 122.996 180.8C123.116 180.755 123.206 180.68 123.281 180.56C123.356 180.44 123.446 180.245 123.566 179.975L123.956 179.06L120.956 171.35H122.261ZM139.738 172.07C140.278 172.61 140.548 173.45 140.548 174.59V179H139.318V174.665C139.318 173.93 139.153 173.36 138.838 172.97C138.523 172.58 138.073 172.385 137.503 172.385C136.858 172.385 136.348 172.61 135.988 173.06C135.628 173.51 135.448 174.125 135.448 174.905V179H134.218V174.665C134.218 173.93 134.053 173.36 133.738 172.97C133.408 172.58 132.958 172.385 132.373 172.385C131.743 172.385 131.248 172.625 130.888 173.105C130.528 173.585 130.348 174.2 130.348 174.965V179H129.118V171.35H130.183L130.348 172.4C130.888 171.65 131.638 171.26 132.583 171.26C133.123 171.26 133.618 171.395 134.038 171.635C134.458 171.875 134.788 172.235 134.998 172.715C135.538 171.755 136.423 171.26 137.653 171.26C138.508 171.26 139.198 171.53 139.738 172.07ZM142.306 173.12C142.606 172.535 143.041 172.085 143.596 171.755C144.136 171.425 144.766 171.26 145.486 171.26C146.176 171.26 146.806 171.41 147.346 171.695C147.886 171.995 148.306 172.415 148.621 172.955C148.921 173.51 149.086 174.155 149.116 174.89C149.116 175.01 149.101 175.175 149.086 175.415H143.146V175.52C143.161 176.27 143.386 176.87 143.836 177.32C144.271 177.77 144.841 177.995 145.561 177.995C146.101 177.995 146.566 177.86 146.956 177.59C147.346 177.32 147.601 176.93 147.736 176.435H148.981C148.831 177.215 148.456 177.86 147.856 178.355C147.256 178.85 146.521 179.09 145.651 179.09C144.886 179.09 144.226 178.94 143.656 178.61C143.086 178.28 142.636 177.83 142.321 177.23C142.006 176.63 141.856 175.955 141.856 175.175C141.856 174.395 142.006 173.72 142.306 173.12ZM147.841 174.395C147.781 173.75 147.526 173.24 147.106 172.88C146.686 172.52 146.146 172.34 145.501 172.34C144.916 172.34 144.406 172.535 143.971 172.91C143.521 173.3 143.281 173.795 143.221 174.395H147.841ZM156.505 172.1C157.075 172.67 157.36 173.54 157.36 174.74V179H156.13V174.815C156.13 174.035 155.95 173.435 155.59 173.015C155.23 172.595 154.72 172.385 154.06 172.385C153.34 172.385 152.77 172.64 152.365 173.135C151.945 173.645 151.75 174.32 151.75 175.175V179H150.52V171.35H151.585L151.75 172.385C152.32 171.635 153.16 171.26 154.27 171.26C155.2 171.26 155.935 171.545 156.505 172.1ZM159.438 172.475H158.058V171.35H159.438V169.205H160.668V171.35H162.603V172.475H160.668V176.99C160.668 177.32 160.728 177.545 160.848 177.68C160.968 177.815 161.193 177.875 161.508 177.875H162.843V179H161.433C160.713 179 160.188 178.85 159.888 178.52C159.588 178.205 159.438 177.695 159.438 177.005V172.475ZM167.824 179V168.5H169.024L174.664 176.6V168.5H175.939V179H174.739L169.099 170.9V179H167.824ZM184.95 177.875V179H184.275C183.78 179 183.435 178.91 183.225 178.7C183.015 178.505 182.895 178.205 182.895 177.815C182.295 178.67 181.44 179.09 180.33 179.09C179.475 179.09 178.785 178.895 178.275 178.49C177.765 178.1 177.51 177.545 177.51 176.855C177.51 176.09 177.765 175.505 178.29 175.085C178.815 174.68 179.58 174.47 180.585 174.47H182.835V173.945C182.835 173.45 182.655 173.06 182.325 172.775C181.995 172.505 181.53 172.355 180.93 172.355C180.39 172.355 179.955 172.475 179.61 172.715C179.265 172.955 179.055 173.255 178.98 173.645H177.75C177.84 172.895 178.17 172.31 178.74 171.89C179.31 171.47 180.06 171.26 180.99 171.26C181.965 171.26 182.715 171.5 183.255 171.98C183.795 172.46 184.065 173.135 184.065 174.02V177.32C184.065 177.695 184.23 177.875 184.575 177.875H184.95ZM182.835 175.505H180.465C179.325 175.505 178.755 175.94 178.755 176.78C178.755 177.17 178.905 177.47 179.205 177.695C179.505 177.935 179.91 178.04 180.42 178.04C181.17 178.04 181.755 177.845 182.19 177.455C182.61 177.065 182.835 176.54 182.835 175.88V175.505ZM196.516 172.07C197.056 172.61 197.326 173.45 197.326 174.59V179H196.096V174.665C196.096 173.93 195.931 173.36 195.616 172.97C195.301 172.58 194.851 172.385 194.281 172.385C193.636 172.385 193.126 172.61 192.766 173.06C192.406 173.51 192.226 174.125 192.226 174.905V179H190.996V174.665C190.996 173.93 190.831 173.36 190.516 172.97C190.186 172.58 189.736 172.385 189.151 172.385C188.521 172.385 188.026 172.625 187.666 173.105C187.306 173.585 187.126 174.2 187.126 174.965V179H185.896V171.35H186.961L187.126 172.4C187.666 171.65 188.416 171.26 189.361 171.26C189.901 171.26 190.396 171.395 190.816 171.635C191.236 171.875 191.566 172.235 191.776 172.715C192.316 171.755 193.201 171.26 194.431 171.26C195.286 171.26 195.976 171.53 196.516 172.07ZM199.083 173.12C199.383 172.535 199.818 172.085 200.373 171.755C200.913 171.425 201.543 171.26 202.263 171.26C202.953 171.26 203.583 171.41 204.123 171.695C204.663 171.995 205.083 172.415 205.398 172.955C205.698 173.51 205.863 174.155 205.893 174.89C205.893 175.01 205.878 175.175 205.863 175.415H199.923V175.52C199.938 176.27 200.163 176.87 200.613 177.32C201.048 177.77 201.618 177.995 202.338 177.995C202.878 177.995 203.343 177.86 203.733 177.59C204.123 177.32 204.378 176.93 204.513 176.435H205.758C205.608 177.215 205.233 177.86 204.633 178.355C204.033 178.85 203.298 179.09 202.428 179.09C201.663 179.09 201.003 178.94 200.433 178.61C199.863 178.28 199.413 177.83 199.098 177.23C198.783 176.63 198.633 175.955 198.633 175.175C198.633 174.395 198.783 173.72 199.083 173.12ZM204.618 174.395C204.558 173.75 204.303 173.24 203.883 172.88C203.463 172.52 202.923 172.34 202.278 172.34C201.693 172.34 201.183 172.535 200.748 172.91C200.298 173.3 200.058 173.795 199.998 174.395H204.618ZM207.31 175.25V174.23H212.305V175.25H207.31Z" fill="#171616"/>
<rect x="85" y="153" width="414" height="40" rx="11" stroke="#BEBEBE" stroke-width="2"/>
<path d="M98.78 413.25V412.23H103.775V413.25H98.78ZM109.603 406.5C110.293 406.5 110.893 406.635 111.433 406.905C111.958 407.175 112.363 407.55 112.648 408.03C112.933 408.51 113.083 409.08 113.083 409.725C113.083 410.385 112.933 410.955 112.648 411.435C112.348 411.93 111.943 412.305 111.418 412.575C110.893 412.845 110.293 412.965 109.603 412.965H106.873V417H105.568V406.5H109.603ZM106.873 411.765H109.483C110.173 411.765 110.713 411.585 111.133 411.21C111.538 410.85 111.748 410.355 111.748 409.725C111.748 409.11 111.538 408.615 111.133 408.255C110.728 407.895 110.188 407.7 109.498 407.7H106.873V411.765ZM120.995 415.875V417H120.32C119.825 417 119.48 416.91 119.27 416.7C119.06 416.505 118.94 416.205 118.94 415.815C118.34 416.67 117.485 417.09 116.375 417.09C115.52 417.09 114.83 416.895 114.32 416.49C113.81 416.1 113.555 415.545 113.555 414.855C113.555 414.09 113.81 413.505 114.335 413.085C114.86 412.68 115.625 412.47 116.63 412.47H118.88V411.945C118.88 411.45 118.7 411.06 118.37 410.775C118.04 410.505 117.575 410.355 116.975 410.355C116.435 410.355 116 410.475 115.655 410.715C115.31 410.955 115.1 411.255 115.025 411.645H113.795C113.885 410.895 114.215 410.31 114.785 409.89C115.355 409.47 116.105 409.26 117.035 409.26C118.01 409.26 118.76 409.5 119.3 409.98C119.84 410.46 120.11 411.135 120.11 412.02V415.32C120.11 415.695 120.275 415.875 120.62 415.875H120.995ZM118.88 413.505H116.51C115.37 413.505 114.8 413.94 114.8 414.78C114.8 415.17 114.95 415.47 115.25 415.695C115.55 415.935 115.955 416.04 116.465 416.04C117.215 416.04 117.8 415.845 118.235 415.455C118.655 415.065 118.88 414.54 118.88 413.88V413.505ZM122.261 409.35L124.616 415.59L126.896 409.35H128.201L124.676 418.29C124.496 418.755 124.331 419.1 124.196 419.325C124.046 419.565 123.881 419.73 123.671 419.835C123.461 419.955 123.176 420 122.831 420H121.361V418.875H122.456C122.696 418.875 122.876 418.86 122.996 418.8C123.116 418.755 123.206 418.68 123.281 418.56C123.356 418.44 123.446 418.245 123.566 417.975L123.956 417.06L120.956 409.35H122.261ZM139.738 410.07C140.278 410.61 140.548 411.45 140.548 412.59V417H139.318V412.665C139.318 411.93 139.153 411.36 138.838 410.97C138.523 410.58 138.073 410.385 137.503 410.385C136.858 410.385 136.348 410.61 135.988 411.06C135.628 411.51 135.448 412.125 135.448 412.905V417H134.218V412.665C134.218 411.93 134.053 411.36 133.738 410.97C133.408 410.58 132.958 410.385 132.373 410.385C131.743 410.385 131.248 410.625 130.888 411.105C130.528 411.585 130.348 412.2 130.348 412.965V417H129.118V409.35H130.183L130.348 410.4C130.888 409.65 131.638 409.26 132.583 409.26C133.123 409.26 133.618 409.395 134.038 409.635C134.458 409.875 134.788 410.235 134.998 410.715C135.538 409.755 136.423 409.26 137.653 409.26C138.508 409.26 139.198 409.53 139.738 410.07ZM142.306 411.12C142.606 410.535 143.041 410.085 143.596 409.755C144.136 409.425 144.766 409.26 145.486 409.26C146.176 409.26 146.806 409.41 147.346 409.695C147.886 409.995 148.306 410.415 148.621 410.955C148.921 411.51 149.086 412.155 149.116 412.89C149.116 413.01 149.101 413.175 149.086 413.415H143.146V413.52C143.161 414.27 143.386 414.87 143.836 415.32C144.271 415.77 144.841 415.995 145.561 415.995C146.101 415.995 146.566 415.86 146.956 415.59C147.346 415.32 147.601 414.93 147.736 414.435H148.981C148.831 415.215 148.456 415.86 147.856 416.355C147.256 416.85 146.521 417.09 145.651 417.09C144.886 417.09 144.226 416.94 143.656 416.61C143.086 416.28 142.636 415.83 142.321 415.23C142.006 414.63 141.856 413.955 141.856 413.175C141.856 412.395 142.006 411.72 142.306 411.12ZM147.841 412.395C147.781 411.75 147.526 411.24 147.106 410.88C146.686 410.52 146.146 410.34 145.501 410.34C144.916 410.34 144.406 410.535 143.971 410.91C143.521 411.3 143.281 411.795 143.221 412.395H147.841ZM156.505 410.1C157.075 410.67 157.36 411.54 157.36 412.74V417H156.13V412.815C156.13 412.035 155.95 411.435 155.59 411.015C155.23 410.595 154.72 410.385 154.06 410.385C153.34 410.385 152.77 410.64 152.365 411.135C151.945 411.645 151.75 412.32 151.75 413.175V417H150.52V409.35H151.585L151.75 410.385C152.32 409.635 153.16 409.26 154.27 409.26C155.2 409.26 155.935 409.545 156.505 410.1ZM159.438 410.475H158.058V409.35H159.438V407.205H160.668V409.35H162.603V410.475H160.668V414.99C160.668 415.32 160.728 415.545 160.848 415.68C160.968 415.815 161.193 415.875 161.508 415.875H162.843V417H161.433C160.713 417 160.188 416.85 159.888 416.52C159.588 416.205 159.438 415.695 159.438 415.005V410.475ZM167.824 406.5H169.129V417H167.824V406.5ZM171.164 406.5H174.269C175.349 406.5 176.279 406.725 177.074 407.16C177.869 407.595 178.484 408.21 178.904 408.99C179.324 409.785 179.549 410.7 179.549 411.75C179.549 412.8 179.324 413.715 178.904 414.51C178.484 415.305 177.869 415.92 177.074 416.355C176.279 416.79 175.349 417 174.269 417H171.164V406.5ZM174.269 415.8C175.514 415.8 176.489 415.44 177.179 414.705C177.869 413.985 178.214 412.995 178.214 411.75C178.214 410.505 177.869 409.515 177.179 408.795C176.489 408.075 175.529 407.7 174.269 407.7H172.469V415.8H174.269ZM181.177 413.25V412.23H186.172V413.25H181.177Z" fill="#171616"/>
<rect x="85" y="391" width="414" height="40" rx="11" stroke="#BEBEBE" stroke-width="2"/>
<path d="M470.24 401H466.346C464.582 401 463.184 401 462.091 401.148C460.965 401.3 460.054 401.62 459.336 402.341C458.617 403.062 458.298 403.977 458.147 405.107C458 406.205 458 407.608 458 409.379V415.217C458 416.725 458.92 418.017 460.227 418.559C460.16 417.649 460.16 416.374 460.16 415.312V410.302C460.16 409.021 460.16 407.916 460.278 407.032C460.405 406.084 460.691 405.176 461.425 404.439C462.159 403.702 463.064 403.415 464.008 403.287C464.888 403.169 465.988 403.169 467.265 403.169H470.335C471.611 403.169 472.709 403.169 473.59 403.287C473.326 402.613 472.865 402.035 472.268 401.627C471.67 401.219 470.964 401.001 470.24 401Z" fill="black"/>
<path d="M461.6 410.397C461.6 407.671 461.6 406.308 462.444 405.461C463.287 404.614 464.644 404.614 467.36 404.614H470.24C472.955 404.614 474.313 404.614 475.157 405.461C476 406.308 476 407.671 476 410.397V415.217C476 417.943 476 419.306 475.157 420.153C474.313 421 472.955 421 470.24 421H467.36C464.645 421 463.287 421 462.444 420.153C461.6 419.306 461.6 417.943 461.6 415.217V410.397Z" fill="black"/>
<path d="M98.78 236.25V235.23H103.775V236.25H98.78ZM105.568 229.5H108.673C109.753 229.5 110.683 229.725 111.478 230.16C112.273 230.595 112.888 231.21 113.308 231.99C113.728 232.785 113.953 233.7 113.953 234.75C113.953 235.8 113.728 236.715 113.308 237.51C112.888 238.305 112.273 238.92 111.478 239.355C110.683 239.79 109.753 240 108.673 240H105.568V229.5ZM108.673 238.8C109.918 238.8 110.893 238.44 111.583 237.705C112.273 236.985 112.618 235.995 112.618 234.75C112.618 233.505 112.273 232.515 111.583 231.795C110.893 231.075 109.933 230.7 108.673 230.7H106.873V238.8H108.673ZM115.602 234.12C115.902 233.535 116.337 233.085 116.892 232.755C117.432 232.425 118.062 232.26 118.782 232.26C119.472 232.26 120.102 232.41 120.642 232.695C121.182 232.995 121.602 233.415 121.917 233.955C122.217 234.51 122.382 235.155 122.412 235.89C122.412 236.01 122.397 236.175 122.382 236.415H116.442V236.52C116.457 237.27 116.682 237.87 117.132 238.32C117.567 238.77 118.137 238.995 118.857 238.995C119.397 238.995 119.862 238.86 120.252 238.59C120.642 238.32 120.897 237.93 121.032 237.435H122.277C122.127 238.215 121.752 238.86 121.152 239.355C120.552 239.85 119.817 240.09 118.947 240.09C118.182 240.09 117.522 239.94 116.952 239.61C116.382 239.28 115.932 238.83 115.617 238.23C115.302 237.63 115.152 236.955 115.152 236.175C115.152 235.395 115.302 234.72 115.602 234.12ZM121.137 235.395C121.077 234.75 120.822 234.24 120.402 233.88C119.982 233.52 119.442 233.34 118.797 233.34C118.212 233.34 117.702 233.535 117.267 233.91C116.817 234.3 116.577 234.795 116.517 235.395H121.137ZM124.746 237.48C124.761 237.945 124.956 238.32 125.346 238.605C125.736 238.905 126.231 239.04 126.846 239.04C127.386 239.04 127.821 238.935 128.151 238.725C128.481 238.515 128.661 238.23 128.661 237.87C128.661 237.57 128.571 237.345 128.421 237.18C128.256 237.03 128.046 236.91 127.791 236.85C127.536 236.79 127.176 236.73 126.711 236.67C126.051 236.595 125.511 236.49 125.091 236.355C124.671 236.235 124.326 236.025 124.071 235.74C123.801 235.455 123.681 235.065 123.681 234.555C123.681 234.105 123.801 233.715 124.056 233.355C124.311 233.01 124.656 232.74 125.106 232.545C125.541 232.35 126.036 232.245 126.591 232.245C127.491 232.245 128.211 232.455 128.781 232.875C129.351 233.295 129.666 233.895 129.726 234.675H128.496C128.436 234.285 128.241 233.955 127.911 233.685C127.566 233.43 127.146 233.295 126.636 233.295C126.111 233.295 125.691 233.415 125.376 233.625C125.046 233.835 124.896 234.12 124.896 234.465C124.896 234.735 124.971 234.93 125.121 235.065C125.271 235.215 125.451 235.305 125.691 235.35C125.931 235.41 126.291 235.455 126.771 235.515C127.431 235.605 127.986 235.71 128.421 235.845C128.856 235.995 129.201 236.22 129.471 236.52C129.741 236.835 129.876 237.255 129.876 237.78C129.876 238.245 129.741 238.65 129.471 238.995C129.201 239.355 128.826 239.625 128.376 239.805C127.911 240 127.401 240.09 126.846 240.09C125.841 240.09 125.031 239.865 124.431 239.4C123.831 238.95 123.516 238.305 123.516 237.48H124.746ZM136.972 239.37C136.372 239.85 135.622 240.09 134.722 240.09C133.972 240.09 133.327 239.925 132.772 239.595C132.202 239.265 131.767 238.815 131.467 238.215C131.152 237.615 131.002 236.94 131.002 236.16C131.002 235.395 131.152 234.72 131.467 234.12C131.782 233.535 132.232 233.085 132.802 232.755C133.372 232.425 134.017 232.26 134.767 232.26C135.667 232.26 136.402 232.5 136.987 232.98C137.572 233.46 137.947 234.12 138.097 234.96H136.852C136.732 234.48 136.477 234.09 136.102 233.79C135.712 233.505 135.262 233.355 134.722 233.355C133.987 233.355 133.387 233.625 132.937 234.135C132.487 234.66 132.262 235.335 132.262 236.16C132.262 237 132.487 237.69 132.937 238.215C133.387 238.74 133.987 238.995 134.722 238.995C135.277 238.995 135.742 238.86 136.132 238.56C136.507 238.275 136.747 237.87 136.867 237.36H138.097C137.932 238.215 137.557 238.89 136.972 239.37ZM143.404 232.35V233.55H142.789C142.054 233.55 141.529 233.805 141.214 234.285C140.899 234.78 140.749 235.38 140.749 236.1V240H139.519V232.35H140.584L140.749 233.505C140.959 233.16 141.244 232.875 141.604 232.665C141.949 232.455 142.429 232.35 143.059 232.35H143.404ZM145.713 229.62C145.863 229.77 145.938 229.965 145.938 230.19C145.938 230.43 145.863 230.61 145.713 230.76C145.563 230.91 145.368 230.985 145.143 230.985C144.903 230.985 144.723 230.91 144.573 230.76C144.423 230.61 144.348 230.43 144.348 230.19C144.348 229.965 144.423 229.77 144.573 229.62C144.723 229.47 144.903 229.395 145.143 229.395C145.368 229.395 145.563 229.47 145.713 229.62ZM144.528 232.35H145.758V240H144.528V232.35ZM153.189 232.725C153.744 233.04 154.179 233.49 154.494 234.075C154.809 234.675 154.974 235.365 154.974 236.175C154.974 236.955 154.809 237.63 154.494 238.215C154.179 238.815 153.744 239.265 153.189 239.595C152.619 239.925 151.989 240.09 151.299 240.09C150.669 240.09 150.144 239.985 149.709 239.76C149.259 239.535 148.914 239.22 148.674 238.83V243H147.444V232.35H148.509L148.674 233.58C149.304 232.71 150.189 232.26 151.299 232.26C152.004 232.26 152.634 232.425 153.189 232.725ZM153.009 238.215C153.474 237.69 153.714 237.015 153.714 236.175C153.714 235.35 153.474 234.675 153.009 234.15C152.544 233.625 151.929 233.355 151.179 233.355C150.684 233.355 150.249 233.475 149.859 233.715C149.469 233.955 149.184 234.285 148.974 234.705C148.764 235.125 148.659 235.605 148.659 236.145C148.659 236.7 148.764 237.195 148.974 237.63C149.184 238.065 149.469 238.395 149.859 238.635C150.249 238.875 150.684 238.995 151.179 238.995C151.929 238.995 152.544 238.74 153.009 238.215ZM156.801 233.475H155.421V232.35H156.801V230.205H158.031V232.35H159.966V233.475H158.031V237.99C158.031 238.32 158.091 238.545 158.211 238.68C158.331 238.815 158.556 238.875 158.871 238.875H160.206V240H158.796C158.076 240 157.551 239.85 157.251 239.52C156.951 239.205 156.801 238.695 156.801 238.005V233.475ZM162.266 229.62C162.416 229.77 162.491 229.965 162.491 230.19C162.491 230.43 162.416 230.61 162.266 230.76C162.116 230.91 161.921 230.985 161.696 230.985C161.456 230.985 161.276 230.91 161.126 230.76C160.976 230.61 160.901 230.43 160.901 230.19C160.901 229.965 160.976 229.77 161.126 229.62C161.276 229.47 161.456 229.395 161.696 229.395C161.921 229.395 162.116 229.47 162.266 229.62ZM161.081 232.35H162.311V240H161.081V232.35ZM165.541 239.595C164.971 239.265 164.521 238.815 164.206 238.215C163.876 237.63 163.726 236.955 163.726 236.175C163.726 235.41 163.876 234.735 164.206 234.135C164.521 233.55 164.971 233.085 165.541 232.755C166.111 232.425 166.771 232.26 167.521 232.26C168.256 232.26 168.916 232.425 169.486 232.755C170.056 233.085 170.506 233.55 170.836 234.135C171.151 234.735 171.316 235.41 171.316 236.175C171.316 236.955 171.151 237.63 170.836 238.215C170.506 238.815 170.056 239.265 169.486 239.595C168.916 239.925 168.256 240.09 167.521 240.09C166.771 240.09 166.111 239.925 165.541 239.595ZM168.841 238.635C169.231 238.395 169.531 238.065 169.741 237.63C169.951 237.21 170.056 236.715 170.056 236.175C170.056 235.635 169.951 235.155 169.741 234.72C169.531 234.3 169.231 233.955 168.841 233.715C168.451 233.475 168.016 233.355 167.521 233.355C167.011 233.355 166.576 233.475 166.186 233.715C165.796 233.955 165.511 234.3 165.301 234.72C165.091 235.155 164.986 235.635 164.986 236.175C164.986 236.715 165.091 237.21 165.301 237.63C165.511 238.065 165.796 238.395 166.186 238.635C166.576 238.875 167.011 238.995 167.521 238.995C168.016 238.995 168.451 238.875 168.841 238.635ZM178.712 233.1C179.282 233.67 179.567 234.54 179.567 235.74V240H178.337V235.815C178.337 235.035 178.157 234.435 177.797 234.015C177.437 233.595 176.927 233.385 176.267 233.385C175.547 233.385 174.977 233.64 174.572 234.135C174.152 234.645 173.957 235.32 173.957 236.175V240H172.727V232.35H173.792L173.957 233.385C174.527 232.635 175.367 232.26 176.477 232.26C177.407 232.26 178.142 232.545 178.712 233.1ZM181.075 236.25V235.23H186.07V236.25H181.075Z" fill="#171616"/>
<rect x="85" y="214" width="414" height="95" rx="11" stroke="#BEBEBE" stroke-width="2"/>
<g clip-path="url(#clip0_197_5899)">
<path d="M146 444H101C95.4772 444 91 448.477 91 454V499C91 504.523 95.4772 509 101 509H146C151.523 509 156 504.523 156 499V454C156 448.477 151.523 444 146 444Z" fill="white"/>
<path d="M97.4581 448.194H95.1936V450.458H97.4581V448.194Z" fill="black"/>
<path d="M99.7226 448.194H97.4581V450.458H99.7226V448.194Z" fill="black"/>
<path d="M101.987 448.194H99.7226V450.458H101.987V448.194Z" fill="black"/>
<path d="M104.252 448.194H101.987V450.458H104.252V448.194Z" fill="black"/>
<path d="M106.516 448.194H104.252V450.458H106.516V448.194Z" fill="black"/>
<path d="M108.781 448.194H106.516V450.458H108.781V448.194Z" fill="black"/>
<path d="M111.045 448.194H108.781V450.458H111.045V448.194Z" fill="black"/>
<path d="M115.574 448.194H113.31V450.458H115.574V448.194Z" fill="black"/>
<path d="M124.632 448.194H122.368V450.458H124.632V448.194Z" fill="black"/>
<path d="M129.161 448.194H126.897V450.458H129.161V448.194Z" fill="black"/>
<path d="M133.69 448.194H131.426V450.458H133.69V448.194Z" fill="black"/>
<path d="M138.219 448.194H135.955V450.458H138.219V448.194Z" fill="black"/>
<path d="M140.484 448.194H138.219V450.458H140.484V448.194Z" fill="black"/>
<path d="M142.748 448.194H140.484V450.458H142.748V448.194Z" fill="black"/>
<path d="M145.013 448.194H142.748V450.458H145.013V448.194Z" fill="black"/>
<path d="M147.277 448.194H145.013V450.458H147.277V448.194Z" fill="black"/>
<path d="M149.542 448.194H147.277V450.458H149.542V448.194Z" fill="black"/>
<path d="M151.807 448.194H149.542V450.458H151.807V448.194Z" fill="black"/>
<path d="M97.4581 450.458H95.1936V452.723H97.4581V450.458Z" fill="black"/>
<path d="M111.045 450.458H108.781L108.781 452.723H111.045V450.458Z" fill="black"/>
<path d="M117.839 450.458H115.574V452.723H117.839V450.458Z" fill="black"/>
<path d="M131.426 450.458H129.161L129.161 452.723H131.426V450.458Z" fill="black"/>
<path d="M133.69 450.458H131.426V452.723H133.69V450.458Z" fill="black"/>
<path d="M138.219 450.458H135.955V452.723H138.219V450.458Z" fill="black"/>
<path d="M151.807 450.458H149.542V452.723H151.807V450.458Z" fill="black"/>
<path d="M97.4581 452.723H95.1936V454.987H97.4581V452.723Z" fill="black"/>
<path d="M101.987 452.723H99.7226V454.987H101.987V452.723Z" fill="black"/>
<path d="M104.252 452.723H101.987V454.987H104.252V452.723Z" fill="black"/>
<path d="M106.516 452.723H104.252V454.987H106.516V452.723Z" fill="black"/>
<path d="M111.045 452.723H108.781V454.987H111.045V452.723Z" fill="black"/>
<path d="M117.839 452.723H115.574V454.987H117.839V452.723Z" fill="black"/>
<path d="M120.103 452.723H117.839V454.987H120.103V452.723Z" fill="black"/>
<path d="M122.368 452.723H120.103V454.987H122.368V452.723Z" fill="black"/>
<path d="M138.219 452.723H135.955V454.987H138.219V452.723Z" fill="black"/>
<path d="M142.748 452.723H140.484V454.987H142.748V452.723Z" fill="black"/>
<path d="M145.013 452.723H142.748V454.987H145.013V452.723Z" fill="black"/>
<path d="M147.277 452.723H145.013V454.987H147.277V452.723Z" fill="black"/>
<path d="M151.807 452.723H149.542V454.987H151.807V452.723Z" fill="black"/>
<path d="M97.4581 454.987H95.1936V457.252H97.4581V454.987Z" fill="black"/>
<path d="M101.987 454.987H99.7226V457.252H101.987V454.987Z" fill="black"/>
<path d="M104.252 454.987H101.987V457.252H104.252V454.987Z" fill="black"/>
<path d="M106.516 454.987H104.252V457.252H106.516V454.987Z" fill="black"/>
<path d="M111.045 454.987H108.781V457.252H111.045V454.987Z" fill="black"/>
<path d="M115.574 454.987H113.31V457.252H115.574V454.987Z" fill="black"/>
<path d="M120.103 454.987H117.839V457.252H120.103V454.987Z" fill="black"/>
<path d="M124.632 454.987H122.368V457.252H124.632V454.987Z" fill="black"/>
<path d="M129.161 454.987H126.897V457.252H129.161V454.987Z" fill="black"/>
<path d="M133.69 454.987H131.426V457.252H133.69V454.987Z" fill="black"/>
<path d="M138.219 454.987H135.955V457.252H138.219V454.987Z" fill="black"/>
<path d="M142.748 454.987H140.484V457.252H142.748V454.987Z" fill="black"/>
<path d="M145.013 454.987H142.748V457.252H145.013V454.987Z" fill="black"/>
<path d="M147.277 454.987H145.013V457.252H147.277V454.987Z" fill="black"/>
<path d="M151.807 454.987H149.542V457.252H151.807V454.987Z" fill="black"/>
<path d="M97.4581 457.252H95.1936V459.516H97.4581V457.252Z" fill="black"/>
<path d="M101.987 457.252H99.7226V459.516H101.987V457.252Z" fill="black"/>
<path d="M104.252 457.252H101.987V459.516H104.252V457.252Z" fill="black"/>
<path d="M106.516 457.252H104.252V459.516H106.516V457.252Z" fill="black"/>
<path d="M111.045 457.252H108.781V459.516H111.045V457.252Z" fill="black"/>
<path d="M117.839 457.252H115.574V459.516H117.839V457.252Z" fill="black"/>
<path d="M120.103 457.252H117.839V459.516H120.103V457.252Z" fill="black"/>
<path d="M124.632 457.252H122.368V459.516H124.632V457.252Z" fill="black"/>
<path d="M126.897 457.252H124.632V459.516H126.897V457.252Z" fill="black"/>
<path d="M133.69 457.252H131.426V459.516H133.69V457.252Z" fill="black"/>
<path d="M138.219 457.252H135.955V459.516H138.219V457.252Z" fill="black"/>
<path d="M142.748 457.252H140.484V459.516H142.748V457.252Z" fill="black"/>
<path d="M145.013 457.252H142.748V459.516H145.013V457.252Z" fill="black"/>
<path d="M147.277 457.252H145.013V459.516H147.277V457.252Z" fill="black"/>
<path d="M151.807 457.252H149.542V459.516H151.807V457.252Z" fill="black"/>
<path d="M97.4581 459.516H95.1936V461.781H97.4581V459.516Z" fill="black"/>
<path d="M111.045 459.516H108.781V461.781H111.045V459.516Z" fill="black"/>
<path d="M115.574 459.516H113.31V461.781H115.574V459.516Z" fill="black"/>
<path d="M117.839 459.516H115.574V461.781H117.839V459.516Z" fill="black"/>
<path d="M122.368 459.516H120.103V461.781H122.368V459.516Z" fill="black"/>
<path d="M124.632 459.516H122.368V461.781H124.632V459.516Z" fill="black"/>
<path d="M126.897 459.516H124.632V461.781H126.897V459.516Z" fill="black"/>
<path d="M131.426 459.516H129.161V461.781H131.426V459.516Z" fill="black"/>
<path d="M138.219 459.516H135.955V461.781H138.219V459.516Z" fill="black"/>
<path d="M151.807 459.516H149.542V461.781H151.807V459.516Z" fill="black"/>
<path d="M97.4581 461.781H95.1936V464.045H97.4581V461.781Z" fill="black"/>
<path d="M99.7226 461.781L97.4581 461.781V464.045H99.7226V461.781Z" fill="black"/>
<path d="M101.987 461.781H99.7226V464.045H101.987V461.781Z" fill="black"/>
<path d="M104.252 461.781H101.987V464.045H104.252V461.781Z" fill="black"/>
<path d="M106.516 461.781H104.252V464.045H106.516V461.781Z" fill="black"/>
<path d="M108.781 461.781L106.516 461.781V464.045H108.781L108.781 461.781Z" fill="black"/>
<path d="M111.045 461.781H108.781L108.781 464.045H111.045V461.781Z" fill="black"/>
<path d="M115.574 461.781H113.31V464.045H115.574V461.781Z" fill="black"/>
<path d="M120.103 461.781H117.839V464.045H120.103V461.781Z" fill="black"/>
<path d="M124.632 461.781H122.368V464.045H124.632V461.781Z" fill="black"/>
<path d="M129.161 461.781H126.897V464.045H129.161L129.161 461.781Z" fill="black"/>
<path d="M133.69 461.781L131.426 461.781V464.045H133.69V461.781Z" fill="black"/>
<path d="M138.219 461.781H135.955V464.045H138.219V461.781Z" fill="black"/>
<path d="M140.484 461.781L138.219 461.781V464.045H140.484V461.781Z" fill="black"/>
<path d="M142.748 461.781H140.484V464.045H142.748V461.781Z" fill="black"/>
<path d="M145.013 461.781H142.748V464.045H145.013V461.781Z" fill="black"/>
<path d="M147.277 461.781H145.013V464.045H147.277V461.781Z" fill="black"/>
<path d="M149.542 461.781L147.277 461.781V464.045H149.542V461.781Z" fill="black"/>
<path d="M151.807 461.781H149.542V464.045H151.807V461.781Z" fill="black"/>
<path d="M117.839 464.045H115.574V466.31H117.839V464.045Z" fill="black"/>
<path d="M120.103 464.045H117.839V466.31H120.103V464.045Z" fill="black"/>
<path d="M131.426 464.045H129.161L129.161 466.31H131.426V464.045Z" fill="black"/>
<path d="M108.781 466.31H106.516V468.574H108.781V466.31Z" fill="black"/>
<path d="M111.045 466.31H108.781V468.574H111.045V466.31Z" fill="black"/>
<path d="M115.574 466.31H113.31V468.574H115.574V466.31Z" fill="black"/>
<path d="M117.839 466.31H115.574V468.574H117.839V466.31Z" fill="black"/>
<path d="M124.632 466.31H122.368V468.574H124.632V466.31Z" fill="black"/>
<path d="M126.897 466.31H124.632V468.574H126.897V466.31Z" fill="black"/>
<path d="M129.161 466.31H126.897V468.574H129.161L129.161 466.31Z" fill="black"/>
<path d="M133.69 466.31H131.426V468.574H133.69V466.31Z" fill="black"/>
<path d="M135.955 466.31H133.69V468.574H135.955V466.31Z" fill="black"/>
<path d="M140.484 466.31H138.219V468.574H140.484V466.31Z" fill="black"/>
<path d="M145.013 466.31H142.748V468.574H145.013V466.31Z" fill="black"/>
<path d="M151.807 466.31H149.542V468.574H151.807V466.31Z" fill="black"/>
<path d="M106.516 468.574H104.252V470.839H106.516V468.574Z" fill="black"/>
<path d="M108.781 468.574H106.516V470.839H108.781V468.574Z" fill="black"/>
<path d="M117.839 468.574H115.574V470.839H117.839V468.574Z" fill="black"/>
<path d="M120.103 468.574H117.839V470.839H120.103V468.574Z" fill="black"/>
<path d="M126.897 468.574H124.632V470.839H126.897V468.574Z" fill="black"/>
<path d="M129.161 468.574H126.897V470.839H129.161V468.574Z" fill="black"/>
<path d="M131.426 468.574H129.161V470.839H131.426V468.574Z" fill="black"/>
<path d="M135.955 468.574H133.69V470.839H135.955V468.574Z" fill="black"/>
<path d="M138.219 468.574H135.955V470.839H138.219V468.574Z" fill="black"/>
<path d="M140.484 468.574H138.219V470.839H140.484V468.574Z" fill="black"/>
<path d="M149.542 468.574H147.277V470.839H149.542V468.574Z" fill="black"/>
<path d="M97.4581 470.839H95.1936V473.103H97.4581V470.839Z" fill="black"/>
<path d="M99.7226 470.839H97.4581V473.103H99.7226V470.839Z" fill="black"/>
<path d="M106.516 470.839H104.252V473.103H106.516V470.839Z" fill="black"/>
<path d="M108.781 470.839H106.516V473.103H108.781V470.839Z" fill="black"/>
<path d="M111.045 470.839H108.781V473.103H111.045V470.839Z" fill="black"/>
<path d="M117.839 470.839H115.574V473.103H117.839V470.839Z" fill="black"/>
<path d="M120.103 470.839H117.839V473.103H120.103V470.839Z" fill="black"/>
<path d="M122.368 470.839H120.103V473.103H122.368V470.839Z" fill="black"/>
<path d="M126.897 470.839H124.632V473.103H126.897V470.839Z" fill="black"/>
<path d="M133.69 470.839H131.426V473.103H133.69V470.839Z" fill="black"/>
<path d="M138.219 470.839H135.955V473.103H138.219V470.839Z" fill="black"/>
<path d="M145.013 470.839H142.748V473.103H145.013V470.839Z" fill="black"/>
<path d="M147.277 470.839H145.013V473.103H147.277V470.839Z" fill="black"/>
<path d="M149.542 470.839H147.277V473.103H149.542V470.839Z" fill="black"/>
<path d="M99.7226 473.103H97.4581V475.368H99.7226V473.103Z" fill="black"/>
<path d="M101.987 473.103H99.7226V475.368H101.987V473.103Z" fill="black"/>
<path d="M106.516 473.103H104.252V475.368H106.516V473.103Z" fill="black"/>
<path d="M113.31 473.103H111.045V475.368H113.31V473.103Z" fill="black"/>
<path d="M115.574 473.103H113.31V475.368H115.574V473.103Z" fill="black"/>
<path d="M120.103 473.103H117.839V475.368H120.103V473.103Z" fill="black"/>
<path d="M126.897 473.103H124.632V475.368H126.897V473.103Z" fill="black"/>
<path d="M133.69 473.103H131.426V475.368H133.69V473.103Z" fill="black"/>
<path d="M140.484 473.103H138.219V475.368H140.484V473.103Z" fill="black"/>
<path d="M142.748 473.103H140.484V475.368H142.748V473.103Z" fill="black"/>
<path d="M145.013 473.103H142.748V475.368H145.013V473.103Z" fill="black"/>
<path d="M147.277 473.103H145.013V475.368H147.277V473.103Z" fill="black"/>
<path d="M149.542 473.103H147.277V475.368H149.542V473.103Z" fill="black"/>
<path d="M151.807 473.103H149.542V475.368H151.807V473.103Z" fill="black"/>
<path d="M101.987 475.368H99.7226V477.632H101.987V475.368Z" fill="black"/>
<path d="M104.252 475.368H101.987V477.632H104.252V475.368Z" fill="black"/>
<path d="M108.781 475.368H106.516V477.632H108.781V475.368Z" fill="black"/>
<path d="M111.045 475.368H108.781V477.632H111.045V475.368Z" fill="black"/>
<path d="M115.574 475.368H113.31V477.632H115.574V475.368Z" fill="black"/>
<path d="M120.103 475.368H117.839V477.632H120.103V475.368Z" fill="black"/>
<path d="M122.368 475.368H120.103V477.632H122.368V475.368Z" fill="black"/>
<path d="M124.632 475.368H122.368V477.632H124.632V475.368Z" fill="black"/>
<path d="M126.897 475.368H124.632V477.632H126.897V475.368Z" fill="black"/>
<path d="M129.161 475.368H126.897V477.632H129.161V475.368Z" fill="black"/>
<path d="M131.426 475.368H129.161V477.632H131.426V475.368Z" fill="black"/>
<path d="M142.748 475.368H140.484V477.632H142.748V475.368Z" fill="black"/>
<path d="M145.013 475.368H142.748V477.632H145.013V475.368Z" fill="black"/>
<path d="M147.277 475.368H145.013V477.632H147.277V475.368Z" fill="black"/>
<path d="M149.542 475.368H147.277V477.632H149.542V475.368Z" fill="black"/>
<path d="M97.4581 477.632H95.1936V479.897H97.4581V477.632Z" fill="black"/>
<path d="M106.516 477.632H104.252V479.897H106.516V477.632Z" fill="black"/>
<path d="M108.781 477.632H106.516V479.897H108.781V477.632Z" fill="black"/>
<path d="M115.574 477.632H113.31V479.897H115.574V477.632Z" fill="black"/>
<path d="M120.103 477.632H117.839V479.897H120.103V477.632Z" fill="black"/>
<path d="M122.368 477.632H120.103V479.897H122.368V477.632Z" fill="black"/>
<path d="M124.632 477.632H122.368V479.897H124.632V477.632Z" fill="black"/>
<path d="M131.426 477.632H129.161L129.161 479.897H131.426V477.632Z" fill="black"/>
<path d="M133.69 477.632H131.426V479.897H133.69V477.632Z" fill="black"/>
<path d="M138.219 477.632H135.955V479.897H138.219V477.632Z" fill="black"/>
<path d="M140.484 477.632H138.219V479.897H140.484V477.632Z" fill="black"/>
<path d="M145.013 477.632H142.748V479.897H145.013V477.632Z" fill="black"/>
<path d="M147.277 477.632H145.013V479.897H147.277V477.632Z" fill="black"/>
<path d="M149.542 477.632H147.277V479.897H149.542V477.632Z" fill="black"/>
<path d="M97.4581 479.897H95.1936V482.161H97.4581V479.897Z" fill="black"/>
<path d="M99.7226 479.897H97.4581V482.161H99.7226V479.897Z" fill="black"/>
<path d="M101.987 479.897H99.7226V482.161H101.987V479.897Z" fill="black"/>
<path d="M104.252 479.897H101.987V482.161H104.252V479.897Z" fill="black"/>
<path d="M108.781 479.897H106.516V482.161H108.781V479.897Z" fill="black"/>
<path d="M111.045 479.897H108.781V482.161H111.045V479.897Z" fill="black"/>
<path d="M115.574 479.897H113.31V482.161H115.574V479.897Z" fill="black"/>
<path d="M122.368 479.897H120.103V482.161H122.368V479.897Z" fill="black"/>
<path d="M129.161 479.897H126.897V482.161H129.161L129.161 479.897Z" fill="black"/>
<path d="M131.426 479.897H129.161L129.161 482.161H131.426V479.897Z" fill="black"/>
<path d="M133.69 479.897H131.426V482.161H133.69V479.897Z" fill="black"/>
<path d="M135.955 479.897H133.69V482.161H135.955V479.897Z" fill="black"/>
<path d="M142.748 479.897H140.484V482.161H142.748V479.897Z" fill="black"/>
<path d="M147.277 479.897H145.013V482.161H147.277V479.897Z" fill="black"/>
<path d="M151.807 479.897H149.542V482.161H151.807V479.897Z" fill="black"/>
<path d="M97.4581 482.161H95.1936V484.426H97.4581V482.161Z" fill="black"/>
<path d="M99.7226 482.161H97.4581V484.426H99.7226V482.161Z" fill="black"/>
<path d="M104.252 482.161H101.987V484.426H104.252V482.161Z" fill="black"/>
<path d="M106.516 482.161H104.252V484.426H106.516V482.161Z" fill="black"/>
<path d="M108.781 482.161H106.516V484.426H108.781V482.161Z" fill="black"/>
<path d="M122.368 482.161H120.103V484.426H122.368V482.161Z" fill="black"/>
<path d="M138.219 482.161L135.955 482.161V484.426H138.219V482.161Z" fill="black"/>
<path d="M151.807 482.161H149.542V484.426H151.807V482.161Z" fill="black"/>
<path d="M101.987 484.426H99.7226V486.69H101.987V484.426Z" fill="black"/>
<path d="M106.516 484.426H104.252V486.69H106.516V484.426Z" fill="black"/>
<path d="M108.781 484.426H106.516V486.69H108.781V484.426Z" fill="black"/>
<path d="M111.045 484.426H108.781V486.69H111.045V484.426Z" fill="black"/>
<path d="M113.31 484.426H111.045V486.69H113.31V484.426Z" fill="black"/>
<path d="M117.839 484.426H115.574V486.69H117.839V484.426Z" fill="black"/>
<path d="M124.632 484.426H122.368V486.69H124.632V484.426Z" fill="black"/>
<path d="M126.897 484.426H124.632V486.69H126.897V484.426Z" fill="black"/>
<path d="M133.69 484.426H131.426V486.69H133.69V484.426Z" fill="black"/>
<path d="M135.955 484.426H133.69V486.69H135.955V484.426Z" fill="black"/>
<path d="M138.219 484.426H135.955V486.69H138.219V484.426Z" fill="black"/>
<path d="M140.484 484.426H138.219V486.69H140.484V484.426Z" fill="black"/>
<path d="M142.748 484.426H140.484V486.69H142.748V484.426Z" fill="black"/>
<path d="M145.013 484.426H142.748V486.69H145.013V484.426Z" fill="black"/>
<path d="M149.542 484.426H147.277V486.69H149.542V484.426Z" fill="black"/>
<path d="M151.807 484.426H149.542V486.69H151.807V484.426Z" fill="black"/>
<path d="M115.574 486.69H113.31V488.955H115.574V486.69Z" fill="black"/>
<path d="M117.839 486.69H115.574V488.955H117.839V486.69Z" fill="black"/>
<path d="M120.103 486.69H117.839V488.955H120.103V486.69Z" fill="black"/>
<path d="M124.632 486.69H122.368V488.955H124.632V486.69Z" fill="black"/>
<path d="M129.161 486.69H126.897V488.955H129.161V486.69Z" fill="black"/>
<path d="M131.426 486.69H129.161V488.955H131.426V486.69Z" fill="black"/>
<path d="M133.69 486.69H131.426V488.955H133.69V486.69Z" fill="black"/>
<path d="M142.748 486.69H140.484V488.955H142.748V486.69Z" fill="black"/>
<path d="M149.542 486.69H147.277V488.955H149.542V486.69Z" fill="black"/>
<path d="M151.807 486.69H149.542V488.955H151.807V486.69Z" fill="black"/>
<path d="M97.4581 488.955H95.1936V491.219H97.4581V488.955Z" fill="black"/>
<path d="M99.7226 488.955H97.4581V491.219H99.7226V488.955Z" fill="black"/>
<path d="M101.987 488.955H99.7226V491.219H101.987V488.955Z" fill="black"/>
<path d="M104.252 488.955H101.987V491.219H104.252V488.955Z" fill="black"/>
<path d="M106.516 488.955H104.252V491.219H106.516V488.955Z" fill="black"/>
<path d="M108.781 488.955H106.516V491.219H108.781V488.955Z" fill="black"/>
<path d="M111.045 488.955H108.781V491.219H111.045V488.955Z" fill="black"/>
<path d="M117.839 488.955H115.574V491.219H117.839V488.955Z" fill="black"/>
<path d="M120.103 488.955H117.839V491.219H120.103V488.955Z" fill="black"/>
<path d="M124.632 488.955H122.368V491.219H124.632V488.955Z" fill="black"/>
<path d="M126.897 488.955H124.632V491.219H126.897V488.955Z" fill="black"/>
<path d="M129.161 488.955H126.897V491.219H129.161V488.955Z" fill="black"/>
<path d="M131.426 488.955H129.161V491.219H131.426V488.955Z" fill="black"/>
<path d="M133.69 488.955H131.426V491.219H133.69V488.955Z" fill="black"/>
<path d="M138.219 488.955H135.955V491.219H138.219V488.955Z" fill="black"/>
<path d="M142.748 488.955H140.484V491.219H142.748V488.955Z" fill="black"/>
<path d="M151.807 488.955H149.542V491.219H151.807V488.955Z" fill="black"/>
<path d="M97.4581 491.219H95.1936V493.484H97.4581V491.219Z" fill="black"/>
<path d="M111.045 491.219H108.781L108.781 493.484H111.045V491.219Z" fill="black"/>
<path d="M115.574 491.219H113.31V493.484H115.574V491.219Z" fill="black"/>
<path d="M120.103 491.219H117.839V493.484H120.103V491.219Z" fill="black"/>
<path d="M126.897 491.219H124.632V493.484H126.897V491.219Z" fill="black"/>
<path d="M129.161 491.219H126.897V493.484H129.161V491.219Z" fill="black"/>
<path d="M131.426 491.219H129.161V493.484H131.426V491.219Z" fill="black"/>
<path d="M133.69 491.219H131.426V493.484H133.69V491.219Z" fill="black"/>
<path d="M142.748 491.219H140.484V493.484H142.748V491.219Z" fill="black"/>
<path d="M145.013 491.219H142.748V493.484H145.013V491.219Z" fill="black"/>
<path d="M149.542 491.219H147.277V493.484H149.542V491.219Z" fill="black"/>
<path d="M97.4581 493.484H95.1936V495.748H97.4581V493.484Z" fill="black"/>
<path d="M101.987 493.484H99.7226V495.748H101.987V493.484Z" fill="black"/>
<path d="M104.252 493.484H101.987V495.748H104.252V493.484Z" fill="black"/>
<path d="M106.516 493.484H104.252V495.748H106.516V493.484Z" fill="black"/>
<path d="M111.045 493.484H108.781V495.748H111.045V493.484Z" fill="black"/>
<path d="M120.103 493.484H117.839V495.748H120.103V493.484Z" fill="black"/>
<path d="M122.368 493.484H120.103V495.748H122.368V493.484Z" fill="black"/>
<path d="M133.69 493.484H131.426V495.748H133.69V493.484Z" fill="black"/>
<path d="M135.955 493.484H133.69V495.748H135.955V493.484Z" fill="black"/>
<path d="M138.219 493.484H135.955V495.748H138.219V493.484Z" fill="black"/>
<path d="M140.484 493.484H138.219V495.748H140.484V493.484Z" fill="black"/>
<path d="M142.748 493.484H140.484V495.748H142.748V493.484Z" fill="black"/>
<path d="M145.013 493.484H142.748V495.748H145.013V493.484Z" fill="black"/>
<path d="M147.277 493.484H145.013V495.748H147.277V493.484Z" fill="black"/>
<path d="M149.542 493.484H147.277V495.748H149.542V493.484Z" fill="black"/>
<path d="M151.807 493.484H149.542V495.748H151.807V493.484Z" fill="black"/>
<path d="M97.4581 495.748H95.1936V498.013H97.4581V495.748Z" fill="black"/>
<path d="M101.987 495.748H99.7226V498.013H101.987V495.748Z" fill="black"/>
<path d="M104.252 495.748H101.987V498.013H104.252V495.748Z" fill="black"/>
<path d="M106.516 495.748H104.252V498.013H106.516V495.748Z" fill="black"/>
<path d="M111.045 495.748H108.781V498.013H111.045V495.748Z" fill="black"/>
<path d="M138.219 495.748H135.955V498.013H138.219V495.748Z" fill="black"/>
<path d="M142.748 495.748H140.484V498.013H142.748V495.748Z" fill="black"/>
<path d="M149.542 495.748H147.277V498.013H149.542V495.748Z" fill="black"/>
<path d="M97.4581 498.013H95.1936V500.277H97.4581V498.013Z" fill="black"/>
<path d="M101.987 498.013H99.7226V500.277H101.987V498.013Z" fill="black"/>
<path d="M104.252 498.013H101.987V500.277H104.252V498.013Z" fill="black"/>
<path d="M106.516 498.013H104.252V500.277H106.516V498.013Z" fill="black"/>
<path d="M111.045 498.013H108.781V500.277H111.045V498.013Z" fill="black"/>
<path d="M117.839 498.013H115.574V500.277H117.839V498.013Z" fill="black"/>
<path d="M129.161 498.013H126.897V500.277H129.161V498.013Z" fill="black"/>
<path d="M133.69 498.013H131.426V500.277H133.69V498.013Z" fill="black"/>
<path d="M138.219 498.013H135.955V500.277H138.219V498.013Z" fill="black"/>
<path d="M140.484 498.013H138.219V500.277H140.484V498.013Z" fill="black"/>
<path d="M97.4581 500.277H95.1936V502.542H97.4581V500.277Z" fill="black"/>
<path d="M111.045 500.277H108.781V502.542H111.045V500.277Z" fill="black"/>
<path d="M117.839 500.277H115.574V502.542H117.839V500.277Z" fill="black"/>
<path d="M120.103 500.277H117.839V502.542H120.103V500.277Z" fill="black"/>
<path d="M122.368 500.277H120.103V502.542H122.368V500.277Z" fill="black"/>
<path d="M126.897 500.277H124.632V502.542H126.897V500.277Z" fill="black"/>
<path d="M133.69 500.277H131.426V502.542H133.69V500.277Z" fill="black"/>
<path d="M135.955 500.277H133.69V502.542H135.955V500.277Z" fill="black"/>
<path d="M138.219 500.277H135.955V502.542H138.219V500.277Z" fill="black"/>
<path d="M151.807 500.277H149.542V502.542H151.807V500.277Z" fill="black"/>
<path d="M97.4581 502.542H95.1936V504.807H97.4581V502.542Z" fill="black"/>
<path d="M99.7226 502.542H97.4581V504.807H99.7226V502.542Z" fill="black"/>
<path d="M101.987 502.542H99.7226V504.807H101.987V502.542Z" fill="black"/>
<path d="M104.252 502.542H101.987V504.807H104.252V502.542Z" fill="black"/>
<path d="M106.516 502.542H104.252V504.807H106.516V502.542Z" fill="black"/>
<path d="M108.781 502.542H106.516V504.807H108.781L108.781 502.542Z" fill="black"/>
<path d="M111.045 502.542H108.781L108.781 504.807H111.045V502.542Z" fill="black"/>
<path d="M117.839 502.542H115.574V504.807H117.839V502.542Z" fill="black"/>
<path d="M120.103 502.542H117.839V504.807H120.103V502.542Z" fill="black"/>
<path d="M124.632 502.542H122.368V504.807H124.632V502.542Z" fill="black"/>
<path d="M126.897 502.542H124.632V504.807H126.897V502.542Z" fill="black"/>
<path d="M129.161 502.542H126.897V504.807H129.161V502.542Z" fill="black"/>
<path d="M131.426 502.542H129.161V504.807H131.426V502.542Z" fill="black"/>
<path d="M133.69 502.542H131.426V504.807H133.69V502.542Z" fill="black"/>
<path d="M135.955 502.542H133.69V504.807H135.955V502.542Z" fill="black"/>
<path d="M138.219 502.542H135.955V504.807H138.219V502.542Z" fill="black"/>
<path d="M142.748 502.542H140.484V504.807H142.748V502.542Z" fill="black"/>
<path d="M147.277 502.542H145.013V504.807H147.277V502.542Z" fill="black"/>
<path d="M151.807 502.542H149.542V504.807H151.807V502.542Z" fill="black"/>
</g>
<path d="M98.78 352.25V351.23H103.775V352.25H98.78ZM104.259 356L108.264 345.5H109.809L113.799 356H112.404L111.294 353.165H106.719L105.609 356H104.259ZM107.109 351.98H110.904L108.999 346.925L107.109 351.98ZM125.427 349.07C125.967 349.61 126.237 350.45 126.237 351.59V356H125.007V351.665C125.007 350.93 124.842 350.36 124.527 349.97C124.212 349.58 123.762 349.385 123.192 349.385C122.547 349.385 122.037 349.61 121.677 350.06C121.317 350.51 121.137 351.125 121.137 351.905V356H119.907V351.665C119.907 350.93 119.742 350.36 119.427 349.97C119.097 349.58 118.647 349.385 118.062 349.385C117.432 349.385 116.937 349.625 116.577 350.105C116.217 350.585 116.037 351.2 116.037 351.965V356H114.807V348.35H115.872L116.037 349.4C116.577 348.65 117.327 348.26 118.272 348.26C118.812 348.26 119.307 348.395 119.727 348.635C120.147 348.875 120.477 349.235 120.687 349.715C121.227 348.755 122.112 348.26 123.342 348.26C124.197 348.26 124.887 348.53 125.427 349.07ZM129.36 355.595C128.79 355.265 128.34 354.815 128.025 354.215C127.695 353.63 127.545 352.955 127.545 352.175C127.545 351.41 127.695 350.735 128.025 350.135C128.34 349.55 128.79 349.085 129.36 348.755C129.93 348.425 130.59 348.26 131.34 348.26C132.075 348.26 132.735 348.425 133.305 348.755C133.875 349.085 134.325 349.55 134.655 350.135C134.97 350.735 135.135 351.41 135.135 352.175C135.135 352.955 134.97 353.63 134.655 354.215C134.325 354.815 133.875 355.265 133.305 355.595C132.735 355.925 132.075 356.09 131.34 356.09C130.59 356.09 129.93 355.925 129.36 355.595ZM132.66 354.635C133.05 354.395 133.35 354.065 133.56 353.63C133.77 353.21 133.875 352.715 133.875 352.175C133.875 351.635 133.77 351.155 133.56 350.72C133.35 350.3 133.05 349.955 132.66 349.715C132.27 349.475 131.835 349.355 131.34 349.355C130.83 349.355 130.395 349.475 130.005 349.715C129.615 349.955 129.33 350.3 129.12 350.72C128.91 351.155 128.805 351.635 128.805 352.175C128.805 352.715 128.91 353.21 129.12 353.63C129.33 354.065 129.615 354.395 130.005 354.635C130.395 354.875 130.83 354.995 131.34 354.995C131.835 354.995 132.27 354.875 132.66 354.635ZM143.13 348.35V356H142.065L141.9 354.98C141.315 355.73 140.505 356.09 139.455 356.09C138.54 356.09 137.805 355.82 137.265 355.25C136.71 354.695 136.44 353.81 136.44 352.61V348.35H137.67V352.535C137.67 353.33 137.835 353.93 138.18 354.35C138.525 354.77 139.02 354.965 139.665 354.965C140.355 354.965 140.91 354.725 141.3 354.215C141.69 353.72 141.9 353.045 141.9 352.175V348.35H143.13ZM150.792 349.1C151.362 349.67 151.647 350.54 151.647 351.74V356H150.417V351.815C150.417 351.035 150.237 350.435 149.877 350.015C149.517 349.595 149.007 349.385 148.347 349.385C147.627 349.385 147.057 349.64 146.652 350.135C146.232 350.645 146.037 351.32 146.037 352.175V356H144.807V348.35H145.872L146.037 349.385C146.607 348.635 147.447 348.26 148.557 348.26C149.487 348.26 150.222 348.545 150.792 349.1ZM153.725 349.475H152.345V348.35H153.725V346.205H154.955V348.35H156.89V349.475H154.955V353.99C154.955 354.32 155.015 354.545 155.135 354.68C155.255 354.815 155.48 354.875 155.795 354.875H157.13V356H155.72C155 356 154.475 355.85 154.175 355.52C153.875 355.205 153.725 354.695 153.725 354.005V349.475ZM157.535 352.25V351.23H162.53V352.25H157.535Z" fill="#171616"/>
<rect x="85" y="330" width="414" height="40" rx="11" stroke="#BEBEBE" stroke-width="2"/>
<path d="M479 347L473 353L467 347" stroke="#BEBEBE" stroke-width="2" stroke-linecap="round" stroke-linejoin="round"/>
<path d="M424.265 345.5V351.59C424.265 353.795 425.15 354.89 426.95 354.89C428.75 354.89 429.665 353.795 429.665 351.59V345.5H430.97V351.515C430.97 353.015 430.625 354.155 429.935 354.935C429.245 355.715 428.255 356.09 426.95 356.09C425.63 356.09 424.64 355.715 423.965 354.935C423.29 354.155 422.96 353.015 422.96 351.515V345.5H424.265ZM433.852 352.565C433.897 353.285 434.182 353.855 434.707 354.275C435.217 354.695 435.877 354.905 436.687 354.905C437.407 354.905 437.977 354.755 438.427 354.44C438.877 354.125 439.102 353.69 439.102 353.12C439.102 352.715 438.967 352.385 438.727 352.145C438.487 351.905 438.172 351.74 437.782 351.62C437.392 351.5 436.882 351.395 436.222 351.275C435.172 351.095 434.332 350.81 433.717 350.39C433.087 349.985 432.787 349.325 432.787 348.395C432.787 347.81 432.937 347.285 433.237 346.835C433.537 346.385 433.957 346.025 434.497 345.77C435.037 345.53 435.667 345.395 436.372 345.395C437.107 345.395 437.767 345.53 438.337 345.8C438.907 346.07 439.357 346.46 439.687 346.94C440.017 347.42 440.197 347.975 440.242 348.605H438.952C438.862 348.005 438.592 347.51 438.127 347.135C437.647 346.775 437.062 346.58 436.372 346.58C435.667 346.58 435.112 346.745 434.707 347.045C434.287 347.345 434.092 347.78 434.092 348.32C434.092 348.725 434.212 349.04 434.452 349.265C434.692 349.49 434.992 349.655 435.382 349.775C435.757 349.895 436.282 350 436.942 350.105C437.992 350.285 438.832 350.585 439.462 351.005C440.092 351.425 440.407 352.085 440.407 353C440.407 353.6 440.242 354.14 439.927 354.605C439.612 355.085 439.177 355.445 438.607 355.7C438.037 355.97 437.392 356.09 436.672 356.09C435.847 356.09 435.127 355.955 434.527 355.655C433.912 355.355 433.432 354.95 433.102 354.41C432.772 353.87 432.592 353.255 432.562 352.565H433.852ZM442.063 345.5H445.168C446.248 345.5 447.178 345.725 447.973 346.16C448.768 346.595 449.383 347.21 449.803 347.99C450.223 348.785 450.448 349.7 450.448 350.75C450.448 351.8 450.223 352.715 449.803 353.51C449.383 354.305 448.768 354.92 447.973 355.355C447.178 355.79 446.248 356 445.168 356H442.063V345.5ZM445.168 354.8C446.413 354.8 447.388 354.44 448.078 353.705C448.768 352.985 449.113 351.995 449.113 350.75C449.113 349.505 448.768 348.515 448.078 347.795C447.388 347.075 446.428 346.7 445.168 346.7H443.368V354.8H445.168Z" fill="black"/>
<path d="M405.75 334L405.75 366" stroke="#BEBEBE" stroke-width="1.5" stroke-linecap="round"/>
<path d="M243.859 471.8C244.595 471.8 245.235 471.944 245.811 472.232C246.371 472.52 246.803 472.92 247.107 473.432C247.411 473.944 247.571 474.552 247.571 475.24C247.571 475.944 247.411 476.552 247.107 477.064C246.787 477.592 246.355 477.992 245.795 478.28C245.235 478.568 244.595 478.696 243.859 478.696H240.947V483H239.555V471.8H243.859ZM240.947 477.416H243.731C244.467 477.416 245.043 477.224 245.491 476.824C245.923 476.44 246.147 475.912 246.147 475.24C246.147 474.584 245.923 474.056 245.491 473.672C245.059 473.288 244.483 473.08 243.747 473.08H240.947V477.416ZM253.327 474.84V476.12H252.671C251.887 476.12 251.327 476.392 250.991 476.904C250.655 477.432 250.495 478.072 250.495 478.84V483H249.183V474.84H250.319L250.495 476.072C250.719 475.704 251.023 475.4 251.407 475.176C251.775 474.952 252.287 474.84 252.959 474.84H253.327ZM254.57 476.728C254.89 476.104 255.354 475.624 255.946 475.272C256.522 474.92 257.194 474.744 257.962 474.744C258.698 474.744 259.37 474.904 259.946 475.208C260.522 475.528 260.97 475.976 261.306 476.552C261.626 477.144 261.802 477.832 261.834 478.616C261.834 478.744 261.818 478.92 261.802 479.176H255.466V479.288C255.482 480.088 255.722 480.728 256.202 481.208C256.666 481.688 257.274 481.928 258.042 481.928C258.618 481.928 259.114 481.784 259.53 481.496C259.946 481.208 260.218 480.792 260.362 480.264H261.69C261.53 481.096 261.13 481.784 260.49 482.312C259.85 482.84 259.066 483.096 258.138 483.096C257.322 483.096 256.618 482.936 256.01 482.584C255.402 482.232 254.922 481.752 254.586 481.112C254.25 480.472 254.09 479.752 254.09 478.92C254.09 478.088 254.25 477.368 254.57 476.728ZM260.474 478.088C260.41 477.4 260.138 476.856 259.69 476.472C259.242 476.088 258.666 475.896 257.978 475.896C257.354 475.896 256.81 476.104 256.346 476.504C255.866 476.92 255.61 477.448 255.546 478.088H260.474ZM262.522 474.84H263.93L266.394 481.512L268.842 474.84H270.218L267.162 483H265.578L262.522 474.84ZM272.782 471.928C272.942 472.088 273.022 472.296 273.022 472.536C273.022 472.792 272.942 472.984 272.782 473.144C272.622 473.304 272.414 473.384 272.174 473.384C271.918 473.384 271.726 473.304 271.566 473.144C271.406 472.984 271.326 472.792 271.326 472.536C271.326 472.296 271.406 472.088 271.566 471.928C271.726 471.768 271.918 471.688 272.174 471.688C272.414 471.688 272.622 471.768 272.782 471.928ZM271.518 474.84H272.83V483H271.518V474.84ZM275.139 476.728C275.459 476.104 275.923 475.624 276.515 475.272C277.091 474.92 277.763 474.744 278.531 474.744C279.267 474.744 279.939 474.904 280.515 475.208C281.091 475.528 281.539 475.976 281.875 476.552C282.195 477.144 282.371 477.832 282.403 478.616C282.403 478.744 282.387 478.92 282.371 479.176H276.035V479.288C276.051 480.088 276.291 480.728 276.771 481.208C277.235 481.688 277.843 481.928 278.611 481.928C279.187 481.928 279.683 481.784 280.099 481.496C280.515 481.208 280.787 480.792 280.931 480.264H282.259C282.099 481.096 281.699 481.784 281.059 482.312C280.419 482.84 279.635 483.096 278.707 483.096C277.891 483.096 277.187 482.936 276.579 482.584C275.971 482.232 275.491 481.752 275.155 481.112C274.819 480.472 274.659 479.752 274.659 478.92C274.659 478.088 274.819 477.368 275.139 476.728ZM281.043 478.088C280.979 477.4 280.707 476.856 280.259 476.472C279.811 476.088 279.235 475.896 278.547 475.896C277.923 475.896 277.379 476.104 276.915 476.504C276.435 476.92 276.179 477.448 276.115 478.088H281.043ZM283.218 474.84H284.594L286.626 481.48L288.77 474.84H289.986L292.018 481.48L294.146 474.84H295.474L292.754 483H291.314L289.346 476.936L287.298 483L285.858 483.016L283.218 474.84ZM305.825 471.8C306.561 471.8 307.201 471.944 307.777 472.232C308.337 472.52 308.769 472.92 309.073 473.432C309.377 473.944 309.537 474.552 309.537 475.24C309.537 475.944 309.377 476.552 309.073 477.064C308.753 477.592 308.321 477.992 307.761 478.28C307.201 478.568 306.561 478.696 305.825 478.696H302.913V483H301.521V471.8H305.825ZM302.913 477.416H305.697C306.433 477.416 307.009 477.224 307.457 476.824C307.889 476.44 308.113 475.912 308.113 475.24C308.113 474.584 307.889 474.056 307.457 473.672C307.025 473.288 306.449 473.08 305.713 473.08H302.913V477.416ZM318.296 481.8V483H317.576C317.048 483 316.68 482.904 316.456 482.68C316.232 482.472 316.104 482.152 316.104 481.736C315.464 482.648 314.552 483.096 313.368 483.096C312.456 483.096 311.72 482.888 311.176 482.456C310.632 482.04 310.36 481.448 310.36 480.712C310.36 479.896 310.632 479.272 311.192 478.824C311.752 478.392 312.568 478.168 313.64 478.168H316.04V477.608C316.04 477.08 315.848 476.664 315.496 476.36C315.144 476.072 314.648 475.912 314.008 475.912C313.432 475.912 312.968 476.04 312.6 476.296C312.232 476.552 312.008 476.872 311.928 477.288H310.616C310.712 476.488 311.064 475.864 311.672 475.416C312.28 474.968 313.08 474.744 314.072 474.744C315.112 474.744 315.912 475 316.488 475.512C317.064 476.024 317.352 476.744 317.352 477.688V481.208C317.352 481.608 317.528 481.8 317.896 481.8H318.296ZM316.04 479.272H313.512C312.296 479.272 311.688 479.736 311.688 480.632C311.688 481.048 311.848 481.368 312.168 481.608C312.488 481.864 312.92 481.976 313.464 481.976C314.264 481.976 314.888 481.768 315.352 481.352C315.8 480.936 316.04 480.376 316.04 479.672V479.272ZM327.369 474.84V482.6C327.369 485.064 326.009 486.296 323.321 486.296C322.265 486.296 321.401 486.056 320.729 485.576C320.057 485.096 319.673 484.424 319.577 483.528H320.921C321.017 484.04 321.289 484.44 321.737 484.712C322.169 485 322.729 485.128 323.417 485.128C325.177 485.128 326.057 484.28 326.057 482.552V481.592C325.465 482.6 324.537 483.096 323.257 483.096C322.489 483.096 321.817 482.936 321.225 482.6C320.633 482.28 320.169 481.8 319.833 481.16C319.497 480.536 319.337 479.784 319.337 478.92C319.337 478.104 319.497 477.384 319.833 476.744C320.169 476.12 320.633 475.624 321.241 475.272C321.833 474.92 322.505 474.744 323.257 474.744C323.913 474.744 324.473 474.888 324.953 475.144C325.417 475.4 325.785 475.768 326.057 476.248L326.233 474.84H327.369ZM324.777 481.56C325.193 481.304 325.513 480.952 325.737 480.504C325.961 480.056 326.073 479.528 326.073 478.952C326.073 478.376 325.961 477.848 325.737 477.384C325.513 476.92 325.193 476.552 324.777 476.296C324.361 476.04 323.897 475.912 323.385 475.912C322.569 475.912 321.913 476.2 321.417 476.76C320.921 477.32 320.681 478.04 320.681 478.92C320.681 479.816 320.921 480.536 321.417 481.096C321.913 481.656 322.569 481.928 323.385 481.928C323.897 481.928 324.361 481.816 324.777 481.56ZM329.668 476.728C329.988 476.104 330.452 475.624 331.044 475.272C331.62 474.92 332.292 474.744 333.06 474.744C333.796 474.744 334.468 474.904 335.044 475.208C335.62 475.528 336.068 475.976 336.404 476.552C336.724 477.144 336.9 477.832 336.932 478.616C336.932 478.744 336.916 478.92 336.9 479.176H330.564V479.288C330.58 480.088 330.82 480.728 331.3 481.208C331.764 481.688 332.372 481.928 333.14 481.928C333.716 481.928 334.212 481.784 334.628 481.496C335.044 481.208 335.316 480.792 335.46 480.264H336.788C336.628 481.096 336.228 481.784 335.588 482.312C334.948 482.84 334.164 483.096 333.236 483.096C332.42 483.096 331.716 482.936 331.108 482.584C330.5 482.232 330.02 481.752 329.684 481.112C329.348 480.472 329.188 479.752 329.188 478.92C329.188 478.088 329.348 477.368 329.668 476.728ZM335.572 478.088C335.508 477.4 335.236 476.856 334.788 476.472C334.34 476.088 333.764 475.896 333.076 475.896C332.452 475.896 331.908 476.104 331.444 476.504C330.964 476.92 330.708 477.448 330.644 478.088H335.572Z" fill="#1A57F3"/>
<path d="M238.467 487.16H337.54V488.12H238.467V487.16Z" fill="#1A57F3"/>
<g filter="url(#filter1_i_197_5899)">
<rect x="80" y="523" width="416" height="53" rx="10" fill="#1856F3"/>
</g>
<path d="M226.302 543.6C227.002 542.25 227.977 541.225 229.252 540.475C230.527 539.725 232.027 539.35 233.727 539.35C235.027 539.35 236.227 539.6 237.277 540.1C238.327 540.6 239.202 541.325 239.877 542.25C240.527 543.175 240.952 544.25 241.152 545.45H238.277C237.977 544.35 237.427 543.475 236.627 542.825C235.802 542.2 234.802 541.875 233.602 541.875C232.502 541.875 231.552 542.15 230.752 542.7C229.927 543.25 229.302 544 228.877 544.95C228.427 545.9 228.227 547 228.227 548.25C228.227 549.5 228.427 550.6 228.877 551.55C229.302 552.525 229.927 553.275 230.752 553.825C231.552 554.375 232.502 554.625 233.602 554.625C234.802 554.625 235.802 554.325 236.602 553.675C237.402 553.05 237.952 552.175 238.252 551.05H241.127C240.927 552.3 240.502 553.375 239.852 554.275C239.202 555.2 238.352 555.9 237.302 556.4C236.252 556.9 235.052 557.15 233.727 557.15C232.027 557.15 230.527 556.8 229.252 556.05C227.977 555.325 227.002 554.3 226.302 552.95C225.602 551.6 225.277 550.05 225.277 548.25C225.277 546.5 225.602 544.95 226.302 543.6ZM250.403 544.2V546.725H249.203C248.078 546.725 247.278 547.1 246.778 547.825C246.278 548.55 246.028 549.475 246.028 550.575V557H243.328V544.2H245.728L246.028 546.125C246.378 545.525 246.853 545.075 247.453 544.725C248.028 544.375 248.803 544.2 249.803 544.2H250.403ZM251.807 547.175C252.332 546.175 253.057 545.425 254.007 544.875C254.957 544.325 256.032 544.05 257.257 544.05C258.482 544.05 259.557 544.3 260.507 544.8C261.457 545.3 262.182 546.025 262.732 546.925C263.282 547.85 263.557 548.925 263.582 550.15C263.582 550.5 263.557 550.825 263.507 551.175H253.857V551.325C253.907 552.45 254.257 553.325 254.907 553.975C255.532 554.625 256.382 554.95 257.432 554.95C258.257 554.95 258.957 554.775 259.532 554.375C260.082 553.975 260.457 553.425 260.657 552.7H263.357C263.107 554 262.482 555.075 261.457 555.9C260.432 556.75 259.157 557.15 257.632 557.15C256.282 557.15 255.132 556.9 254.132 556.35C253.132 555.8 252.382 555.05 251.832 554.05C251.282 553.075 251.032 551.925 251.032 550.625C251.032 549.325 251.282 548.175 251.807 547.175ZM260.832 549.2C260.707 548.275 260.332 547.55 259.707 547.025C259.082 546.5 258.307 546.225 257.357 546.225C256.457 546.225 255.707 546.5 255.057 547.05C254.407 547.6 254.057 548.3 253.957 549.2H260.832ZM278.015 554.65V557H276.59C275.74 557 275.14 556.825 274.79 556.475C274.415 556.125 274.24 555.625 274.24 554.95C273.265 556.425 271.865 557.15 270.015 557.15C268.565 557.15 267.415 556.825 266.565 556.15C265.69 555.5 265.265 554.575 265.265 553.4C265.265 552.1 265.715 551.075 266.665 550.375C267.59 549.675 268.94 549.3 270.74 549.3H273.965V548.525C273.965 547.825 273.715 547.25 273.215 546.85C272.715 546.45 272.015 546.225 271.14 546.225C270.34 546.225 269.69 546.4 269.19 546.75C268.69 547.1 268.39 547.55 268.29 548.1H265.64C265.765 546.825 266.34 545.825 267.34 545.125C268.34 544.425 269.64 544.05 271.265 544.05C272.965 544.05 274.29 544.45 275.24 545.25C276.165 546.05 276.64 547.2 276.64 548.7V553.75C276.64 554.35 276.915 554.65 277.49 554.65H278.015ZM273.965 551.3H270.615C269.765 551.3 269.14 551.475 268.69 551.8C268.24 552.125 268.015 552.6 268.015 553.225C268.015 553.775 268.215 554.225 268.64 554.55C269.065 554.9 269.64 555.05 270.39 555.05C271.49 555.05 272.365 554.75 272.99 554.15C273.615 553.55 273.94 552.75 273.965 551.75V551.3ZM280.311 546.575H278.086V544.2H280.311V540.625H283.036V544.2H286.111V546.575H283.036V553.25C283.036 553.75 283.136 554.125 283.336 554.325C283.536 554.525 283.861 554.625 284.361 554.625H286.411V557H283.811C282.586 557 281.686 556.725 281.136 556.15C280.586 555.6 280.311 554.725 280.311 553.525V546.575ZM287.891 547.175C288.416 546.175 289.141 545.425 290.091 544.875C291.041 544.325 292.116 544.05 293.341 544.05C294.566 544.05 295.641 544.3 296.591 544.8C297.541 545.3 298.266 546.025 298.816 546.925C299.366 547.85 299.641 548.925 299.666 550.15C299.666 550.5 299.641 550.825 299.591 551.175H289.941V551.325C289.991 552.45 290.341 553.325 290.991 553.975C291.616 554.625 292.466 554.95 293.516 554.95C294.341 554.95 295.041 554.775 295.616 554.375C296.166 553.975 296.541 553.425 296.741 552.7H299.441C299.191 554 298.566 555.075 297.541 555.9C296.516 556.75 295.241 557.15 293.716 557.15C292.366 557.15 291.216 556.9 290.216 556.35C289.216 555.8 288.466 555.05 287.916 554.05C287.366 553.075 287.116 551.925 287.116 550.625C287.116 549.325 287.366 548.175 287.891 547.175ZM296.916 549.2C296.791 548.275 296.416 547.55 295.791 547.025C295.166 546.5 294.391 546.225 293.441 546.225C292.541 546.225 291.791 546.5 291.141 547.05C290.491 547.6 290.141 548.3 290.041 549.2H296.916ZM308.52 557V539.5H311.395V554.45H318.92V557H308.52ZM323.368 539.55C323.668 539.85 323.843 540.25 323.843 540.7C323.843 541.175 323.668 541.575 323.368 541.875C323.043 542.175 322.643 542.325 322.193 542.325C321.718 542.325 321.318 542.175 321.018 541.875C320.693 541.575 320.543 541.175 320.543 540.7C320.543 540.25 320.693 539.85 321.018 539.55C321.318 539.25 321.718 539.075 322.193 539.075C322.643 539.075 323.043 539.25 323.368 539.55ZM320.843 544.2H323.543V557H320.843V544.2ZM336.64 545.45C337.59 546.4 338.09 547.9 338.09 549.95V557H335.365V550.1C335.365 548.9 335.09 547.975 334.59 547.325C334.065 546.7 333.315 546.375 332.315 546.375C331.24 546.375 330.39 546.75 329.79 547.5C329.19 548.25 328.89 549.25 328.89 550.55V557H326.19V544.2H328.54L328.84 545.875C329.79 544.675 331.165 544.05 332.94 544.05C334.44 544.05 335.69 544.525 336.64 545.45ZM340.545 539.5H343.245V550.45L349.095 544.2H352.22L347.445 549.35L352.52 557H349.32L345.52 551.325L343.245 553.725V557H340.545V539.5Z" fill="white"/>
<defs>
<filter id="filter0_d_197_5899" x="0" y="80" width="576" height="550" filterUnits="userSpaceOnUse" color-interpolation-filters="sRGB">
<feFlood flood-opacity="0" result="BackgroundImageFix"/>
<feColorMatrix in="SourceAlpha" type="matrix" values="0 0 0 0 0 0 0 0 0 0 0 0 0 0 0 0 0 0 127 0" result="hardAlpha"/>
<feMorphology radius="1" operator="dilate" in="SourceAlpha" result="effect1_dropShadow_197_5899"/>
<feOffset/>
<feGaussianBlur stdDeviation="6"/>
<feComposite in2="hardAlpha" operator="out"/>
<feColorMatrix type="matrix" values="0 0 0 0 0.445833 0 0 0 0 0.445833 0 0 0 0 0.445833 0 0 0 0.25 0"/>
<feBlend mode="normal" in2="BackgroundImageFix" result="effect1_dropShadow_197_5899"/>
<feBlend mode="normal" in="SourceGraphic" in2="effect1_dropShadow_197_5899" result="shape"/>
</filter>
<filter id="filter1_i_197_5899" x="80" y="523" width="420" height="57" filterUnits="userSpaceOnUse" color-interpolation-filters="sRGB">
<feFlood flood-opacity="0" result="BackgroundImageFix"/>
<feBlend mode="normal" in="SourceGraphic" in2="BackgroundImageFix" result="shape"/>
<feColorMatrix in="SourceAlpha" type="matrix" values="0 0 0 0 0 0 0 0 0 0 0 0 0 0 0 0 0 0 127 0" result="hardAlpha"/>
<feMorphology radius="2" operator="erode" in="SourceAlpha" result="effect1_innerShadow_197_5899"/>
<feOffset dx="4" dy="4"/>
<feGaussianBlur stdDeviation="5.5"/>
<feComposite in2="hardAlpha" operator="arithmetic" k2="-1" k3="1"/>
<feColorMatrix type="matrix" values="0 0 0 0 1 0 0 0 0 0.983333 0 0 0 0 0.983333 0 0 0 0.06 0"/>
<feBlend mode="normal" in2="shape" result="effect1_innerShadow_197_5899"/>
</filter>
<clipPath id="clip0_197_5899">
<rect width="65" height="65" fill="white" transform="translate(91 444)"/>
</clipPath>
</defs>
</svg>
