<svg width="96" height="96" viewBox="0 0 96 96" fill="none" xmlns="http://www.w3.org/2000/svg">
<circle cx="48" cy="48" r="48" fill="#1856F3"/>
<path d="M64.8034 31.1968C64.0689 30.4623 64.0689 29.2746 64.8034 28.5479C65.5379 27.8213 66.7256 27.8135 67.4523 28.5479L72.453 33.5487C72.8047 33.9003 73 34.377 73 34.8771C73 35.3771 72.8047 35.8538 72.453 36.2054L67.4523 41.2062C66.7178 41.9407 65.5301 41.9407 64.8034 41.2062C64.0767 40.4717 64.0689 39.284 64.8034 38.5573L66.6006 36.7602L53.0047 36.7445C51.9655 36.7445 51.1294 35.9085 51.1294 34.8692C51.1294 33.83 51.9655 32.9939 53.0047 32.9939H66.6084L64.8034 31.1968ZM31.2044 57.4509L29.4073 59.2481H43.0031C44.0423 59.2481 44.8784 60.0841 44.8784 61.1233C44.8784 62.1626 44.0423 62.9986 43.0031 62.9986H29.3994L31.1966 64.7958C31.9311 65.5303 31.9311 66.718 31.1966 67.4446C30.4621 68.1713 29.2744 68.1791 28.5477 67.4446L23.547 62.4517C23.1953 62.1001 23 61.6234 23 61.1233C23 60.6233 23.1953 60.1466 23.547 59.795L28.5477 54.7942C29.2822 54.0597 30.4699 54.0597 31.1966 54.7942C31.9233 55.5287 31.9311 56.7164 31.1966 57.4431L31.2044 57.4509ZM30.5012 32.9939H49.4026C49.1135 33.5565 48.9416 34.1894 48.9416 34.8692C48.9416 37.1118 50.7621 38.9324 53.0047 38.9324H62.178C61.8654 40.2607 62.2249 41.7062 63.2563 42.7455C64.8425 44.3317 67.4132 44.3317 68.9994 42.7455L70.5074 41.2374V57.9979C70.5074 60.7561 68.2649 62.9986 65.5066 62.9986H46.6052C46.8944 62.436 47.0663 61.8031 47.0663 61.1233C47.0663 58.8808 45.2457 57.0602 43.0031 57.0602H33.8298C34.1424 55.7319 33.7829 54.2863 32.7515 53.2471C31.1653 51.6609 28.5946 51.6609 27.0084 53.2471L25.5004 54.7552V37.9947C25.5004 35.2365 27.7429 32.9939 30.5012 32.9939ZM35.502 37.9947H30.5012V42.9955C33.2594 42.9955 35.502 40.753 35.502 37.9947ZM65.5066 52.9971C62.7484 52.9971 60.5059 55.2396 60.5059 57.9979H65.5066V52.9971ZM48.0039 55.4975C49.9933 55.4975 51.9013 54.7072 53.308 53.3004C54.7148 51.8937 55.5051 49.9857 55.5051 47.9963C55.5051 46.0069 54.7148 44.0989 53.308 42.6922C51.9013 41.2854 49.9933 40.4951 48.0039 40.4951C46.0145 40.4951 44.1065 41.2854 42.6998 42.6922C41.293 44.0989 40.5027 46.0069 40.5027 47.9963C40.5027 49.9857 41.293 51.8937 42.6998 53.3004C44.1065 54.7072 46.0145 55.4975 48.0039 55.4975Z" fill="white"/>
</svg>
