<svg width="617" height="145" viewBox="0 0 617 145" fill="none" xmlns="http://www.w3.org/2000/svg">
<rect x="0.736277" y="0.736277" width="615.527" height="57.4296" rx="6.62649" stroke="#BEBEBE" stroke-width="1.47255"/>
<path d="M16.5965 20.8702H18.6463V37.3628H16.5965V20.8702ZM31.4318 26.5248C32.3271 27.4201 32.7748 28.7866 32.7748 30.6715V37.3628H30.8428V30.7893C30.8428 29.5641 30.56 28.6217 29.9946 27.962C29.4291 27.3023 28.628 26.9725 27.5914 26.9725C26.4604 26.9725 25.5651 27.373 24.929 28.1505C24.2693 28.9516 23.963 30.0118 23.963 31.3548V37.3628H22.031V25.3468H23.7038L23.963 26.9725C24.8583 25.7944 26.1777 25.2054 27.9212 25.2054C29.382 25.2054 30.5365 25.653 31.4318 26.5248ZM44.733 25.9358C45.6047 26.4306 46.288 27.1374 46.7828 28.0563C47.2776 28.9987 47.5367 30.0825 47.5367 31.3548C47.5367 32.5799 47.2776 33.6402 46.7828 34.5591C46.288 35.5015 45.6047 36.2083 44.733 36.7266C43.8377 37.245 42.8481 37.5042 41.7643 37.5042C40.7748 37.5042 39.9501 37.3392 39.2669 36.9858C38.56 36.6324 38.0181 36.1376 37.6412 35.525V42.075H35.7092V25.3468H37.382L37.6412 27.2787C38.6307 25.9122 40.0208 25.2054 41.7643 25.2054C42.8717 25.2054 43.8612 25.4646 44.733 25.9358ZM44.4503 34.5591C45.1806 33.7344 45.5576 32.6742 45.5576 31.3548C45.5576 30.0589 45.1806 28.9987 44.4503 28.1741C43.7199 27.3494 42.7539 26.9253 41.5758 26.9253C40.7983 26.9253 40.1151 27.1138 39.5025 27.4908C38.8899 27.8678 38.4422 28.3861 38.1124 29.0458C37.7825 29.7055 37.6176 30.4595 37.6176 31.3077C37.6176 32.1794 37.7825 32.9569 38.1124 33.6402C38.4422 34.3234 38.8899 34.8418 39.5025 35.2188C40.1151 35.5957 40.7983 35.7842 41.5758 35.7842C42.7539 35.7842 43.7199 35.3837 44.4503 34.5591ZM60.5589 25.3468V37.3628H58.8861L58.6269 35.7607C57.708 36.9387 56.4357 37.5042 54.7865 37.5042C53.3493 37.5042 52.1948 37.0801 51.3466 36.1847C50.4748 35.313 50.0507 33.9229 50.0507 32.038V25.3468H51.9827V31.9202C51.9827 33.169 52.2419 34.1114 52.7838 34.7711C53.3257 35.4308 54.1032 35.7371 55.1163 35.7371C56.2001 35.7371 57.0719 35.3601 57.6845 34.5591C58.2971 33.7815 58.6269 32.7213 58.6269 31.3548V25.3468H60.5589ZM64.5109 27.1138H62.3433V25.3468H64.5109V21.9776H66.4428V25.3468H69.4822V27.1138H66.4428V34.2056C66.4428 34.724 66.5371 35.0774 66.7256 35.2894C66.9141 35.5015 67.2675 35.5957 67.7623 35.5957H69.8592V37.3628H67.6445C66.5135 37.3628 65.6889 37.1272 65.2177 36.6088C64.7465 36.1141 64.5109 35.313 64.5109 34.2292V27.1138ZM84.963 20.8702C86.0468 20.8702 86.9892 21.0822 87.8374 21.5063C88.662 21.9304 89.2982 22.5195 89.7458 23.2734C90.1935 24.0273 90.4291 24.9227 90.4291 25.9358C90.4291 26.9725 90.1935 27.8678 89.7458 28.6217C89.2746 29.3992 88.6385 29.9882 87.8138 30.4123C86.9892 30.8364 86.0468 31.0249 84.963 31.0249H80.6749V37.3628H78.6251V20.8702H84.963ZM80.6749 29.1401H84.7745C85.8583 29.1401 86.7065 28.8573 87.3662 28.2683C88.0023 27.7028 88.3322 26.9253 88.3322 25.9358C88.3322 24.9698 88.0023 24.1923 87.3662 23.6268C86.73 23.0613 85.8818 22.7551 84.798 22.7551H80.6749V29.1401ZM103.328 35.5957V37.3628H102.268C101.49 37.3628 100.948 37.2214 100.619 36.8916C100.289 36.5853 100.1 36.1141 100.1 35.5015C99.1578 36.8445 97.8149 37.5042 96.0714 37.5042C94.7284 37.5042 93.6446 37.1979 92.8435 36.5617C92.0425 35.9491 91.6419 35.0774 91.6419 33.9936C91.6419 32.792 92.0425 31.8731 92.8671 31.2134C93.6917 30.5773 94.8933 30.2474 96.4719 30.2474H100.006V29.4228C100.006 28.6453 99.7233 28.0327 99.205 27.585C98.6866 27.1609 97.9562 26.9253 97.0138 26.9253C96.1656 26.9253 95.4823 27.1138 94.9404 27.4908C94.3985 27.8678 94.0687 28.339 93.9509 28.9516H92.0189C92.1603 27.7735 92.6786 26.8546 93.5739 26.1949C94.4692 25.5352 95.6473 25.2054 97.108 25.2054C98.6395 25.2054 99.8175 25.5824 100.666 26.3363C101.514 27.0903 101.938 28.1505 101.938 29.5406V34.724C101.938 35.313 102.197 35.5957 102.739 35.5957H103.328ZM100.006 31.8731H96.2834C94.4928 31.8731 93.5975 32.5564 93.5975 33.8758C93.5975 34.4884 93.8331 34.9596 94.3043 35.313C94.7755 35.69 95.4117 35.8549 96.2127 35.8549C97.3908 35.8549 98.3096 35.5486 98.9929 34.936C99.6526 34.3234 100.006 33.4988 100.006 32.4621V31.8731ZM105.788 25.3468L109.487 35.1481L113.068 25.3468H115.118L109.581 39.389C109.298 40.1194 109.039 40.6613 108.827 41.0147C108.591 41.3917 108.332 41.6509 108.002 41.8158C107.673 42.0043 107.225 42.075 106.683 42.075H104.374V40.3079H106.094C106.471 40.3079 106.754 40.2843 106.942 40.1901C107.131 40.1194 107.272 40.0016 107.39 39.8131C107.508 39.6246 107.649 39.3183 107.837 38.8942L108.45 37.457L103.738 25.3468H105.788ZM133.711 26.4777C134.559 27.3259 134.983 28.6453 134.983 30.4359V37.3628H133.051V30.5537C133.051 29.3992 132.792 28.5039 132.297 27.8913C131.803 27.2787 131.096 26.9725 130.201 26.9725C129.187 26.9725 128.386 27.3259 127.821 28.0327C127.255 28.7395 126.973 29.7055 126.973 30.9307V37.3628H125.041V30.5537C125.041 29.3992 124.782 28.5039 124.287 27.8913C123.768 27.2787 123.062 26.9725 122.143 26.9725C121.153 26.9725 120.376 27.3494 119.81 28.1034C119.245 28.8573 118.962 29.8233 118.962 31.0249V37.3628H117.03V25.3468H118.703L118.962 26.996C119.81 25.818 120.988 25.2054 122.473 25.2054C123.321 25.2054 124.098 25.4174 124.758 25.7944C125.418 26.1714 125.936 26.7368 126.266 27.4908C127.114 25.9829 128.504 25.2054 130.436 25.2054C131.779 25.2054 132.863 25.6295 133.711 26.4777ZM138.216 28.1269C138.687 27.2081 139.37 26.5012 140.242 25.9829C141.09 25.4646 142.08 25.2054 143.211 25.2054C144.294 25.2054 145.284 25.441 146.132 25.8887C146.98 26.3599 147.64 27.0196 148.135 27.8678C148.606 28.7395 148.865 29.7526 148.912 30.9071C148.912 31.0956 148.889 31.3548 148.865 31.7317H139.535V31.8967C139.559 33.0747 139.912 34.0172 140.619 34.724C141.302 35.4308 142.197 35.7842 143.328 35.7842C144.177 35.7842 144.907 35.5722 145.52 35.1481C146.132 34.724 146.533 34.1114 146.745 33.3339H148.7C148.465 34.5591 147.876 35.5722 146.933 36.3497C145.991 37.1272 144.836 37.5042 143.47 37.5042C142.268 37.5042 141.231 37.2685 140.336 36.7502C139.441 36.2319 138.734 35.525 138.239 34.5826C137.744 33.6402 137.509 32.5799 137.509 31.3548C137.509 30.1296 137.744 29.0694 138.216 28.1269ZM146.91 30.1296C146.815 29.1165 146.415 28.3154 145.755 27.75C145.095 27.1845 144.247 26.9018 143.234 26.9018C142.315 26.9018 141.514 27.2081 140.831 27.7971C140.124 28.4097 139.747 29.1872 139.653 30.1296H146.91ZM160.989 26.5248C161.884 27.4201 162.332 28.7866 162.332 30.6715V37.3628H160.4V30.7893C160.4 29.5641 160.117 28.6217 159.552 27.962C158.986 27.3023 158.185 26.9725 157.148 26.9725C156.018 26.9725 155.122 27.373 154.486 28.1505C153.826 28.9516 153.52 30.0118 153.52 31.3548V37.3628H151.588V25.3468H153.261L153.52 26.9725C154.415 25.7944 155.735 25.2054 157.478 25.2054C158.939 25.2054 160.094 25.653 160.989 26.5248ZM166.067 27.1138H163.9V25.3468H166.067V21.9776H167.999V25.3468H171.039V27.1138H167.999V34.2056C167.999 34.724 168.094 35.0774 168.282 35.2894C168.471 35.5015 168.824 35.5957 169.319 35.5957H171.416V37.3628H169.201C168.07 37.3628 167.245 37.1272 166.774 36.6088C166.303 36.1141 166.067 35.313 166.067 34.2292V27.1138ZM180.182 20.8702H182.231V37.3628H180.182V20.8702ZM185.899 20.8702H190.776C192.472 20.8702 193.933 21.2236 195.182 21.9069C196.431 22.5901 197.397 23.5561 198.056 24.7813C198.716 26.03 199.069 27.4672 199.069 29.1165C199.069 30.7658 198.716 32.203 198.056 33.4517C197.397 34.7004 196.431 35.6664 195.182 36.3497C193.933 37.0329 192.472 37.3628 190.776 37.3628H185.899V20.8702ZM190.776 35.4779C192.731 35.4779 194.263 34.9125 195.347 33.758C196.431 32.6271 196.972 31.072 196.972 29.1165C196.972 27.1609 196.431 25.6059 195.347 24.475C194.263 23.3441 192.755 22.7551 190.776 22.7551H187.949V35.4779H190.776ZM210.913 36.7266C210.017 36.2083 209.31 35.5015 208.816 34.5591C208.297 33.6402 208.062 32.5799 208.062 31.3548C208.062 30.1532 208.297 29.0929 208.816 28.1505C209.31 27.2316 210.017 26.5012 210.913 25.9829C211.808 25.4646 212.845 25.2054 214.023 25.2054C215.177 25.2054 216.214 25.4646 217.109 25.9829C218.004 26.5012 218.711 27.2316 219.229 28.1505C219.724 29.0929 219.983 30.1532 219.983 31.3548C219.983 32.5799 219.724 33.6402 219.229 34.5591C218.711 35.5015 218.004 36.2083 217.109 36.7266C216.214 37.245 215.177 37.5042 214.023 37.5042C212.845 37.5042 211.808 37.245 210.913 36.7266ZM216.096 35.2188C216.708 34.8418 217.18 34.3234 217.51 33.6402C217.839 32.9805 218.004 32.203 218.004 31.3548C218.004 30.5066 217.839 29.7526 217.51 29.0694C217.18 28.4097 216.708 27.8678 216.096 27.4908C215.483 27.1138 214.8 26.9253 214.023 26.9253C213.221 26.9253 212.538 27.1138 211.926 27.4908C211.313 27.8678 210.865 28.4097 210.536 29.0694C210.206 29.7526 210.041 30.5066 210.041 31.3548C210.041 32.203 210.206 32.9805 210.536 33.6402C210.865 34.3234 211.313 34.8418 211.926 35.2188C212.538 35.5957 213.221 35.7842 214.023 35.7842C214.8 35.7842 215.483 35.5957 216.096 35.2188ZM228.772 25.3468V27.2316H227.806C226.652 27.2316 225.827 27.6322 225.333 28.3861C224.838 29.1636 224.602 30.106 224.602 31.237V37.3628H222.67V25.3468H224.343L224.602 27.1609C224.932 26.619 225.38 26.1714 225.945 25.8415C226.487 25.5117 227.241 25.3468 228.23 25.3468H228.772ZM237.931 37.3628V20.8702H239.98V35.4779H247.496V37.3628H237.931ZM251.738 21.0587C251.973 21.2943 252.091 21.6006 252.091 21.954C252.091 22.331 251.973 22.6137 251.738 22.8493C251.502 23.0849 251.196 23.2027 250.842 23.2027C250.465 23.2027 250.183 23.0849 249.947 22.8493C249.712 22.6137 249.594 22.331 249.594 21.954C249.594 21.6006 249.712 21.2943 249.947 21.0587C250.183 20.8231 250.465 20.7053 250.842 20.7053C251.196 20.7053 251.502 20.8231 251.738 21.0587ZM249.876 25.3468H251.808V37.3628H249.876V25.3468ZM264.327 26.5248C265.223 27.4201 265.67 28.7866 265.67 30.6715V37.3628H263.738V30.7893C263.738 29.5641 263.455 28.6217 262.89 27.962C262.325 27.3023 261.523 26.9725 260.487 26.9725C259.356 26.9725 258.461 27.373 257.824 28.1505C257.165 28.9516 256.858 30.0118 256.858 31.3548V37.3628H254.926V25.3468H256.599L256.858 26.9725C257.754 25.7944 259.073 25.2054 260.817 25.2054C262.277 25.2054 263.432 25.653 264.327 26.5248ZM268.605 20.8702H270.537V31.8024L276.639 25.3468H278.948L274.33 30.271L279.278 37.3628H276.945L272.94 31.6611L270.537 34.1821V37.3628H268.605V20.8702Z" fill="black" fill-opacity="0.51"/>
<rect y="85.4082" width="284.203" height="58.9021" rx="7.36277" fill="#1856F3"/>
<path d="M108.122 118.848C108.192 119.979 108.64 120.874 109.465 121.534C110.266 122.194 111.302 122.524 112.575 122.524C113.706 122.524 114.601 122.288 115.308 121.793C116.015 121.298 116.368 120.615 116.368 119.72C116.368 119.084 116.156 118.565 115.779 118.188C115.402 117.811 114.907 117.552 114.295 117.364C113.682 117.175 112.881 117.01 111.844 116.822C110.195 116.539 108.876 116.091 107.91 115.432C106.92 114.796 106.449 113.759 106.449 112.298C106.449 111.379 106.685 110.555 107.156 109.848C107.627 109.141 108.287 108.576 109.135 108.175C109.983 107.798 110.973 107.586 112.08 107.586C113.234 107.586 114.271 107.798 115.166 108.222C116.062 108.646 116.769 109.259 117.287 110.013C117.805 110.767 118.088 111.638 118.159 112.628H116.132C115.991 111.686 115.567 110.908 114.837 110.319C114.083 109.754 113.164 109.447 112.08 109.447C110.973 109.447 110.101 109.706 109.465 110.178C108.805 110.649 108.499 111.332 108.499 112.18C108.499 112.817 108.687 113.311 109.064 113.665C109.441 114.018 109.912 114.277 110.525 114.466C111.114 114.654 111.939 114.819 112.975 114.984C114.625 115.267 115.944 115.738 116.933 116.398C117.923 117.057 118.418 118.094 118.418 119.531C118.418 120.474 118.159 121.322 117.664 122.052C117.169 122.806 116.486 123.372 115.591 123.772C114.695 124.196 113.682 124.385 112.551 124.385C111.255 124.385 110.124 124.173 109.182 123.702C108.216 123.23 107.462 122.594 106.944 121.746C106.425 120.898 106.143 119.932 106.096 118.848H108.122ZM121.491 115.008C121.962 114.089 122.645 113.382 123.517 112.864C124.365 112.345 125.355 112.086 126.486 112.086C127.569 112.086 128.559 112.322 129.407 112.769C130.255 113.241 130.915 113.9 131.41 114.749C131.881 115.62 132.14 116.633 132.187 117.788C132.187 117.976 132.164 118.236 132.14 118.612H122.81V118.777C122.834 119.955 123.187 120.898 123.894 121.605C124.577 122.312 125.472 122.665 126.603 122.665C127.452 122.665 128.182 122.453 128.795 122.029C129.407 121.605 129.808 120.992 130.02 120.215H131.975C131.74 121.44 131.151 122.453 130.208 123.23C129.266 124.008 128.111 124.385 126.745 124.385C125.543 124.385 124.506 124.149 123.611 123.631C122.716 123.113 122.009 122.406 121.514 121.463C121.019 120.521 120.784 119.461 120.784 118.236C120.784 117.01 121.019 115.95 121.491 115.008ZM130.185 117.01C130.09 115.997 129.69 115.196 129.03 114.631C128.37 114.065 127.522 113.783 126.509 113.783C125.59 113.783 124.789 114.089 124.106 114.678C123.399 115.29 123.022 116.068 122.928 117.01H130.185ZM146.102 122.476V124.244H145.041C144.264 124.244 143.722 124.102 143.392 123.772C143.062 123.466 142.874 122.995 142.874 122.382C141.931 123.725 140.588 124.385 138.845 124.385C137.502 124.385 136.418 124.079 135.617 123.442C134.816 122.83 134.415 121.958 134.415 120.874C134.415 119.673 134.816 118.754 135.641 118.094C136.465 117.458 137.667 117.128 139.245 117.128H142.78V116.304C142.78 115.526 142.497 114.913 141.979 114.466C141.46 114.042 140.73 113.806 139.787 113.806C138.939 113.806 138.256 113.995 137.714 114.372C137.172 114.749 136.842 115.22 136.724 115.832H134.792C134.934 114.654 135.452 113.735 136.347 113.076C137.243 112.416 138.421 112.086 139.882 112.086C141.413 112.086 142.591 112.463 143.439 113.217C144.287 113.971 144.712 115.031 144.712 116.421V121.605C144.712 122.194 144.971 122.476 145.513 122.476H146.102ZM142.78 118.754H139.057C137.266 118.754 136.371 119.437 136.371 120.757C136.371 121.369 136.607 121.84 137.078 122.194C137.549 122.571 138.185 122.736 138.986 122.736C140.164 122.736 141.083 122.429 141.766 121.817C142.426 121.204 142.78 120.38 142.78 119.343V118.754ZM154.16 112.227V114.112H153.194C152.04 114.112 151.215 114.513 150.721 115.267C150.226 116.044 149.99 116.987 149.99 118.118V124.244H148.058V112.227H149.731L149.99 114.042C150.32 113.5 150.768 113.052 151.333 112.722C151.875 112.392 152.629 112.227 153.618 112.227H154.16ZM164.661 123.254C163.719 124.008 162.541 124.385 161.127 124.385C159.949 124.385 158.936 124.126 158.064 123.607C157.169 123.089 156.486 122.382 156.014 121.44C155.52 120.497 155.284 119.437 155.284 118.212C155.284 117.01 155.52 115.95 156.014 115.008C156.509 114.089 157.216 113.382 158.111 112.864C159.007 112.345 160.02 112.086 161.198 112.086C162.611 112.086 163.766 112.463 164.685 113.217C165.604 113.971 166.193 115.008 166.428 116.327H164.473C164.284 115.573 163.884 114.961 163.295 114.489C162.682 114.042 161.975 113.806 161.127 113.806C159.973 113.806 159.03 114.23 158.323 115.031C157.616 115.856 157.263 116.916 157.263 118.212C157.263 119.531 157.616 120.615 158.323 121.44C159.03 122.264 159.973 122.665 161.127 122.665C161.999 122.665 162.729 122.453 163.342 121.982C163.931 121.534 164.308 120.898 164.496 120.097H166.428C166.169 121.44 165.58 122.5 164.661 123.254ZM178.557 113.406C179.453 114.301 179.9 115.667 179.9 117.552V124.244H177.968V117.67C177.968 116.445 177.686 115.502 177.12 114.843C176.555 114.183 175.73 113.853 174.693 113.853C173.563 113.853 172.691 114.254 172.031 115.031C171.371 115.832 171.065 116.893 171.065 118.236V124.244H169.133V107.751H171.065V114.207C171.442 113.594 171.96 113.076 172.62 112.675C173.28 112.298 174.081 112.086 175.023 112.086C176.484 112.086 177.662 112.534 178.557 113.406Z" fill="#FFFCFC"/>
</svg>
