<svg width="642" height="643" viewBox="0 0 642 643" fill="none" xmlns="http://www.w3.org/2000/svg">
<g filter="url(#filter0_d_191_5806)">
<rect x="14" y="14" width="614" height="615" rx="19" stroke="#BEBEBE" stroke-width="2" shape-rendering="crispEdges"/>
</g>
<rect x="426.475" y="53.475" width="160.55" height="37.05" rx="4.275" fill="#1856F3" stroke="#1856F3" stroke-width="0.95"/>
<path d="M454.358 69.6028C454.769 68.782 455.361 68.1588 456.137 67.7028C456.897 67.2468 457.793 67.0188 458.812 67.0188C459.982 67.0188 460.97 67.338 461.761 67.9764C462.551 68.6148 463.053 69.4964 463.265 70.5908H461.943C461.745 69.8612 461.365 69.2836 460.803 68.858C460.241 68.4476 459.557 68.2348 458.751 68.2348C458.021 68.2348 457.368 68.4172 456.821 68.7668C456.258 69.1316 455.833 69.618 455.529 70.2564C455.225 70.8948 455.088 71.6092 455.088 72.43C455.088 73.2508 455.225 73.9652 455.529 74.6036C455.833 75.242 456.258 75.7436 456.821 76.0932C457.368 76.458 458.021 76.6252 458.751 76.6252C459.572 76.6252 460.256 76.4276 460.803 76.0172C461.35 75.6068 461.715 75.0292 461.928 74.2692H463.25C463.037 75.3788 462.551 76.2452 461.761 76.8836C460.97 77.522 459.997 77.8412 458.812 77.8412C457.793 77.8412 456.897 77.6284 456.137 77.1724C455.361 76.7164 454.769 76.0932 454.358 75.2724C453.933 74.4516 453.735 73.5092 453.735 72.43C453.735 71.366 453.933 70.4236 454.358 69.6028ZM466.609 77.3396C466.031 77.0052 465.575 76.5492 465.256 75.9412C464.922 75.3484 464.77 74.6644 464.77 73.874C464.77 73.0988 464.922 72.4148 465.256 71.8068C465.575 71.214 466.031 70.7428 466.609 70.4084C467.186 70.074 467.855 69.9068 468.615 69.9068C469.36 69.9068 470.029 70.074 470.606 70.4084C471.184 70.7428 471.64 71.214 471.974 71.8068C472.294 72.4148 472.461 73.0988 472.461 73.874C472.461 74.6644 472.294 75.3484 471.974 75.9412C471.64 76.5492 471.184 77.0052 470.606 77.3396C470.029 77.674 469.36 77.8412 468.615 77.8412C467.855 77.8412 467.186 77.674 466.609 77.3396ZM469.953 76.3668C470.348 76.1236 470.652 75.7892 470.865 75.3484C471.078 74.9228 471.184 74.4212 471.184 73.874C471.184 73.3268 471.078 72.8404 470.865 72.3996C470.652 71.974 470.348 71.6244 469.953 71.3812C469.558 71.138 469.117 71.0164 468.615 71.0164C468.098 71.0164 467.658 71.138 467.262 71.3812C466.867 71.6244 466.578 71.974 466.366 72.3996C466.153 72.8404 466.046 73.3268 466.046 73.874C466.046 74.4212 466.153 74.9228 466.366 75.3484C466.578 75.7892 466.867 76.1236 467.262 76.3668C467.658 76.61 468.098 76.7316 468.615 76.7316C469.117 76.7316 469.558 76.61 469.953 76.3668ZM480.259 70.758C480.837 71.3356 481.125 72.2172 481.125 73.4332V77.75H479.879V73.5092C479.879 72.7188 479.697 72.1108 479.332 71.6852C478.967 71.2596 478.45 71.0468 477.781 71.0468C477.052 71.0468 476.474 71.3052 476.064 71.8068C475.638 72.3236 475.441 73.0076 475.441 73.874V77.75H474.194V69.998H475.273L475.441 71.0468C476.018 70.2868 476.869 69.9068 477.994 69.9068C478.937 69.9068 479.681 70.1956 480.259 70.758ZM489.083 70.758C489.661 71.3356 489.95 72.2172 489.95 73.4332V77.75H488.703V73.5092C488.703 72.7188 488.521 72.1108 488.156 71.6852C487.791 71.2596 487.274 71.0468 486.606 71.0468C485.876 71.0468 485.298 71.3052 484.888 71.8068C484.462 72.3236 484.265 73.0076 484.265 73.874V77.75H483.018V69.998H484.098L484.265 71.0468C484.842 70.2868 485.694 69.9068 486.818 69.9068C487.761 69.9068 488.506 70.1956 489.083 70.758ZM492.025 71.7916C492.329 71.1988 492.77 70.7428 493.332 70.4084C493.88 70.074 494.518 69.9068 495.248 69.9068C495.947 69.9068 496.585 70.0588 497.132 70.3476C497.68 70.6516 498.105 71.0772 498.424 71.6244C498.728 72.1868 498.896 72.8404 498.926 73.5852C498.926 73.7068 498.911 73.874 498.896 74.1172H492.876V74.2236C492.892 74.9836 493.12 75.5916 493.576 76.0476C494.016 76.5036 494.594 76.7316 495.324 76.7316C495.871 76.7316 496.342 76.5948 496.737 76.3212C497.132 76.0476 497.391 75.6524 497.528 75.1508H498.789C498.637 75.9412 498.257 76.5948 497.649 77.0964C497.041 77.598 496.296 77.8412 495.415 77.8412C494.64 77.8412 493.971 77.6892 493.393 77.3548C492.816 77.0204 492.36 76.5644 492.04 75.9564C491.721 75.3484 491.569 74.6644 491.569 73.874C491.569 73.0836 491.721 72.3996 492.025 71.7916ZM497.634 73.0836C497.573 72.43 497.315 71.9132 496.889 71.5484C496.464 71.1836 495.916 71.0012 495.263 71.0012C494.67 71.0012 494.153 71.1988 493.712 71.5788C493.256 71.974 493.013 72.4756 492.952 73.0836H497.634ZM506.428 77.1116C505.82 77.598 505.06 77.8412 504.148 77.8412C503.388 77.8412 502.735 77.674 502.172 77.3396C501.595 77.0052 501.154 76.5492 500.85 75.9412C500.531 75.3332 500.379 74.6492 500.379 73.8588C500.379 73.0836 500.531 72.3996 500.85 71.7916C501.169 71.1988 501.625 70.7428 502.203 70.4084C502.78 70.074 503.434 69.9068 504.194 69.9068C505.106 69.9068 505.851 70.15 506.443 70.6364C507.036 71.1228 507.416 71.7916 507.568 72.6428H506.307C506.185 72.1564 505.927 71.7612 505.547 71.4572C505.151 71.1684 504.695 71.0164 504.148 71.0164C503.403 71.0164 502.795 71.29 502.339 71.8068C501.883 72.3388 501.655 73.0228 501.655 73.8588C501.655 74.71 501.883 75.4092 502.339 75.9412C502.795 76.4732 503.403 76.7316 504.148 76.7316C504.711 76.7316 505.182 76.5948 505.577 76.2908C505.957 76.002 506.2 75.5916 506.322 75.0748H507.568C507.401 75.9412 507.021 76.6252 506.428 77.1116ZM509.83 71.138H508.432V69.998H509.83V67.8244H511.076V69.998H513.037V71.138H511.076V75.7132C511.076 76.0476 511.137 76.2756 511.259 76.4124C511.38 76.5492 511.608 76.61 511.928 76.61H513.28V77.75H511.852C511.122 77.75 510.59 77.598 510.286 77.2636C509.982 76.9444 509.83 76.4276 509.83 75.7284V71.138ZM518.328 67.11H519.711L522.204 76.0476L524.818 67.11H526.156L528.679 76.0476L531.187 67.11H532.555L529.439 77.75H527.858L525.426 69.314L523.009 77.75H521.428L518.328 67.11ZM540.602 76.61V77.75H539.918C539.417 77.75 539.067 77.6588 538.854 77.446C538.641 77.2484 538.52 76.9444 538.52 76.5492C537.912 77.4156 537.045 77.8412 535.921 77.8412C535.054 77.8412 534.355 77.6436 533.838 77.2332C533.321 76.838 533.063 76.2756 533.063 75.5764C533.063 74.8012 533.321 74.2084 533.853 73.7828C534.385 73.3724 535.161 73.1596 536.179 73.1596H538.459V72.6276C538.459 72.126 538.277 71.7308 537.942 71.442C537.608 71.1684 537.137 71.0164 536.529 71.0164C535.981 71.0164 535.541 71.138 535.191 71.3812C534.841 71.6244 534.629 71.9284 534.553 72.3236H533.306C533.397 71.5636 533.732 70.9708 534.309 70.5452C534.887 70.1196 535.647 69.9068 536.589 69.9068C537.577 69.9068 538.337 70.15 538.885 70.6364C539.432 71.1228 539.705 71.8068 539.705 72.7036V76.0476C539.705 76.4276 539.873 76.61 540.222 76.61H540.602ZM538.459 74.2084H536.057C534.902 74.2084 534.325 74.6492 534.325 75.5004C534.325 75.8956 534.477 76.1996 534.781 76.4276C535.085 76.6708 535.495 76.7772 536.012 76.7772C536.772 76.7772 537.365 76.5796 537.805 76.1844C538.231 75.7892 538.459 75.2572 538.459 74.5884V74.2084ZM541.864 67.11H543.111V77.75H541.864V67.11ZM545.122 67.11H546.369V77.75H545.122V67.11ZM548.563 71.7916C548.867 71.1988 549.307 70.7428 549.87 70.4084C550.417 70.074 551.055 69.9068 551.785 69.9068C552.484 69.9068 553.123 70.0588 553.67 70.3476C554.217 70.6516 554.643 71.0772 554.962 71.6244C555.266 72.1868 555.433 72.8404 555.463 73.5852C555.463 73.7068 555.448 73.874 555.433 74.1172H549.414V74.2236C549.429 74.9836 549.657 75.5916 550.113 76.0476C550.554 76.5036 551.131 76.7316 551.861 76.7316C552.408 76.7316 552.879 76.5948 553.275 76.3212C553.67 76.0476 553.928 75.6524 554.065 75.1508H555.327C555.175 75.9412 554.795 76.5948 554.187 77.0964C553.579 77.598 552.834 77.8412 551.952 77.8412C551.177 77.8412 550.508 77.6892 549.931 77.3548C549.353 77.0204 548.897 76.5644 548.578 75.9564C548.259 75.3484 548.107 74.6644 548.107 73.874C548.107 73.0836 548.259 72.3996 548.563 71.7916ZM554.171 73.0836C554.111 72.43 553.852 71.9132 553.427 71.5484C553.001 71.1836 552.454 71.0012 551.8 71.0012C551.207 71.0012 550.691 71.1988 550.25 71.5788C549.794 71.974 549.551 72.4756 549.49 73.0836H554.171ZM557.617 71.138H556.219V69.998H557.617V67.8244H558.864V69.998H560.825V71.138H558.864V75.7132C558.864 76.0476 558.925 76.2756 559.046 76.4124C559.168 76.5492 559.396 76.61 559.715 76.61H561.068V77.75H559.639C558.909 77.75 558.377 77.598 558.073 77.2636C557.769 76.9444 557.617 76.4276 557.617 75.7284V71.138Z" fill="white"/>
<path d="M233.884 171.4V167.88H247.484V171.4H233.884ZM251.228 171.4V167.88H264.828V171.4H251.228ZM269.251 181V153H273.451L287.091 172.84V153H291.611V181H287.411L273.771 161.16V181H269.251ZM315.872 177.24V181H313.592C312.232 181 311.272 180.72 310.712 180.16C310.112 179.6 309.832 178.8 309.832 177.72C308.272 180.08 306.032 181.24 303.072 181.24C300.752 181.24 298.912 180.72 297.552 179.64C296.152 178.6 295.472 177.12 295.472 175.24C295.472 173.16 296.192 171.52 297.712 170.4C299.192 169.28 301.352 168.68 304.232 168.68H309.392V167.44C309.392 166.32 308.992 165.4 308.192 164.76C307.392 164.12 306.272 163.76 304.872 163.76C303.592 163.76 302.552 164.04 301.752 164.6C300.952 165.16 300.472 165.88 300.312 166.76H296.072C296.272 164.72 297.192 163.12 298.792 162C300.392 160.88 302.472 160.28 305.072 160.28C307.792 160.28 309.912 160.92 311.432 162.2C312.912 163.48 313.672 165.32 313.672 167.72V175.8C313.672 176.76 314.112 177.24 315.032 177.24H315.872ZM309.392 171.88H304.032C302.672 171.88 301.672 172.16 300.952 172.68C300.232 173.2 299.872 173.96 299.872 174.96C299.872 175.84 300.192 176.56 300.872 177.08C301.552 177.64 302.472 177.88 303.672 177.88C305.432 177.88 306.832 177.4 307.832 176.44C308.832 175.48 309.352 174.2 309.392 172.6V171.88ZM347.345 162.48C348.745 163.92 349.465 166.24 349.465 169.44V181H345.145V169.48C345.145 167.72 344.785 166.36 344.065 165.4C343.345 164.48 342.265 164 340.865 164C339.345 164 338.185 164.56 337.305 165.6C336.425 166.64 336.025 168.08 336.025 169.92V181H331.665V169.48C331.665 167.68 331.265 166.32 330.545 165.4C329.825 164.48 328.745 164 327.345 164C325.865 164 324.705 164.56 323.825 165.64C322.945 166.76 322.545 168.2 322.545 170.04V181H318.225V160.52H321.985L322.465 163.2C323.905 161.28 325.905 160.32 328.465 160.28C329.905 160.28 331.145 160.6 332.265 161.2C333.345 161.84 334.185 162.76 334.785 164C335.505 162.84 336.425 161.92 337.625 161.28C338.785 160.64 340.185 160.28 341.865 160.28C344.105 160.28 345.905 161.04 347.345 162.48ZM353.862 165.28C354.702 163.68 355.862 162.48 357.382 161.6C358.902 160.72 360.622 160.28 362.582 160.28C364.542 160.28 366.262 160.68 367.782 161.48C369.302 162.28 370.462 163.44 371.342 164.88C372.222 166.36 372.662 168.08 372.702 170.04C372.702 170.6 372.662 171.12 372.582 171.68H357.142V171.92C357.222 173.72 357.782 175.12 358.822 176.16C359.822 177.2 361.182 177.72 362.862 177.72C364.182 177.72 365.302 177.44 366.222 176.8C367.102 176.16 367.702 175.28 368.022 174.12H372.342C371.942 176.2 370.942 177.92 369.302 179.24C367.662 180.6 365.622 181.24 363.182 181.24C361.022 181.24 359.182 180.84 357.582 179.96C355.982 179.08 354.782 177.88 353.902 176.28C353.022 174.72 352.622 172.88 352.622 170.8C352.622 168.72 353.022 166.88 353.862 165.28ZM368.302 168.52C368.102 167.04 367.502 165.88 366.502 165.04C365.502 164.2 364.262 163.76 362.742 163.76C361.302 163.76 360.102 164.2 359.062 165.08C358.022 165.96 357.462 167.08 357.302 168.52H368.302ZM376.189 171.4V167.88H389.789V171.4H376.189ZM393.532 171.4V167.88H407.132V171.4H393.532Z" fill="#1856F3"/>
<path d="M129.265 279.5V285.59C129.265 287.795 130.15 288.89 131.95 288.89C133.75 288.89 134.665 287.795 134.665 285.59V279.5H135.97V285.515C135.97 287.015 135.625 288.155 134.935 288.935C134.245 289.715 133.255 290.09 131.95 290.09C130.63 290.09 129.64 289.715 128.965 288.935C128.29 288.155 127.96 287.015 127.96 285.515V279.5H129.265ZM138.852 286.565C138.897 287.285 139.182 287.855 139.707 288.275C140.217 288.695 140.877 288.905 141.687 288.905C142.407 288.905 142.977 288.755 143.427 288.44C143.877 288.125 144.102 287.69 144.102 287.12C144.102 286.715 143.967 286.385 143.727 286.145C143.487 285.905 143.172 285.74 142.782 285.62C142.392 285.5 141.882 285.395 141.222 285.275C140.172 285.095 139.332 284.81 138.717 284.39C138.087 283.985 137.787 283.325 137.787 282.395C137.787 281.81 137.937 281.285 138.237 280.835C138.537 280.385 138.957 280.025 139.497 279.77C140.037 279.53 140.667 279.395 141.372 279.395C142.107 279.395 142.767 279.53 143.337 279.8C143.907 280.07 144.357 280.46 144.687 280.94C145.017 281.42 145.197 281.975 145.242 282.605H143.952C143.862 282.005 143.592 281.51 143.127 281.135C142.647 280.775 142.062 280.58 141.372 280.58C140.667 280.58 140.112 280.745 139.707 281.045C139.287 281.345 139.092 281.78 139.092 282.32C139.092 282.725 139.212 283.04 139.452 283.265C139.692 283.49 139.992 283.655 140.382 283.775C140.757 283.895 141.282 284 141.942 284.105C142.992 284.285 143.832 284.585 144.462 285.005C145.092 285.425 145.407 286.085 145.407 287C145.407 287.6 145.242 288.14 144.927 288.605C144.612 289.085 144.177 289.445 143.607 289.7C143.037 289.97 142.392 290.09 141.672 290.09C140.847 290.09 140.127 289.955 139.527 289.655C138.912 289.355 138.432 288.95 138.102 288.41C137.772 287.87 137.592 287.255 137.562 286.565H138.852ZM147.063 279.5H150.168C151.248 279.5 152.178 279.725 152.973 280.16C153.768 280.595 154.383 281.21 154.803 281.99C155.223 282.785 155.448 283.7 155.448 284.75C155.448 285.8 155.223 286.715 154.803 287.51C154.383 288.305 153.768 288.92 152.973 289.355C152.178 289.79 151.248 290 150.168 290H147.063V279.5ZM150.168 288.8C151.413 288.8 152.388 288.44 153.078 287.705C153.768 286.985 154.113 285.995 154.113 284.75C154.113 283.505 153.768 282.515 153.078 281.795C152.388 281.075 151.428 280.7 150.168 280.7H148.368V288.8H150.168ZM168.133 282.755C168.283 283.37 168.358 284.015 168.358 284.705C168.358 285.815 168.193 286.76 167.878 287.57C167.563 288.38 167.113 289.01 166.513 289.445C165.913 289.88 165.193 290.09 164.368 290.09C163.408 290.09 162.628 289.835 162.013 289.31C161.398 288.785 161.023 288.08 160.903 287.195H162.163C162.283 287.75 162.523 288.185 162.913 288.5C163.303 288.83 163.798 288.98 164.428 288.98C165.328 288.98 166.018 288.62 166.513 287.87C167.008 287.135 167.263 286.16 167.263 284.945L167.248 284.435C167.218 284.57 167.188 284.66 167.158 284.72C166.918 285.26 166.543 285.68 166.033 285.98C165.523 286.295 164.923 286.445 164.233 286.445C163.543 286.445 162.928 286.31 162.403 286.01C161.863 285.725 161.458 285.32 161.158 284.78C160.858 284.255 160.708 283.64 160.708 282.935C160.708 282.275 160.858 281.675 161.173 281.135C161.473 280.595 161.908 280.175 162.463 279.875C163.003 279.575 163.633 279.41 164.353 279.41C165.058 279.41 165.673 279.575 166.213 279.875C166.753 280.175 167.188 280.61 167.533 281.15C167.788 281.615 167.983 282.155 168.133 282.755ZM162.598 284.675C163.018 285.125 163.603 285.335 164.323 285.335C165.043 285.335 165.643 285.11 166.093 284.66C166.543 284.21 166.768 283.625 166.768 282.905C166.768 282.2 166.543 281.63 166.108 281.18C165.658 280.745 165.088 280.52 164.368 280.52C163.648 280.52 163.063 280.745 162.628 281.195C162.178 281.645 161.968 282.23 161.968 282.935C161.968 283.655 162.178 284.225 162.598 284.675ZM177.186 282.755C177.336 283.37 177.411 284.015 177.411 284.705C177.411 285.815 177.246 286.76 176.931 287.57C176.616 288.38 176.166 289.01 175.566 289.445C174.966 289.88 174.246 290.09 173.421 290.09C172.461 290.09 171.681 289.835 171.066 289.31C170.451 288.785 170.076 288.08 169.956 287.195H171.216C171.336 287.75 171.576 288.185 171.966 288.5C172.356 288.83 172.851 288.98 173.481 288.98C174.381 288.98 175.071 288.62 175.566 287.87C176.061 287.135 176.316 286.16 176.316 284.945L176.301 284.435C176.271 284.57 176.241 284.66 176.211 284.72C175.971 285.26 175.596 285.68 175.086 285.98C174.576 286.295 173.976 286.445 173.286 286.445C172.596 286.445 171.981 286.31 171.456 286.01C170.916 285.725 170.511 285.32 170.211 284.78C169.911 284.255 169.761 283.64 169.761 282.935C169.761 282.275 169.911 281.675 170.226 281.135C170.526 280.595 170.961 280.175 171.516 279.875C172.056 279.575 172.686 279.41 173.406 279.41C174.111 279.41 174.726 279.575 175.266 279.875C175.806 280.175 176.241 280.61 176.586 281.15C176.841 281.615 177.036 282.155 177.186 282.755ZM171.651 284.675C172.071 285.125 172.656 285.335 173.376 285.335C174.096 285.335 174.696 285.11 175.146 284.66C175.596 284.21 175.821 283.625 175.821 282.905C175.821 282.2 175.596 281.63 175.161 281.18C174.711 280.745 174.141 280.52 173.421 280.52C172.701 280.52 172.116 280.745 171.681 281.195C171.231 281.645 171.021 282.23 171.021 282.935C171.021 283.655 171.231 284.225 171.651 284.675ZM186.238 282.755C186.388 283.37 186.463 284.015 186.463 284.705C186.463 285.815 186.298 286.76 185.983 287.57C185.668 288.38 185.218 289.01 184.618 289.445C184.018 289.88 183.298 290.09 182.473 290.09C181.513 290.09 180.733 289.835 180.118 289.31C179.503 288.785 179.128 288.08 179.008 287.195H180.268C180.388 287.75 180.628 288.185 181.018 288.5C181.408 288.83 181.903 288.98 182.533 288.98C183.433 288.98 184.123 288.62 184.618 287.87C185.113 287.135 185.368 286.16 185.368 284.945L185.353 284.435C185.323 284.57 185.293 284.66 185.263 284.72C185.023 285.26 184.648 285.68 184.138 285.98C183.628 286.295 183.028 286.445 182.338 286.445C181.648 286.445 181.033 286.31 180.508 286.01C179.968 285.725 179.563 285.32 179.263 284.78C178.963 284.255 178.813 283.64 178.813 282.935C178.813 282.275 178.963 281.675 179.278 281.135C179.578 280.595 180.013 280.175 180.568 279.875C181.108 279.575 181.738 279.41 182.458 279.41C183.163 279.41 183.778 279.575 184.318 279.875C184.858 280.175 185.293 280.61 185.638 281.15C185.893 281.615 186.088 282.155 186.238 282.755ZM180.703 284.675C181.123 285.125 181.708 285.335 182.428 285.335C183.148 285.335 183.748 285.11 184.198 284.66C184.648 284.21 184.873 283.625 184.873 282.905C184.873 282.2 184.648 281.63 184.213 281.18C183.763 280.745 183.193 280.52 182.473 280.52C181.753 280.52 181.168 280.745 180.733 281.195C180.283 281.645 180.073 282.23 180.073 282.935C180.073 283.655 180.283 284.225 180.703 284.675ZM187.403 288.65C187.553 288.5 187.763 288.41 188.018 288.41C188.258 288.41 188.468 288.5 188.633 288.65C188.783 288.8 188.873 289.01 188.873 289.25C188.873 289.505 188.783 289.715 188.633 289.865C188.468 290.015 188.258 290.09 188.018 290.09C187.763 290.09 187.553 290.015 187.403 289.865C187.238 289.715 187.163 289.505 187.163 289.25C187.163 289.01 187.238 288.8 187.403 288.65ZM189.521 284.51C189.521 283.52 189.686 282.65 190.016 281.87C190.346 281.105 190.826 280.505 191.426 280.07C192.026 279.635 192.731 279.41 193.511 279.41C194.276 279.41 194.966 279.635 195.566 280.07C196.166 280.505 196.646 281.105 196.976 281.87C197.306 282.65 197.486 283.52 197.486 284.51V284.99C197.486 286.025 197.306 286.925 196.976 287.69C196.646 288.47 196.181 289.055 195.581 289.475C194.981 289.895 194.291 290.09 193.511 290.09C192.716 290.09 192.026 289.895 191.426 289.475C190.826 289.055 190.346 288.47 190.016 287.69C189.686 286.925 189.521 286.025 189.521 284.99V284.51ZM195.866 282.425C195.641 281.825 195.326 281.375 194.921 281.045C194.516 280.73 194.051 280.565 193.511 280.565C192.971 280.565 192.491 280.73 192.086 281.045C191.666 281.375 191.351 281.825 191.126 282.425C190.901 283.025 190.796 283.745 190.796 284.555V284.945C190.796 285.77 190.901 286.475 191.126 287.075C191.351 287.675 191.666 288.14 192.086 288.455C192.491 288.785 192.971 288.935 193.511 288.935C194.051 288.935 194.516 288.785 194.921 288.455C195.326 288.14 195.641 287.675 195.866 287.075C196.091 286.475 196.211 285.77 196.211 284.945V284.555C196.211 283.745 196.091 283.025 195.866 282.425ZM198.896 284.51C198.896 283.52 199.061 282.65 199.391 281.87C199.721 281.105 200.201 280.505 200.801 280.07C201.401 279.635 202.106 279.41 202.886 279.41C203.651 279.41 204.341 279.635 204.941 280.07C205.541 280.505 206.021 281.105 206.351 281.87C206.681 282.65 206.861 283.52 206.861 284.51V284.99C206.861 286.025 206.681 286.925 206.351 287.69C206.021 288.47 205.556 289.055 204.956 289.475C204.356 289.895 203.666 290.09 202.886 290.09C202.091 290.09 201.401 289.895 200.801 289.475C200.201 289.055 199.721 288.47 199.391 287.69C199.061 286.925 198.896 286.025 198.896 284.99V284.51ZM205.241 282.425C205.016 281.825 204.701 281.375 204.296 281.045C203.891 280.73 203.426 280.565 202.886 280.565C202.346 280.565 201.866 280.73 201.461 281.045C201.041 281.375 200.726 281.825 200.501 282.425C200.276 283.025 200.171 283.745 200.171 284.555V284.945C200.171 285.77 200.276 286.475 200.501 287.075C200.726 287.675 201.041 288.14 201.461 288.455C201.866 288.785 202.346 288.935 202.886 288.935C203.426 288.935 203.891 288.785 204.296 288.455C204.701 288.14 205.016 287.675 205.241 287.075C205.466 286.475 205.586 285.77 205.586 284.945V284.555C205.586 283.745 205.466 283.025 205.241 282.425Z" fill="#171616" fill-opacity="0.8"/>
<rect x="114" y="264" width="414" height="40" rx="11" stroke="#BEBEBE" stroke-width="2"/>
<path d="M131.23 349.5V357.525C131.23 358.335 131.02 358.95 130.6 359.37C130.18 359.79 129.565 360 128.755 360H127.39V358.77H128.59C129.055 358.77 129.4 358.665 129.61 358.455C129.82 358.245 129.925 357.9 129.925 357.42V349.5H131.23ZM134.629 359.595C134.059 359.265 133.609 358.815 133.294 358.215C132.964 357.63 132.814 356.955 132.814 356.175C132.814 355.41 132.964 354.735 133.294 354.135C133.609 353.55 134.059 353.085 134.629 352.755C135.199 352.425 135.859 352.26 136.609 352.26C137.344 352.26 138.004 352.425 138.574 352.755C139.144 353.085 139.594 353.55 139.924 354.135C140.239 354.735 140.404 355.41 140.404 356.175C140.404 356.955 140.239 357.63 139.924 358.215C139.594 358.815 139.144 359.265 138.574 359.595C138.004 359.925 137.344 360.09 136.609 360.09C135.859 360.09 135.199 359.925 134.629 359.595ZM137.929 358.635C138.319 358.395 138.619 358.065 138.829 357.63C139.039 357.21 139.144 356.715 139.144 356.175C139.144 355.635 139.039 355.155 138.829 354.72C138.619 354.3 138.319 353.955 137.929 353.715C137.539 353.475 137.104 353.355 136.609 353.355C136.099 353.355 135.664 353.475 135.274 353.715C134.884 353.955 134.599 354.3 134.389 354.72C134.179 355.155 134.074 355.635 134.074 356.175C134.074 356.715 134.179 357.21 134.389 357.63C134.599 358.065 134.884 358.395 135.274 358.635C135.664 358.875 136.099 358.995 136.609 358.995C137.104 358.995 137.539 358.875 137.929 358.635ZM142.745 357.48C142.76 357.945 142.955 358.32 143.345 358.605C143.735 358.905 144.23 359.04 144.845 359.04C145.385 359.04 145.82 358.935 146.15 358.725C146.48 358.515 146.66 358.23 146.66 357.87C146.66 357.57 146.57 357.345 146.42 357.18C146.255 357.03 146.045 356.91 145.79 356.85C145.535 356.79 145.175 356.73 144.71 356.67C144.05 356.595 143.51 356.49 143.09 356.355C142.67 356.235 142.325 356.025 142.07 355.74C141.8 355.455 141.68 355.065 141.68 354.555C141.68 354.105 141.8 353.715 142.055 353.355C142.31 353.01 142.655 352.74 143.105 352.545C143.54 352.35 144.035 352.245 144.59 352.245C145.49 352.245 146.21 352.455 146.78 352.875C147.35 353.295 147.665 353.895 147.725 354.675H146.495C146.435 354.285 146.24 353.955 145.91 353.685C145.565 353.43 145.145 353.295 144.635 353.295C144.11 353.295 143.69 353.415 143.375 353.625C143.045 353.835 142.895 354.12 142.895 354.465C142.895 354.735 142.97 354.93 143.12 355.065C143.27 355.215 143.45 355.305 143.69 355.35C143.93 355.41 144.29 355.455 144.77 355.515C145.43 355.605 145.985 355.71 146.42 355.845C146.855 355.995 147.2 356.22 147.47 356.52C147.74 356.835 147.875 357.255 147.875 357.78C147.875 358.245 147.74 358.65 147.47 358.995C147.2 359.355 146.825 359.625 146.375 359.805C145.91 360 145.4 360.09 144.845 360.09C143.84 360.09 143.03 359.865 142.43 359.4C141.83 358.95 141.515 358.305 141.515 357.48H142.745ZM155.271 353.1C155.841 353.67 156.126 354.54 156.126 355.74V360H154.896V355.815C154.896 355.035 154.716 354.435 154.356 354.015C153.996 353.595 153.471 353.385 152.811 353.385C152.091 353.385 151.536 353.64 151.116 354.135C150.696 354.645 150.501 355.32 150.501 356.175V360H149.271V349.5H150.501V353.61C150.741 353.22 151.071 352.89 151.491 352.635C151.911 352.395 152.421 352.26 153.021 352.26C153.951 352.26 154.701 352.545 155.271 353.1ZM164.279 352.35V360H163.214L163.049 358.98C162.464 359.73 161.654 360.09 160.604 360.09C159.689 360.09 158.954 359.82 158.414 359.25C157.859 358.695 157.589 357.81 157.589 356.61V352.35H158.819V356.535C158.819 357.33 158.984 357.93 159.329 358.35C159.674 358.77 160.169 358.965 160.814 358.965C161.504 358.965 162.059 358.725 162.449 358.215C162.839 357.72 163.049 357.045 163.049 356.175V352.35H164.279ZM173.11 358.875V360H172.435C171.94 360 171.595 359.91 171.385 359.7C171.175 359.505 171.055 359.205 171.055 358.815C170.455 359.67 169.6 360.09 168.49 360.09C167.635 360.09 166.945 359.895 166.435 359.49C165.925 359.1 165.67 358.545 165.67 357.855C165.67 357.09 165.925 356.505 166.45 356.085C166.975 355.68 167.74 355.47 168.745 355.47H170.995V354.945C170.995 354.45 170.815 354.06 170.485 353.775C170.155 353.505 169.69 353.355 169.09 353.355C168.55 353.355 168.115 353.475 167.77 353.715C167.425 353.955 167.215 354.255 167.14 354.645H165.91C166 353.895 166.33 353.31 166.9 352.89C167.47 352.47 168.22 352.26 169.15 352.26C170.125 352.26 170.875 352.5 171.415 352.98C171.955 353.46 172.225 354.135 172.225 355.02V358.32C172.225 358.695 172.39 358.875 172.735 358.875H173.11ZM170.995 356.505H168.625C167.485 356.505 166.915 356.94 166.915 357.78C166.915 358.17 167.065 358.47 167.365 358.695C167.665 358.935 168.07 359.04 168.58 359.04C169.33 359.04 169.915 358.845 170.35 358.455C170.77 358.065 170.995 357.54 170.995 356.88V356.505Z" fill="#171616" fill-opacity="0.8"/>
<rect x="114" y="334" width="186" height="40" rx="9" stroke="#BEBEBE" stroke-width="2"/>
<path d="M356.92 356.565C356.965 357.285 357.25 357.855 357.775 358.275C358.285 358.695 358.945 358.905 359.755 358.905C360.475 358.905 361.045 358.755 361.495 358.44C361.945 358.125 362.17 357.69 362.17 357.12C362.17 356.715 362.035 356.385 361.795 356.145C361.555 355.905 361.24 355.74 360.85 355.62C360.46 355.5 359.95 355.395 359.29 355.275C358.24 355.095 357.4 354.81 356.785 354.39C356.155 353.985 355.855 353.325 355.855 352.395C355.855 351.81 356.005 351.285 356.305 350.835C356.605 350.385 357.025 350.025 357.565 349.77C358.105 349.53 358.735 349.395 359.44 349.395C360.175 349.395 360.835 349.53 361.405 349.8C361.975 350.07 362.425 350.46 362.755 350.94C363.085 351.42 363.265 351.975 363.31 352.605H362.02C361.93 352.005 361.66 351.51 361.195 351.135C360.715 350.775 360.13 350.58 359.44 350.58C358.735 350.58 358.18 350.745 357.775 351.045C357.355 351.345 357.16 351.78 357.16 352.32C357.16 352.725 357.28 353.04 357.52 353.265C357.76 353.49 358.06 353.655 358.45 353.775C358.825 353.895 359.35 354 360.01 354.105C361.06 354.285 361.9 354.585 362.53 355.005C363.16 355.425 363.475 356.085 363.475 357C363.475 357.6 363.31 358.14 362.995 358.605C362.68 359.085 362.245 359.445 361.675 359.7C361.105 359.97 360.46 360.09 359.74 360.09C358.915 360.09 358.195 359.955 357.595 359.655C356.98 359.355 356.5 358.95 356.17 358.41C355.84 357.87 355.66 357.255 355.63 356.565H356.92ZM375.571 353.07C376.111 353.61 376.381 354.45 376.381 355.59V360H375.151V355.665C375.151 354.93 374.986 354.36 374.671 353.97C374.356 353.58 373.906 353.385 373.336 353.385C372.691 353.385 372.181 353.61 371.821 354.06C371.461 354.51 371.281 355.125 371.281 355.905V360H370.051V355.665C370.051 354.93 369.886 354.36 369.571 353.97C369.241 353.58 368.791 353.385 368.206 353.385C367.576 353.385 367.081 353.625 366.721 354.105C366.361 354.585 366.181 355.2 366.181 355.965V360H364.951V352.35H366.016L366.181 353.4C366.721 352.65 367.471 352.26 368.416 352.26C368.956 352.26 369.451 352.395 369.871 352.635C370.291 352.875 370.621 353.235 370.831 353.715C371.371 352.755 372.256 352.26 373.486 352.26C374.341 352.26 375.031 352.53 375.571 353.07ZM379.144 349.62C379.294 349.77 379.369 349.965 379.369 350.19C379.369 350.43 379.294 350.61 379.144 350.76C378.994 350.91 378.799 350.985 378.574 350.985C378.334 350.985 378.154 350.91 378.004 350.76C377.854 350.61 377.779 350.43 377.779 350.19C377.779 349.965 377.854 349.77 378.004 349.62C378.154 349.47 378.334 349.395 378.574 349.395C378.799 349.395 378.994 349.47 379.144 349.62ZM377.959 352.35H379.189V360H377.959V352.35ZM381.384 353.475H380.004V352.35H381.384V350.205H382.614V352.35H384.549V353.475H382.614V357.99C382.614 358.32 382.674 358.545 382.794 358.68C382.914 358.815 383.139 358.875 383.454 358.875H384.789V360H383.379C382.659 360 382.134 359.85 381.834 359.52C381.534 359.205 381.384 358.695 381.384 358.005V353.475ZM391.664 353.1C392.234 353.67 392.519 354.54 392.519 355.74V360H391.289V355.815C391.289 355.035 391.109 354.435 390.749 354.015C390.389 353.595 389.864 353.385 389.204 353.385C388.484 353.385 387.929 353.64 387.509 354.135C387.089 354.645 386.894 355.32 386.894 356.175V360H385.664V349.5H386.894V353.61C387.134 353.22 387.464 352.89 387.884 352.635C388.304 352.395 388.814 352.26 389.414 352.26C390.344 352.26 391.094 352.545 391.664 353.1Z" fill="#171616" fill-opacity="0.8"/>
<rect x="342" y="334" width="186" height="40" rx="9" stroke="#BEBEBE" stroke-width="2"/>
<path d="M131.74 419.5C132.85 419.5 133.705 419.74 134.305 420.22C134.905 420.7 135.22 421.375 135.22 422.215C135.22 422.845 135.055 423.355 134.74 423.76C134.41 424.165 133.945 424.45 133.345 424.6C134.875 424.9 135.655 425.725 135.655 427.105C135.655 428.005 135.325 428.725 134.665 429.235C134.005 429.745 133.075 430 131.845 430H128.02V419.5H131.74ZM129.325 424.06H131.8C132.46 424.06 132.985 423.91 133.36 423.61C133.72 423.31 133.915 422.905 133.915 422.365C133.915 421.84 133.72 421.435 133.36 421.135C133 420.835 132.475 420.685 131.8 420.685H129.325V424.06ZM129.325 428.815H131.845C132.64 428.815 133.255 428.665 133.675 428.35C134.095 428.05 134.32 427.615 134.32 427.06C134.32 426.475 134.095 426.025 133.675 425.71C133.24 425.395 132.625 425.23 131.845 425.23H129.325V428.815ZM137.366 424.12C137.666 423.535 138.101 423.085 138.656 422.755C139.196 422.425 139.826 422.26 140.546 422.26C141.236 422.26 141.866 422.41 142.406 422.695C142.946 422.995 143.366 423.415 143.681 423.955C143.981 424.51 144.146 425.155 144.176 425.89C144.176 426.01 144.161 426.175 144.146 426.415H138.206V426.52C138.221 427.27 138.446 427.87 138.896 428.32C139.331 428.77 139.901 428.995 140.621 428.995C141.161 428.995 141.626 428.86 142.016 428.59C142.406 428.32 142.661 427.93 142.796 427.435H144.041C143.891 428.215 143.516 428.86 142.916 429.355C142.316 429.85 141.581 430.09 140.711 430.09C139.946 430.09 139.286 429.94 138.716 429.61C138.146 429.28 137.696 428.83 137.381 428.23C137.066 427.63 136.916 426.955 136.916 426.175C136.916 425.395 137.066 424.72 137.366 424.12ZM142.901 425.395C142.841 424.75 142.586 424.24 142.166 423.88C141.746 423.52 141.206 423.34 140.561 423.34C139.976 423.34 139.466 423.535 139.031 423.91C138.581 424.3 138.341 424.795 138.281 425.395H142.901ZM151.564 423.1C152.134 423.67 152.419 424.54 152.419 425.74V430H151.189V425.815C151.189 425.035 151.009 424.435 150.649 424.015C150.289 423.595 149.779 423.385 149.119 423.385C148.399 423.385 147.829 423.64 147.424 424.135C147.004 424.645 146.809 425.32 146.809 426.175V430H145.579V422.35H146.644L146.809 423.385C147.379 422.635 148.219 422.26 149.329 422.26C150.259 422.26 150.994 422.545 151.564 423.1ZM154.077 428.65C154.227 428.5 154.437 428.41 154.692 428.41C154.932 428.41 155.142 428.5 155.307 428.65C155.457 428.8 155.547 429.01 155.547 429.25C155.547 429.505 155.457 429.715 155.307 429.865C155.142 430.015 154.932 430.09 154.692 430.09C154.437 430.09 154.227 430.015 154.077 429.865C153.912 429.715 153.837 429.505 153.837 429.25C153.837 429.01 153.912 428.8 154.077 428.65ZM157.258 419.5H160.363C161.443 419.5 162.373 419.725 163.168 420.16C163.963 420.595 164.578 421.21 164.998 421.99C165.418 422.785 165.643 423.7 165.643 424.75C165.643 425.8 165.418 426.715 164.998 427.51C164.578 428.305 163.963 428.92 163.168 429.355C162.373 429.79 161.443 430 160.363 430H157.258V419.5ZM160.363 428.8C161.608 428.8 162.583 428.44 163.273 427.705C163.963 426.985 164.308 425.995 164.308 424.75C164.308 423.505 163.963 422.515 163.273 421.795C162.583 421.075 161.623 420.7 160.363 420.7H158.563V428.8H160.363ZM168.297 419.62C168.447 419.77 168.522 419.965 168.522 420.19C168.522 420.43 168.447 420.61 168.297 420.76C168.147 420.91 167.952 420.985 167.727 420.985C167.487 420.985 167.307 420.91 167.157 420.76C167.007 420.61 166.932 420.43 166.932 420.19C166.932 419.965 167.007 419.77 167.157 419.62C167.307 419.47 167.487 419.395 167.727 419.395C167.952 419.395 168.147 419.47 168.297 419.62ZM167.112 422.35H168.342V430H167.112V422.35ZM177.183 428.875V430H176.508C176.013 430 175.668 429.91 175.458 429.7C175.248 429.505 175.128 429.205 175.128 428.815C174.528 429.67 173.673 430.09 172.563 430.09C171.708 430.09 171.018 429.895 170.508 429.49C169.998 429.1 169.743 428.545 169.743 427.855C169.743 427.09 169.998 426.505 170.523 426.085C171.048 425.68 171.813 425.47 172.818 425.47H175.068V424.945C175.068 424.45 174.888 424.06 174.558 423.775C174.228 423.505 173.763 423.355 173.163 423.355C172.623 423.355 172.188 423.475 171.843 423.715C171.498 423.955 171.288 424.255 171.213 424.645H169.983C170.073 423.895 170.403 423.31 170.973 422.89C171.543 422.47 172.293 422.26 173.223 422.26C174.198 422.26 174.948 422.5 175.488 422.98C176.028 423.46 176.298 424.135 176.298 425.02V428.32C176.298 428.695 176.463 428.875 176.808 428.875H177.183ZM175.068 426.505H172.698C171.558 426.505 170.988 426.94 170.988 427.78C170.988 428.17 171.138 428.47 171.438 428.695C171.738 428.935 172.143 429.04 172.653 429.04C173.403 429.04 173.988 428.845 174.423 428.455C174.843 428.065 175.068 427.54 175.068 426.88V426.505ZM177.813 422.35H183.903V423.28L179.253 428.875H184.098V430H177.618V429.07L182.253 423.475H177.813V422.35ZM186.102 422.995C186.717 422.005 187.557 421.225 188.622 420.655C189.672 420.085 190.842 419.8 192.102 419.8C193.317 419.8 194.397 420.04 195.357 420.505C196.317 420.97 197.052 421.615 197.592 422.44C198.117 423.265 198.387 424.195 198.387 425.245C198.387 426.025 198.237 426.73 197.952 427.33C197.667 427.945 197.277 428.425 196.782 428.755C196.287 429.1 195.732 429.265 195.132 429.265C194.682 429.265 194.337 429.16 194.067 428.95C193.797 428.74 193.632 428.47 193.602 428.14L193.572 427.915C193.392 428.32 193.092 428.65 192.657 428.89C192.207 429.13 191.727 429.25 191.202 429.25C190.692 429.25 190.242 429.13 189.837 428.89C189.432 428.65 189.117 428.32 188.892 427.885C188.652 427.45 188.547 426.955 188.547 426.385C188.547 425.77 188.682 425.2 188.967 424.66C189.252 424.135 189.642 423.715 190.122 423.4C190.602 423.1 191.112 422.935 191.667 422.935C192.222 422.935 192.687 423.04 193.047 423.25C193.407 423.46 193.647 423.745 193.767 424.075L193.992 423.07H194.952L194.502 427.345L194.487 427.54C194.487 427.84 194.562 428.05 194.712 428.2C194.862 428.35 195.072 428.41 195.342 428.41C195.672 428.41 195.972 428.275 196.257 427.99C196.542 427.72 196.767 427.33 196.947 426.835C197.127 426.355 197.217 425.815 197.217 425.215C197.217 424.345 196.992 423.58 196.572 422.92C196.152 422.26 195.552 421.735 194.772 421.375C193.992 421.015 193.092 420.82 192.087 420.82C191.037 420.82 190.077 421.075 189.207 421.555C188.337 422.035 187.632 422.695 187.122 423.535C186.612 424.375 186.357 425.29 186.357 426.295C186.357 427.33 186.582 428.23 187.032 428.98C187.482 429.745 188.112 430.33 188.952 430.735C189.792 431.14 190.767 431.335 191.892 431.335C192.537 431.335 193.152 431.26 193.737 431.095C194.322 430.945 194.847 430.705 195.327 430.405L195.297 431.5C194.907 431.77 194.397 431.98 193.767 432.13C193.137 432.28 192.477 432.355 191.787 432.355C190.497 432.355 189.357 432.115 188.367 431.605C187.362 431.11 186.582 430.405 186.027 429.49C185.457 428.59 185.187 427.525 185.187 426.31C185.187 425.095 185.487 423.985 186.102 422.995ZM193.122 424.33C192.807 424 192.402 423.835 191.892 423.835C191.472 423.835 191.097 423.955 190.767 424.18C190.437 424.405 190.167 424.705 189.972 425.095C189.777 425.485 189.687 425.89 189.687 426.34C189.687 426.94 189.837 427.435 190.167 427.795C190.497 428.17 190.917 428.35 191.442 428.35C191.832 428.35 192.207 428.245 192.537 428.02C192.867 427.795 193.122 427.48 193.317 427.06C193.497 426.655 193.602 426.19 193.602 425.65C193.602 425.095 193.437 424.66 193.122 424.33ZM200.403 421.96C200.808 421.15 201.393 420.535 202.158 420.085C202.908 419.635 203.793 419.41 204.798 419.41C205.953 419.41 206.928 419.725 207.708 420.355C208.488 420.985 208.983 421.84 209.193 422.92H207.903C207.693 422.2 207.318 421.63 206.778 421.225C206.223 420.82 205.548 420.61 204.768 420.61C204.048 420.61 203.403 420.79 202.848 421.135C202.293 421.495 201.873 421.975 201.573 422.605C201.273 423.235 201.123 423.955 201.123 424.75C201.123 425.56 201.273 426.265 201.573 426.895C201.873 427.525 202.293 428.02 202.848 428.365C203.388 428.725 204.018 428.89 204.738 428.89C205.368 428.89 205.938 428.77 206.448 428.53C206.958 428.29 207.348 427.93 207.633 427.48C207.918 427.03 208.068 426.49 208.068 425.875V425.515H204.918V424.315H209.343V430H208.263L208.128 428.335C207.828 428.815 207.393 429.22 206.823 429.565C206.238 429.925 205.533 430.09 204.723 430.09C203.763 430.09 202.908 429.865 202.158 429.415C201.408 428.965 200.823 428.35 200.403 427.54C199.983 426.73 199.788 425.8 199.788 424.75C199.788 423.7 199.983 422.77 200.403 421.96ZM221.824 423.07C222.364 423.61 222.634 424.45 222.634 425.59V430H221.404V425.665C221.404 424.93 221.239 424.36 220.924 423.97C220.609 423.58 220.159 423.385 219.589 423.385C218.944 423.385 218.434 423.61 218.074 424.06C217.714 424.51 217.534 425.125 217.534 425.905V430H216.304V425.665C216.304 424.93 216.139 424.36 215.824 423.97C215.494 423.58 215.044 423.385 214.459 423.385C213.829 423.385 213.334 423.625 212.974 424.105C212.614 424.585 212.434 425.2 212.434 425.965V430H211.204V422.35H212.269L212.434 423.4C212.974 422.65 213.724 422.26 214.669 422.26C215.209 422.26 215.704 422.395 216.124 422.635C216.544 422.875 216.874 423.235 217.084 423.715C217.624 422.755 218.509 422.26 219.739 422.26C220.594 422.26 221.284 422.53 221.824 423.07ZM231.367 428.875V430H230.692C230.197 430 229.852 429.91 229.642 429.7C229.432 429.505 229.312 429.205 229.312 428.815C228.712 429.67 227.857 430.09 226.747 430.09C225.892 430.09 225.202 429.895 224.692 429.49C224.182 429.1 223.927 428.545 223.927 427.855C223.927 427.09 224.182 426.505 224.707 426.085C225.232 425.68 225.997 425.47 227.002 425.47H229.252V424.945C229.252 424.45 229.072 424.06 228.742 423.775C228.412 423.505 227.947 423.355 227.347 423.355C226.807 423.355 226.372 423.475 226.027 423.715C225.682 423.955 225.472 424.255 225.397 424.645H224.167C224.257 423.895 224.587 423.31 225.157 422.89C225.727 422.47 226.477 422.26 227.407 422.26C228.382 422.26 229.132 422.5 229.672 422.98C230.212 423.46 230.482 424.135 230.482 425.02V428.32C230.482 428.695 230.647 428.875 230.992 428.875H231.367ZM229.252 426.505H226.882C225.742 426.505 225.172 426.94 225.172 427.78C225.172 428.17 225.322 428.47 225.622 428.695C225.922 428.935 226.327 429.04 226.837 429.04C227.587 429.04 228.172 428.845 228.607 428.455C229.027 428.065 229.252 427.54 229.252 426.88V426.505ZM233.498 419.62C233.648 419.77 233.723 419.965 233.723 420.19C233.723 420.43 233.648 420.61 233.498 420.76C233.348 420.91 233.153 420.985 232.928 420.985C232.688 420.985 232.508 420.91 232.358 420.76C232.208 420.61 232.133 420.43 232.133 420.19C232.133 419.965 232.208 419.77 232.358 419.62C232.508 419.47 232.688 419.395 232.928 419.395C233.153 419.395 233.348 419.47 233.498 419.62ZM232.313 422.35H233.543V430H232.313V422.35ZM235.228 419.5H236.458V430H235.228V419.5ZM238.233 428.65C238.383 428.5 238.593 428.41 238.848 428.41C239.088 428.41 239.298 428.5 239.463 428.65C239.613 428.8 239.703 429.01 239.703 429.25C239.703 429.505 239.613 429.715 239.463 429.865C239.298 430.015 239.088 430.09 238.848 430.09C238.593 430.09 238.383 430.015 238.233 429.865C238.068 429.715 237.993 429.505 237.993 429.25C237.993 429.01 238.068 428.8 238.233 428.65ZM240.804 421.96C241.209 421.15 241.794 420.535 242.559 420.085C243.309 419.635 244.194 419.41 245.199 419.41C246.354 419.41 247.329 419.725 248.109 420.355C248.889 420.985 249.384 421.855 249.594 422.935H248.289C248.094 422.215 247.719 421.645 247.164 421.225C246.609 420.82 245.934 420.61 245.139 420.61C244.419 420.61 243.774 420.79 243.234 421.135C242.679 421.495 242.259 421.975 241.959 422.605C241.659 423.235 241.524 423.94 241.524 424.75C241.524 425.56 241.659 426.265 241.959 426.895C242.259 427.525 242.679 428.02 243.234 428.365C243.774 428.725 244.419 428.89 245.139 428.89C245.949 428.89 246.624 428.695 247.164 428.29C247.704 427.885 248.064 427.315 248.274 426.565H249.579C249.369 427.66 248.889 428.515 248.109 429.145C247.329 429.775 246.369 430.09 245.199 430.09C244.194 430.09 243.309 429.88 242.559 429.43C241.794 428.98 241.209 428.365 240.804 427.555C240.384 426.745 240.189 425.815 240.189 424.75C240.189 423.7 240.384 422.77 240.804 421.96ZM252.593 429.595C252.023 429.265 251.573 428.815 251.258 428.215C250.928 427.63 250.778 426.955 250.778 426.175C250.778 425.41 250.928 424.735 251.258 424.135C251.573 423.55 252.023 423.085 252.593 422.755C253.163 422.425 253.823 422.26 254.573 422.26C255.308 422.26 255.968 422.425 256.538 422.755C257.108 423.085 257.558 423.55 257.888 424.135C258.203 424.735 258.368 425.41 258.368 426.175C258.368 426.955 258.203 427.63 257.888 428.215C257.558 428.815 257.108 429.265 256.538 429.595C255.968 429.925 255.308 430.09 254.573 430.09C253.823 430.09 253.163 429.925 252.593 429.595ZM255.893 428.635C256.283 428.395 256.583 428.065 256.793 427.63C257.003 427.21 257.108 426.715 257.108 426.175C257.108 425.635 257.003 425.155 256.793 424.72C256.583 424.3 256.283 423.955 255.893 423.715C255.503 423.475 255.068 423.355 254.573 423.355C254.063 423.355 253.628 423.475 253.238 423.715C252.848 423.955 252.563 424.3 252.353 424.72C252.143 425.155 252.038 425.635 252.038 426.175C252.038 426.715 252.143 427.21 252.353 427.63C252.563 428.065 252.848 428.395 253.238 428.635C253.628 428.875 254.063 428.995 254.573 428.995C255.068 428.995 255.503 428.875 255.893 428.635ZM270.398 423.07C270.938 423.61 271.208 424.45 271.208 425.59V430H269.978V425.665C269.978 424.93 269.813 424.36 269.498 423.97C269.183 423.58 268.733 423.385 268.163 423.385C267.518 423.385 267.008 423.61 266.648 424.06C266.288 424.51 266.108 425.125 266.108 425.905V430H264.878V425.665C264.878 424.93 264.713 424.36 264.398 423.97C264.068 423.58 263.618 423.385 263.033 423.385C262.403 423.385 261.908 423.625 261.548 424.105C261.188 424.585 261.008 425.2 261.008 425.965V430H259.778V422.35H260.843L261.008 423.4C261.548 422.65 262.298 422.26 263.243 422.26C263.783 422.26 264.278 422.395 264.698 422.635C265.118 422.875 265.448 423.235 265.658 423.715C266.198 422.755 267.083 422.26 268.313 422.26C269.168 422.26 269.858 422.53 270.398 423.07Z" fill="#171616" fill-opacity="0.8"/>
<rect x="114" y="404" width="414" height="40" rx="11" stroke="#BEBEBE" stroke-width="2"/>
<g filter="url(#filter1_i_191_5806)">
<rect x="113" y="483" width="416" height="53" rx="10" fill="#1856F3"/>
</g>
<path d="M309.688 502.5C310.888 502.5 311.938 502.75 312.863 503.2C313.763 503.65 314.488 504.3 314.988 505.15C315.488 506 315.738 506.975 315.738 508.075C315.738 509.2 315.488 510.175 314.988 511.025C314.488 511.875 313.763 512.525 312.863 512.975C311.938 513.425 310.888 513.65 309.688 513.65H305.663V520H302.788V502.5H309.688ZM305.663 511.15H309.438C310.463 511.15 311.288 510.875 311.888 510.325C312.488 509.775 312.813 509.025 312.813 508.075C312.813 507.125 312.513 506.375 311.913 505.825C311.313 505.275 310.488 505 309.463 505H305.663V511.15ZM329.167 517.65V520H327.742C326.892 520 326.292 519.825 325.942 519.475C325.567 519.125 325.392 518.625 325.392 517.95C324.417 519.425 323.017 520.15 321.167 520.15C319.717 520.15 318.567 519.825 317.717 519.15C316.842 518.5 316.417 517.575 316.417 516.4C316.417 515.1 316.867 514.075 317.817 513.375C318.742 512.675 320.092 512.3 321.892 512.3H325.117V511.525C325.117 510.825 324.867 510.25 324.367 509.85C323.867 509.45 323.167 509.225 322.292 509.225C321.492 509.225 320.842 509.4 320.342 509.75C319.842 510.1 319.542 510.55 319.442 511.1H316.792C316.917 509.825 317.492 508.825 318.492 508.125C319.492 507.425 320.792 507.05 322.417 507.05C324.117 507.05 325.442 507.45 326.392 508.25C327.317 509.05 327.792 510.2 327.792 511.7V516.75C327.792 517.35 328.067 517.65 328.642 517.65H329.167ZM325.117 514.3H321.767C320.917 514.3 320.292 514.475 319.842 514.8C319.392 515.125 319.167 515.6 319.167 516.225C319.167 516.775 319.367 517.225 319.792 517.55C320.217 517.9 320.792 518.05 321.542 518.05C322.642 518.05 323.517 517.75 324.142 517.15C324.767 516.55 325.092 515.75 325.117 514.75V514.3ZM331.847 507.2L335.422 517.075L338.897 507.2H341.772L335.972 522C335.672 522.775 335.397 523.375 335.147 523.775C334.897 524.175 334.572 524.5 334.222 524.7C333.847 524.9 333.347 525 332.747 525H329.847V522.625H331.747C332.247 522.625 332.622 522.55 332.822 522.4C333.022 522.25 333.222 521.875 333.447 521.325L333.972 520.1L328.972 507.2H331.847Z" fill="white"/>
<path d="M260.623 205.8V217H259.487L259.311 215.688C258.623 216.632 257.695 217.096 256.511 217.096C255.743 217.096 255.071 216.936 254.479 216.6C253.887 216.28 253.423 215.8 253.087 215.16C252.751 214.536 252.591 213.784 252.591 212.92C252.591 212.104 252.751 211.384 253.087 210.744C253.423 210.12 253.887 209.624 254.495 209.272C255.087 208.92 255.759 208.744 256.511 208.744C257.167 208.744 257.727 208.872 258.207 209.112C258.671 209.352 259.039 209.672 259.311 210.088V205.8H260.623ZM258.031 215.56C258.447 215.304 258.767 214.952 258.991 214.504C259.215 214.056 259.327 213.528 259.327 212.952C259.327 212.376 259.215 211.848 258.991 211.384C258.767 210.92 258.447 210.552 258.031 210.296C257.615 210.04 257.151 209.912 256.639 209.912C255.823 209.912 255.167 210.2 254.671 210.76C254.175 211.32 253.935 212.04 253.935 212.92C253.935 213.816 254.175 214.536 254.671 215.096C255.167 215.656 255.823 215.928 256.639 215.928C257.151 215.928 257.615 215.816 258.031 215.56ZM262.922 210.728C263.242 210.104 263.706 209.624 264.298 209.272C264.874 208.92 265.546 208.744 266.314 208.744C267.05 208.744 267.722 208.904 268.298 209.208C268.874 209.528 269.322 209.976 269.658 210.552C269.978 211.144 270.154 211.832 270.186 212.616C270.186 212.744 270.17 212.92 270.154 213.176H263.818V213.288C263.834 214.088 264.074 214.728 264.554 215.208C265.018 215.688 265.626 215.928 266.394 215.928C266.97 215.928 267.466 215.784 267.882 215.496C268.298 215.208 268.57 214.792 268.714 214.264H270.042C269.882 215.096 269.482 215.784 268.842 216.312C268.202 216.84 267.418 217.096 266.49 217.096C265.674 217.096 264.97 216.936 264.362 216.584C263.754 216.232 263.274 215.752 262.938 215.112C262.602 214.472 262.442 213.752 262.442 212.92C262.442 212.088 262.602 211.368 262.922 210.728ZM268.826 212.088C268.762 211.4 268.49 210.856 268.042 210.472C267.594 210.088 267.018 209.896 266.33 209.896C265.706 209.896 265.162 210.104 264.698 210.504C264.218 210.92 263.962 211.448 263.898 212.088H268.826ZM272.454 210.04H270.982V208.84H272.454V206.552H273.766V208.84H275.83V210.04H273.766V214.856C273.766 215.208 273.83 215.448 273.958 215.592C274.086 215.736 274.326 215.8 274.662 215.8H276.086V217H274.582C273.814 217 273.254 216.84 272.934 216.488C272.614 216.152 272.454 215.608 272.454 214.872V210.04ZM284.846 215.8V217H284.126C283.598 217 283.23 216.904 283.006 216.68C282.782 216.472 282.654 216.152 282.654 215.736C282.014 216.648 281.102 217.096 279.918 217.096C279.006 217.096 278.27 216.888 277.726 216.456C277.182 216.04 276.91 215.448 276.91 214.712C276.91 213.896 277.182 213.272 277.742 212.824C278.302 212.392 279.118 212.168 280.19 212.168H282.59V211.608C282.59 211.08 282.398 210.664 282.046 210.36C281.694 210.072 281.198 209.912 280.558 209.912C279.982 209.912 279.518 210.04 279.15 210.296C278.782 210.552 278.558 210.872 278.478 211.288H277.166C277.262 210.488 277.614 209.864 278.222 209.416C278.83 208.968 279.63 208.744 280.622 208.744C281.662 208.744 282.462 209 283.038 209.512C283.614 210.024 283.902 210.744 283.902 211.688V215.208C283.902 215.608 284.078 215.8 284.446 215.8H284.846ZM282.59 213.272H280.062C278.846 213.272 278.238 213.736 278.238 214.632C278.238 215.048 278.398 215.368 278.718 215.608C279.038 215.864 279.47 215.976 280.014 215.976C280.814 215.976 281.438 215.768 281.902 215.352C282.35 214.936 282.59 214.376 282.59 213.672V213.272ZM287.439 205.928C287.599 206.088 287.679 206.296 287.679 206.536C287.679 206.792 287.599 206.984 287.439 207.144C287.279 207.304 287.071 207.384 286.831 207.384C286.575 207.384 286.383 207.304 286.223 207.144C286.063 206.984 285.983 206.792 285.983 206.536C285.983 206.296 286.063 206.088 286.223 205.928C286.383 205.768 286.575 205.688 286.831 205.688C287.071 205.688 287.279 205.768 287.439 205.928ZM286.175 208.84H287.487V217H286.175V208.84ZM289.604 205.8H290.916V217H289.604V205.8ZM294.057 214.312C294.073 214.808 294.281 215.208 294.697 215.512C295.113 215.832 295.641 215.976 296.297 215.976C296.873 215.976 297.337 215.864 297.689 215.64C298.041 215.416 298.233 215.112 298.233 214.728C298.233 214.408 298.137 214.168 297.977 213.992C297.801 213.832 297.577 213.704 297.305 213.64C297.033 213.576 296.649 213.512 296.153 213.448C295.449 213.368 294.873 213.256 294.425 213.112C293.977 212.984 293.609 212.76 293.337 212.456C293.049 212.152 292.921 211.736 292.921 211.192C292.921 210.712 293.049 210.296 293.321 209.912C293.593 209.544 293.961 209.256 294.441 209.048C294.905 208.84 295.433 208.728 296.025 208.728C296.985 208.728 297.753 208.952 298.361 209.4C298.969 209.848 299.305 210.488 299.369 211.32H298.057C297.993 210.904 297.785 210.552 297.433 210.264C297.065 209.992 296.617 209.848 296.073 209.848C295.513 209.848 295.065 209.976 294.729 210.2C294.377 210.424 294.217 210.728 294.217 211.096C294.217 211.384 294.297 211.592 294.457 211.736C294.617 211.896 294.809 211.992 295.065 212.04C295.321 212.104 295.705 212.152 296.217 212.216C296.921 212.312 297.513 212.424 297.977 212.568C298.441 212.728 298.809 212.968 299.097 213.288C299.385 213.624 299.529 214.072 299.529 214.632C299.529 215.128 299.385 215.56 299.097 215.928C298.809 216.312 298.409 216.6 297.929 216.792C297.433 217 296.889 217.096 296.297 217.096C295.225 217.096 294.361 216.856 293.721 216.36C293.081 215.88 292.745 215.192 292.745 214.312H294.057ZM307.493 216.568C306.885 216.216 306.405 215.736 306.069 215.096C305.717 214.472 305.557 213.752 305.557 212.92C305.557 212.104 305.717 211.384 306.069 210.744C306.405 210.12 306.885 209.624 307.493 209.272C308.101 208.92 308.805 208.744 309.605 208.744C310.389 208.744 311.093 208.92 311.701 209.272C312.309 209.624 312.789 210.12 313.141 210.744C313.477 211.384 313.653 212.104 313.653 212.92C313.653 213.752 313.477 214.472 313.141 215.096C312.789 215.736 312.309 216.216 311.701 216.568C311.093 216.92 310.389 217.096 309.605 217.096C308.805 217.096 308.101 216.92 307.493 216.568ZM311.013 215.544C311.429 215.288 311.749 214.936 311.973 214.472C312.197 214.024 312.309 213.496 312.309 212.92C312.309 212.344 312.197 211.832 311.973 211.368C311.749 210.92 311.429 210.552 311.013 210.296C310.597 210.04 310.133 209.912 309.605 209.912C309.061 209.912 308.597 210.04 308.181 210.296C307.765 210.552 307.461 210.92 307.237 211.368C307.013 211.832 306.901 212.344 306.901 212.92C306.901 213.496 307.013 214.024 307.237 214.472C307.461 214.936 307.765 215.288 308.181 215.544C308.597 215.8 309.061 215.928 309.605 215.928C310.133 215.928 310.597 215.8 311.013 215.544ZM315.928 208.84V207.928C315.928 207.208 316.088 206.68 316.424 206.328C316.76 205.976 317.304 205.8 318.056 205.8H319.56V207H318.136C317.816 207 317.576 207.08 317.448 207.208C317.304 207.352 317.24 207.576 317.24 207.896V208.84H319.544V210.04H317.24V217H315.928V210.04H314.456V208.84H315.928ZM331.386 209.24C331.978 209.576 332.442 210.056 332.778 210.68C333.114 211.32 333.29 212.056 333.29 212.92C333.29 213.752 333.114 214.472 332.778 215.096C332.442 215.736 331.978 216.216 331.386 216.568C330.778 216.92 330.106 217.096 329.37 217.096C328.698 217.096 328.138 216.984 327.674 216.744C327.194 216.504 326.826 216.168 326.57 215.752V220.2H325.258V208.84H326.394L326.57 210.152C327.242 209.224 328.186 208.744 329.37 208.744C330.122 208.744 330.794 208.92 331.386 209.24ZM331.194 215.096C331.69 214.536 331.946 213.816 331.946 212.92C331.946 212.04 331.69 211.32 331.194 210.76C330.698 210.2 330.042 209.912 329.242 209.912C328.714 209.912 328.25 210.04 327.834 210.296C327.418 210.552 327.114 210.904 326.89 211.352C326.666 211.8 326.554 212.312 326.554 212.888C326.554 213.48 326.666 214.008 326.89 214.472C327.114 214.936 327.418 215.288 327.834 215.544C328.25 215.8 328.714 215.928 329.242 215.928C330.042 215.928 330.698 215.656 331.194 215.096ZM342.742 215.8V217H342.022C341.494 217 341.126 216.904 340.902 216.68C340.678 216.472 340.55 216.152 340.55 215.736C339.91 216.648 338.998 217.096 337.814 217.096C336.902 217.096 336.166 216.888 335.622 216.456C335.078 216.04 334.806 215.448 334.806 214.712C334.806 213.896 335.078 213.272 335.638 212.824C336.198 212.392 337.014 212.168 338.086 212.168H340.486V211.608C340.486 211.08 340.294 210.664 339.942 210.36C339.59 210.072 339.094 209.912 338.454 209.912C337.878 209.912 337.414 210.04 337.046 210.296C336.678 210.552 336.454 210.872 336.374 211.288H335.062C335.158 210.488 335.51 209.864 336.118 209.416C336.726 208.968 337.526 208.744 338.518 208.744C339.558 208.744 340.358 209 340.934 209.512C341.51 210.024 341.798 210.744 341.798 211.688V215.208C341.798 215.608 341.974 215.8 342.342 215.8H342.742ZM340.486 213.272H337.958C336.742 213.272 336.134 213.736 336.134 214.632C336.134 215.048 336.294 215.368 336.614 215.608C336.934 215.864 337.366 215.976 337.91 215.976C338.71 215.976 339.334 215.768 339.798 215.352C340.246 214.936 340.486 214.376 340.486 213.672V213.272ZM344.412 208.84L346.924 215.496L349.356 208.84H350.748L346.988 218.376C346.796 218.872 346.62 219.24 346.476 219.48C346.316 219.736 346.14 219.912 345.916 220.024C345.692 220.152 345.388 220.2 345.02 220.2H343.452V219H344.62C344.876 219 345.068 218.984 345.196 218.92C345.324 218.872 345.42 218.792 345.5 218.664C345.58 218.536 345.676 218.328 345.804 218.04L346.22 217.064L343.02 208.84H344.412ZM363.375 209.608C363.951 210.184 364.239 211.08 364.239 212.296V217H362.927V212.376C362.927 211.592 362.751 210.984 362.415 210.568C362.079 210.152 361.599 209.944 360.991 209.944C360.303 209.944 359.759 210.184 359.375 210.664C358.991 211.144 358.799 211.8 358.799 212.632V217H357.487V212.376C357.487 211.592 357.311 210.984 356.975 210.568C356.623 210.152 356.143 209.944 355.519 209.944C354.847 209.944 354.319 210.2 353.935 210.712C353.551 211.224 353.359 211.88 353.359 212.696V217H352.047V208.84H353.183L353.359 209.96C353.935 209.16 354.735 208.744 355.743 208.744C356.319 208.744 356.847 208.888 357.295 209.144C357.743 209.4 358.095 209.784 358.319 210.296C358.895 209.272 359.839 208.744 361.151 208.744C362.063 208.744 362.799 209.032 363.375 209.608ZM366.434 210.728C366.754 210.104 367.218 209.624 367.81 209.272C368.386 208.92 369.058 208.744 369.826 208.744C370.562 208.744 371.234 208.904 371.81 209.208C372.386 209.528 372.834 209.976 373.17 210.552C373.49 211.144 373.666 211.832 373.698 212.616C373.698 212.744 373.682 212.92 373.666 213.176H367.33V213.288C367.346 214.088 367.586 214.728 368.066 215.208C368.53 215.688 369.138 215.928 369.906 215.928C370.482 215.928 370.978 215.784 371.394 215.496C371.81 215.208 372.082 214.792 372.226 214.264H373.554C373.394 215.096 372.994 215.784 372.354 216.312C371.714 216.84 370.93 217.096 370.002 217.096C369.186 217.096 368.482 216.936 367.874 216.584C367.266 216.232 366.786 215.752 366.45 215.112C366.114 214.472 365.954 213.752 365.954 212.92C365.954 212.088 366.114 211.368 366.434 210.728ZM372.338 212.088C372.274 211.4 372.002 210.856 371.554 210.472C371.106 210.088 370.53 209.896 369.842 209.896C369.218 209.896 368.674 210.104 368.21 210.504C367.73 210.92 367.474 211.448 367.41 212.088H372.338ZM381.899 209.64C382.507 210.248 382.811 211.176 382.811 212.456V217H381.499V212.536C381.499 211.704 381.307 211.064 380.923 210.616C380.539 210.168 379.995 209.944 379.291 209.944C378.523 209.944 377.915 210.216 377.483 210.744C377.035 211.288 376.827 212.008 376.827 212.92V217H375.515V208.84H376.651L376.827 209.944C377.435 209.144 378.331 208.744 379.515 208.744C380.507 208.744 381.291 209.048 381.899 209.64ZM385.348 210.04H383.876V208.84H385.348V206.552H386.66V208.84H388.724V210.04H386.66V214.856C386.66 215.208 386.724 215.448 386.852 215.592C386.98 215.736 387.22 215.8 387.556 215.8H388.98V217H387.476C386.708 217 386.148 216.84 385.828 216.488C385.508 216.152 385.348 215.608 385.348 214.872V210.04Z" fill="black"/>
<defs>
<filter id="filter0_d_191_5806" x="0" y="0" width="642" height="643" filterUnits="userSpaceOnUse" color-interpolation-filters="sRGB">
<feFlood flood-opacity="0" result="BackgroundImageFix"/>
<feColorMatrix in="SourceAlpha" type="matrix" values="0 0 0 0 0 0 0 0 0 0 0 0 0 0 0 0 0 0 127 0" result="hardAlpha"/>
<feMorphology radius="1" operator="dilate" in="SourceAlpha" result="effect1_dropShadow_191_5806"/>
<feOffset/>
<feGaussianBlur stdDeviation="6"/>
<feComposite in2="hardAlpha" operator="out"/>
<feColorMatrix type="matrix" values="0 0 0 0 0.445833 0 0 0 0 0.445833 0 0 0 0 0.445833 0 0 0 0.25 0"/>
<feBlend mode="normal" in2="BackgroundImageFix" result="effect1_dropShadow_191_5806"/>
<feBlend mode="normal" in="SourceGraphic" in2="effect1_dropShadow_191_5806" result="shape"/>
</filter>
<filter id="filter1_i_191_5806" x="113" y="483" width="420" height="57" filterUnits="userSpaceOnUse" color-interpolation-filters="sRGB">
<feFlood flood-opacity="0" result="BackgroundImageFix"/>
<feBlend mode="normal" in="SourceGraphic" in2="BackgroundImageFix" result="shape"/>
<feColorMatrix in="SourceAlpha" type="matrix" values="0 0 0 0 0 0 0 0 0 0 0 0 0 0 0 0 0 0 127 0" result="hardAlpha"/>
<feMorphology radius="2" operator="erode" in="SourceAlpha" result="effect1_innerShadow_191_5806"/>
<feOffset dx="4" dy="4"/>
<feGaussianBlur stdDeviation="5.5"/>
<feComposite in2="hardAlpha" operator="arithmetic" k2="-1" k3="1"/>
<feColorMatrix type="matrix" values="0 0 0 0 1 0 0 0 0 0.983333 0 0 0 0 0.983333 0 0 0 0.06 0"/>
<feBlend mode="normal" in2="shape" result="effect1_innerShadow_191_5806"/>
</filter>
</defs>
</svg>
