<svg width="108" height="108" viewBox="0 0 108 108" fill="none" xmlns="http://www.w3.org/2000/svg">
<path d="M4.32 0H0V4.32H4.32V0Z" fill="black"/>
<path d="M8.64 0H4.32V4.32H8.64V0Z" fill="black"/>
<path d="M12.96 0H8.64V4.32H12.96V0Z" fill="black"/>
<path d="M17.28 0H12.96V4.32H17.28V0Z" fill="black"/>
<path d="M21.6 0H17.28V4.32H21.6V0Z" fill="black"/>
<path d="M25.92 0H21.6V4.32H25.92V0Z" fill="black"/>
<path d="M30.24 0H25.92V4.32H30.24V0Z" fill="black"/>
<path d="M38.88 0H34.56V4.32H38.88V0Z" fill="black"/>
<path d="M56.16 0H51.84V4.32H56.16V0Z" fill="black"/>
<path d="M64.8 0H60.48V4.32H64.8V0Z" fill="black"/>
<path d="M73.44 0H69.12V4.32H73.44V0Z" fill="black"/>
<path d="M82.08 0H77.76V4.32H82.08V0Z" fill="black"/>
<path d="M86.4 0H82.08V4.32H86.4V0Z" fill="black"/>
<path d="M90.72 0H86.4V4.32H90.72V0Z" fill="black"/>
<path d="M95.04 0H90.72V4.32H95.04V0Z" fill="black"/>
<path d="M99.36 0H95.04V4.32H99.36V0Z" fill="black"/>
<path d="M103.68 0H99.36V4.32H103.68V0Z" fill="black"/>
<path d="M108 0H103.68V4.32H108V0Z" fill="black"/>
<path d="M4.32 4.32H0V8.64H4.32V4.32Z" fill="black"/>
<path d="M30.24 4.32H25.92L25.92 8.64H30.24V4.32Z" fill="black"/>
<path d="M43.2 4.32H38.88V8.64H43.2V4.32Z" fill="black"/>
<path d="M69.12 4.32H64.8L64.8 8.64H69.12V4.32Z" fill="black"/>
<path d="M73.44 4.32H69.12V8.64H73.44V4.32Z" fill="black"/>
<path d="M82.08 4.32H77.76V8.64H82.08V4.32Z" fill="black"/>
<path d="M108 4.32H103.68V8.64H108V4.32Z" fill="black"/>
<path d="M4.32 8.64H0V12.96H4.32V8.64Z" fill="black"/>
<path d="M12.96 8.64H8.64V12.96H12.96V8.64Z" fill="black"/>
<path d="M17.28 8.64H12.96V12.96H17.28V8.64Z" fill="black"/>
<path d="M21.6 8.64H17.28V12.96H21.6V8.64Z" fill="black"/>
<path d="M30.24 8.64H25.92V12.96H30.24V8.64Z" fill="black"/>
<path d="M43.2 8.64H38.88V12.96H43.2V8.64Z" fill="black"/>
<path d="M47.52 8.64H43.2V12.96H47.52V8.64Z" fill="black"/>
<path d="M51.84 8.64H47.52V12.96H51.84V8.64Z" fill="black"/>
<path d="M82.08 8.64H77.76V12.96H82.08V8.64Z" fill="black"/>
<path d="M90.72 8.64H86.4V12.96H90.72V8.64Z" fill="black"/>
<path d="M95.04 8.64H90.72V12.96H95.04V8.64Z" fill="black"/>
<path d="M99.36 8.64H95.04V12.96H99.36V8.64Z" fill="black"/>
<path d="M108 8.64H103.68V12.96H108V8.64Z" fill="black"/>
<path d="M4.32 12.96H0V17.28H4.32V12.96Z" fill="black"/>
<path d="M12.96 12.96H8.64V17.28H12.96V12.96Z" fill="black"/>
<path d="M17.28 12.96H12.96V17.28H17.28V12.96Z" fill="black"/>
<path d="M21.6 12.96H17.28V17.28H21.6V12.96Z" fill="black"/>
<path d="M30.24 12.96H25.92V17.28H30.24V12.96Z" fill="black"/>
<path d="M38.88 12.96H34.56V17.28H38.88V12.96Z" fill="black"/>
<path d="M47.52 12.96H43.2V17.28H47.52V12.96Z" fill="black"/>
<path d="M56.16 12.96H51.84V17.28H56.16V12.96Z" fill="black"/>
<path d="M64.8 12.96H60.48V17.28H64.8V12.96Z" fill="black"/>
<path d="M73.44 12.96H69.12V17.28H73.44V12.96Z" fill="black"/>
<path d="M82.08 12.96H77.76V17.28H82.08V12.96Z" fill="black"/>
<path d="M90.72 12.96H86.4V17.28H90.72V12.96Z" fill="black"/>
<path d="M95.04 12.96H90.72V17.28H95.04V12.96Z" fill="black"/>
<path d="M99.36 12.96H95.04V17.28H99.36V12.96Z" fill="black"/>
<path d="M108 12.96H103.68V17.28H108V12.96Z" fill="black"/>
<path d="M4.32 17.28H0V21.6H4.32V17.28Z" fill="black"/>
<path d="M12.96 17.28H8.64V21.6H12.96V17.28Z" fill="black"/>
<path d="M17.28 17.28H12.96V21.6H17.28V17.28Z" fill="black"/>
<path d="M21.6 17.28H17.28V21.6H21.6V17.28Z" fill="black"/>
<path d="M30.24 17.28H25.92V21.6H30.24V17.28Z" fill="black"/>
<path d="M43.2 17.28H38.88V21.6H43.2V17.28Z" fill="black"/>
<path d="M47.52 17.28H43.2V21.6H47.52V17.28Z" fill="black"/>
<path d="M56.16 17.28H51.84V21.6H56.16V17.28Z" fill="black"/>
<path d="M60.48 17.28H56.16V21.6H60.48V17.28Z" fill="black"/>
<path d="M73.44 17.28H69.12V21.6H73.44V17.28Z" fill="black"/>
<path d="M82.08 17.28H77.76V21.6H82.08V17.28Z" fill="black"/>
<path d="M90.72 17.28H86.4V21.6H90.72V17.28Z" fill="black"/>
<path d="M95.04 17.28H90.72V21.6H95.04V17.28Z" fill="black"/>
<path d="M99.36 17.28H95.04V21.6H99.36V17.28Z" fill="black"/>
<path d="M108 17.28H103.68V21.6H108V17.28Z" fill="black"/>
<path d="M4.32 21.6H0V25.92H4.32V21.6Z" fill="black"/>
<path d="M30.24 21.6H25.92V25.92H30.24V21.6Z" fill="black"/>
<path d="M38.88 21.6H34.56V25.92H38.88V21.6Z" fill="black"/>
<path d="M43.2 21.6H38.88V25.92H43.2V21.6Z" fill="black"/>
<path d="M51.84 21.6H47.52V25.92H51.84V21.6Z" fill="black"/>
<path d="M56.16 21.6H51.84V25.92H56.16V21.6Z" fill="black"/>
<path d="M60.48 21.6H56.16V25.92H60.48V21.6Z" fill="black"/>
<path d="M69.12 21.6H64.8V25.92H69.12V21.6Z" fill="black"/>
<path d="M82.08 21.6H77.76V25.92H82.08V21.6Z" fill="black"/>
<path d="M108 21.6H103.68V25.92H108V21.6Z" fill="black"/>
<path d="M4.32 25.92H0V30.24H4.32V25.92Z" fill="black"/>
<path d="M8.64 25.92L4.32 25.92V30.24H8.64V25.92Z" fill="black"/>
<path d="M12.96 25.92H8.64V30.24H12.96V25.92Z" fill="black"/>
<path d="M17.28 25.92H12.96V30.24H17.28V25.92Z" fill="black"/>
<path d="M21.6 25.92H17.28V30.24H21.6V25.92Z" fill="black"/>
<path d="M25.92 25.92L21.6 25.92V30.24H25.92L25.92 25.92Z" fill="black"/>
<path d="M30.24 25.92H25.92L25.92 30.24H30.24V25.92Z" fill="black"/>
<path d="M38.88 25.92H34.56V30.24H38.88V25.92Z" fill="black"/>
<path d="M47.52 25.92H43.2V30.24H47.52V25.92Z" fill="black"/>
<path d="M56.16 25.92H51.84V30.24H56.16V25.92Z" fill="black"/>
<path d="M64.8 25.92H60.48V30.24H64.8L64.8 25.92Z" fill="black"/>
<path d="M73.44 25.92L69.12 25.92V30.24H73.44V25.92Z" fill="black"/>
<path d="M82.08 25.92H77.76V30.24H82.08V25.92Z" fill="black"/>
<path d="M86.4 25.92L82.08 25.92V30.24H86.4V25.92Z" fill="black"/>
<path d="M90.72 25.92H86.4V30.24H90.72V25.92Z" fill="black"/>
<path d="M95.04 25.92H90.72V30.24H95.04V25.92Z" fill="black"/>
<path d="M99.36 25.92H95.04V30.24H99.36V25.92Z" fill="black"/>
<path d="M103.68 25.92L99.36 25.92V30.24H103.68V25.92Z" fill="black"/>
<path d="M108 25.92H103.68V30.24H108V25.92Z" fill="black"/>
<path d="M43.2 30.24H38.88V34.56H43.2V30.24Z" fill="black"/>
<path d="M47.52 30.24H43.2V34.56H47.52V30.24Z" fill="black"/>
<path d="M69.12 30.24H64.8L64.8 34.56H69.12V30.24Z" fill="black"/>
<path d="M25.92 34.56H21.6V38.88H25.92V34.56Z" fill="black"/>
<path d="M30.24 34.56H25.92V38.88H30.24V34.56Z" fill="black"/>
<path d="M38.88 34.56H34.56V38.88H38.88V34.56Z" fill="black"/>
<path d="M43.2 34.56H38.88V38.88H43.2V34.56Z" fill="black"/>
<path d="M56.16 34.56H51.84V38.88H56.16V34.56Z" fill="black"/>
<path d="M60.48 34.56H56.16V38.88H60.48V34.56Z" fill="black"/>
<path d="M64.8 34.56H60.48V38.88H64.8L64.8 34.56Z" fill="black"/>
<path d="M73.44 34.56H69.12V38.88H73.44V34.56Z" fill="black"/>
<path d="M77.76 34.56H73.44V38.88H77.76V34.56Z" fill="black"/>
<path d="M86.4 34.56H82.08V38.88H86.4V34.56Z" fill="black"/>
<path d="M95.04 34.56H90.72V38.88H95.04V34.56Z" fill="black"/>
<path d="M108 34.56H103.68V38.88H108V34.56Z" fill="black"/>
<path d="M21.6 38.88H17.28V43.2H21.6V38.88Z" fill="black"/>
<path d="M25.92 38.88H21.6V43.2H25.92V38.88Z" fill="black"/>
<path d="M43.2 38.88H38.88V43.2H43.2V38.88Z" fill="black"/>
<path d="M47.52 38.88H43.2V43.2H47.52V38.88Z" fill="black"/>
<path d="M60.48 38.88H56.16V43.2H60.48V38.88Z" fill="black"/>
<path d="M64.8 38.88H60.48V43.2H64.8V38.88Z" fill="black"/>
<path d="M69.12 38.88H64.8V43.2H69.12V38.88Z" fill="black"/>
<path d="M77.76 38.88H73.44V43.2H77.76V38.88Z" fill="black"/>
<path d="M82.08 38.88H77.76V43.2H82.08V38.88Z" fill="black"/>
<path d="M86.4 38.88H82.08V43.2H86.4V38.88Z" fill="black"/>
<path d="M103.68 38.88H99.36V43.2H103.68V38.88Z" fill="black"/>
<path d="M4.32 43.2H0V47.52H4.32V43.2Z" fill="black"/>
<path d="M8.64 43.2H4.32V47.52H8.64V43.2Z" fill="black"/>
<path d="M21.6 43.2H17.28V47.52H21.6V43.2Z" fill="black"/>
<path d="M25.92 43.2H21.6V47.52H25.92V43.2Z" fill="black"/>
<path d="M30.24 43.2H25.92V47.52H30.24V43.2Z" fill="black"/>
<path d="M43.2 43.2H38.88V47.52H43.2V43.2Z" fill="black"/>
<path d="M47.52 43.2H43.2V47.52H47.52V43.2Z" fill="black"/>
<path d="M51.84 43.2H47.52V47.52H51.84V43.2Z" fill="black"/>
<path d="M60.48 43.2H56.16V47.52H60.48V43.2Z" fill="black"/>
<path d="M73.44 43.2H69.12V47.52H73.44V43.2Z" fill="black"/>
<path d="M82.08 43.2H77.76V47.52H82.08V43.2Z" fill="black"/>
<path d="M95.04 43.2H90.72V47.52H95.04V43.2Z" fill="black"/>
<path d="M99.36 43.2H95.04V47.52H99.36V43.2Z" fill="black"/>
<path d="M103.68 43.2H99.36V47.52H103.68V43.2Z" fill="black"/>
<path d="M8.64 47.52H4.32V51.84H8.64V47.52Z" fill="black"/>
<path d="M12.96 47.52H8.64V51.84H12.96V47.52Z" fill="black"/>
<path d="M21.6 47.52H17.28V51.84H21.6V47.52Z" fill="black"/>
<path d="M34.56 47.52H30.24V51.84H34.56V47.52Z" fill="black"/>
<path d="M38.88 47.52H34.56V51.84H38.88V47.52Z" fill="black"/>
<path d="M47.52 47.52H43.2V51.84H47.52V47.52Z" fill="black"/>
<path d="M60.48 47.52H56.16V51.84H60.48V47.52Z" fill="black"/>
<path d="M73.44 47.52H69.12V51.84H73.44V47.52Z" fill="black"/>
<path d="M86.4 47.52H82.08V51.84H86.4V47.52Z" fill="black"/>
<path d="M90.72 47.52H86.4V51.84H90.72V47.52Z" fill="black"/>
<path d="M95.04 47.52H90.72V51.84H95.04V47.52Z" fill="black"/>
<path d="M99.36 47.52H95.04V51.84H99.36V47.52Z" fill="black"/>
<path d="M103.68 47.52H99.36V51.84H103.68V47.52Z" fill="black"/>
<path d="M108 47.52H103.68V51.84H108V47.52Z" fill="black"/>
<path d="M12.96 51.84H8.64V56.16H12.96V51.84Z" fill="black"/>
<path d="M17.28 51.84H12.96V56.16H17.28V51.84Z" fill="black"/>
<path d="M25.92 51.84H21.6V56.16H25.92V51.84Z" fill="black"/>
<path d="M30.24 51.84H25.92V56.16H30.24V51.84Z" fill="black"/>
<path d="M38.88 51.84H34.56V56.16H38.88V51.84Z" fill="black"/>
<path d="M47.52 51.84H43.2V56.16H47.52V51.84Z" fill="black"/>
<path d="M51.84 51.84H47.52V56.16H51.84V51.84Z" fill="black"/>
<path d="M56.16 51.84H51.84V56.16H56.16V51.84Z" fill="black"/>
<path d="M60.48 51.84H56.16V56.16H60.48V51.84Z" fill="black"/>
<path d="M64.8 51.84H60.48V56.16H64.8V51.84Z" fill="black"/>
<path d="M69.12 51.84H64.8V56.16H69.12V51.84Z" fill="black"/>
<path d="M90.72 51.84H86.4V56.16H90.72V51.84Z" fill="black"/>
<path d="M95.04 51.84H90.72V56.16H95.04V51.84Z" fill="black"/>
<path d="M99.36 51.84H95.04V56.16H99.36V51.84Z" fill="black"/>
<path d="M103.68 51.84H99.36V56.16H103.68V51.84Z" fill="black"/>
<path d="M4.32 56.16H0V60.48H4.32V56.16Z" fill="black"/>
<path d="M21.6 56.16H17.28V60.48H21.6V56.16Z" fill="black"/>
<path d="M25.92 56.16H21.6V60.48H25.92V56.16Z" fill="black"/>
<path d="M38.88 56.16H34.56V60.48H38.88V56.16Z" fill="black"/>
<path d="M47.52 56.16H43.2V60.48H47.52V56.16Z" fill="black"/>
<path d="M51.84 56.16H47.52V60.48H51.84V56.16Z" fill="black"/>
<path d="M56.16 56.16H51.84V60.48H56.16V56.16Z" fill="black"/>
<path d="M69.12 56.16H64.8L64.8 60.48H69.12V56.16Z" fill="black"/>
<path d="M73.44 56.16H69.12V60.48H73.44V56.16Z" fill="black"/>
<path d="M82.08 56.16H77.76V60.48H82.08V56.16Z" fill="black"/>
<path d="M86.4 56.16H82.08V60.48H86.4V56.16Z" fill="black"/>
<path d="M95.04 56.16H90.72V60.48H95.04V56.16Z" fill="black"/>
<path d="M99.36 56.16H95.04V60.48H99.36V56.16Z" fill="black"/>
<path d="M103.68 56.16H99.36V60.48H103.68V56.16Z" fill="black"/>
<path d="M4.32 60.48H0V64.8H4.32V60.48Z" fill="black"/>
<path d="M8.64 60.48H4.32V64.8H8.64V60.48Z" fill="black"/>
<path d="M12.96 60.48H8.64V64.8H12.96V60.48Z" fill="black"/>
<path d="M17.28 60.48H12.96V64.8H17.28V60.48Z" fill="black"/>
<path d="M25.92 60.48H21.6V64.8H25.92V60.48Z" fill="black"/>
<path d="M30.24 60.48H25.92V64.8H30.24V60.48Z" fill="black"/>
<path d="M38.88 60.48H34.56V64.8H38.88V60.48Z" fill="black"/>
<path d="M51.84 60.48H47.52V64.8H51.84V60.48Z" fill="black"/>
<path d="M64.8 60.48H60.48V64.8H64.8L64.8 60.48Z" fill="black"/>
<path d="M69.12 60.48H64.8L64.8 64.8H69.12V60.48Z" fill="black"/>
<path d="M73.44 60.48H69.12V64.8H73.44V60.48Z" fill="black"/>
<path d="M77.76 60.48H73.44V64.8H77.76V60.48Z" fill="black"/>
<path d="M90.72 60.48H86.4V64.8H90.72V60.48Z" fill="black"/>
<path d="M99.36 60.48H95.04V64.8H99.36V60.48Z" fill="black"/>
<path d="M108 60.48H103.68V64.8H108V60.48Z" fill="black"/>
<path d="M4.32 64.8H0V69.12H4.32V64.8Z" fill="black"/>
<path d="M8.64 64.8H4.32V69.12H8.64V64.8Z" fill="black"/>
<path d="M17.28 64.8H12.96V69.12H17.28V64.8Z" fill="black"/>
<path d="M21.6 64.8H17.28V69.12H21.6V64.8Z" fill="black"/>
<path d="M25.92 64.8H21.6V69.12H25.92V64.8Z" fill="black"/>
<path d="M51.84 64.8H47.52V69.12H51.84V64.8Z" fill="black"/>
<path d="M82.08 64.8L77.76 64.8V69.12H82.08V64.8Z" fill="black"/>
<path d="M108 64.8H103.68V69.12H108V64.8Z" fill="black"/>
<path d="M12.96 69.12H8.64V73.44H12.96V69.12Z" fill="black"/>
<path d="M21.6 69.12H17.28V73.44H21.6V69.12Z" fill="black"/>
<path d="M25.92 69.12H21.6V73.44H25.92V69.12Z" fill="black"/>
<path d="M30.24 69.12H25.92V73.44H30.24V69.12Z" fill="black"/>
<path d="M34.56 69.12H30.24V73.44H34.56V69.12Z" fill="black"/>
<path d="M43.2 69.12H38.88V73.44H43.2V69.12Z" fill="black"/>
<path d="M56.16 69.12H51.84V73.44H56.16V69.12Z" fill="black"/>
<path d="M60.48 69.12H56.16V73.44H60.48V69.12Z" fill="black"/>
<path d="M73.44 69.12H69.12V73.44H73.44V69.12Z" fill="black"/>
<path d="M77.76 69.12H73.44V73.44H77.76V69.12Z" fill="black"/>
<path d="M82.08 69.12H77.76V73.44H82.08V69.12Z" fill="black"/>
<path d="M86.4 69.12H82.08V73.44H86.4V69.12Z" fill="black"/>
<path d="M90.72 69.12H86.4V73.44H90.72V69.12Z" fill="black"/>
<path d="M95.04 69.12H90.72V73.44H95.04V69.12Z" fill="black"/>
<path d="M103.68 69.12H99.36V73.44H103.68V69.12Z" fill="black"/>
<path d="M108 69.12H103.68V73.44H108V69.12Z" fill="black"/>
<path d="M38.88 73.44H34.56V77.76H38.88V73.44Z" fill="black"/>
<path d="M43.2 73.44H38.88V77.76H43.2V73.44Z" fill="black"/>
<path d="M47.52 73.44H43.2V77.76H47.52V73.44Z" fill="black"/>
<path d="M56.16 73.44H51.84V77.76H56.16V73.44Z" fill="black"/>
<path d="M64.8 73.44H60.48V77.76H64.8V73.44Z" fill="black"/>
<path d="M69.12 73.44H64.8V77.76H69.12V73.44Z" fill="black"/>
<path d="M73.44 73.44H69.12V77.76H73.44V73.44Z" fill="black"/>
<path d="M90.72 73.44H86.4V77.76H90.72V73.44Z" fill="black"/>
<path d="M103.68 73.44H99.36V77.76H103.68V73.44Z" fill="black"/>
<path d="M108 73.44H103.68V77.76H108V73.44Z" fill="black"/>
<path d="M4.32 77.76H0V82.08H4.32V77.76Z" fill="black"/>
<path d="M8.64 77.76H4.32V82.08H8.64V77.76Z" fill="black"/>
<path d="M12.96 77.76H8.64V82.08H12.96V77.76Z" fill="black"/>
<path d="M17.28 77.76H12.96V82.08H17.28V77.76Z" fill="black"/>
<path d="M21.6 77.76H17.28V82.08H21.6V77.76Z" fill="black"/>
<path d="M25.92 77.76H21.6V82.08H25.92V77.76Z" fill="black"/>
<path d="M30.24 77.76H25.92V82.08H30.24V77.76Z" fill="black"/>
<path d="M43.2 77.76H38.88V82.08H43.2V77.76Z" fill="black"/>
<path d="M47.52 77.76H43.2V82.08H47.52V77.76Z" fill="black"/>
<path d="M56.16 77.76H51.84V82.08H56.16V77.76Z" fill="black"/>
<path d="M60.48 77.76H56.16V82.08H60.48V77.76Z" fill="black"/>
<path d="M64.8 77.76H60.48V82.08H64.8V77.76Z" fill="black"/>
<path d="M69.12 77.76H64.8V82.08H69.12V77.76Z" fill="black"/>
<path d="M73.44 77.76H69.12V82.08H73.44V77.76Z" fill="black"/>
<path d="M82.08 77.76H77.76V82.08H82.08V77.76Z" fill="black"/>
<path d="M90.72 77.76H86.4V82.08H90.72V77.76Z" fill="black"/>
<path d="M108 77.76H103.68V82.08H108V77.76Z" fill="black"/>
<path d="M4.32 82.08H0V86.4H4.32V82.08Z" fill="black"/>
<path d="M30.24 82.08H25.92L25.92 86.4H30.24V82.08Z" fill="black"/>
<path d="M38.88 82.08H34.56V86.4H38.88V82.08Z" fill="black"/>
<path d="M47.52 82.08H43.2V86.4H47.52V82.08Z" fill="black"/>
<path d="M60.48 82.08H56.16V86.4H60.48V82.08Z" fill="black"/>
<path d="M64.8 82.08H60.48V86.4H64.8V82.08Z" fill="black"/>
<path d="M69.12 82.08H64.8V86.4H69.12V82.08Z" fill="black"/>
<path d="M73.44 82.08H69.12V86.4H73.44V82.08Z" fill="black"/>
<path d="M90.72 82.08H86.4V86.4H90.72V82.08Z" fill="black"/>
<path d="M95.04 82.08H90.72V86.4H95.04V82.08Z" fill="black"/>
<path d="M103.68 82.08H99.36V86.4H103.68V82.08Z" fill="black"/>
<path d="M4.32 86.4H0V90.72H4.32V86.4Z" fill="black"/>
<path d="M12.96 86.4H8.64V90.72H12.96V86.4Z" fill="black"/>
<path d="M17.28 86.4H12.96V90.72H17.28V86.4Z" fill="black"/>
<path d="M21.6 86.4H17.28V90.72H21.6V86.4Z" fill="black"/>
<path d="M30.24 86.4H25.92V90.72H30.24V86.4Z" fill="black"/>
<path d="M47.52 86.4H43.2V90.72H47.52V86.4Z" fill="black"/>
<path d="M51.84 86.4H47.52V90.72H51.84V86.4Z" fill="black"/>
<path d="M73.44 86.4H69.12V90.72H73.44V86.4Z" fill="black"/>
<path d="M77.76 86.4H73.44V90.72H77.76V86.4Z" fill="black"/>
<path d="M82.08 86.4H77.76V90.72H82.08V86.4Z" fill="black"/>
<path d="M86.4 86.4H82.08V90.72H86.4V86.4Z" fill="black"/>
<path d="M90.72 86.4H86.4V90.72H90.72V86.4Z" fill="black"/>
<path d="M95.04 86.4H90.72V90.72H95.04V86.4Z" fill="black"/>
<path d="M99.36 86.4H95.04V90.72H99.36V86.4Z" fill="black"/>
<path d="M103.68 86.4H99.36V90.72H103.68V86.4Z" fill="black"/>
<path d="M108 86.4H103.68V90.72H108V86.4Z" fill="black"/>
<path d="M4.32 90.72H0V95.04H4.32V90.72Z" fill="black"/>
<path d="M12.96 90.72H8.64V95.04H12.96V90.72Z" fill="black"/>
<path d="M17.28 90.72H12.96V95.04H17.28V90.72Z" fill="black"/>
<path d="M21.6 90.72H17.28V95.04H21.6V90.72Z" fill="black"/>
<path d="M30.24 90.72H25.92V95.04H30.24V90.72Z" fill="black"/>
<path d="M82.08 90.72H77.76V95.04H82.08V90.72Z" fill="black"/>
<path d="M90.72 90.72H86.4V95.04H90.72V90.72Z" fill="black"/>
<path d="M103.68 90.72H99.36V95.04H103.68V90.72Z" fill="black"/>
<path d="M4.32 95.04H0V99.36H4.32V95.04Z" fill="black"/>
<path d="M12.96 95.04H8.64V99.36H12.96V95.04Z" fill="black"/>
<path d="M17.28 95.04H12.96V99.36H17.28V95.04Z" fill="black"/>
<path d="M21.6 95.04H17.28V99.36H21.6V95.04Z" fill="black"/>
<path d="M30.24 95.04H25.92V99.36H30.24V95.04Z" fill="black"/>
<path d="M43.2 95.04H38.88V99.36H43.2V95.04Z" fill="black"/>
<path d="M64.8 95.04H60.48V99.36H64.8V95.04Z" fill="black"/>
<path d="M73.44 95.04H69.12V99.36H73.44V95.04Z" fill="black"/>
<path d="M82.08 95.04H77.76V99.36H82.08V95.04Z" fill="black"/>
<path d="M86.4 95.04H82.08V99.36H86.4V95.04Z" fill="black"/>
<path d="M4.32 99.36H0V103.68H4.32V99.36Z" fill="black"/>
<path d="M30.24 99.36H25.92V103.68H30.24V99.36Z" fill="black"/>
<path d="M43.2 99.36H38.88V103.68H43.2V99.36Z" fill="black"/>
<path d="M47.52 99.36H43.2V103.68H47.52V99.36Z" fill="black"/>
<path d="M51.84 99.36H47.52V103.68H51.84V99.36Z" fill="black"/>
<path d="M60.48 99.36H56.16V103.68H60.48V99.36Z" fill="black"/>
<path d="M73.44 99.36H69.12V103.68H73.44V99.36Z" fill="black"/>
<path d="M77.76 99.36H73.44V103.68H77.76V99.36Z" fill="black"/>
<path d="M82.08 99.36H77.76V103.68H82.08V99.36Z" fill="black"/>
<path d="M108 99.36H103.68V103.68H108V99.36Z" fill="black"/>
<path d="M4.32 103.68H0V108H4.32V103.68Z" fill="black"/>
<path d="M8.64 103.68H4.32V108H8.64V103.68Z" fill="black"/>
<path d="M12.96 103.68H8.64V108H12.96V103.68Z" fill="black"/>
<path d="M17.28 103.68H12.96V108H17.28V103.68Z" fill="black"/>
<path d="M21.6 103.68H17.28V108H21.6V103.68Z" fill="black"/>
<path d="M25.92 103.68H21.6V108H25.92L25.92 103.68Z" fill="black"/>
<path d="M30.24 103.68H25.92L25.92 108H30.24V103.68Z" fill="black"/>
<path d="M43.2 103.68H38.88V108H43.2V103.68Z" fill="black"/>
<path d="M47.52 103.68H43.2V108H47.52V103.68Z" fill="black"/>
<path d="M56.16 103.68H51.84V108H56.16V103.68Z" fill="black"/>
<path d="M60.48 103.68H56.16V108H60.48V103.68Z" fill="black"/>
<path d="M64.8 103.68H60.48V108H64.8V103.68Z" fill="black"/>
<path d="M69.12 103.68H64.8V108H69.12V103.68Z" fill="black"/>
<path d="M73.44 103.68H69.12V108H73.44V103.68Z" fill="black"/>
<path d="M77.76 103.68H73.44V108H77.76V103.68Z" fill="black"/>
<path d="M82.08 103.68H77.76V108H82.08V103.68Z" fill="black"/>
<path d="M90.72 103.68H86.4V108H90.72V103.68Z" fill="black"/>
<path d="M99.36 103.68H95.04V108H99.36V103.68Z" fill="black"/>
<path d="M108 103.68H103.68V108H108V103.68Z" fill="black"/>
</svg>
